<svg xmlns="http://www.w3.org/2000/svg" width="32" height="32" viewBox="0 0 32 32">
  <g id="Active_Safety" data-name="Active Safety" transform="translate(-40 -484)">
    <circle id="BG" cx="16" cy="16" r="16" transform="translate(40 484)" fill="#dce9f2"/>
    <g id="ic-active_safety_system" data-name="ic-active safety system" transform="translate(39.476 486.574)">
      <path id="Path_84851" data-name="Path 84851" d="M25.769,6.728,24.38,6.636a11.071,11.071,0,0,1-6.2-2.414l-.536-.429a1.143,1.143,0,0,0-1.437,0l-.536.429A11.071,11.071,0,0,1,9.458,6.636l-1.389.091A1.155,1.155,0,0,0,7,7.95l.266,3.66a15.62,15.62,0,0,0,5.363,10.718L16.162,25.4a1.155,1.155,0,0,0,1.508,0l3.537-3.076A15.624,15.624,0,0,0,26.571,11.61l.274-3.664a1.151,1.151,0,0,0-1.076-1.219Z" transform="translate(-0.523 -1.193)" fill="#76c446"/>
      <path id="Path_84852" data-name="Path 84852" d="M40.848,6.728l-1.389-.091a11.071,11.071,0,0,1-6.2-2.414l-.536-.429A1.147,1.147,0,0,0,32,3.54V25.7a1.147,1.147,0,0,0,.754-.282l3.537-3.076a15.624,15.624,0,0,0,5.363-10.718l.27-3.676a1.151,1.151,0,0,0-1.076-1.219Z" transform="translate(-15.603 -1.193)" fill="#67b238"/>
      <path id="Path_84853" data-name="Path 84853" d="M29.122,21.588l.492.9.9.492-.9.492-.492.9-.492-.9-.9-.492.9-.492ZM20.358,20l.337.619.623.341L20.7,21.3l-.337.623-.341-.623-.619-.337.619-.341Zm-.7,6.351.23.421.425.234-.425.23-.23.425-.23-.425L19,27.006l.425-.234Z" transform="translate(-7.763 -11.119)" fill="#1d416f"/>
      <path id="Path_84854" data-name="Path 84854" d="M30.834,22.894a.794.794,0,1,0,.794.794A.794.794,0,0,0,30.834,22.894ZM30.421,21.7a.4.4,0,1,0,.794,0v-.4l.365-5.557a.766.766,0,0,0-.2-.58.742.742,0,0,0-.453-.222.278.278,0,0,0-.214,0,.742.742,0,0,0-.453.222.762.762,0,0,0-.2.572l.365,5.565Z" transform="translate(-14.421 -8.059)" fill="#faefde"/>
      <path id="Path_84855" data-name="Path 84855" d="M21.4,43a.4.4,0,0,0-.4.4v.794a.4.4,0,1,0,.794,0V43.4A.4.4,0,0,0,21.4,43Zm1.985,0a.4.4,0,0,0-.4.4v.794a.4.4,0,1,0,.794,0V43.4A.4.4,0,0,0,23.382,43Zm1.985,0a.4.4,0,0,0-.4.4v.794a.4.4,0,1,0,.794,0V43.4A.4.4,0,0,0,25.367,43Zm1.985,0a.4.4,0,0,0-.4.4v.794a.4.4,0,1,0,.794,0V43.4A.4.4,0,0,0,27.351,43Zm1.985,0a.4.4,0,0,0-.4.4v.794a.4.4,0,1,0,.794,0V43.4A.4.4,0,0,0,29.336,43Z" transform="translate(-8.969 -24.989)" fill="#1d416f"/>
      <path id="Path_84856" data-name="Path 84856" d="M25.559,4.86l-1.437-.1a11.46,11.46,0,0,1-6.427-2.5l-.556-.445a1.191,1.191,0,0,0-1.489,0l-.556.445a11.452,11.452,0,0,1-6.423,2.5l-1.437.1A1.191,1.191,0,0,0,6.128,6.1l.274,4.6a16.172,16.172,0,0,0,5.557,11.115L15.623,25a1.191,1.191,0,0,0,1.564,0l3.664-3.176a16.176,16.176,0,0,0,5.557-11.115l.258-4.6A1.191,1.191,0,0,0,25.559,4.86Zm.044,5.792a15.382,15.382,0,0,1-2.854,7.9v-.147a.4.4,0,0,0-.794,0V19.2a.4.4,0,0,0,.1.25,15.668,15.668,0,0,1-1.731,1.766l-3.664,3.176a.4.4,0,0,1-.52,0l-3.664-3.176a15.664,15.664,0,0,1-1.731-1.766.4.4,0,0,0,.1-.25v-.794a.4.4,0,0,0-.794,0v.147a15.374,15.374,0,0,1-2.854-7.9L6.918,6.071a.4.4,0,0,1,.369-.421l1.437-.1A12.246,12.246,0,0,0,15.6,2.887l.556-.445a.4.4,0,0,1,.5,0l.536.445a12.25,12.25,0,0,0,6.867,2.668l1.437.1a.4.4,0,0,1,.369.421Z" fill="#1d416f"/>
      <path id="Path_84857" data-name="Path 84857" d="M24.771,8.9a11.512,11.512,0,0,1-3.37-1.62l-1.02-.715a.794.794,0,0,0-.909,0l-1.02.715a11.512,11.512,0,0,1-5.835,2.056h-.258a.4.4,0,1,0,.028.794h.286a12.306,12.306,0,0,0,6.24-2.2l1.012-.715,1.02.715a12.282,12.282,0,0,0,3.6,1.731.4.4,0,0,0,.222-.762Zm2.7.453h-.234c-.3-.02-.607-.052-.905-.1a.4.4,0,1,0-.115.794c.318.048.643.083.969.1h.262a.4.4,0,0,0,.028-.794Z" transform="translate(-3.526 -2.93)" fill="#1d416f"/>
    </g>
  </g>
</svg>
