<svg xmlns="http://www.w3.org/2000/svg" width="32" height="32" viewBox="0 0 32 32">
  <g id="Active_Safety_-_Safe_Distance" data-name="Active Safety - Safe Distance" transform="translate(-40 -484)">
    <circle id="BG" cx="16" cy="16" r="16" transform="translate(40 484)" fill="#dce9f2"/>
    <g id="ic-safe_distance" data-name="ic-safe distance" transform="translate(42.429 482.862)">
      <path id="Path_84878" data-name="Path 84878" d="M48.138,20V32.177H38.811A.811.811,0,0,1,38,31.366V26.492a1.62,1.62,0,0,1,.916-1.456,1.583,1.583,0,0,1,.706-.166h1.217l.73-1.464.811-1.622A3.24,3.24,0,0,1,44.959,20q.158-.006.316,0Z" transform="translate(-21.996 -7.724)" fill="#ba68c8"/>
      <path id="Path_84879" data-name="Path 84879" d="M51.229,20V24.87H43.2l.556-.556.9-.908.811-1.622A3.24,3.24,0,0,1,48.05,20q.158-.006.316,0Z" transform="translate(-25.087 -7.724)" fill="#bbdef9"/>
      <path id="Path_84880" data-name="Path 84880" d="M48.138,46.11V47.7H38.811A.811.811,0,0,1,38,46.893V46.11Z" transform="translate(-21.996 -23.25)" fill="#d5e0f3"/>
      <path id="Path_84881" data-name="Path 84881" d="M49.917,24.469l-.406.406h3.122l.406-.406.568-.568V20.77ZM52.05,20l-.4.406-2.989,3-1.054,1.058-.406.406h.925l.406-.406,4.055-4.063L52.991,20Z" transform="translate(-27.465 -7.728)" fill="#e3f2ff"/>
      <path id="Path_84882" data-name="Path 84882" d="M48.27,44.879a2.435,2.435,0,1,0,.6,1.594A2.422,2.422,0,0,0,48.27,44.879Z" transform="translate(-25.563 -22.019)" fill="#acb7d0"/>
      <path id="Path_84883" data-name="Path 84883" d="M44.68,19a3.644,3.644,0,0,0-3.244,2.032L40.07,23.724l-.077.15h-.965A2.028,2.028,0,0,0,37,25.9v4.874A1.221,1.221,0,0,0,38.221,32h1.245a2.838,2.838,0,0,0,5.612,0h2.058a.408.408,0,0,0,.408-.408h0a.408.408,0,0,0-.408-.408H45.078a2.6,2.6,0,0,0-.243-.811h2.3a.406.406,0,0,0,.406-.406h0a.406.406,0,0,0-.406-.406H44.255a2.835,2.835,0,0,0-3.966,0H37.811V25.9a1.218,1.218,0,0,1,1.217-1.217h8.11a.406.406,0,0,0,.406-.406h0a.406.406,0,0,0-.406-.406H40.9l1.245-2.49a2.838,2.838,0,0,1,2.539-1.573h2.457a.406.406,0,0,0,.406-.406h0A.406.406,0,0,0,47.138,19ZM39.466,31.182H38.217a.407.407,0,0,1-.406-.406v-.406h1.9A2.6,2.6,0,0,0,39.466,31.182Zm1.553-1.188a2.026,2.026,0,0,1,2.47-.028c.012.008.024.02.036.028a1.914,1.914,0,0,1,.369.377,2.014,2.014,0,0,1,.365.811,2.254,2.254,0,0,1,.041.406,2.3,2.3,0,0,1-.041.41,2.028,2.028,0,0,1-3.974,0,2.3,2.3,0,0,1-.041-.41,2.254,2.254,0,0,1,.041-.406,2.014,2.014,0,0,1,.365-.811A1.916,1.916,0,0,1,41.019,29.994Z" transform="translate(-21.401 -7.134)" fill="#1d416f"/>
      <path id="Path_84884" data-name="Path 84884" d="M43.433,36.02a.408.408,0,0,0-.406.41v.811a.406.406,0,0,0,.811,0V36.43A.408.408,0,0,0,43.433,36.02Zm-2.028,0a.408.408,0,0,0-.406.41v.811a.406.406,0,0,0,.811,0V36.43A.408.408,0,0,0,41.406,36.02Zm8.11,0a.408.408,0,0,0-.406.41v.811a.406.406,0,0,0,.811,0V36.43A.408.408,0,0,0,49.516,36.02Zm-2.028,0a.408.408,0,0,0-.406.41v.811a.406.406,0,0,0,.811,0V36.43A.408.408,0,0,0,47.488,36.02Zm-2.028,0a.408.408,0,0,0-.406.41v.811a.406.406,0,0,0,.811,0V36.43A.408.408,0,0,0,45.461,36.02Zm-.811,4.874a.813.813,0,1,0,.811.811A.813.813,0,0,0,44.65,40.894Z" transform="translate(-23.779 -17.252)" fill="#1d416f"/>
      <g id="Group_162613" data-name="Group 162613" transform="translate(1 11.866)">
        <path id="Path_84885" data-name="Path 84885" d="M13.571,27.121v4.25a.811.811,0,0,1-.811.811H1V20h.811a3.272,3.272,0,0,1,.564.049.075.075,0,0,1,.028.008,3.1,3.1,0,0,1,1.135.45c.036.02.073.045.109.069h0a1.038,1.038,0,0,1,.105.081,1.279,1.279,0,0,1,.118.089,1.35,1.35,0,0,1,.114.1.108.108,0,0,0,.024.02c.036.036.073.073.105.109a1.245,1.245,0,0,1,.1.105c.032.036.065.077.1.118a.355.355,0,0,1,.032.041c.008,0,.012.012.016.016a.129.129,0,0,1,.024.028s.008.012.012.016l1.622,2.19a3.574,3.574,0,0,0,.32.377h0c.073.077.146.146.223.219a.706.706,0,0,0,.109.089.859.859,0,0,0,.1.081.31.31,0,0,0,.045.032,2.279,2.279,0,0,0,.2.142.857.857,0,0,0,.109.073.073.073,0,0,0,.028.02.739.739,0,0,0,.109.061.694.694,0,0,0,.093.053,1.518,1.518,0,0,0,.182.089l.045.024c.093.041.187.081.284.114a.031.031,0,0,0,.016.008,4.072,4.072,0,0,0,.884.211l.633.077,2.729.341A1.624,1.624,0,0,1,13.571,27.121Z" transform="translate(-1 -19.594)" fill="#ba68c8"/>
        <path id="Path_84886" data-name="Path 84886" d="M7.894,24.874H1V20h.811a3.272,3.272,0,0,1,.564.049H2.4s0,0,.008,0a3.1,3.1,0,0,1,1.135.45l.105.073h0a1.712,1.712,0,0,1,.223.17,1.35,1.35,0,0,1,.114.1.108.108,0,0,0,.024.02c.036.036.073.073.105.109a1.245,1.245,0,0,1,.1.105c.032.036.065.077.1.118a.355.355,0,0,1,.032.041c.008,0,.012.012.016.016a.129.129,0,0,1,.024.028c.008,0,.012.012.016.016l1.622,2.19a3.574,3.574,0,0,0,.32.377c.073.077.146.146.223.219a.706.706,0,0,0,.109.089.859.859,0,0,0,.1.081.31.31,0,0,0,.045.032,2.279,2.279,0,0,0,.2.142.857.857,0,0,0,.109.073.073.073,0,0,0,.028.02c.028.02.061.036.093.057,0,0,.008,0,.012.008l.1.049a1.518,1.518,0,0,0,.182.089l.045.024c.093.041.187.081.284.114A.031.031,0,0,0,7.894,24.874Z" transform="translate(-1 -19.594)" fill="#bbdef9"/>
        <path id="Path_84887" data-name="Path 84887" d="M13.571,46.11v.783a.811.811,0,0,1-.811.811H1V46.11Z" transform="translate(-1 -35.116)" fill="#d5e0f3"/>
        <path id="Path_84888" data-name="Path 84888" d="M28.29,37.176h1.456v1H28.29Z" transform="translate(-17.223 -29.805)" fill="#bbdef9"/>
        <path id="Path_84889" data-name="Path 84889" d="M7.026,24.432a2.278,2.278,0,0,1-.2-.142.309.309,0,0,1-.045-.032.859.859,0,0,1-.1-.081.706.706,0,0,1-.109-.089,2.585,2.585,0,0,1-.223-.2,3.574,3.574,0,0,1-.32-.377l-1.622-2.19c-.02-.028-.036-.053-.057-.077a.355.355,0,0,0-.032-.041c-.032-.041-.065-.081-.1-.118a1.244,1.244,0,0,0-.1-.105c-.032-.036-.069-.073-.105-.109a.108.108,0,0,1-.024-.02,1.35,1.35,0,0,0-.114-.1,1.279,1.279,0,0,0-.118-.089,1.038,1.038,0,0,0-.105-.081h0L3.543,20.5l0,0-.292.292L1,23.049v1.825H6.985l.284-.284,0,0,0,0C7.192,24.534,7.107,24.485,7.026,24.432ZM1,20v1.464l1.046-1.046.357-.361,0,0L2.46,20Z" transform="translate(-1 -19.594)" fill="#e3f2ff"/>
        <path id="Path_84890" data-name="Path 84890" d="M18.27,44.879a2.435,2.435,0,1,0,.6,1.594A2.422,2.422,0,0,0,18.27,44.879Z" transform="translate(-8.728 -33.886)" fill="#acb7d0"/>
        <path id="Path_84891" data-name="Path 84891" d="M12.2,24.511l-3.358-.406a3.64,3.64,0,0,1-2.47-1.452l-1.622-2.19A3.666,3.666,0,0,0,1.811,19H1.406A.406.406,0,0,0,1,19.405H1a.406.406,0,0,0,.406.406h.406a2.284,2.284,0,0,1,.235.012,2.768,2.768,0,0,1,1.2.381,2.764,2.764,0,0,1,.835.746l1.642,2.19A4.463,4.463,0,0,0,8.741,24.9L12.1,25.3a1.216,1.216,0,0,1,.9.6h-.361a1.068,1.068,0,0,0-1.086.924,1.014,1.014,0,0,0,1.009,1.108h.592a.016.016,0,0,1,.016.016v1.595a.016.016,0,0,1-.016.016H10.693a.016.016,0,0,1-.011,0,2.835,2.835,0,0,0-3.957,0,.014.014,0,0,1-.011,0H1.406A.406.406,0,0,0,1,29.965H1a.406.406,0,0,0,.406.406H6.118a.015.015,0,0,1,.013.021,2.607,2.607,0,0,0-.231.776.014.014,0,0,1-.014.013l-4.461-.015A.425.425,0,0,0,1,31.591H1A.406.406,0,0,0,1.406,32h4.48a.015.015,0,0,1,.015.013,2.838,2.838,0,0,0,5.608,0A.015.015,0,0,1,11.524,32h1.221a1.232,1.232,0,0,0,1.232-1.232V26.526A2.029,2.029,0,0,0,12.2,24.511Zm.357,2.612a.2.2,0,0,1-.2-.2.2.2,0,0,1,.2-.2h.608v.406Zm.608,3.638a.423.423,0,0,1-.421.421h-1.22a.015.015,0,0,1-.015-.013,2.6,2.6,0,0,0-.231-.776.015.015,0,0,1,.013-.021h1.858a.016.016,0,0,1,.016.016v.373ZM10.692,32a2.028,2.028,0,0,1-3.974,0,2.085,2.085,0,0,1,.006-.85,1.93,1.93,0,0,1,.167-.481,2.141,2.141,0,0,1,.56-.673,2.026,2.026,0,0,1,2.47-.028c.012.008.024.02.036.028a1.914,1.914,0,0,1,.369.377,2.014,2.014,0,0,1,.365.811,2.254,2.254,0,0,1,.041.406A2.3,2.3,0,0,1,10.692,32ZM2.217,23.874H1.406A.406.406,0,0,0,1,24.28H1a.406.406,0,0,0,.406.406h.811a.406.406,0,1,0,0-.811Z" transform="translate(-1 -19)" fill="#1d416f"/>
        <path id="Path_84892" data-name="Path 84892" d="M3.406,33.048a.408.408,0,0,0-.406.41v.811a.406.406,0,1,0,.811,0v-.811A.408.408,0,0,0,3.406,33.048Zm2.028,0a.408.408,0,0,0-.406.41v.811a.406.406,0,1,0,.811,0v-.811A.408.408,0,0,0,5.433,33.048Zm2.028,0a.408.408,0,0,0-.406.41v.811a.406.406,0,1,0,.811,0v-.811A.408.408,0,0,0,7.461,33.048Zm2.028,0a.408.408,0,0,0-.406.41v.811a.406.406,0,1,0,.811,0v-.811A.408.408,0,0,0,9.488,33.048Zm2.028,0a.408.408,0,0,0-.406.41v.811a.406.406,0,1,0,.811,0v-.811A.408.408,0,0,0,11.516,33.048ZM9.894,37.922a.813.813,0,1,0,.811.811A.813.813,0,0,0,9.894,37.922ZM6.65,31.02H5.028a.406.406,0,1,0,0,.811H6.65a.406.406,0,1,0,0-.811Z" transform="translate(-2.189 -26.146)" fill="#1d416f"/>
      </g>
      <g id="Group_162614" data-name="Group 162614" transform="translate(13.571 7)">
        <path id="Path_84893" data-name="Path 84893" d="M32.74,7a.817.817,0,0,0-.519.231A.761.761,0,0,0,32,7.824l.391,5.259a.426.426,0,0,0,.852,0l.375-5.243a.761.761,0,0,0-.217-.592.8.8,0,0,0-.455-.227A.905.905,0,0,0,32.74,7Z" transform="translate(-32.001 -7)" fill="#1d416f"/>
      </g>
      <g id="Group_162615" data-name="Group 162615" transform="translate(13.571 14.144)">
        <circle id="Ellipse_1955" data-name="Ellipse 1955" cx="1" cy="1" r="1" transform="translate(0 -0.005)" fill="#1d416f"/>
      </g>
    </g>
  </g>
</svg>
