<svg xmlns="http://www.w3.org/2000/svg" width="32" height="32" viewBox="0 0 32 32">
  <g id="Air_Bag" data-name="Air Bag" transform="translate(-40 -484)">
    <circle id="BG" cx="16" cy="16" r="16" transform="translate(40 484)" fill="#dce9f2"/>
    <g id="ic-airbag" transform="translate(41.979 482.753)">
      <path id="Path_84896" data-name="Path 84896" d="M15.692,39.119l2.673-3.5a.378.378,0,0,1,.47-.108l3.9,1.966A3.035,3.035,0,0,0,26.8,36.158l2.565-4.969a2.19,2.19,0,0,0-.953-2.959h0a2.159,2.159,0,0,0-2.857.882L23.3,33.15a.378.378,0,0,1-.479.163l-3.73-1.781a1.551,1.551,0,0,0-1.9.555l-3.9,5.21a1.519,1.519,0,0,0,.249,2.06h0A1.5,1.5,0,0,0,15.692,39.119Z" transform="translate(-5.715 -12.74)" fill="#ba68c8"/>
      <circle id="Ellipse_1956" data-name="Ellipse 1956" cx="1.889" cy="1.889" r="1.889" transform="translate(20.881 9.594)" fill="#fff"/>
      <path id="Path_84897" data-name="Path 84897" d="M50.266,12.755a1.511,1.511,0,1,1-1.511,1.511,1.512,1.512,0,0,1,1.511-1.511m0-.755a2.266,2.266,0,1,0,2.266,2.266A2.269,2.269,0,0,0,50.266,12Z" transform="translate(-27.497 -2.784)" fill="#1d416f"/>
      <path id="Path_84899" data-name="Path 84899" d="M15.692,39.119l2.673-3.5a.378.378,0,0,1,.47-.108l3.9,1.966A3.035,3.035,0,0,0,26.8,36.158l2.565-4.969a2.19,2.19,0,0,0-.953-2.959h0a2.159,2.159,0,0,0-2.857.882L23.3,33.15a.378.378,0,0,1-.479.163l-3.73-1.781a1.551,1.551,0,0,0-1.9.555l-3.9,5.21a1.519,1.519,0,0,0,.249,2.06h0A1.5,1.5,0,0,0,15.692,39.119Zm13-8.276-2.565,4.967A2.272,2.272,0,0,1,24.1,37.046a2.316,2.316,0,0,1-1.024-.242l-3.9-1.968a1.132,1.132,0,0,0-1.409.325l-2.674,3.5a.741.741,0,0,1-1.065.117.764.764,0,0,1-.125-1.035l.008-.011.008-.011,3.9-5.212a.79.79,0,0,1,.661-.347.817.817,0,0,1,.314.064l3.732,1.783a1.151,1.151,0,0,0,.449.091,1.137,1.137,0,0,0,.99-.582l2.255-4.038a1.415,1.415,0,0,1,1.231-.725,1.358,1.358,0,0,1,.627.151,1.4,1.4,0,0,1,.71.831A1.428,1.428,0,0,1,28.693,30.844Z" transform="translate(-5.715 -12.74)" fill="#1d416f"/>
      <path id="Path_84900" data-name="Path 84900" d="M4.378,45.511A.378.378,0,0,1,4,45.133v-.755a.378.378,0,0,1,.755,0v.755A.378.378,0,0,1,4.378,45.511Z" transform="translate(-0.116 -22.697)" fill="#1d416f"/>
      <path id="Path_84901" data-name="Path 84901" d="M9.378,45.511A.378.378,0,0,1,9,45.133v-.755a.378.378,0,0,1,.755,0v.755A.378.378,0,0,1,9.378,45.511Z" transform="translate(-3.227 -22.697)" fill="#1d416f"/>
      <path id="Path_84902" data-name="Path 84902" d="M14.378,45.511A.378.378,0,0,1,14,45.133v-.755a.378.378,0,0,1,.755,0v.755A.378.378,0,0,1,14.378,45.511Z" transform="translate(-6.339 -22.697)" fill="#1d416f"/>
      <g id="Group_162618" data-name="Group 162618" transform="translate(22.77 21.303)">
        <path id="Path_84903" data-name="Path 84903" d="M54.378,45.511A.378.378,0,0,1,54,45.133v-.755a.378.378,0,1,1,.755,0v.755A.378.378,0,0,1,54.378,45.511Z" transform="translate(-54 -44)" fill="#1d416f"/>
        <path id="Path_84904" data-name="Path 84904" d="M59.378,45.511A.378.378,0,0,1,59,45.133v-.755a.378.378,0,1,1,.755,0v.755A.378.378,0,0,1,59.378,45.511Z" transform="translate(-57.111 -44)" fill="#1d416f"/>
      </g>
      <g id="Path_84923" data-name="Path 84923" transform="translate(3.813 7.999)" fill="#78a1bb">
        <path d="M 0.5000028014183044 10.89089202880859 L 0.5000028014183044 8.77122688293457 L 0.5000028014183044 0.1668541729450226 C 1.185427665710449 0.1151426360011101 2.555852651596069 0.02755645848810673 3.974562883377075 0.02755645848810673 C 5.140102863311768 0.02755645848810673 6.106522560119629 0.08561646193265915 6.846982955932617 0.2001364529132843 C 9.194313049316406 0.5631464719772339 11.33206272125244 2.729246377944946 11.33206272125244 4.744696617126465 C 11.33206272125244 6.693276405334473 9.150662422180176 8.414566040039062 7.684412956237793 9.096116065979004 C 6.637264728546143 9.582857131958008 2.581443071365356 10.46641826629639 0.5000028014183044 10.89089202880859 Z" stroke="none"/>
        <path d="M 3.974562644958496 0.5275564193725586 C 2.841654777526855 0.5275564193725586 1.738876342773438 0.5841436386108398 1.000002861022949 0.6328096389770508 L 1.000002861022949 10.27776527404785 C 3.436474800109863 9.770273208618164 6.631142139434814 9.034331321716309 7.473652839660645 8.642705917358398 C 8.772102355957031 8.039146423339844 10.83206272125244 6.447166442871094 10.83206272125244 4.744696617126465 C 10.83206272125244 3.923256397247314 10.39581298828125 3.004496574401855 9.635172843933105 2.223996162414551 C 8.842662811279297 1.410806655883789 7.798563003540039 0.853236198425293 6.770572662353516 0.6942567825317383 C 6.05529260635376 0.5836467742919922 5.114583015441895 0.5275564193725586 3.974562644958496 0.5275564193725586 M 3.974558353424072 -0.472442626953125 C 5.000364780426025 -0.472442626953125 6.057880401611328 -0.4278469085693359 6.923402786254883 -0.2939939498901367 C 9.5196533203125 0.1075162887573242 11.83206272125244 2.478396415710449 11.83206272125244 4.744696617126465 C 11.83206272125244 7.011006355285645 9.363622665405273 8.866946220397949 7.895173072814941 9.549526214599609 C 6.426723003387451 10.23210620880127 2.86102294921875e-06 11.50137615203857 2.86102294921875e-06 11.50137615203857 L 2.86102294921875e-06 -0.2939939498901367 C 2.86102294921875e-06 -0.2939939498901367 1.923321723937988 -0.472442626953125 3.974558353424072 -0.472442626953125 Z" stroke="none" fill="#1d416f"/>
      </g>
    </g>
  </g>
</svg>
