<svg xmlns="http://www.w3.org/2000/svg" width="32" height="32" viewBox="0 0 32 32">
  <g id="Backing_up_-_Parking" data-name="Backing up - Parking" transform="translate(-40 -484)">
    <circle id="BG" cx="16" cy="16" r="16" transform="translate(40 484)" fill="#dce9f2"/>
    <g id="ic-parking" transform="translate(42.638 485.995)">
      <path id="Path_84858" data-name="Path 84858" d="M4.684,14.949V10.738H7.211A2.529,2.529,0,0,0,9.738,8.211V6.527A2.529,2.529,0,0,0,7.211,4H3.842A.841.841,0,0,0,3,4.842V14.949a.842.842,0,0,0,1.684,0Zm0-9.265H7.211a.843.843,0,0,1,.842.842V8.211a.843.843,0,0,1-.842.842H4.684Z" transform="translate(0 0)" fill="#ba68c8"/>
      <path id="Path_84859" data-name="Path 84859" d="M4.684,14.949V10.738H7.211A2.529,2.529,0,0,0,9.738,8.211V6.527A2.529,2.529,0,0,0,7.211,4H3.842A.841.841,0,0,0,3,4.842V14.949a.842.842,0,0,0,1.684,0Zm0-9.265H7.211a.843.843,0,0,1,.842.842V8.211a.843.843,0,0,1-.842.842H4.684Z" transform="translate(0 0)" fill="none" stroke="#1d416f" stroke-linecap="round" stroke-linejoin="round" stroke-width="0.7"/>
      <path id="Path_84860" data-name="Path 84860" d="M22.171,18.124a4.048,4.048,0,0,1-1.033,2.7,4.359,4.359,0,0,1-.585.538,4.015,4.015,0,0,1-2.426.809.622.622,0,0,1,0-1.245c.044,0,.09,0,.134,0a2.636,2.636,0,0,0,.769-.149,2.777,2.777,0,0,0,.987-.582,2.831,2.831,0,0,0,.887-1.708,2.292,2.292,0,0,0,.025-.357.622.622,0,0,1,1.245,0Z" transform="translate(-9.322 -8.678)" fill="#bbdef9"/>
      <path id="Path_84861" data-name="Path 84861" d="M24.658,18.12a6.508,6.508,0,0,1-1.7,4.388v0a6.533,6.533,0,0,1-.725.685,6.077,6.077,0,0,1-.629.448,5.918,5.918,0,0,1-1.014.523,5.792,5.792,0,0,1-.719.25,6.492,6.492,0,0,1-1.749.239.622.622,0,1,1,0-1.245,5.3,5.3,0,0,0,2.956-.905,5.05,5.05,0,0,0,.61-.486,4.907,4.907,0,0,0,.691-.77,5.233,5.233,0,0,0,1.033-3.131.622.622,0,1,1,1.245,0Z" transform="translate(-9.319 -8.674)" fill="#bbdef9"/>
      <path id="Path_84862" data-name="Path 84862" d="M27.146,18.125a9,9,0,0,1-3.081,6.784,9.884,9.884,0,0,1-1.412,1.018,8.152,8.152,0,0,1-1.018.51,7.222,7.222,0,0,1-.712.265,8.872,8.872,0,0,1-2.8.448.611.611,0,0,1-.134-.016.622.622,0,0,1,.134-1.229,7.748,7.748,0,0,0,2.278-.339,6.92,6.92,0,0,0,.713-.262,7.049,7.049,0,0,0,1.018-.513c.221-.134.433-.277.638-.429A7.8,7.8,0,0,0,25.9,18.126a.622.622,0,0,1,1.245,0Z" transform="translate(-9.318 -8.679)" fill="#bbdef9"/>
      <path id="Path_84863" data-name="Path 84863" d="M17.5,27.7a.624.624,0,0,1,.622-.622c.044,0,.09,0,.134,0l.548,1.189a3.808,3.808,0,0,1-.681.059A.624.624,0,0,1,17.5,27.7Z" transform="translate(-9.319 -14.828)" fill="#e3f2ff"/>
      <path id="Path_84864" data-name="Path 84864" d="M17.5,34.413a.624.624,0,0,1,.622-.622,5.252,5.252,0,0,0,1.215-.143L19.87,34.8a6.492,6.492,0,0,1-1.749.239A.624.624,0,0,1,17.5,34.413Z" transform="translate(-9.319 -19.054)" fill="#e3f2ff"/>
      <path id="Path_84865" data-name="Path 84865" d="M20.9,41.2a8.873,8.873,0,0,1-2.8.448.61.61,0,0,1-.134-.016l-.417-.9a.628.628,0,0,1,.551-.33,7.75,7.75,0,0,0,2.278-.339Z" transform="translate(-9.347 -23.18)" fill="#e3f2ff"/>
      <path id="Path_84866" data-name="Path 84866" d="M23.3,26.2a4.134,4.134,0,0,1-1,.551l-.523-1.139a2.777,2.777,0,0,0,.987-.582Z" transform="translate(-12.065 -13.513)" fill="#e3f2ff"/>
      <path id="Path_84867" data-name="Path 84867" d="M26.228,32.65a5.918,5.918,0,0,1-1.014.523l-.52-1.13a5.2,5.2,0,0,0,1.008-.532Z" transform="translate(-13.943 -17.681)" fill="#e3f2ff"/>
      <path id="Path_84868" data-name="Path 84868" d="M29.152,39.035a8.152,8.152,0,0,1-1.018.51l-.523-1.133A7.049,7.049,0,0,0,28.63,37.9Z" transform="translate(-15.818 -21.787)" fill="#e3f2ff"/>
      <path id="Path_84869" data-name="Path 84869" d="M27.223,21.666a4.018,4.018,0,0,1-.619.918l-.595-1.291a2.712,2.712,0,0,0,.357-1.049c.065,0,.137,0,.2,0Z" transform="translate(-14.788 -10.44)" fill="#e3f2ff"/>
      <path id="Path_84870" data-name="Path 84870" d="M30.493,29.259v0a6.533,6.533,0,0,1-.725.685l-.545-1.176a4.907,4.907,0,0,0,.691-.77Z" transform="translate(-16.853 -15.425)" fill="#e3f2ff"/>
      <path id="Path_84871" data-name="Path 84871" d="M33.543,36.1a7.062,7.062,0,0,1-.769.6l-.529-1.147a7.762,7.762,0,0,0,.75-.638Z" transform="translate(-18.795 -19.869)" fill="#e3f2ff"/>
      <path id="Path_84872" data-name="Path 84872" d="M18.122,22.168a.622.622,0,1,1,0-1.245,2.8,2.8,0,0,0,2.8-2.8.622.622,0,0,1,1.245,0A4.05,4.05,0,0,1,18.122,22.168Z" transform="translate(-9.319 -8.676)" fill="none" stroke="#1d416f" stroke-linecap="round" stroke-linejoin="round" stroke-width="0.7"/>
      <path id="Path_84873" data-name="Path 84873" d="M18.122,24.658a.622.622,0,0,1,0-1.245,5.3,5.3,0,0,0,5.29-5.29.622.622,0,1,1,1.245,0,6.543,6.543,0,0,1-6.535,6.535Z" transform="translate(-9.319 -8.676)" fill="none" stroke="#1d416f" stroke-linecap="round" stroke-linejoin="round" stroke-width="0.7"/>
      <path id="Path_84874" data-name="Path 84874" d="M18.122,27.147a.622.622,0,1,1,0-1.245,7.789,7.789,0,0,0,7.78-7.78.622.622,0,0,1,1.245,0,9.035,9.035,0,0,1-9.025,9.025Z" transform="translate(-9.319 -8.676)" fill="none" stroke="#1d416f" stroke-linecap="round" stroke-linejoin="round" stroke-width="0.7"/>
      <path id="Path_84875" data-name="Path 84875" d="M41.288,37l2.144,3.752L45.575,44.5H37l2.144-3.752Z" transform="translate(-21.851 -21.209)" fill="#ba68c8"/>
      <path id="Path_84876" data-name="Path 84876" d="M45.575,56.429H37v-.858A3.132,3.132,0,0,1,38.866,55H43.71a3.132,3.132,0,0,1,1.866.572Z" transform="translate(-21.851 -32.777)" fill="#ac55ba"/>
      <path id="Path_84877" data-name="Path 84877" d="M37,43.146v1.429h8.575V43.146L41.288,36,37,43.146" transform="translate(-21.851 -20.566)" fill="none" stroke="#1d416f" stroke-linecap="round" stroke-linejoin="round" stroke-width="0.7"/>
      <line id="Line_896" data-name="Line 896" y1="0.715" transform="translate(21.883 21.866)" fill="none" stroke="#1d416f" stroke-linecap="round" stroke-width="0.7"/>
      <line id="Line_897" data-name="Line 897" y1="0.715" transform="translate(20.252 21.866)" fill="none" stroke="#1d416f" stroke-linecap="round" stroke-width="0.7"/>
      <line id="Line_898" data-name="Line 898" y1="0.715" transform="translate(18.621 21.866)" fill="none" stroke="#1d416f" stroke-linecap="round" stroke-width="0.7"/>
      <line id="Line_899" data-name="Line 899" y1="0.715" transform="translate(16.989 21.866)" fill="none" stroke="#1d416f" stroke-linecap="round" stroke-width="0.7"/>
    </g>
  </g>
</svg>
