<svg xmlns="http://www.w3.org/2000/svg" width="32" height="32" viewBox="0 0 32 32">
  <g id="Brake" transform="translate(-40 -484)">
    <circle id="BG" cx="16" cy="16" r="16" transform="translate(40 484)" fill="#dce9f2"/>
    <g id="ic-brake" transform="translate(42.758 488.673)">
      <path id="Path_84786" data-name="Path 84786" d="M13.168,5A10.168,10.168,0,1,0,23.336,15.168,10.168,10.168,0,0,0,13.168,5Z" transform="translate(-0.637 -3.13)" fill="#c5e4fa"/>
      <path id="Path_84787" data-name="Path 84787" d="M8.051,28A9.678,9.678,0,0,0,11.392,30.1L23.775,17.721V15.4a10.889,10.889,0,0,0-1.344-1.779Zm-.69-.763L21.6,13H19.417l-13,13A7.928,7.928,0,0,0,7.361,27.235ZM5.908,25.056,17.965,13H16.149L5.4,23.749A6.99,6.99,0,0,0,5.908,25.056Z" transform="translate(-2.165 -8.225)" fill="#e3f2ff"/>
      <path id="Path_84788" data-name="Path 84788" d="M32.726,1l5.447,1.816,3.995,4.358,1.089,4.721-.726.363-3.268-.726L37.447,7.9,33.816,5.721,32.726,4.631,32,1.726Z" transform="translate(-19.106 -0.583)" fill="#b057bf"/>
      <path id="Path_84789" data-name="Path 84789" d="M42.168,7.173,38.173,2.816,32.726,1,32,1.726l.254,1.017a.738.738,0,0,0,.617.545,9.367,9.367,0,0,1,8.134,8.134.738.738,0,0,0,.545.617l.98.218.726-.363Z" transform="translate(-19.106 -0.583)" fill="#ba68c8"/>
      <path id="Path_84790" data-name="Path 84790" d="M20.81,17a5.81,5.81,0,1,0,5.81,5.81A5.81,5.81,0,0,0,20.81,17Z" transform="translate(-8.279 -10.772)" fill="#ba68c8"/>
      <path id="Path_84791" data-name="Path 84791" d="M28.453,29a1.453,1.453,0,1,0,1.453,1.453A1.453,1.453,0,0,0,28.453,29Z" transform="translate(-15.921 -18.415)" fill="#b8c2dd"/>
      <path id="Path_84792" data-name="Path 84792" d="M41.32,19.517a3.142,3.142,0,0,0,.254-.617.368.368,0,0,0-.69-.254,3.665,3.665,0,0,1-.254.545.347.347,0,0,0,.145.472.272.272,0,0,0,.182.036A.4.4,0,0,0,41.32,19.517Zm-.254-11.04a.368.368,0,1,0-.4.617,9.1,9.1,0,0,1,3.7,4.685.349.349,0,0,0,.327.254A.133.133,0,0,0,44.806,14a.363.363,0,0,0,.218-.472A9.241,9.241,0,0,0,41.066,8.477Zm-1.344-.763a5.3,5.3,0,0,0-.69-.254.368.368,0,0,0-.254.69A3.142,3.142,0,0,1,39.4,8.4a.218.218,0,0,0,.145.036.318.318,0,0,0,.327-.218A.35.35,0,0,0,39.722,7.714Z" transform="translate(-23.269 -4.682)" fill="#1d416f"/>
      <path id="Path_84793" data-name="Path 84793" d="M24.168,25.878a5.448,5.448,0,1,1,1.453-3.7v.4a.365.365,0,1,0,.726.073v-.472a6.191,6.191,0,1,0-1.67,4.212.327.327,0,0,0-.036-.508A.31.31,0,0,0,24.168,25.878Z" transform="translate(-7.642 -10.136)" fill="#1d416f"/>
      <path id="Path_84794" data-name="Path 84794" d="M25.81,25.995a1.816,1.816,0,1,0-1.816,1.816A1.8,1.8,0,0,0,25.81,25.995Zm-1.816,1.162a1.17,1.17,0,0,1-1.162-1.162,1.162,1.162,0,1,1,2.324,0A1.17,1.17,0,0,1,23.995,27.157Zm0-5.157a.726.726,0,1,0,.726.726A.726.726,0,0,0,23.995,22Zm0,6.537a.726.726,0,1,0,.726.726A.726.726,0,0,0,23.995,28.537Zm-3.268-3.268a.726.726,0,1,0,.726.726A.726.726,0,0,0,20.726,25.268Zm6.537,0a.726.726,0,1,0,.726.726A.726.726,0,0,0,27.263,25.268Z" transform="translate(-11.463 -13.957)" fill="#1d416f"/>
      <path id="Path_84795" data-name="Path 84795" d="M13.584.09a.984.984,0,0,0-.908.4,1,1,0,0,0-.218.98v.036a10.531,10.531,0,1,0,10.6,10.6H23.1a.8.8,0,0,0,.291.036.959.959,0,0,0,.69-.254,1.02,1.02,0,0,0,.4-.908A11.959,11.959,0,0,0,13.584.09Zm8.752,11.947a9.8,9.8,0,1,1-9.8-9.8h.145l.545,1.925a1.764,1.764,0,0,0,1.235,1.235,7,7,0,0,1,4.721,4.721,1.9,1.9,0,0,0,1.235,1.235l1.925.545C22.336,11.929,22.336,12,22.336,12.038Zm1.416-.98a.412.412,0,0,1-.109.291.37.37,0,0,1-.327.073l-.436-.145h-.036l-2.179-.617a1.1,1.1,0,0,1-.763-.726A7.616,7.616,0,0,0,14.71,4.739a1.172,1.172,0,0,1-.726-.763l-.763-2.687a.348.348,0,0,1,.073-.327.368.368,0,0,1,.254-.145h.036A11.249,11.249,0,0,1,23.752,11.057Z" fill="#1d416f"/>
      <path id="Path_84796" data-name="Path 84796" d="M8.089,16.828H7.363a.363.363,0,1,0,0,.726h.726a.363.363,0,1,0,0-.726Zm7.626,7.626a.343.343,0,0,0-.363.363v.726a.363.363,0,1,0,.726,0v-.726A.343.343,0,0,0,15.715,24.454ZM13.391,9.929a.361.361,0,0,0,.363.254h.109a.345.345,0,0,0,.254-.436L13.9,9.021a.345.345,0,0,0-.436-.254.36.36,0,0,0-.254.436ZM18.04,24.454a.357.357,0,1,0-.69.182l.182.69a.361.361,0,0,0,.363.254H18a.373.373,0,0,0,.254-.436ZM11.576,10.764a.381.381,0,0,0,.327.182.327.327,0,0,0,.182-.036.4.4,0,0,0,.145-.508l-.363-.617a.374.374,0,1,0-.654.363Zm8.28,12.855a.374.374,0,0,0-.654.363l.363.617a.381.381,0,0,0,.327.182.327.327,0,0,0,.182-.036.4.4,0,0,0,.145-.508Zm-9.8-11.548a.351.351,0,0,0,.508,0,.351.351,0,0,0,0-.508l-.508-.545a.359.359,0,1,0-.508.508Zm11.33,10.241a.359.359,0,0,0-.508.508l.508.508a.351.351,0,0,0,.508,0,.351.351,0,0,0,0-.508ZM9.288,13.052l-.617-.363a.374.374,0,1,0-.363.654l.617.363a.327.327,0,0,0,.182.036.433.433,0,0,0,.327-.182A.367.367,0,0,0,9.288,13.052Zm-.835,1.816-.726-.182a.357.357,0,1,0-.182.69l.69.182h.109a.437.437,0,0,0,.363-.254A.373.373,0,0,0,8.453,14.867Z" transform="translate(-3.184 -5.517)" fill="#1d416f"/>
    </g>
  </g>
</svg>
