<svg xmlns="http://www.w3.org/2000/svg" width="32" height="32" viewBox="0 0 32 32">
  <g id="Collision_Prevention" data-name="Collision Prevention" transform="translate(-40 -484)">
    <circle id="BG" cx="16" cy="16" r="16" transform="translate(40 484)" fill="#dce9f2"/>
    <g id="ic-collision">
      <g id="Group_162624" data-name="Group 162624" transform="translate(44.074 482.143)">
        <path id="Path_84836" data-name="Path 84836" d="M20.231,20.43v3.248a.62.62,0,0,1-.62.62H1.62a.62.62,0,0,1-.62-.62V19.955a1.241,1.241,0,0,1,.7-1.114,1.182,1.182,0,0,1,.54-.127h.931L3.73,17.6l.62-1.241a2.481,2.481,0,0,1,1.973-1.365,2.109,2.109,0,0,1,.242,0h4.671a2.5,2.5,0,0,1,.431.037h0a2.5,2.5,0,0,1,1.551.955l1.241,1.675a2.649,2.649,0,0,0,.245.285,3.1,3.1,0,0,0,1.861.931l.484.059,2.088.261A1.241,1.241,0,0,1,20.231,20.43Z" transform="translate(-0.69 -0.682)" fill="#ba68c8"/>
        <path id="Path_84837" data-name="Path 84837" d="M19.476,18.714H6.2L7.317,17.6l.62-1.241A2.481,2.481,0,0,1,9.91,14.992a2.109,2.109,0,0,1,.242,0h4.671a2.5,2.5,0,0,1,.431.037h.019a2.481,2.481,0,0,1,1.535.955l1.241,1.675a2.649,2.649,0,0,0,.245.285,3.1,3.1,0,0,0,.695.546A3.412,3.412,0,0,0,19.476,18.714Z" transform="translate(-4.277 -0.682)" fill="#bbdef9"/>
        <path id="Path_84838" data-name="Path 84838" d="M20.231,41.07v.6a.62.62,0,0,1-.62.62H1.62a.62.62,0,0,1-.62-.62v-.6Z" transform="translate(-0.69 -18.673)" fill="#d5e0f3"/>
        <path id="Path_84839" data-name="Path 84839" d="M59.29,32.15H60.4v.763H59.29Z" transform="translate(-40.899 -12.52)" fill="#bbdef9"/>
        <path id="Path_84840" data-name="Path 84840" d="M21.764,18.491l-.223.223H15.569l3.338-3.338a2.46,2.46,0,0,1,.661.62l1.241,1.675a2.649,2.649,0,0,0,.245.285,3.1,3.1,0,0,0,.71.534Zm-3.685-3.5-3.722,3.722H11.968l3.722-3.722Zm-3.449,0-3.722,3.722H10.2L11.317,17.6l2.593-2.606a2.109,2.109,0,0,1,.242,0Z" transform="translate(-7.036 -0.682)" fill="#e3f2ff"/>
        <path id="Path_84841" data-name="Path 84841" d="M20.648,39a1.861,1.861,0,1,0,1.861,1.861A1.861,1.861,0,0,0,20.648,39ZM8.861,39a1.861,1.861,0,1,0,1.861,1.861A1.861,1.861,0,0,0,8.861,39Z" transform="translate(-4.829 -17.245)" fill="#acb7d0"/>
        <path id="Path_84842" data-name="Path 84842" d="M18.493,18.209l-2.568-.31a2.792,2.792,0,0,1-1.889-1.107L12.8,15.117A2.807,2.807,0,0,0,10.546,14H5.875a2.792,2.792,0,0,0-2.481,1.551l-1.1,2.171H1.551A1.551,1.551,0,0,0,0,19.273V23a.931.931,0,0,0,.931.931h.955a2.171,2.171,0,0,0,4.293,0h7.494a2.171,2.171,0,0,0,4.293,0h.955A.931.931,0,0,0,19.852,23V19.748A1.551,1.551,0,0,0,18.493,18.209Zm.738,1.994h-.465a.155.155,0,1,1,0-.31h.465Zm-15.3-4.383a2.171,2.171,0,0,1,1.942-1.2h2.19v3.1H2.981ZM1.551,18.343h9.306a.31.31,0,0,0,0-.62H8.685v-3.1h1.861a2.171,2.171,0,0,1,1.737.869l1.256,1.675a3.412,3.412,0,0,0,2.308,1.34l2.568.31a.931.931,0,0,1,.686.459h-.335a.775.775,0,1,0,0,1.551h.465v1.241h-1.9a2.171,2.171,0,0,0-3.034,0H5.549a2.171,2.171,0,0,0-3.034,0H.62V19.273a.931.931,0,0,1,.931-.931Zm12.122,4.963H6.179a2,2,0,0,0-.186-.62h7.866A2,2,0,0,0,13.673,23.306ZM.62,23v-.31H2.072a2,2,0,0,0-.186.62H.931A.31.31,0,0,1,.62,23Zm3.412,2.171a1.551,1.551,0,0,1-1.52-1.861,1.526,1.526,0,0,1,.279-.62,1.551,1.551,0,0,1,2.481,0,1.526,1.526,0,0,1,.279.62,1.551,1.551,0,0,1-1.52,1.861Zm11.787,0a1.551,1.551,0,0,1-1.52-1.861,1.526,1.526,0,0,1,.279-.62,1.551,1.551,0,0,1,2.481,0,1.526,1.526,0,0,1,.279.62,1.551,1.551,0,0,1-1.52,1.861Zm3.1-1.861h-.955a2,2,0,0,0-.186-.62h1.452V23A.31.31,0,0,1,18.921,23.306Z" fill="#1d416f"/>
        <path id="Path_84843" data-name="Path 84843" d="M5.861,28.792a.31.31,0,0,0,.31-.31v-.62a.31.31,0,0,0-.62,0v.62A.31.31,0,0,0,5.861,28.792Zm-1.551,0a.31.31,0,0,0,.31-.31v-.62a.31.31,0,0,0-.62,0v.62A.31.31,0,0,0,4.31,28.792Zm6.2,0a.31.31,0,0,0,.31-.31v-.62a.31.31,0,0,0-.62,0v.62A.31.31,0,0,0,10.514,28.792Zm1.551,0a.31.31,0,0,0,.31-.31v-.62a.31.31,0,0,0-.62,0v.62A.31.31,0,0,0,12.065,28.792Zm1.551,0a.31.31,0,0,0,.31-.31v-.62a.31.31,0,0,0-.62,0v.62A.31.31,0,0,0,13.616,28.792Zm1.551-1.241a.31.31,0,0,0-.31.31v.62a.31.31,0,1,0,.62,0v-.62A.31.31,0,0,0,15.167,27.551Zm1.241.931a.31.31,0,1,0,.62,0v-.62a.31.31,0,0,0-.62,0Zm1.861.31a.31.31,0,0,0,.31-.31v-.62a.31.31,0,1,0-.62,0v.62A.31.31,0,0,0,18.268,28.792Zm1.551,0a.31.31,0,0,0,.31-.31v-.62a.31.31,0,0,0-.62,0v.62A.31.31,0,0,0,19.819,28.792Zm-10.856,0a.31.31,0,0,0,.31-.31v-.62a.31.31,0,0,0-.62,0v.62A.31.31,0,0,0,8.963,28.792Zm-1.551,0a.31.31,0,0,0,.31-.31v-.62a.31.31,0,0,0-.62,0v.62A.31.31,0,0,0,7.412,28.792Zm11.167,2.481a.62.62,0,1,0,.62.62A.62.62,0,0,0,18.579,31.273Zm-11.787,0a.62.62,0,1,0,.62.62A.62.62,0,0,0,6.792,31.273Zm8.065-4.653H16.1a.31.31,0,1,0,0-.62H14.856a.31.31,0,0,0,0,.62Z" transform="translate(-2.759 -8.278)" fill="#1d416f"/>
      </g>
      <path id="Path_84926" data-name="Path 84926" d="M65.453,499.623s.935-6.27-4.66-6.23" fill="none" stroke="#1d416f" stroke-linecap="round" stroke-width="1"/>
      <path id="Path_84927" data-name="Path 84927" d="M65.453,499.623s.935-6.27-4.66-6.23" transform="translate(2 -2)" fill="none" stroke="#1d416f" stroke-linecap="round" stroke-width="1"/>
    </g>
  </g>
</svg>
