<svg xmlns="http://www.w3.org/2000/svg" width="32" height="32" viewBox="0 0 32 32">
  <g id="Engine" transform="translate(-40 -484)">
    <circle id="BG" cx="16" cy="16" r="16" transform="translate(40 484)" fill="#dce9f2"/>
    <g id="ic-engine" transform="translate(46.5 487.688)">
      <path id="Path_84905" data-name="Path 84905" d="M2.188,21.594v7.719a.594.594,0,0,1-1.187,0V21.594a.594.594,0,0,1,1.188,0Z" transform="translate(-0.703 -11.953)" fill="#c2cde7"/>
      <path id="Path_84906" data-name="Path 84906" d="M2.188,21.594v2.078H1V21.594a.594.594,0,0,1,1.188,0Z" transform="translate(-0.703 -11.953)" fill="#ced8ed"/>
      <path id="Path_84907" data-name="Path 84907" d="M2.188,42v2.078a.594.594,0,0,1-1.187,0V42Z" transform="translate(-0.703 -26.719)" fill="#acb7d0"/>
      <path id="Path_84908" data-name="Path 84908" d="M23.844,10.344h-.891a.3.3,0,0,0-.3.3v2.078H21.469V7.969a.594.594,0,0,0-.594-.594H19.094V6.188h1.781a.594.594,0,0,0,0-1.187H15.531a.594.594,0,0,0,0,1.188h1.781V7.375H15.353a1.187,1.187,0,0,0-.742.261L12.3,9.489a1.187,1.187,0,0,1-.742.261H9.594A.594.594,0,0,0,9,10.344v7.719a.594.594,0,0,0,.594.594h.772a1.188,1.188,0,0,1,.742.261l2.319,1.855a1.188,1.188,0,0,0,.742.261h3.916a1.188,1.188,0,0,0,.742-.261l2.2-1.757a1.187,1.187,0,0,0,.445-.929V16.281h1.188v2.078a.3.3,0,0,0,.3.3h.891a1.188,1.188,0,0,0,1.188-1.187V11.531A1.188,1.188,0,0,0,23.844,10.344Z" transform="translate(-6.328 -0.703)" fill="#c2cde7"/>
      <path id="Path_84909" data-name="Path 84909" d="M26.094,31h1.781v3.563H26.094ZM16,36.938H26.094l-2.672,2.375h-4.75Z" transform="translate(-11.25 -18.984)" fill="#acb7d0"/>
      <path id="Path_84910" data-name="Path 84910" d="M18,15.672h9.8V13.594L27.2,13H21.266Z" transform="translate(-12.656 -6.328)" fill="#ced8ed"/>
      <path id="Path_84911" data-name="Path 84911" d="M5,33H6.188v1.781H5Z" transform="translate(-3.516 -20.391)" fill="#acb7d0"/>
      <path id="Path_84912" data-name="Path 84912" d="M15.765,39a.635.635,0,1,0,.635.635A.635.635,0,0,0,15.765,39Z" transform="translate(-10.638 -24.609)" fill="#f9e3ae"/>
      <path id="Path_84913" data-name="Path 84913" d="M17.516,9.344h-.891a.594.594,0,0,0-.594.594v1.781h-.594V7.266a.891.891,0,0,0-.891-.891H13.063V5.781h1.484a.891.891,0,0,0,0-1.781H9.2a.891.891,0,0,0,0,1.781h1.484v.594H9.025A1.484,1.484,0,0,0,8.1,6.7L5.78,8.557a.891.891,0,0,1-.555.193H3.266a.891.891,0,0,0-.891.891v2.672H1.781V9.641A.891.891,0,1,0,0,9.641v7.719a.891.891,0,1,0,1.781,0V14.688h.594v2.672a.891.891,0,0,0,.891.891h.772a.891.891,0,0,1,.555.2L6.911,20.3a1.484,1.484,0,0,0,.926.324h3.919a1.484,1.484,0,0,0,.926-.327l2.2-1.752a1.484,1.484,0,0,0,.558-1.164V15.875h.594v1.781a.594.594,0,0,0,.594.594h.891A1.484,1.484,0,0,0,19,16.766V10.828A1.484,1.484,0,0,0,17.516,9.344ZM10.984,5.188H9.2a.3.3,0,0,1,0-.594h5.344a.3.3,0,0,1,0,.594H12.766a.3.3,0,0,0-.3.3v.891H11.281V5.484A.3.3,0,0,0,10.984,5.188Zm-9.8,12.172a.3.3,0,0,1-.594,0V9.641a.3.3,0,1,1,.594,0Zm.594-3.266V12.906h.594v1.188Zm16.625,2.672a.891.891,0,0,1-.891.891h-.891V15.578a.3.3,0,0,0-.3-.3H15.141a.3.3,0,0,0-.3.3v1.805a.891.891,0,0,1-.335.695l-2.2,1.758a.891.891,0,0,1-.555.2H7.837a.891.891,0,0,1-.555-.2L5.3,18.25h5.685a.3.3,0,0,0,0-.594H3.266a.3.3,0,0,1-.3-.3V9.641a.3.3,0,0,1,.3-.3H5.225a1.484,1.484,0,0,0,.926-.327L8.47,7.162a.891.891,0,0,1,.555-.193h5.522a.3.3,0,0,1,.3.3v4.75a.3.3,0,0,0,.3.3h1.188a.3.3,0,0,0,.3-.3V9.938h.891a.891.891,0,0,1,.891.891Z" transform="translate(0)" fill="#8d6c9f"/>
      <path id="Path_84914" data-name="Path 84914" d="M23.2,33.125H22.016a.3.3,0,0,0,0,.594H23.2a.3.3,0,0,0,0-.594ZM14.3,27.188a.3.3,0,0,0,.3-.3V26.3a.3.3,0,0,0-.594,0v.594A.3.3,0,0,0,14.3,27.188ZM15.781,26a.3.3,0,0,0-.3.3v.594a.3.3,0,0,0,.594,0V26.3A.3.3,0,0,0,15.781,26Zm1.484,1.188a.3.3,0,0,0,.3-.3V26.3a.3.3,0,0,0-.594,0v.594A.3.3,0,0,0,17.266,27.188Zm1.781-.3V26.3a.3.3,0,0,0-.594,0v.594a.3.3,0,0,0,.594,0Zm1.188.3a.3.3,0,0,0,.3-.3V26.3a.3.3,0,0,0-.594,0v.594A.3.3,0,0,0,20.234,27.188Zm1.484,0a.3.3,0,0,0,.3-.3V26.3a.3.3,0,0,0-.594,0v.594A.3.3,0,0,0,21.719,27.188ZM23.2,26a.3.3,0,0,0-.3.3v.594a.3.3,0,0,0,.594,0V26.3A.3.3,0,0,0,23.2,26Zm-8.312,3.563a.891.891,0,1,0,.891.891A.891.891,0,0,0,14.891,29.563Zm0,1.188a.3.3,0,1,1,.3-.3A.3.3,0,0,1,14.891,30.75Zm2.969-.594H16.672a.3.3,0,0,0,0,.594h1.188a.3.3,0,0,0,0-.594Zm5.344,0H19.047a.3.3,0,0,0,0,.594H23.2a.3.3,0,0,0,0-.594Z" transform="translate(-9.844 -15.469)" fill="#8d6c9f"/>
    </g>
  </g>
</svg>
