<svg xmlns="http://www.w3.org/2000/svg" width="32" height="32" viewBox="0 0 32 32">
  <g id="Exterior_Body" data-name="Exterior / Body" transform="translate(-40 -484)">
    <circle id="BG" cx="16" cy="16" r="16" transform="translate(40 484)" fill="#dce9f2"/>
    <g id="ic-exterior_body" data-name="ic-exterior body" transform="translate(42.492 484.832)">
      <path id="Path_84751" data-name="Path 84751" d="M23.337,31.679v3.528a7.135,7.135,0,0,0-5.562,5.3H5.679A.681.681,0,0,1,5,39.829v-8.15A.681.681,0,0,1,5.679,31H22.658A.681.681,0,0,1,23.337,31.679Z" transform="translate(-0.66 -16.511)" fill="#ba68c8"/>
      <path id="Path_84752" data-name="Path 84752" d="M23.979,14.542v.608H7V7.679A.681.681,0,0,1,7.679,7H18.5a1.366,1.366,0,0,1,1.131.6l.17.251,1.565,2.353,2.387,3.579A1.356,1.356,0,0,1,23.979,14.542Z" transform="translate(-1.981 -0.66)" fill="#c5e4fa"/>
      <path id="Path_84753" data-name="Path 84753" d="M24.421,7.856,17.735,15.15h3.735l4.516-4.941ZM23.121,7h-.292l-7.471,8.15h1.019l7.342-8.011A1.333,1.333,0,0,0,23.121,7Zm-1.65,0L14,15.15h.34L21.81,7Z" transform="translate(-6.604 -0.66)" fill="#e3f2ff"/>
      <path id="Path_84754" data-name="Path 84754" d="M44.4,38.358H41.679A.679.679,0,0,1,41,37.679h0A.679.679,0,0,1,41.679,37H44.4a.679.679,0,0,1,.679.679h0A.679.679,0,0,1,44.4,38.358Z" transform="translate(-24.436 -20.473)" fill="#bfd2df"/>
      <path id="Path_84755" data-name="Path 84755" d="M43.735,38.037H41.019a1.019,1.019,0,0,1,0-2.037h2.717a1.019,1.019,0,0,1,0,2.037Zm-2.717-1.358a.34.34,0,0,0,0,.679h2.717a.34.34,0,0,0,0-.679Z" transform="translate(-23.775 -19.813)" fill="#1d416f"/>
      <path id="Path_84756" data-name="Path 84756" d="M17.848,38.679H8.34a.34.34,0,0,1,0-.679h9.508a.34.34,0,0,1,0,.679Z" transform="translate(-2.642 -21.134)" fill="#fff"/>
      <path id="Path_84757" data-name="Path 84757" d="M23.318,14.829H6.34a.34.34,0,0,1-.34-.34V7.019A1.02,1.02,0,0,1,7.019,6H17.837a1.694,1.694,0,0,1,1.413.756l4.123,6.184a1.7,1.7,0,0,1,.285.942v.607A.34.34,0,0,1,23.318,14.829ZM6.679,14.15h16.3v-.268a1.015,1.015,0,0,0-.171-.565L18.685,7.133a1.016,1.016,0,0,0-.848-.454H7.019a.34.34,0,0,0-.34.34Z" transform="translate(-1.321)" fill="#1d416f"/>
      <path id="Path_84758" data-name="Path 84758" d="M14.34,28.7a.34.34,0,0,1-.34-.34V27.34a.34.34,0,1,1,.679,0v1.019A.34.34,0,0,1,14.34,28.7Z" transform="translate(-6.604 -13.869)" fill="#1d416f"/>
      <path id="Path_84759" data-name="Path 84759" d="M18.452,10.679H12.34a.34.34,0,1,1,0-.679h6.112a.34.34,0,0,1,0,.679Z" transform="translate(-5.283 -2.642)" fill="#97cbe8"/>
      <path id="Path_84760" data-name="Path 84760" d="M35.7,10.679H34.34a.34.34,0,1,1,0-.679H35.7a.34.34,0,0,1,0,.679Z" transform="translate(-19.813 -2.642)" fill="#97cbe8"/>
      <path id="Path_84761" data-name="Path 84761" d="M19.833,47.564a7.138,7.138,0,0,0-2.058,3.511H5V48.019A1.017,1.017,0,0,1,6.019,47h12.9A1.01,1.01,0,0,1,19.833,47.564Z" transform="translate(-0.66 -27.078)" fill="#b25ac1"/>
      <path id="Path_84762" data-name="Path 84762" d="M17.116,40.187H5.019A1.02,1.02,0,0,1,4,39.168v-8.15A1.02,1.02,0,0,1,5.019,30H22a1.02,1.02,0,0,1,1.019,1.019v3.528a.34.34,0,0,1-.275.333,6.8,6.8,0,0,0-5.3,5.048A.339.339,0,0,1,17.116,40.187Zm-12.1-9.508a.34.34,0,0,0-.34.34v8.15a.34.34,0,0,0,.34.34H16.854a7.479,7.479,0,0,1,5.483-5.236V31.019a.34.34,0,0,0-.34-.34Zm17.658,3.868h0Z" transform="translate(0 -15.85)" fill="#1d416f"/>
      <path id="Path_84763" data-name="Path 84763" d="M9.34,52.358a.34.34,0,0,1-.34-.34V51.34a.34.34,0,1,1,.679,0v.679A.34.34,0,0,1,9.34,52.358Z" transform="translate(-3.302 -29.719)" fill="#1d416f"/>
      <path id="Path_84764" data-name="Path 84764" d="M14.34,52.358a.34.34,0,0,1-.34-.34V51.34a.34.34,0,1,1,.679,0v.679A.34.34,0,0,1,14.34,52.358Z" transform="translate(-6.604 -29.719)" fill="#1d416f"/>
      <path id="Path_84765" data-name="Path 84765" d="M19.34,52.358a.34.34,0,0,1-.34-.34V51.34a.34.34,0,1,1,.679,0v.679A.34.34,0,0,1,19.34,52.358Z" transform="translate(-9.906 -29.719)" fill="#1d416f"/>
      <path id="Path_84766" data-name="Path 84766" d="M24.34,52.358a.34.34,0,0,1-.34-.34V51.34a.34.34,0,1,1,.679,0v.679A.34.34,0,0,1,24.34,52.358Z" transform="translate(-13.209 -29.719)" fill="#1d416f"/>
      <path id="Path_84767" data-name="Path 84767" d="M29.34,52.358a.34.34,0,0,1-.34-.34V51.34a.34.34,0,1,1,.679,0v.679A.34.34,0,0,1,29.34,52.358Z" transform="translate(-16.511 -29.719)" fill="#1d416f"/>
      <path id="Path_84768" data-name="Path 84768" d="M34.34,52.358a.34.34,0,0,1-.34-.34V51.34a.34.34,0,1,1,.679,0v.679A.34.34,0,0,1,34.34,52.358Z" transform="translate(-19.813 -29.719)" fill="#1d416f"/>
      <path id="Path_84769" data-name="Path 84769" d="M39.34,52.358a.34.34,0,0,1-.34-.34V51.34a.34.34,0,1,1,.679,0v.679A.34.34,0,0,1,39.34,52.358Z" transform="translate(-23.115 -29.719)" fill="#1d416f"/>
      <path id="Path_84770" data-name="Path 84770" d="M25.008,17.189l.407.781.781.407-.781.407-.407.781-.407-.781-.781-.407.781-.407ZM16.315,16l.272.509.543.306-.543.272-.272.543-.306-.543-.509-.272.509-.306Zm6.248.407.2.374.374.2-.374.17-.2.374-.2-.374-.34-.17.34-.2Z" transform="translate(-7.595 -6.604)" fill="#fff"/>
    </g>
  </g>
</svg>
