<svg xmlns="http://www.w3.org/2000/svg" width="32" height="32" viewBox="0 0 32 32">
  <g id="Exterior_Dimension" data-name="Exterior / Dimension" transform="translate(-40 -484)">
    <circle id="BG" cx="16" cy="16" r="16" transform="translate(40 484)" fill="#dce9f2"/>
    <g id="ic-dimensions">
      <g id="Group_162622" data-name="Group 162622" transform="translate(44.794 476.326)">
        <path id="Path_84836" data-name="Path 84836" d="M22.721,21.134V24.8a.7.7,0,0,1-.7.7H1.7a.7.7,0,0,1-.7-.7V20.6a1.4,1.4,0,0,1,.792-1.258A1.335,1.335,0,0,1,2.4,19.2H3.452l.631-1.261.7-1.4a2.8,2.8,0,0,1,2.228-1.541,2.382,2.382,0,0,1,.273,0h5.276a2.827,2.827,0,0,1,.487.042h0A2.827,2.827,0,0,1,14.8,16.114l1.4,1.892a2.992,2.992,0,0,0,.277.322,3.5,3.5,0,0,0,2.1,1.051l.547.067,2.358.294A1.4,1.4,0,0,1,22.721,21.134Z" transform="translate(-0.65 -0.642)" fill="#ba68c8"/>
        <path id="Path_84837" data-name="Path 84837" d="M21.194,19.2H6.2l1.261-1.261.7-1.4a2.8,2.8,0,0,1,2.228-1.541,2.382,2.382,0,0,1,.273,0h5.276a2.827,2.827,0,0,1,.487.042h.021a2.8,2.8,0,0,1,1.734,1.079l1.4,1.892a2.992,2.992,0,0,0,.277.322,3.5,3.5,0,0,0,.785.617,3.854,3.854,0,0,0,.55.252Z" transform="translate(-4.028 -0.642)" fill="#bbdef9"/>
        <path id="Path_84838" data-name="Path 84838" d="M22.721,41.07v.676a.7.7,0,0,1-.7.7H1.7a.7.7,0,0,1-.7-.7V41.07Z" transform="translate(-0.65 -17.586)" fill="#d5e0f3"/>
        <path id="Path_84839" data-name="Path 84839" d="M59.29,32.15h1.258v.862H59.29Z" transform="translate(-38.519 -11.791)" fill="#bbdef9"/>
        <path id="Path_84840" data-name="Path 84840" d="M23.26,18.944l-.252.252H16.264l3.77-3.77a2.778,2.778,0,0,1,.746.7l1.4,1.892a2.992,2.992,0,0,0,.277.322,3.5,3.5,0,0,0,.8.6ZM19.1,14.993l-4.2,4.2H12.2l4.2-4.2Zm-3.9,0L11,19.2h-.8l1.261-1.261,2.929-2.943a2.382,2.382,0,0,1,.273,0Z" transform="translate(-6.627 -0.642)" fill="#e3f2ff"/>
        <path id="Path_84841" data-name="Path 84841" d="M22.415,39a2.1,2.1,0,1,0,2.1,2.1A2.1,2.1,0,0,0,22.415,39ZM9.1,39a2.1,2.1,0,1,0,2.1,2.1A2.1,2.1,0,0,0,9.1,39Z" transform="translate(-4.548 -16.242)" fill="#acb7d0"/>
        <path id="Path_84842" data-name="Path 84842" d="M20.887,18.754l-2.9-.35a3.153,3.153,0,0,1-2.134-1.251l-1.4-1.892A3.171,3.171,0,0,0,11.911,14H6.635a3.153,3.153,0,0,0-2.8,1.752L2.585,18.2H1.752A1.752,1.752,0,0,0,0,19.956v4.2a1.051,1.051,0,0,0,1.051,1.051H2.13a2.452,2.452,0,0,0,4.849,0h8.464a2.452,2.452,0,0,0,4.849,0H21.37a1.051,1.051,0,0,0,1.051-1.051V20.492A1.752,1.752,0,0,0,20.887,18.754Zm.834,2.253H21.2a.175.175,0,0,1,0-.35h.526ZM4.442,16.056A2.452,2.452,0,0,1,6.635,14.7H9.109v3.5H3.367ZM1.752,18.9h10.51a.35.35,0,1,0,0-.7H9.809V14.7h2.1a2.452,2.452,0,0,1,1.962.981l1.419,1.892A3.854,3.854,0,0,0,17.9,19.087l2.9.35a1.051,1.051,0,0,1,.774.518H21.2a.876.876,0,0,0,0,1.752h.526v1.4H19.58a2.452,2.452,0,0,0-3.426,0H6.267a2.452,2.452,0,0,0-3.426,0H.7V19.956A1.051,1.051,0,0,1,1.752,18.9ZM15.443,24.51H6.979a2.256,2.256,0,0,0-.21-.7h8.884A2.256,2.256,0,0,0,15.443,24.51ZM.7,24.16v-.35H2.34a2.256,2.256,0,0,0-.21.7H1.051A.35.35,0,0,1,.7,24.16Zm3.854,2.452a1.752,1.752,0,0,1-1.717-2.1,1.724,1.724,0,0,1,.315-.7,1.752,1.752,0,0,1,2.8,0,1.724,1.724,0,0,1,.315.7,1.752,1.752,0,0,1-1.717,2.1Zm13.313,0a1.752,1.752,0,0,1-1.717-2.1,1.724,1.724,0,0,1,.315-.7,1.752,1.752,0,0,1,2.8,0,1.724,1.724,0,0,1,.315.7,1.752,1.752,0,0,1-1.717,2.1Zm3.5-2.1H20.291a2.256,2.256,0,0,0-.21-.7h1.64v.35A.35.35,0,0,1,21.37,24.51Z" transform="translate(0 0)" fill="#1d416f"/>
        <path id="Path_84843" data-name="Path 84843" d="M6.1,29.153a.35.35,0,0,0,.35-.35v-.7a.35.35,0,1,0-.7,0v.7A.35.35,0,0,0,6.1,29.153Zm-1.752,0a.35.35,0,0,0,.35-.35v-.7a.35.35,0,1,0-.7,0v.7A.35.35,0,0,0,4.35,29.153Zm7.007,0a.35.35,0,0,0,.35-.35v-.7a.35.35,0,1,0-.7,0v.7A.35.35,0,0,0,11.357,29.153Zm1.752,0a.35.35,0,0,0,.35-.35v-.7a.35.35,0,1,0-.7,0v.7A.35.35,0,0,0,13.109,29.153Zm1.752,0a.35.35,0,0,0,.35-.35v-.7a.35.35,0,1,0-.7,0v.7A.35.35,0,0,0,14.86,29.153Zm1.752-1.4a.35.35,0,0,0-.35.35v.7a.35.35,0,0,0,.7,0v-.7A.35.35,0,0,0,16.612,27.752Zm1.4,1.051a.35.35,0,0,0,.7,0v-.7a.35.35,0,1,0-.7,0Zm2.1.35a.35.35,0,0,0,.35-.35v-.7a.35.35,0,1,0-.7,0v.7A.35.35,0,0,0,20.115,29.153Zm1.752,0a.35.35,0,0,0,.35-.35v-.7a.35.35,0,0,0-.7,0v.7A.35.35,0,0,0,21.867,29.153Zm-12.262,0a.35.35,0,0,0,.35-.35v-.7a.35.35,0,1,0-.7,0v.7A.35.35,0,0,0,9.605,29.153Zm-1.752,0a.35.35,0,0,0,.35-.35v-.7a.35.35,0,1,0-.7,0v.7A.35.35,0,0,0,7.854,29.153Zm12.612,2.8a.7.7,0,1,0,.7.7A.7.7,0,0,0,20.466,31.956Zm-13.313,0a.7.7,0,1,0,.7.7A.7.7,0,0,0,7.153,31.956ZM16.262,26.7h1.4a.35.35,0,1,0,0-.7h-1.4a.35.35,0,0,0,0,.7Z" transform="translate(-2.599 -7.796)" fill="#1d416f"/>
      </g>
      <path id="Path_84898" data-name="Path 84898" d="M13.869,11.747a.49.49,0,0,1-.2-.045.5.5,0,0,1-.293-.46v-.809l-18.852.01a.528.528,0,0,1-.524-.531V8.855a.527.527,0,0,1,.522-.531l18.861-.01-.007-.809a.5.5,0,0,1,.293-.46.488.488,0,0,1,.527.076L16.253,8.99a.529.529,0,0,1,0,.786L14.2,11.623A.5.5,0,0,1,13.869,11.747ZM13.378,9.9a.526.526,0,0,1,.523.53v.743l2-1.793-2-1.81v.742a.526.526,0,0,1-.521.53l-18.854.009V9.911Z" transform="translate(50.789 497.59)" fill="#1d416f"/>
    </g>
  </g>
</svg>
