<svg xmlns="http://www.w3.org/2000/svg" xmlns:xlink="http://www.w3.org/1999/xlink" width="32" height="32" viewBox="0 0 32 32">
  <defs>
    <clipPath id="clip-path">
      <rect id="Rectangle_140115" data-name="Rectangle 140115" width="20.24" height="14.38" fill="none"/>
    </clipPath>
    <clipPath id="clip-path-3">
      <rect id="Rectangle_140091" data-name="Rectangle 140091" width="10.32" height="2.97" fill="none"/>
    </clipPath>
    <clipPath id="clip-path-4">
      <rect id="Rectangle_140092" data-name="Rectangle 140092" width="4.026" height="1.627" fill="none"/>
    </clipPath>
    <clipPath id="clip-path-5">
      <rect id="Rectangle_140093" data-name="Rectangle 140093" width="2.595" height="0.672" fill="none"/>
    </clipPath>
    <clipPath id="clip-path-6">
      <rect id="Rectangle_140094" data-name="Rectangle 140094" width="2.324" height="1.904" fill="none"/>
    </clipPath>
    <clipPath id="clip-path-7">
      <rect id="Rectangle_140095" data-name="Rectangle 140095" width="1.365" height="1.983" fill="none"/>
    </clipPath>
    <clipPath id="clip-path-8">
      <rect id="Rectangle_140096" data-name="Rectangle 140096" width="9.466" height="9.205" fill="none"/>
    </clipPath>
    <clipPath id="clip-path-9">
      <rect id="Rectangle_140097" data-name="Rectangle 140097" width="5.974" height="3.109" fill="none"/>
    </clipPath>
    <clipPath id="clip-path-10">
      <rect id="Rectangle_140098" data-name="Rectangle 140098" width="2.974" height="1.654" fill="none"/>
    </clipPath>
    <clipPath id="clip-path-11">
      <rect id="Rectangle_140099" data-name="Rectangle 140099" width="4.971" height="4.257" fill="none"/>
    </clipPath>
    <clipPath id="clip-path-12">
      <rect id="Rectangle_140100" data-name="Rectangle 140100" width="9.147" height="7.388" fill="none"/>
    </clipPath>
    <clipPath id="clip-path-13">
      <rect id="Rectangle_140101" data-name="Rectangle 140101" width="11.9" height="5.582" fill="none"/>
    </clipPath>
    <clipPath id="clip-path-14">
      <rect id="Rectangle_140102" data-name="Rectangle 140102" width="0.687" height="1.359" fill="none"/>
    </clipPath>
    <clipPath id="clip-path-15">
      <rect id="Rectangle_140103" data-name="Rectangle 140103" width="2.12" height="2.06" fill="none"/>
    </clipPath>
    <clipPath id="clip-path-17">
      <rect id="Rectangle_140105" data-name="Rectangle 140105" width="12.337" height="11.553" fill="none"/>
    </clipPath>
    <clipPath id="clip-path-18">
      <rect id="Rectangle_140106" data-name="Rectangle 140106" width="9.633" height="7.247" fill="none"/>
    </clipPath>
    <clipPath id="clip-path-19">
      <rect id="Rectangle_140107" data-name="Rectangle 140107" width="9.585" height="7.861" fill="none"/>
    </clipPath>
    <clipPath id="clip-path-20">
      <rect id="Rectangle_140108" data-name="Rectangle 140108" width="3.268" height="3.647" fill="none"/>
    </clipPath>
    <clipPath id="clip-path-21">
      <rect id="Rectangle_140109" data-name="Rectangle 140109" width="2.179" height="3.003" fill="none"/>
    </clipPath>
    <clipPath id="clip-path-22">
      <rect id="Rectangle_140110" data-name="Rectangle 140110" width="5.941" height="5.036" fill="none"/>
    </clipPath>
    <clipPath id="clip-path-23">
      <rect id="Rectangle_140111" data-name="Rectangle 140111" width="5.413" height="1.306" fill="none"/>
    </clipPath>
    <clipPath id="clip-path-24">
      <rect id="Rectangle_140112" data-name="Rectangle 140112" width="3.84" height="2.693" fill="none"/>
    </clipPath>
    <clipPath id="clip-path-25">
      <rect id="Rectangle_140113" data-name="Rectangle 140113" width="1.533" height="0.984" fill="none"/>
    </clipPath>
  </defs>
  <g id="General_Info" data-name="General Info" transform="translate(-40 -484)">
    <circle id="BG" cx="16" cy="16" r="16" transform="translate(40 484)" fill="#dce9f2"/>
    <g id="Sedan" transform="translate(45.88 492.81)">
      <g id="Group_162327" data-name="Group 162327" transform="translate(0 0)" clip-path="url(#clip-path)">
        <g id="Group_162326" data-name="Group 162326">
          <g id="Group_162325" data-name="Group 162325" clip-path="url(#clip-path)">
            <path id="Path_28906" data-name="Path 28906" d="M48.847,2.97c-.488-.283-2.5-1.755-3.12-2.179-.2-.116-.365-.21-.485-.277A3.158,3.158,0,0,0,42.481.175a.876.876,0,0,0-.562.57L38.527,2.97Z" transform="translate(-36.514 0)" fill="#1d416f"/>
            <g id="Group_162258" data-name="Group 162258" transform="translate(2.013)" opacity="0.4">
              <g id="Group_162257" data-name="Group 162257">
                <g id="Group_162256" data-name="Group 162256" clip-path="url(#clip-path-3)">
                  <path id="Path_28907" data-name="Path 28907" d="M48.847,2.97c-.488-.283-2.5-1.755-3.12-2.179-.2-.116-.365-.21-.485-.277A3.158,3.158,0,0,0,42.481.175a.876.876,0,0,0-.562.57L38.527,2.97Z" transform="translate(-38.527 0)" fill="#fff"/>
                </g>
              </g>
            </g>
            <g id="Group_162261" data-name="Group 162261" transform="translate(5.708 0.501)" opacity="0.2">
              <g id="Group_162260" data-name="Group 162260">
                <g id="Group_162259" data-name="Group 162259" clip-path="url(#clip-path-4)">
                  <path id="Path_28908" data-name="Path 28908" d="M113.3,10.435s-3.725-1.106-4.018-.793c-.2.213,3.316,1.572,3.316,1.572Z" transform="translate(-109.272 -9.586)" fill="#1d416f"/>
                </g>
              </g>
            </g>
            <g id="Group_162264" data-name="Group 162264" transform="translate(6.014 0.124)" opacity="0.2">
              <g id="Group_162263" data-name="Group 162263">
                <g id="Group_162262" data-name="Group 162262" clip-path="url(#clip-path-5)">
                  <path id="Path_28909" data-name="Path 28909" d="M117.711,2.974A.065.065,0,0,1,117.7,3a.091.091,0,0,1-.057.03.813.813,0,0,1-.327-.021c-.226-.047-.452-.1-.678-.146-.27-.053-.556-.121-.829-.157-.526-.069-1.031-.085-.392-.262a2.52,2.52,0,0,1,.832-.068,3.391,3.391,0,0,1,.747.133,2.254,2.254,0,0,1,.586.275c.066.043.137.1.13.181,0,0,0,.006,0,.009" transform="translate(-115.118 -2.369)" fill="#fff"/>
                </g>
              </g>
            </g>
            <path id="Path_28910" data-name="Path 28910" d="M5.073,88.457l2.12-1.224-1.178-.68-1.146.724Z" transform="translate(-4.614 -82.032)" fill="#1d416f"/>
            <g id="Group_162267" data-name="Group 162267" transform="translate(0.254 4.522)" opacity="0.45">
              <g id="Group_162266" data-name="Group 162266">
                <g id="Group_162265" data-name="Group 162265" clip-path="url(#clip-path-6)">
                  <path id="Path_28911" data-name="Path 28911" d="M5.073,88.457l2.12-1.224-1.178-.68-1.146.724Z" transform="translate(-4.869 -86.554)"/>
                </g>
              </g>
            </g>
            <path id="Path_28912" data-name="Path 28912" d="M20.345,97.268l-.3-.605.725-.419h0a.861.861,0,0,1,.874.077,3,3,0,0,1,1.3,2.381,1.054,1.054,0,0,1-.414.957h0l-.01.006h0l-.743.429-.321-.638a3.092,3.092,0,0,1-1.1-2.188" transform="translate(-18.993 -91.134)" fill="#37474f"/>
            <path id="Path_28913" data-name="Path 28913" d="M20.345,97.268l-.3-.605.725-.419h0a.861.861,0,0,1,.874.077,3,3,0,0,1,1.3,2.381,1.054,1.054,0,0,1-.414.957h0l-.01.006h0l-.743.429-.321-.638a3.092,3.092,0,0,1-1.1-2.188" transform="translate(-18.993 -91.134)" fill="#263238"/>
            <path id="Path_28914" data-name="Path 28914" d="M11.409,105.539a3.106,3.106,0,0,0,1.009,2.175l0,0a1.914,1.914,0,0,0,.284.2c.716.414,1.3.017,1.3-.884a3.13,3.13,0,0,0-.8-1.973l0,0a2.091,2.091,0,0,0-.49-.4c-.716-.413-1.3-.017-1.3.884" transform="translate(-10.813 -99.032)" fill="#37474f"/>
            <path id="Path_28915" data-name="Path 28915" d="M11.409,105.539a3.106,3.106,0,0,0,1.009,2.175,3.675,3.675,0,0,1-.822-1.591c-.11-.52-.068-1.266.378-1.454s1.035.209,1.221.39a2.091,2.091,0,0,0-.49-.4c-.716-.413-1.3-.017-1.3.884" transform="translate(-10.813 -99.032)" fill="#455a64"/>
            <path id="Path_28916" data-name="Path 28916" d="M21.255,116.031c-.456-.263-.825.016-.825.624a1.975,1.975,0,0,0,.825,1.576c.455.263.825-.016.825-.624a1.975,1.975,0,0,0-.825-1.576m0,2.01a1.634,1.634,0,0,1-.682-1.3c0-.5.306-.733.682-.516a1.634,1.634,0,0,1,.682,1.3c0,.5-.305.733-.682.516" transform="translate(-19.363 -109.875)" fill="#f5f5f5"/>
            <path id="Path_28917" data-name="Path 28917" d="M24.517,121.284a.749.749,0,0,1-.12.446.4.4,0,0,1-.562.07,1.633,1.633,0,0,1-.683-1.3c0-.352.149-.57.368-.6a.515.515,0,0,1,.315.079,1.635,1.635,0,0,1,.682,1.3" transform="translate(-21.943 -113.635)" fill="#e0e0e0"/>
            <g id="Group_162270" data-name="Group 162270" transform="translate(1.209 6.263)" opacity="0.4">
              <g id="Group_162269" data-name="Group 162269">
                <g id="Group_162268" data-name="Group 162268" clip-path="url(#clip-path-7)">
                  <path id="Path_28918" data-name="Path 28918" d="M24.517,121.284a.749.749,0,0,1-.12.446.4.4,0,0,1-.562.07,1.633,1.633,0,0,1-.683-1.3c0-.352.149-.57.368-.6a.515.515,0,0,1,.315.079,1.635,1.635,0,0,1,.682,1.3" transform="translate(-23.152 -119.899)"/>
                </g>
              </g>
            </g>
            <path id="Path_28919" data-name="Path 28919" d="M28.992,121.284a.749.749,0,0,1-.12.446.512.512,0,0,1-.316-.079,1.633,1.633,0,0,1-.682-1.3A.745.745,0,0,1,28,119.9a.515.515,0,0,1,.315.079,1.635,1.635,0,0,1,.682,1.3" transform="translate(-26.418 -113.635)" fill="#263238"/>
            <path id="Path_28920" data-name="Path 28920" d="M26.9,123.756l-.123.358-.293-.642a.551.551,0,0,1,.062-.218Z" transform="translate(-25.101 -116.815)" fill="#e0e0e0"/>
            <path id="Path_28921" data-name="Path 28921" d="M29.922,138.271l.221.311-.218.25a.426.426,0,0,1-.123-.169Z" transform="translate(-28.244 -131.048)" fill="#e0e0e0"/>
            <path id="Path_28922" data-name="Path 28922" d="M35.225,142.3l-.062.026-.016-.071-.243.067.5.709a.371.371,0,0,0,.133-.113c.008-.01.015-.022.022-.033Z" transform="translate(-33.082 -134.824)" fill="#e0e0e0"/>
            <path id="Path_28923" data-name="Path 28923" d="M38.836,135.562l-.4.091-.037-.061-.04.016-.066-.311.049.028,0-.081.409,0a1.738,1.738,0,0,1,.094.321" transform="translate(-36.288 -128.176)" fill="#e0e0e0"/>
            <path id="Path_28924" data-name="Path 28924" d="M33.52,123.07l-.061-.02.016.072-.265-.154.233-.572a1.177,1.177,0,0,1,.2.185Z" transform="translate(-31.474 -116.002)" fill="#e0e0e0"/>
            <path id="Path_28925" data-name="Path 28925" d="M31.793,132.22c0,.19-.116.277-.258.2a.618.618,0,0,1-.258-.493c0-.19.116-.278.258-.2a.618.618,0,0,1,.258.493" transform="translate(-29.643 -124.816)" fill="#f5f5f5"/>
            <path id="Path_28926" data-name="Path 28926" d="M.245,47.158c.263-.62,1.358-1.265,1.825-1.031.146.073.559.323,1.08.623,0,0,1.714,1.037,1.873,1.128a5.776,5.776,0,0,0-1.005.054.2.2,0,0,0-.137.262l.094.3c.248.78,1.785,1.585,2.133,1.789s3.359,1.943,3.359,1.943v3.052L3.6,51.918a2.4,2.4,0,0,0-.013-.25,3.73,3.73,0,0,0-1.6-2.59C1.14,48.589.454,49.045.454,50.1l-.137-.079c-.487-.294-.334-2.24-.072-2.86" transform="translate(0 -43.671)" fill="#1d416f"/>
            <g id="Group_162273" data-name="Group 162273" transform="translate(0 2.407)" opacity="0.4">
              <g id="Group_162272" data-name="Group 162272">
                <g id="Group_162271" data-name="Group 162271" clip-path="url(#clip-path-8)">
                  <path id="Path_28927" data-name="Path 28927" d="M.245,47.158c.263-.62,1.358-1.265,1.825-1.031.146.073.559.323,1.08.623,0,0,1.714,1.037,1.873,1.128a5.776,5.776,0,0,0-1.005.054.2.2,0,0,0-.137.262l.094.3c.248.78,1.785,1.585,2.133,1.789s3.359,1.943,3.359,1.943v3.052L3.6,51.918a2.4,2.4,0,0,0-.013-.25,3.73,3.73,0,0,0-1.6-2.59C1.14,48.589.454,49.045.454,50.1l-.137-.079c-.487-.294-.334-2.24-.072-2.86" transform="translate(0 -46.078)" fill="#fff"/>
                </g>
              </g>
            </g>
            <path id="Path_28928" data-name="Path 28928" d="M31.041,9.211a.687.687,0,0,1,.451.023c.146.073.56.324,1.081.624l.7.4,3.74-2.154s-1.45-.74-1.965-.939-3.862,1.657-4.008,2.042" transform="translate(-29.419 -6.78)" fill="#1d416f"/>
            <g id="Group_162276" data-name="Group 162276" transform="translate(1.622 0.374)" opacity="0.5">
              <g id="Group_162275" data-name="Group 162275">
                <g id="Group_162274" data-name="Group 162274" clip-path="url(#clip-path-9)">
                  <path id="Path_28929" data-name="Path 28929" d="M31.041,9.211a.687.687,0,0,1,.451.023c.146.073.56.324,1.081.624l.7.4,3.74-2.154s-1.45-.74-1.965-.939-3.862,1.657-4.008,2.042" transform="translate(-31.041 -7.154)" fill="#fff"/>
                </g>
              </g>
            </g>
            <g id="Group_162279" data-name="Group 162279" transform="translate(6.057 6.877)" opacity="0.2">
              <g id="Group_162278" data-name="Group 162278">
                <g id="Group_162277" data-name="Group 162277" clip-path="url(#clip-path-10)">
                  <path id="Path_28930" data-name="Path 28930" d="M118.915,133.29l-2.887-1.654a.22.22,0,0,0-.087.192Z" transform="translate(-115.941 -131.636)" fill="#fff"/>
                </g>
              </g>
            </g>
            <path id="Path_28931" data-name="Path 28931" d="M117.452,136.618a.018.018,0,0,0,.026-.015v-.082c0-.062-.093-.167-.209-.233l-.17-.1c-.115-.066-.209-.07-.209-.007v.067a.079.079,0,0,0,.039.068Z" transform="translate(-110.785 -129.025)" fill="#1d416f"/>
            <g id="Group_162282" data-name="Group 162282" transform="translate(0.782 2.633)" opacity="0.2">
              <g id="Group_162281" data-name="Group 162281">
                <g id="Group_162280" data-name="Group 162280" clip-path="url(#clip-path-11)">
                  <path id="Path_28932" data-name="Path 28932" d="M18.572,53.608c.16.094,1.253.739,1.371.813a.57.57,0,0,0-.147.24,42.815,42.815,0,0,1-3.99-2.462l-.1-.093c-.281-.259-.7-.629-.73-1.042-.03-.4.508-.607.824-.653a.83.83,0,0,1,.484.094,1.236,1.236,0,0,1,.4.26.181.181,0,0,1,.038.179.267.267,0,0,1-.1.1l-.2.148a.431.431,0,0,0-.134.132.352.352,0,0,0-.009.259,1.2,1.2,0,0,0,.182.4c.1.146.247.29.365.425a6.748,6.748,0,0,0,1.751,1.2" transform="translate(-14.971 -50.404)" fill="#fff"/>
                </g>
              </g>
            </g>
            <path id="Path_28933" data-name="Path 28933" d="M74.994,112.782a.018.018,0,0,0,.026-.015v-.082c0-.062-.093-.167-.209-.233l-.17-.1c-.115-.066-.209-.07-.209-.007v.067a.079.079,0,0,0,.039.068Z" transform="translate(-70.545 -106.434)" fill="#1d416f"/>
            <g id="Group_162285" data-name="Group 162285" transform="translate(0.139 3.834)" opacity="0.5">
              <g id="Group_162284" data-name="Group 162284">
                <g id="Group_162283" data-name="Group 162283" clip-path="url(#clip-path-12)">
                  <path id="Path_28934" data-name="Path 28934" d="M11.752,78.238s.013.886-.037,1.419c-.059.63-.082,1-.209.935l-.206-.106L8.419,79l3.017,1.729c.2.113.265.106.316-.512a9.41,9.41,0,0,0,0-1.978M8.387,76.252a.839.839,0,0,0-.156.653c.057.418.15,1.749.15,1.749s.005-1.2.005-1.7a.978.978,0,0,1,.165-.612ZM5.372,74.959a1.678,1.678,0,0,0-.177.494,2.768,2.768,0,0,1,.28-.42,2.02,2.02,0,0,1,.549-.275s-.548.067-.652.2m-2.54-.67a3.432,3.432,0,0,1-.167-.893,2.649,2.649,0,0,0,.089.975,2.584,2.584,0,0,0,.742.436,2.552,2.552,0,0,1-.664-.519" transform="translate(-2.657 -73.396)" fill="#1d416f"/>
                </g>
              </g>
            </g>
            <path id="Path_28935" data-name="Path 28935" d="M54.959,8.846a11.264,11.264,0,0,0-4.152-1.882,8.891,8.891,0,0,0-1.952.222,3.061,3.061,0,0,0-.583.231c-.117.069-.219.126-.337.194l-1.287.743-1.542.89a10.8,10.8,0,0,0-1.579.975.186.186,0,0,0,.053.193c.071.095.2.229.356.419.31.367.405.235.5.242.291-.082.621-.167.982-.253l1.478-.046a1.591,1.591,0,0,1,.633.175A17.5,17.5,0,0,1,49.318,12a2,2,0,0,1,.425.549s-.21-.408.128-.562,1.7-.668,2.681-1.187c.826-.436,2.05-1.541,2.221-1.6.212-.077.644.257.644.257a5.56,5.56,0,0,0-.458-.6" transform="translate(-41.244 -6.6)" fill="#1d416f"/>
            <g id="Group_162288" data-name="Group 162288" transform="translate(2.273 0.364)" opacity="0.7">
              <g id="Group_162287" data-name="Group 162287">
                <g id="Group_162286" data-name="Group 162286" clip-path="url(#clip-path-13)">
                  <path id="Path_28936" data-name="Path 28936" d="M54.959,8.846a11.264,11.264,0,0,0-4.152-1.882,8.891,8.891,0,0,0-1.952.222,3.061,3.061,0,0,0-.583.231c-.117.069-.219.126-.337.194l-1.287.743-1.542.89a10.8,10.8,0,0,0-1.579.975.186.186,0,0,0,.053.193c.071.095.2.229.356.419.31.367.405.235.5.242.291-.082.621-.167.982-.253l1.478-.046a1.591,1.591,0,0,1,.633.175A17.5,17.5,0,0,1,49.318,12a2,2,0,0,1,.425.549s-.21-.408.128-.562,1.7-.668,2.681-1.187c.826-.436,2.05-1.541,2.221-1.6.212-.077.644.257.644.257a5.56,5.56,0,0,0-.458-.6" transform="translate(-43.517 -6.964)" fill="#fff"/>
                </g>
              </g>
            </g>
            <path id="Path_28937" data-name="Path 28937" d="M45.59,13.372a3.05,3.05,0,0,0,1.2-.315c.4-.2.9-.518,1.08-.622l2.719-1.57c1.121-.647,1.223-.753.884-.73-.321.021-.736.069-.958.1a5.078,5.078,0,0,0-.655.159,4.387,4.387,0,0,0-.659.323c-.892.515-1.474.857-2.791,1.617-.607.351-1.1.632-1.478.853s.231.229.654.18" transform="translate(-42.483 -9.603)" fill="#37474f"/>
            <path id="Path_28938" data-name="Path 28938" d="M293.7,65.578h0l.048.2c.11.205.352.464.439.443s.125-.132.15-.272v0a1.409,1.409,0,0,0,.02-.2c.008-.22-.09-.732-.4-.869a.158.158,0,0,0-.181.041.36.36,0,0,0-.088.146,1.426,1.426,0,0,0,.008.517" transform="translate(-278.332 -61.473)" fill="#1d416f"/>
            <g id="Group_162291" data-name="Group 162291" transform="translate(15.341 3.388)" opacity="0.3">
              <g id="Group_162290" data-name="Group 162290">
                <g id="Group_162289" data-name="Group 162289" clip-path="url(#clip-path-14)">
                  <path id="Path_28939" data-name="Path 28939" d="M293.7,65.578h0c.016.082.048.2.048.2.11.205.352.464.439.443s.125-.132.15-.272v0a1.409,1.409,0,0,0,.02-.2c.008-.22-.09-.732-.4-.869a.158.158,0,0,0-.181.041.36.36,0,0,0-.088.146,1.426,1.426,0,0,0,.008.517" transform="translate(-293.673 -64.861)" fill="#fff"/>
                </g>
              </g>
            </g>
            <path id="Path_28940" data-name="Path 28940" d="M295.162,65.776c.11.205.352.464.439.443s.125-.132.15-.272v0a1.411,1.411,0,0,0,.02-.2c.008-.22-.09-.732-.4-.868a.158.158,0,0,0-.181.041l.042.095c.213.091.271.42.251.671s-.2.225-.325.1" transform="translate(-279.743 -61.473)" fill="#1d416f"/>
            <path id="Path_28941" data-name="Path 28941" d="M294.106,65.057c.077-.082.268-.086.43.136a1.516,1.516,0,0,1,.214.749,1.42,1.42,0,0,0,.02-.2c.008-.22-.09-.732-.4-.869-.128-.057-.233.073-.269.187" transform="translate(-278.742 -61.468)" fill="#37474f"/>
            <path id="Path_28942" data-name="Path 28942" d="M185.922,187.651l2.12-1.224-1.416-.836-.7.7Z" transform="translate(-176.21 -175.896)" fill="#1d416f"/>
            <g id="Group_162294" data-name="Group 162294" transform="translate(9.713 9.695)" opacity="0.45">
              <g id="Group_162293" data-name="Group 162293">
                <g id="Group_162292" data-name="Group 162292" clip-path="url(#clip-path-15)">
                  <path id="Path_28943" data-name="Path 28943" d="M185.922,187.651l2.12-1.224-1.416-.836-.7.7Z" transform="translate(-185.922 -185.592)"/>
                </g>
              </g>
            </g>
            <path id="Path_28944" data-name="Path 28944" d="M197.111,199.271l-.3-.605.725-.419h0a.861.861,0,0,1,.874.077,3,3,0,0,1,1.3,2.381,1.054,1.054,0,0,1-.414.956h0l-.01.006h0l-.743.429-.321-.638a3.092,3.092,0,0,1-1.1-2.188" transform="translate(-186.525 -187.808)" fill="#37474f"/>
            <path id="Path_28945" data-name="Path 28945" d="M197.111,199.271l-.3-.605.725-.419h0a.861.861,0,0,1,.874.077,3,3,0,0,1,1.3,2.381,1.054,1.054,0,0,1-.414.956h0l-.01.006h0l-.743.429-.321-.638a3.092,3.092,0,0,1-1.1-2.188" transform="translate(-186.525 -187.808)" fill="#263238"/>
            <path id="Path_28946" data-name="Path 28946" d="M188.175,207.542a3.106,3.106,0,0,0,1.009,2.175l0,0a1.916,1.916,0,0,0,.284.2c.716.414,1.3.017,1.3-.884a3.13,3.13,0,0,0-.8-1.973l0,0a2.092,2.092,0,0,0-.49-.4c-.716-.413-1.3-.017-1.3.884" transform="translate(-178.345 -195.707)" fill="#37474f"/>
            <path id="Path_28947" data-name="Path 28947" d="M188.175,207.542a3.106,3.106,0,0,0,1.009,2.175,3.675,3.675,0,0,1-.822-1.591c-.11-.52-.069-1.266.378-1.454s1.035.209,1.221.39a2.092,2.092,0,0,0-.49-.4c-.716-.413-1.3-.017-1.3.884" transform="translate(-178.345 -195.707)" fill="#455a64"/>
            <path id="Path_28948" data-name="Path 28948" d="M198.02,218.034c-.456-.263-.825.016-.825.624a1.975,1.975,0,0,0,.825,1.576c.456.263.825-.016.825-.624a1.975,1.975,0,0,0-.825-1.576m0,2.01a1.634,1.634,0,0,1-.682-1.3c0-.5.306-.733.682-.516a1.634,1.634,0,0,1,.682,1.3c0,.5-.305.733-.682.516" transform="translate(-186.894 -206.55)" fill="#f5f5f5"/>
            <path id="Path_28949" data-name="Path 28949" d="M201.283,223.288a.749.749,0,0,1-.12.446.4.4,0,0,1-.562.07,1.633,1.633,0,0,1-.683-1.3c0-.352.149-.57.368-.6a.515.515,0,0,1,.315.079,1.635,1.635,0,0,1,.682,1.3" transform="translate(-189.474 -210.31)" fill="#e0e0e0"/>
            <g id="Group_162297" data-name="Group 162297" transform="translate(10.444 11.592)" opacity="0.4">
              <g id="Group_162296" data-name="Group 162296">
                <g id="Group_162295" data-name="Group 162295" clip-path="url(#clip-path-7)">
                  <path id="Path_28950" data-name="Path 28950" d="M201.283,223.288a.749.749,0,0,1-.12.446.4.4,0,0,1-.562.07,1.633,1.633,0,0,1-.683-1.3c0-.352.149-.57.368-.6a.515.515,0,0,1,.315.079,1.635,1.635,0,0,1,.682,1.3" transform="translate(-199.918 -221.903)"/>
                </g>
              </g>
            </g>
            <path id="Path_28951" data-name="Path 28951" d="M205.758,223.288a.749.749,0,0,1-.12.446.512.512,0,0,1-.316-.079,1.633,1.633,0,0,1-.682-1.3.744.744,0,0,1,.121-.447.515.515,0,0,1,.315.079,1.635,1.635,0,0,1,.682,1.3" transform="translate(-193.95 -210.31)" fill="#263238"/>
            <path id="Path_28952" data-name="Path 28952" d="M203.666,225.759l-.123.358-.293-.642a.551.551,0,0,1,.062-.218Z" transform="translate(-192.633 -213.49)" fill="#e0e0e0"/>
            <path id="Path_28953" data-name="Path 28953" d="M206.688,240.275l.221.311-.218.25a.426.426,0,0,1-.123-.169Z" transform="translate(-195.776 -227.723)" fill="#e0e0e0"/>
            <path id="Path_28954" data-name="Path 28954" d="M211.992,244.3l-.062.026-.016-.071-.243.067.5.709a.372.372,0,0,0,.133-.113c.008-.01.015-.022.022-.033Z" transform="translate(-200.614 -231.498)" fill="#e0e0e0"/>
            <path id="Path_28955" data-name="Path 28955" d="M215.6,237.565l-.4.091-.037-.061-.04.016-.066-.311.049.028,0-.081.409,0a1.738,1.738,0,0,1,.094.321" transform="translate(-203.82 -224.85)" fill="#e0e0e0"/>
            <path id="Path_28956" data-name="Path 28956" d="M210.286,225.073l-.061-.02.016.072-.265-.154.233-.572a1.179,1.179,0,0,1,.2.185Z" transform="translate(-199.006 -212.676)" fill="#e0e0e0"/>
            <path id="Path_28957" data-name="Path 28957" d="M208.559,234.224c0,.19-.116.277-.258.2a.618.618,0,0,1-.258-.493c0-.19.116-.277.258-.2a.618.618,0,0,1,.258.493" transform="translate(-197.175 -221.491)" fill="#f5f5f5"/>
            <path id="Path_28958" data-name="Path 28958" d="M159.547,44.791a8.217,8.217,0,0,0-.6-.759c-.463-.548-1.311-1.384-1.65-1.695-.1-.093-.188-.166-.259-.222l-.092.1a18.626,18.626,0,0,1,2.448,2.576c.133.23-.434.763-1.273,1.355-1.741,1.227-4.657,2.7-4.931,2.228l-1.288-2.763a1.273,1.273,0,0,0-.454-.58l-.176.1a1.434,1.434,0,0,1,.178.147,1.187,1.187,0,0,1,.275.42c.192.446.9,2.013.971,2.181a1.1,1.1,0,0,1,.139.6,14.37,14.37,0,0,0,0,3.045l.247.143c0-.06,0-.124.005-.19.083-.9.733-1.271,1.522-.815.049.028.1.059.145.092a3.218,3.218,0,0,1,.937,1.09,3.811,3.811,0,0,1,.362.925,2.993,2.993,0,0,1,.068.38c.033.284.624.474,1.851.514a6.235,6.235,0,0,0,3.036-.739,9.983,9.983,0,0,0,1.483-.911,2.808,2.808,0,0,0,1.013-1.779,4.748,4.748,0,0,0,.068-.475c.311-2.149-1.38-3.085-4.029-4.969" transform="translate(-143.372 -39.915)" fill="#1d416f"/>
            <g id="Group_162300" data-name="Group 162300" transform="translate(7.903 2.2)" opacity="0.5">
              <g id="Group_162299" data-name="Group 162299">
                <g id="Group_162298" data-name="Group 162298" clip-path="url(#clip-path-17)">
                  <path id="Path_28959" data-name="Path 28959" d="M159.547,44.791a8.217,8.217,0,0,0-.6-.759c-.463-.548-1.311-1.384-1.65-1.695-.1-.093-.188-.166-.259-.222l-.092.1a18.626,18.626,0,0,1,2.448,2.576c.133.23-.434.763-1.273,1.355-1.741,1.227-4.657,2.7-4.931,2.228l-1.288-2.763a1.273,1.273,0,0,0-.454-.58l-.176.1a1.434,1.434,0,0,1,.178.147,1.187,1.187,0,0,1,.275.42c.192.446.9,2.013.971,2.181a1.1,1.1,0,0,1,.139.6,14.37,14.37,0,0,0,0,3.045l.247.143c0-.06,0-.124.005-.19.083-.9.733-1.271,1.522-.815.049.028.1.059.145.092a3.218,3.218,0,0,1,.937,1.09,3.811,3.811,0,0,1,.362.925,2.993,2.993,0,0,1,.068.38c.033.284.624.474,1.851.514a6.235,6.235,0,0,0,3.036-.739,9.983,9.983,0,0,0,1.483-.911,2.808,2.808,0,0,0,1.013-1.779,4.748,4.748,0,0,0,.068-.475c.311-2.149-1.38-3.085-4.029-4.969" transform="translate(-151.275 -42.115)" fill="#fff"/>
                </g>
              </g>
            </g>
            <path id="Path_28960" data-name="Path 28960" d="M294.619,211.937a6.656,6.656,0,0,0,1.861-.811,4.011,4.011,0,0,0,1.1-.872c.191-.239.307-.551.186-.507a8.681,8.681,0,0,1-.908.705,5.7,5.7,0,0,1-3.049,1.143,1.12,1.12,0,0,0-.259.02c-.329.1.553.45,1.073.32" transform="translate(-278.144 -198.787)" fill="#263238"/>
            <path id="Path_28961" data-name="Path 28961" d="M260.876,239.965a2.312,2.312,0,0,1,.581.131,1.621,1.621,0,0,1,.513.181c.1.069.367.286.5.353.2.105,0,.181-.571.182s-.764-.171-.9-.346-.294-.478-.123-.5" transform="translate(-247.178 -227.428)" fill="#37474f"/>
            <path id="Path_28962" data-name="Path 28962" d="M379.072,191.106h0c-.01.079-.026.191-.053.338a3.576,3.576,0,0,1-.2.7c-.042.039-.08.065-.105.063-.1-.006-.014-.174.056-.425s.243-.494.307-.679" transform="translate(-358.884 -181.123)" fill="#37474f"/>
            <g id="Group_162303" data-name="Group 162303" transform="translate(10.574 5.335)" opacity="0.5">
              <g id="Group_162302" data-name="Group 162302">
                <g id="Group_162301" data-name="Group 162301" clip-path="url(#clip-path-18)">
                  <path id="Path_28963" data-name="Path 28963" d="M207.988,102.128a32.132,32.132,0,0,1,2.962,3.395,12.507,12.507,0,0,0-2.962-3.395m-5.568,3.431a49.568,49.568,0,0,1,5.333,1.77,15.63,15.63,0,0,0-5.333-1.77M210.491,108a6.85,6.85,0,0,1-3.153,1.209,2.971,2.971,0,0,1-2.08-.874,2.559,2.559,0,0,0,2.08,1.043,5.44,5.44,0,0,0,3.2-1.13,3.117,3.117,0,0,0,1.519-1.9,3.659,3.659,0,0,1-1.561,1.65m-6.082.926a1.369,1.369,0,0,1,.937-1.062,2.664,2.664,0,0,0-.937,1.062" transform="translate(-202.42 -102.128)" fill="#1d416f"/>
                </g>
              </g>
            </g>
            <g id="Group_162306" data-name="Group 162306" transform="translate(10.036 5.133)" opacity="0.2">
              <g id="Group_162305" data-name="Group 162305">
                <g id="Group_162304" data-name="Group 162304" clip-path="url(#clip-path-19)">
                  <path id="Path_28964" data-name="Path 28964" d="M201.491,100.666a16.481,16.481,0,0,0-3.136-2.4c-.2.044,1.106,1.1,1.71,1.8a9.176,9.176,0,0,1,1.083,1.4c.187.34.333.075.478-.181s.083-.372-.135-.619m-8.3,2.708a2.619,2.619,0,0,1,1.473,1.328c.036-.031.106-.084.106-.084a1.891,1.891,0,0,0-1.579-1.244m4.477.33c-.118-.079-3.127-1.09-4.264-1.443s-1.583-.323-1.085-.11c.442.189,2.21,1.336,2.553,1.562a3.749,3.749,0,0,0,1.686.325c.726.026,1.458-.1,1.11-.334m-2.789,1.567a2.712,2.712,0,0,1,.219.856,2.81,2.81,0,0,0-.121-.917Z" transform="translate(-192.119 -98.267)" fill="#fff"/>
                </g>
              </g>
            </g>
            <path id="Path_28965" data-name="Path 28965" d="M159.941,46.991l1.466,3.144c.275.476,3.19-1,4.931-2.228.839-.591,1.405-1.125,1.273-1.355a18.558,18.558,0,0,0-2.448-2.576q-.135.138-.279.269a8.8,8.8,0,0,1-.723.6,16.555,16.555,0,0,1-4.22,2.147m.368.341a.238.238,0,0,1,.131-.322A15.891,15.891,0,0,0,164.276,45a9.037,9.037,0,0,0,.737-.61h0a.239.239,0,0,1,.32,0,18.3,18.3,0,0,1,2.1,2.257c-.017.061-.151.364-1.208,1.11a14,14,0,0,1-4.584,2.284.282.282,0,0,1-.075-.008Z" transform="translate(-151.586 -41.679)" fill="#37474f"/>
            <path id="Path_28966" data-name="Path 28966" d="M167.848,56.32a.282.282,0,0,0,.075.008,14,14,0,0,0,4.584-2.284c1.057-.746,1.191-1.049,1.208-1.11a18.3,18.3,0,0,0-2.1-2.257.239.239,0,0,0-.32,0h0a9.043,9.043,0,0,1-.737.61,15.892,15.892,0,0,1-3.837,2.012.238.238,0,0,0-.131.322Z" transform="translate(-157.865 -47.972)" fill="#263238"/>
            <g id="Group_162309" data-name="Group 162309" transform="translate(11.936 2.975)" opacity="0.2">
              <g id="Group_162308" data-name="Group 162308">
                <g id="Group_162307" data-name="Group 162307" clip-path="url(#clip-path-20)">
                  <path id="Path_28967" data-name="Path 28967" d="M231.2,60.053c-.264.186-.544.371-.831.551-.59-.958-1.537-2.345-1.875-2.788q.4-.251.754-.515c.152-.113.3-.228.434-.344a14.64,14.64,0,0,1,2.08,2.673c-.15.122-.335.262-.563.422" transform="translate(-228.493 -56.957)" fill="#fff"/>
                </g>
              </g>
            </g>
            <g id="Group_162312" data-name="Group 162312" transform="translate(11.4 3.971)" opacity="0.2">
              <g id="Group_162311" data-name="Group 162311">
                <g id="Group_162310" data-name="Group 162310" clip-path="url(#clip-path-21)">
                  <path id="Path_28968" data-name="Path 28968" d="M218.22,76.2q.16-.091.314-.183a31.284,31.284,0,0,1,1.865,2.794q-.174.106-.349.208c-.381-.625-1.117-1.794-1.83-2.82" transform="translate(-218.22 -76.012)" fill="#fff"/>
                </g>
              </g>
            </g>
            <g id="Group_162315" data-name="Group 162315" transform="translate(8.701 3.319)" opacity="0.3">
              <g id="Group_162314" data-name="Group 162314">
                <g id="Group_162313" data-name="Group 162313" clip-path="url(#clip-path-22)">
                  <path id="Path_28969" data-name="Path 28969" d="M169.61,67.905c-.826.4-1.687.667-1.757.482s-.747-1.5-.919-1.978-.213-.531-.1-.676a11.535,11.535,0,0,1,1.756-.857,9.407,9.407,0,0,0,1.964-1.34,15.888,15.888,0,0,1-3.837,2.012.238.238,0,0,0-.131.322l1.26,2.695a.284.284,0,0,0,.075.008,14,14,0,0,0,4.584-2.284c-.336.245-2.07,1.222-2.9,1.617" transform="translate(-166.566 -63.536)" fill="#fff"/>
                </g>
              </g>
            </g>
            <path id="Path_28970" data-name="Path 28970" d="M61.608,81.625c-.071-.168-.779-1.735-.971-2.181a1.188,1.188,0,0,0-.275-.42,1.425,1.425,0,0,0-.178-.147,12.936,12.936,0,0,0-1.852-1.042,3.091,3.091,0,0,0-1.418-.065,5.123,5.123,0,0,0-1.5.325c-.376.177-.33.282.1.528l6.233,3.6a1.109,1.109,0,0,0-.14-.6" transform="translate(-52.281 -73.663)" fill="#263238"/>
            <path id="Path_28971" data-name="Path 28971" d="M59.342,82.213c-.1-.06-.221-.246-.126-.313.023-.013.053-.029.094-.048a4.987,4.987,0,0,1,1.423-.306c.105-.007.2-.015.3-.022.17-.014.317-.026.458-.026a1.547,1.547,0,0,1,.579.1,12.892,12.892,0,0,1,1.8,1.015l.007,0a1.22,1.22,0,0,1,.149.123.989.989,0,0,1,.234.359c.113.263.4.912.638,1.434a2.3,2.3,0,0,1,.175.769v.221Z" transform="translate(-56.089 -77.24)" fill="#37474f"/>
            <path id="Path_28972" data-name="Path 28972" d="M69.227,86.139c0-.035-.036-.081-.109-.125a9.208,9.208,0,0,0-1.2-.645,3.1,3.1,0,0,0-1.4-.192,4.216,4.216,0,0,0-1.316.208c-.059.021-.123.061-.115.134s.084.1.134.13a3.248,3.248,0,0,0,.494.245,3.078,3.078,0,0,0,1.115.157,14.369,14.369,0,0,1,2.144.2.413.413,0,0,0,.194-.011.112.112,0,0,0,.061-.1" transform="translate(-61.685 -80.723)" fill="#455a64"/>
            <path id="Path_28973" data-name="Path 28973" d="M72.848,81.5s-.209.621-.3,1.026l.158.091c.086-.387.3-1.084.3-1.084Z" transform="translate(-68.763 -77.24)" fill="#263238"/>
            <path id="Path_28974" data-name="Path 28974" d="M114.422,87.968a15.819,15.819,0,0,0-.551,1.934l.158.091a13.544,13.544,0,0,1,.56-1.991Z" transform="translate(-107.922 -83.373)" fill="#263238"/>
            <path id="Path_28975" data-name="Path 28975" d="M56.448,76.038l-.176.1A12.949,12.949,0,0,0,54.419,75.1,3.092,3.092,0,0,0,53,75.034a5.108,5.108,0,0,0-1.5.325.974.974,0,0,0-.184.106s-.023-.02-.094-.092-.193-.231-.193-.231c.256.028.908-.173,1.893-.262a3.561,3.561,0,0,1,1.51.046,9.218,9.218,0,0,1,2.01,1.112" transform="translate(-48.369 -70.925)" fill="#1d416f"/>
            <g id="Group_162318" data-name="Group 162318" transform="translate(2.666 3.909)" opacity="0.5">
              <g id="Group_162317" data-name="Group 162317">
                <g id="Group_162316" data-name="Group 162316" clip-path="url(#clip-path-23)">
                  <path id="Path_28976" data-name="Path 28976" d="M56.448,76.038l-.176.1A12.949,12.949,0,0,0,54.419,75.1,3.092,3.092,0,0,0,53,75.034a5.108,5.108,0,0,0-1.5.325.974.974,0,0,0-.184.106s-.023-.02-.094-.092-.193-.231-.193-.231c.256.028.908-.173,1.893-.262a3.561,3.561,0,0,1,1.51.046,9.218,9.218,0,0,1,2.01,1.112" transform="translate(-51.035 -74.834)" fill="#fff"/>
                </g>
              </g>
            </g>
            <path id="Path_28977" data-name="Path 28977" d="M265.113,155.748a7.116,7.116,0,0,1-2.8,1,4.223,4.223,0,0,1-1.2-.009.822.822,0,0,0-.314.39s.414.412.618.448a6.893,6.893,0,0,0,1.149.026,1.15,1.15,0,0,0,.458.258,5.723,5.723,0,0,0,2.469-.916c1.261-.745,1.746-1.518,1.719-2.225a1.707,1.707,0,0,0-.257-.946c-.059-.082-.184.4-.572.88a4.462,4.462,0,0,1-1.275,1.1" transform="translate(-247.178 -145.728)" fill="#455a64"/>
            <path id="Path_28978" data-name="Path 28978" d="M300.92,164.488l-.059-.08a3.484,3.484,0,0,1-1.2,1.395,7.339,7.339,0,0,1-2.62,1.182l-.065.1a6.5,6.5,0,0,0,2.728-1.2,3.577,3.577,0,0,0,1.219-1.4m-3.785,2.83a6.868,6.868,0,0,0,2.687-1.223,2.894,2.894,0,0,0,1.168-1.453.3.3,0,0,0-.038-.13,2.972,2.972,0,0,1-1.169,1.5,7.1,7.1,0,0,1-2.9,1.249.855.855,0,0,1-.059.1c.021,0,.274-.035.309-.043m4-2.6a2.565,2.565,0,0,1-1.1,1.7,6.706,6.706,0,0,1-3.213,1.382c.082.063.259.076.638-.025a7.2,7.2,0,0,0,2.607-1.274,2.382,2.382,0,0,0,1.065-1.556.907.907,0,0,0,0-.231M297.3,167.55a6.988,6.988,0,0,0,2.647-1.248,2.563,2.563,0,0,0,1.116-1.5.446.446,0,0,0-.017-.18,2.706,2.706,0,0,1-1.135,1.6,7.036,7.036,0,0,1-2.927,1.3,2.6,2.6,0,0,1-.288.031.522.522,0,0,0-.052.1c.118,0,.268-.024.38-.039.07-.009.195-.037.275-.057" transform="translate(-281.145 -155.819)" fill="#263238"/>
            <path id="Path_28979" data-name="Path 28979" d="M302.98,162.127l.183.068a6.607,6.607,0,0,0,2.344-1.054,3.512,3.512,0,0,0,1.314-1.449v-.19a4.256,4.256,0,0,1-1.344,1.523,6.951,6.951,0,0,1-2.5,1.1" transform="translate(-287.152 -151.17)" fill="#e0e0e0"/>
            <g id="Group_162321" data-name="Group 162321" transform="translate(15.828 8.332)" opacity="0.2">
              <g id="Group_162320" data-name="Group 162320">
                <g id="Group_162319" data-name="Group 162319" clip-path="url(#clip-path-24)">
                  <path id="Path_28980" data-name="Path 28980" d="M302.98,162.127l.183.068a6.607,6.607,0,0,0,2.344-1.054,3.512,3.512,0,0,0,1.314-1.449v-.19a4.256,4.256,0,0,1-1.344,1.523,6.951,6.951,0,0,1-2.5,1.1" transform="translate(-302.98 -159.502)"/>
                </g>
              </g>
            </g>
            <path id="Path_28981" data-name="Path 28981" d="M263.913,211.279l.068-.121a4.714,4.714,0,0,1-1.2-.069c-.051-.028-.282-.47-.127-.444a4.844,4.844,0,0,0,1.807-.128l-.188-.074a4.949,4.949,0,0,1-1.1.125,2.05,2.05,0,0,1-.674-.056.8.8,0,0,0-.246.334,2.107,2.107,0,0,0,.34.289.858.858,0,0,0,.587.149c.311.014.738-.005.738-.005" transform="translate(-248.548 -199.45)" fill="#e0e0e0"/>
            <path id="Path_28982" data-name="Path 28982" d="M271.592,214.216l.314-.477a5.288,5.288,0,0,1-.745.095,8.611,8.611,0,0,1-.87,0c-.07,0-.069.035-.006.182s.088.171.214.192a5.7,5.7,0,0,0,1.094.013" transform="translate(-256.12 -202.573)" fill="#37474f"/>
            <path id="Path_28983" data-name="Path 28983" d="M272.8,217.108a.355.355,0,0,0,.195.056c.041,0,.163.023.191-.014a.04.04,0,0,0,0-.041.114.114,0,0,0-.028-.033.843.843,0,0,0-.15-.116c-.074-.042-.3-.1-.266.065a.143.143,0,0,0,.057.083" transform="translate(-258.493 -205.583)" fill="#e0e0e0"/>
            <path id="Path_28984" data-name="Path 28984" d="M280.86,216.159a.039.039,0,0,0-.022.022c-.011.035.045.069.068.086a.814.814,0,0,0,.325.121.587.587,0,0,0,.217.014.358.358,0,0,0,.239-.157c.02-.031.053-.1.009-.122a.325.325,0,0,0-.156,0l-.276.02c-.088.006-.177,0-.265.007a.414.414,0,0,0-.14.012" transform="translate(-266.165 -204.822)" fill="#e0e0e0"/>
            <path id="Path_28985" data-name="Path 28985" d="M377.024,155.219l.015.179a1.289,1.289,0,0,1,.086-.205c.024-.024.09.076.13.172-.066-.194-.151-.372-.184-.288a1.277,1.277,0,0,0-.048.143" transform="translate(-357.328 -146.955)" fill="#e0e0e0"/>
            <path id="Path_28986" data-name="Path 28986" d="M377.62,158.875l.269.354a1.7,1.7,0,0,0-.121-.512c-.044-.079-.07-.082-.094,0s-.054.157-.054.157" transform="translate(-357.893 -150.368)" fill="#37474f"/>
            <path id="Path_28987" data-name="Path 28987" d="M379.021,160.4a.221.221,0,0,0,.029.119.5.5,0,0,0,.074.1.015.015,0,0,0,.011.006c.007,0,.01-.01.009-.018a.48.48,0,0,0-.037-.181c-.007-.016-.027-.075-.044-.08s-.04.037-.042.054" transform="translate(-359.22 -151.966)" fill="#e0e0e0"/>
            <path id="Path_28988" data-name="Path 28988" d="M348.367,192.928c-.287.2,0,.656.277.472s-.013-.654-.277-.472" transform="translate(-330.055 -182.811)" fill="#e0e0e0"/>
            <path id="Path_28989" data-name="Path 28989" d="M148.681,144.5c.1.467.615.565,1,.554a1.186,1.186,0,0,0,.426-.073c.15-.086.081-.266,0-.369a2.08,2.08,0,0,0-1.127-.54c-.224-.008-.37.1-.3.429" transform="translate(-140.898 -136.541)" fill="#1d416f"/>
            <g id="Group_162324" data-name="Group 162324" transform="translate(7.766 7.526)" opacity="0.3">
              <g id="Group_162323" data-name="Group 162323">
                <g id="Group_162322" data-name="Group 162322" clip-path="url(#clip-path-25)">
                  <path id="Path_28990" data-name="Path 28990" d="M148.681,144.5c.1.467.615.565,1,.554a1.186,1.186,0,0,0,.426-.073c.15-.086.081-.266,0-.369a2.08,2.08,0,0,0-1.127-.54c-.224-.008-.37.1-.3.429" transform="translate(-148.664 -144.067)" fill="#fff"/>
                </g>
              </g>
            </g>
            <path id="Path_28991" data-name="Path 28991" d="M148.681,144.5c.1.467.615.565,1,.554a1.186,1.186,0,0,0,.426-.073c.15-.086.081-.266,0-.369.075.143-.324.231-.679.1s-.62-.4-.448-.644c-.224-.008-.37.1-.3.429" transform="translate(-140.898 -136.541)" fill="#1d416f"/>
            <path id="Path_28992" data-name="Path 28992" d="M148.681,144.5c.1.467.615.565,1,.554a.929.929,0,0,1-.809-.475c-.115-.242-.028-.477.108-.507-.224-.008-.37.1-.3.429" transform="translate(-140.898 -136.541)" fill="#37474f"/>
          </g>
        </g>
      </g>
    </g>
  </g>
</svg>
