<svg xmlns="http://www.w3.org/2000/svg" width="32" height="32" viewBox="0 0 32 32">
  <g id="Interior_Seat" data-name="Interior / Seat" transform="translate(-40 -484)">
    <circle id="BG" cx="16" cy="16" r="16" transform="translate(40 484)" fill="#dce9f2"/>
    <g id="ic-interior_seat" data-name="ic-interior seat" transform="translate(43.318 485.957)">
      <path id="Path_84738" data-name="Path 84738" d="M46.4,7.708,43.313,18.546a.536.536,0,0,1-.629.359l-2.156-.6a.536.536,0,0,1-.359-.629l2.814-9.85A1.55,1.55,0,0,1,44.87,6.78l1.168.329A.451.451,0,0,1,46.4,7.708Z" transform="translate(-25.331 -0.791)" fill="#ba68c8"/>
      <path id="Path_84739" data-name="Path 84739" d="M49.392,16.454l1.587-5.449a1.237,1.237,0,0,1,1.557-.838l.269.09L50.5,18.1l-.269-.09A1.261,1.261,0,0,1,49.392,16.454Z" transform="translate(-31.769 -3.16)" fill="#af58be"/>
      <path id="Path_84740" data-name="Path 84740" d="M49.649,10.992a.315.315,0,0,1,.389-.21l.569.18a.313.313,0,0,1-.18.6l-.569-.18A.315.315,0,0,1,49.649,10.992Zm-.419,1.437a.315.315,0,0,1,.389-.21l.569.18a.313.313,0,0,1-.18.6l-.6-.21C49.23,12.759,49.17,12.609,49.23,12.429Zm-.449,1.437a.315.315,0,0,1,.389-.21l.539.18a.313.313,0,1,1-.18.6l-.569-.18A.324.324,0,0,1,48.781,13.867ZM48.332,15.3a.315.315,0,0,1,.389-.21l.569.18a.313.313,0,1,1-.18.6l-.569-.18C48.362,15.6,48.272,15.453,48.332,15.3Zm-.449,1.407a.315.315,0,0,1,.389-.21l.569.18a.313.313,0,0,1-.18.6l-.569-.18A.315.315,0,0,1,47.883,16.711Z" transform="translate(-30.739 -3.626)" fill="#1d416f"/>
      <path id="Path_84741" data-name="Path 84741" d="M41.712,18.833a.659.659,0,0,1-.24-.03l-2.126-.6a.785.785,0,0,1-.479-.389.766.766,0,0,1-.06-.629L41.742,6.947A1.887,1.887,0,0,1,43.509,5.6a2.95,2.95,0,0,1,.509.06l1.108.359a.813.813,0,0,1,.569,1.018l-3.2,11.2A.8.8,0,0,1,41.712,18.833ZM43.479,6.2a1.248,1.248,0,0,0-1.2.9L39.347,17.336a.2.2,0,0,0,.03.18c.03.06.09.09.12.12l2.126.6a.214.214,0,0,0,.269-.15L45.125,6.857a.214.214,0,0,0-.15-.269l-1.138-.329A1.5,1.5,0,0,0,43.479,6.2Z" transform="translate(-24.359)" fill="#1d416f"/>
      <path id="Path_84742" data-name="Path 84742" d="M18.153,39.852H5.309a.6.6,0,0,1-.509-.629V37.786A1.947,1.947,0,0,1,6.6,35.9H16.866a1.354,1.354,0,0,1,1.108.6,16.539,16.539,0,0,1,.18,3.293Z" transform="translate(-0.56 -21.228)" fill="#ba68c8"/>
      <path id="Path_84743" data-name="Path 84743" d="M21.578,44.787H10.8V44.4A1.2,1.2,0,0,1,12,43.2h8.383a1.2,1.2,0,0,1,1.2,1.2Z" transform="translate(-4.764 -26.343)" fill="#af58be"/>
      <path id="Path_84744" data-name="Path 84744" d="M17.323,39.491H4.748A.833.833,0,0,1,4,38.563V37.156A1.977,1.977,0,0,1,5.737,35H16.305a1.72,1.72,0,0,1,1.437.838.3.3,0,0,1-.509.329,1.137,1.137,0,0,0-.928-.569H5.737c-.629,0-1.138.689-1.138,1.557v1.407c0,.18.06.329.15.329H17.293c.12,0,.18,0,.269-.269a.294.294,0,1,1,.569.15A.8.8,0,0,1,17.323,39.491Z" transform="translate(0 -20.598)" fill="#1d416f"/>
      <path id="Path_84745" data-name="Path 84745" d="M12.995,34.4a.283.283,0,0,1-.3-.3,14.3,14.3,0,0,0-.359-3.383.294.294,0,1,1,.569-.15,15.547,15.547,0,0,1,.389,3.533A.283.283,0,0,1,12.995,34.4Zm-.689-4.611a.288.288,0,0,1-.269-.21c-.12-.359-.269-.689-.449-1.108a.295.295,0,1,1,.539-.24c.18.389.3.748.449,1.138a.311.311,0,0,1-.18.389A.11.11,0,0,1,12.306,29.786Zm-.928-2.216a.262.262,0,0,1-.269-.18A11.318,11.318,0,0,1,10.3,22.9a.3.3,0,1,1,.6,0,11.087,11.087,0,0,0,.748,4.281.311.311,0,0,1-.18.389Z" transform="translate(-4.414 -11.91)" fill="#1d416f"/>
      <path id="Path_84746" data-name="Path 84746" d="M8.934,24.016a.272.272,0,0,1-.21-.09L7.617,22.819,6.509,23.926a.3.3,0,0,1-.419-.419L7.407,22.19a.289.289,0,0,1,.419,0l1.317,1.317a.289.289,0,0,1,0,.419A.272.272,0,0,1,8.934,24.016Z" transform="translate(-1.401 -11.56)" fill="#1d416f"/>
      <path id="Path_84747" data-name="Path 84747" d="M38.695,34.4a.283.283,0,0,1-.3-.3,12.117,12.117,0,0,0-.808-4.79.3.3,0,0,1,.569-.21,13.007,13.007,0,0,1,.838,5A.283.283,0,0,1,38.695,34.4Zm-1.257-5.988a.262.262,0,0,1-.269-.18,10.763,10.763,0,0,1-.449-1.108.3.3,0,0,1,.569-.21,10.764,10.764,0,0,0,.449,1.108.3.3,0,0,1-.15.389Zm-.808-2.245a.315.315,0,0,1-.3-.24A13.172,13.172,0,0,1,36,22.9a.3.3,0,0,1,.6,0,10.91,10.91,0,0,0,.329,2.9.308.308,0,0,1-.21.359Z" transform="translate(-22.419 -11.91)" fill="#1d416f"/>
      <path id="Path_84748" data-name="Path 84748" d="M34.634,24.016a.272.272,0,0,1-.21-.09l-1.108-1.108-1.108,1.108a.3.3,0,0,1-.419-.419l1.317-1.317a.289.289,0,0,1,.419,0l1.317,1.317a.289.289,0,0,1,0,.419A.272.272,0,0,1,34.634,24.016Z" transform="translate(-19.407 -11.56)" fill="#1d416f"/>
      <path id="Path_84749" data-name="Path 84749" d="M25.895,34.4a.283.283,0,0,1-.3-.3c0-.359,0-.749-.03-1.078a.326.326,0,0,1,.269-.329.351.351,0,0,1,.329.269c.03.359.03.719.03,1.108A.308.308,0,0,1,25.895,34.4Zm-.15-2.275a.318.318,0,0,1-.3-.269,12.592,12.592,0,0,0-1.078-3.563A12.1,12.1,0,0,1,23.2,22.9a.3.3,0,1,1,.6,0,11.016,11.016,0,0,0,1.138,5.15,12.443,12.443,0,0,1,1.108,3.713.283.283,0,0,1-.269.329A.029.029,0,0,1,25.745,32.121Z" transform="translate(-13.452 -11.91)" fill="#1d416f"/>
      <path id="Path_84750" data-name="Path 84750" d="M21.834,24.016a.272.272,0,0,1-.21-.09l-1.108-1.108-1.108,1.108a.3.3,0,0,1-.419-.419l1.317-1.317a.289.289,0,0,1,.419,0l1.317,1.317a.289.289,0,0,1,0,.419A.323.323,0,0,1,21.834,24.016Z" transform="translate(-10.439 -11.56)" fill="#1d416f"/>
    </g>
  </g>
</svg>
