<svg xmlns="http://www.w3.org/2000/svg" width="32" height="32" viewBox="0 0 32 32">
  <g id="Interior" transform="translate(-40 -484)">
    <circle id="BG" cx="16" cy="16" r="16" transform="translate(40 484)" fill="#dce9f2"/>
    <g id="ic-interior" transform="translate(41.553 485.553)">
      <path id="Path_84797" data-name="Path 84797" d="M16.921,29.158,11,27.579V26l6.315.789Zm4.737,0,5.921-1.579V26l-6.315.789ZM17.71,30.737l.789,6.315h1.579l.789-6.71Z" transform="translate(-4.842 -13.922)" fill="#aa56b9"/>
      <path id="Path_84798" data-name="Path 84798" d="M15.052,4A11.052,11.052,0,1,0,26.1,15.052,11.034,11.034,0,0,0,15.052,4Zm0,19.736a8.684,8.684,0,1,1,8.684-8.684A8.659,8.659,0,0,1,15.052,23.736Z" transform="translate(-0.605 -0.605)" fill="#ba68c8"/>
      <path id="Path_84799" data-name="Path 84799" d="M30,4h1.579V6.368H30Z" transform="translate(-16.343 -0.605)" fill="#aa56b9"/>
      <path id="Path_84800" data-name="Path 84800" d="M30.737,28.368A2.368,2.368,0,1,1,28.368,26,2.375,2.375,0,0,1,30.737,28.368Z" transform="translate(-13.922 -13.922)" fill="#ba68c8"/>
      <path id="Path_84801" data-name="Path 84801" d="M33.691,25.6a.411.411,0,0,0-.513.237l-.355.829a.377.377,0,0,0,.158.513.237.237,0,0,0,.158.039.415.415,0,0,0,.355-.2,6.3,6.3,0,0,0,.395-.908A.378.378,0,0,0,33.691,25.6ZM25.4,17a.373.373,0,0,0-.395.395v.789a.395.395,0,1,0,.789,0v-.789A.373.373,0,0,0,25.4,17Zm-3.631,1.737a.391.391,0,0,0-.553.553l.553.553a.382.382,0,0,0,.553,0,.382.382,0,0,0,0-.553Zm7.263,0-.553.553a.382.382,0,0,0,0,.553.382.382,0,0,0,.553,0l.553-.553a.391.391,0,1,0-.553-.553Zm-1.3-1.263a.392.392,0,0,0-.513.2l-.316.71a.392.392,0,0,0,.2.513.237.237,0,0,0,.158.039.345.345,0,0,0,.355-.237l.316-.71A.392.392,0,0,0,27.731,17.474Zm-4.105.2a.389.389,0,1,0-.71.316l.316.71a.379.379,0,0,0,.355.237.237.237,0,0,0,.158-.039.392.392,0,0,0,.2-.513Z" transform="translate(-10.956 -8.474)" fill="#1d416f"/>
      <path id="Path_84802" data-name="Path 84802" d="M14.447,3A11.447,11.447,0,1,0,25.894,14.447,11.455,11.455,0,0,0,14.447,3Zm.395.75V5.368h-.789V3.75h.395A1.323,1.323,0,0,1,14.841,3.75ZM6.395,12.434c.039,0,.039.039.079.039l5.487.75a2.952,2.952,0,0,0-.276,1.816L6.276,13.263H6.237C6.276,12.986,6.355,12.71,6.395,12.434Zm10.1,2.013A2.064,2.064,0,0,1,14.447,16.5a2.053,2.053,0,0,1,0-4.105A2.064,2.064,0,0,1,16.5,14.447ZM6.158,14.092l5.96,1.855a4.2,4.2,0,0,0,.355.434v.079l.789,6.158a8.255,8.255,0,0,1-7.1-8.171Zm7.184,2.881a2.7,2.7,0,0,0,2.21,0l-.71,5.723v.039h-.395a1.343,1.343,0,0,1-.395-.039v-.039Zm3.552-3.789,5.487-.71c.039,0,.039,0,.079-.039a6.128,6.128,0,0,1,.158.829h-.039l-5.447,1.7a1.083,1.083,0,0,0,.079-.513A2.848,2.848,0,0,0,16.894,13.184Zm-.513-.71a2.764,2.764,0,0,0-3.868,0l-5.881-.789a8.29,8.29,0,0,1,15.631,0Zm-1.934,12.71A10.729,10.729,0,0,1,13.263,3.789V5.447a9.079,9.079,0,1,0,8.25,14.723.392.392,0,1,0-.592-.513,8.261,8.261,0,0,1-5.25,2.96l.789-6.158v-.079a4.2,4.2,0,0,0,.355-.434l5.921-1.855v.355a11.954,11.954,0,0,1-.079,1.224.38.38,0,0,0,.75.118,7.708,7.708,0,0,0,.118-1.342,9.111,9.111,0,0,0-7.894-9V3.789a10.729,10.729,0,0,1-1.184,21.394Z" fill="#1d416f"/>
      <path id="Path_84803" data-name="Path 84803" d="M31.368,30.184A1.184,1.184,0,1,1,30.184,29,1.163,1.163,0,0,1,31.368,30.184Z" transform="translate(-15.737 -15.737)" fill="#aa56b9"/>
      <path id="Path_84804" data-name="Path 84804" d="M29.789,29.395A.395.395,0,1,1,29.395,29,.373.373,0,0,1,29.789,29.395Z" transform="translate(-15.737 -15.737)" fill="#fff"/>
    </g>
  </g>
</svg>
