<svg xmlns="http://www.w3.org/2000/svg" width="32" height="32" viewBox="0 0 32 32">
  <g id="Lighting_Technology" data-name="Lighting Technology" transform="translate(-40 -484)">
    <circle id="BG" cx="16" cy="16" r="16" transform="translate(40 484)" fill="#dce9f2"/>
    <g id="ic-lightingtechnologies" transform="translate(43.94 485.791)">
      <path id="Path_84805" data-name="Path 84805" d="M27.007,11.8a6.244,6.244,0,0,0-12.487-.1c-.018,2.191,1.32,4.178,3.025,5.812v.66A1.427,1.427,0,0,0,18.972,19.6H22.54a1.427,1.427,0,0,0,1.427-1.427v-.681C25.662,15.9,26.989,13.944,27.007,11.8Z" transform="translate(-8.696 -0.935)" fill="#ba68c8"/>
      <path id="Path_84806" data-name="Path 84806" d="M17.7,8.6a.881.881,0,0,0,1.309-.057,4.638,4.638,0,0,1,7.217-.029.881.881,0,0,0,1.306.054h0a.9.9,0,0,0,.054-1.2,6.422,6.422,0,0,0-9.95.036.9.9,0,0,0,.057,1.2Z" transform="translate(-10.569 -0.625)" fill="#c779d5"/>
      <path id="Path_84807" data-name="Path 84807" d="M0,0H1.427V1.07H0Z" transform="translate(12.773 24.011) rotate(180)" fill="#acb7d0"/>
      <path id="Path_84808" data-name="Path 84808" d="M2.141,0H3.568A2.141,2.141,0,0,1,5.708,2.141V4.281H0V2.141A2.141,2.141,0,0,1,2.141,0Z" transform="translate(14.914 22.941) rotate(180)" fill="#c2cde7"/>
      <path id="Path_84809" data-name="Path 84809" d="M42.445,14.065a3.349,3.349,0,0,1-.253.607l.817,1.363-.974.974-1.363-.8a3.35,3.35,0,0,1-.607.253L39.68,17.99H38.3l-.146-.589-.232-.953-.175-.061a3.118,3.118,0,0,1-.439-.182l-1.366.817-.974-.974.674-1.12.146-.243a3.639,3.639,0,0,1-.257-.621l-.66-.164L34,13.683V12.306l1.534-.382a3.639,3.639,0,0,1,.257-.607L34.97,9.955l.974-.974,1.366.8a3.247,3.247,0,0,1,.607-.253L38.3,8H39.68l.221.878.164.664a3.35,3.35,0,0,1,.607.253l.239-.143,1.124-.674.974.974-.8,1.363a3.121,3.121,0,0,1,.193.432c.021.057.043.118.061.175l.953.239.589.146v1.377Z" transform="translate(-21.227 -2.541)" fill="#c2cde7"/>
      <path id="Path_84810" data-name="Path 84810" d="M44.021,15.647a3.35,3.35,0,0,1-.253.607l.817,1.363-.974.974-1.363-.8a3.35,3.35,0,0,1-.607.253l-.385,1.531H39.879l-.146-.589,5.241-5.241.589.146v1.377ZM43.782,12.9a3.121,3.121,0,0,1,.193.432l-4.638,4.638a3.118,3.118,0,0,1-.45-.178l-1.366.817-.482-.492L44.1,11.049l.485.485Zm-6.561,3.6.146-.243a3.639,3.639,0,0,1-.257-.61l-.66-.164,5.027-5.023.164.664a3.35,3.35,0,0,1,.607.253l.239-.143Z" transform="translate(-22.802 -4.123)" fill="#d3dded"/>
      <path id="Path_84811" data-name="Path 84811" d="M45.427,18a1.427,1.427,0,1,0,1.427,1.427A1.427,1.427,0,0,0,45.427,18Z" transform="translate(-27.659 -8.973)" fill="#ba68c8"/>
      <path id="Path_84812" data-name="Path 84812" d="M3.854,13.976a.357.357,0,0,0-.357-.357H1.357a.357.357,0,0,0,0,.714H3.5A.357.357,0,0,0,3.854,13.976Zm.132,2.876-1.324.535a.357.357,0,1,0,.268.66l1.324-.535a.357.357,0,0,0-.268-.66Zm.268-6.415L2.93,9.9a.357.357,0,0,0-.268.66l1.324.535a.357.357,0,0,0,.268-.66Zm8.266,5.43-.714.714a.357.357,0,0,0-.1.25v2.141a.357.357,0,0,0,.714,0V16.977l.607-.607a.357.357,0,0,0-.5-.5Zm-.92,0-.714-.714a.357.357,0,0,0-.5.5l.714.714a.357.357,0,0,0,.5-.5Zm1.238-6.1a.363.363,0,0,0,.128-.714,4.973,4.973,0,0,0-3.65.749.361.361,0,1,0,.392.607,4.281,4.281,0,0,1,3.129-.642Z" transform="translate(0 -3.165)" fill="#1d416f"/>
      <path id="Path_84813" data-name="Path 84813" d="M30.564,9.419l-1.352-.357c-.036-.1-.075-.2-.121-.293l.714-1.2a.357.357,0,0,0-.036-.417l-.988-.985a.357.357,0,0,0-.439-.043l-1.2.714c-.1-.046-.2-.086-.293-.121L26.5,5.37A.357.357,0,0,0,26.14,5.1H24.795a.357.357,0,0,0-.357.271l-.1.446A6.779,6.779,0,0,0,13,10.811c0,1.784.992,3.1,1.952,4.381A6.806,6.806,0,0,1,16.568,18.3v2.5a2.5,2.5,0,0,0,2.141,2.469v.385a.714.714,0,0,0,.714.714h.714a.714.714,0,0,0,.714-.714v-.385A2.5,2.5,0,0,0,22.99,20.8V18.638a5.664,5.664,0,0,1,1.427-3.186l.021.082a.357.357,0,0,0,.357.271h1.377a.357.357,0,0,0,.357-.271l.357-1.352c.1-.036.193-.075.293-.121l1.2.714a.357.357,0,0,0,.407-.039l.988-.985a.357.357,0,0,0,.039-.442l-.714-1.2c.046-.1.086-.2.121-.293l1.352-.357a.357.357,0,0,0,.271-.357V9.766a.357.357,0,0,0-.275-.346Zm-8.288,10-4.995.624V19.017h4.995Zm-2.141,4.238h-.714V23.3h.714Zm.357-1.07H19.065A1.784,1.784,0,0,1,17.281,20.8v-.043l4.995-.624v.71l-3.628.453a.357.357,0,0,0,.043.714h.046l3.35-.417A1.784,1.784,0,0,1,20.492,22.584Zm3.568-7.817A7.344,7.344,0,0,0,22.3,18.282H20.135V17.233a.357.357,0,0,0-.714,0v1.049H17.281A7.191,7.191,0,0,0,15.5,14.764a6.91,6.91,0,0,1-1.784-3.953,6.065,6.065,0,0,1,10.425-4.2l-.029.118c-.1.036-.2.075-.293.121L22.633,6.13a.357.357,0,0,0-.435.054l-.992.974a.357.357,0,0,0-.046.442l.714,1.2c-.046.1-.086.2-.121.293L20.4,9.444a.357.357,0,0,0-.271.357v1.377a.357.357,0,0,0,.271.357l1.352.357c.036.1.075.2.121.293l-.714,1.2a.357.357,0,0,0,.046.371l.981.985a.357.357,0,0,0,.435.054l1.2-.714c.1.046.2.086.293.121l.093.357Zm6.065-3.9-1.274.3a.357.357,0,0,0-.253.239,3.585,3.585,0,0,1-.228.549.357.357,0,0,0,0,.357l.685,1.131-.582.578-1.124-.678a.357.357,0,0,0-.357,0,3.568,3.568,0,0,1-.549.228.357.357,0,0,0-.239.253l-.31,1.267h-.821l-.1-.385-.2-.885V13.8a.357.357,0,0,0-.232-.228A3.7,3.7,0,0,1,24,13.34a.357.357,0,0,0-.357,0l-1.145.681-.574-.578.674-1.124a.357.357,0,0,0,0-.357,3.261,3.261,0,0,1-.228-.549.357.357,0,0,0-.253-.239l-1.263-.31v-.821l1.267-.3a.357.357,0,0,0,.253-.239,3.261,3.261,0,0,1,.228-.549.357.357,0,0,0,0-.357l-.678-1.131.574-.578,1.124.678a.357.357,0,0,0,.357,0,3.707,3.707,0,0,1,.546-.228.307.307,0,0,0,.157-.1.318.318,0,0,0,.086-.15l.171-.681.139-.585h.821l.307,1.27a.357.357,0,0,0,.239.253,3.589,3.589,0,0,1,.549.228.357.357,0,0,0,.357,0l1.127-.681.582.578-.678,1.124a.357.357,0,0,0,0,.357,3.568,3.568,0,0,1,.228.549.357.357,0,0,0,.253.239l1.27.318Z" transform="translate(-7.719 0)" fill="#1d416f"/>
      <path id="Path_84814" data-name="Path 84814" d="M44.784,17a1.784,1.784,0,1,0,1.784,1.784A1.784,1.784,0,0,0,44.784,17Zm0,2.854a1.07,1.07,0,1,1,1.07-1.07,1.07,1.07,0,0,1-1.07,1.07Z" transform="translate(-27.016 -8.33)" fill="#1d416f"/>
    </g>
  </g>
</svg>
