<svg xmlns="http://www.w3.org/2000/svg" width="32" height="32" viewBox="0 0 32 32">
  <g id="Mechanical_Battery" data-name="Mechanical / Battery" transform="translate(-40 -484)">
    <circle id="BG" cx="16" cy="16" r="16" transform="translate(40 484)" fill="#dce9f2"/>
    <g id="ic-battery" transform="translate(45.318 485.321)">
      <path id="Path_84712" data-name="Path 84712" d="M13,7h2V9H13ZM23.682,7h2V9h-2Z" transform="translate(-8.66 -0.666)" fill="#ba68c8"/>
      <path id="Path_84713" data-name="Path 84713" d="M5,13H22.692v1.335H5Z" transform="translate(-3.331 -4.663)" fill="#ba68c8"/>
      <path id="Path_84714" data-name="Path 84714" d="M21.694,54.335H3.668A.67.67,0,0,1,3,53.668H3A.67.67,0,0,1,3.668,53H21.694a.67.67,0,0,1,.668.668h0A.67.67,0,0,1,21.694,54.335Z" transform="translate(-1.999 -31.311)" fill="#acb7d0"/>
      <path id="Path_84715" data-name="Path 84715" d="M5,27H23.026v8.679H5Z" transform="translate(-3.331 -13.99)" fill="#ba68c8"/>
      <path id="Path_84716" data-name="Path 84716" d="M23.026,27H5v.668a.984.984,0,0,0,1,1H22.025a.984.984,0,0,0,1-1Z" transform="translate(-3.331 -13.99)" fill="#ac56ba"/>
      <path id="Path_84717" data-name="Path 84717" d="M21.029,20.338H1.668A.67.67,0,0,1,1,19.671v-2A.67.67,0,0,1,1.668,17H21.029a.67.67,0,0,1,.668.668v2A.67.67,0,0,1,21.029,20.338Z" transform="translate(-0.666 -7.328)" fill="#c2cde7"/>
      <path id="Path_84718" data-name="Path 84718" d="M6.334,20A.315.315,0,0,0,6,20.334V21a.334.334,0,1,0,.668,0v-.668A.315.315,0,0,0,6.334,20ZM8,20a.315.315,0,0,0-.334.334V21a.334.334,0,1,0,.668,0v-.668A.315.315,0,0,0,8,20Zm1.669,0a.315.315,0,0,0-.334.334V21a.334.334,0,1,0,.668,0v-.668A.315.315,0,0,0,9.672,20Zm1.669,0a.315.315,0,0,0-.334.334V21a.334.334,0,1,0,.668,0v-.668A.315.315,0,0,0,11.341,20Zm1.669,0a.315.315,0,0,0-.334.334V21a.334.334,0,1,0,.668,0v-.668A.315.315,0,0,0,13.01,20Zm1.669,0a.315.315,0,0,0-.334.334V21a.334.334,0,1,0,.668,0v-.668A.315.315,0,0,0,14.679,20Zm1.669,0a.315.315,0,0,0-.334.334V21a.334.334,0,1,0,.668,0v-.668A.315.315,0,0,0,16.348,20Zm1.669,0a.315.315,0,0,0-.334.334V21a.334.334,0,1,0,.668,0v-.668A.315.315,0,0,0,18.017,20Zm1.669,0a.315.315,0,0,0-.334.334V21a.334.334,0,1,0,.668,0v-.668A.315.315,0,0,0,19.686,20Zm1.669,0a.315.315,0,0,0-.334.334V21a.334.334,0,1,0,.668,0v-.668A.315.315,0,0,0,21.356,20Zm1.669,0a.315.315,0,0,0-.334.334V21a.334.334,0,1,0,.668,0v-.668A.315.315,0,0,0,23.025,20Z" transform="translate(-3.997 -9.327)" fill="#ba68c8"/>
      <path id="Path_84719" data-name="Path 84719" d="M10.334,32h1v1A.334.334,0,1,0,12,33V32h1a.334.334,0,1,0,0-.668H12v-1a.334.334,0,0,0-.668,0v1h-1a.334.334,0,1,0,0,.668Zm11.35,0h2.671a.334.334,0,1,0,0-.668H21.684a.334.334,0,1,0,0,.668Z" transform="translate(-6.662 -15.988)" fill="#fff"/>
      <path id="Path_84720" data-name="Path 84720" d="M20.363,9.338h-.334V9a.984.984,0,0,0-1-1H17.358V6.668A.67.67,0,0,0,16.691,6H15.356a.67.67,0,0,0-.668.668V8H6.676V6.668A.67.67,0,0,0,6.009,6H4.673a.67.67,0,0,0-.668.668V8H2.337a.984.984,0,0,0-1,1v.334H1a.984.984,0,0,0-1,1v2a.984.984,0,0,0,1,1h.334v8.078a.972.972,0,0,0-.668.935.984.984,0,0,0,1,1H19.7a.984.984,0,0,0,1-1,.972.972,0,0,0-.668-.935V13.344h.334a.984.984,0,0,0,1-1v-2A.984.984,0,0,0,20.363,9.338ZM15.356,6.668h1.335V8H15.356Zm-10.682,0H6.009V8H4.673ZM2,9a.315.315,0,0,1,.334-.334H19.027A.315.315,0,0,1,19.361,9v.334H2ZM19.7,22.691H1.669a.334.334,0,0,1,0-.668H19.7a.334.334,0,0,1,0,.668Zm-.334-1.335H2V13.344H19.361ZM20.7,12.342a.315.315,0,0,1-.334.334H1a.315.315,0,0,1-.334-.334v-2A.315.315,0,0,1,1,10.006H20.363a.315.315,0,0,1,.334.334Z" fill="#1d416f"/>
      <path id="Path_84721" data-name="Path 84721" d="M27.007,41.335H26.34a.334.334,0,1,0,0,.668h.668a.334.334,0,1,0,0-.668ZM22.334,42H25a.334.334,0,1,0,0-.668H22.334a.334.334,0,1,0,0,.668Zm0-1.335h6.009a.334.334,0,1,0,0-.668H22.334a.334.334,0,1,0,0,.668Z" transform="translate(-14.656 -22.65)" fill="#fff"/>
    </g>
  </g>
</svg>
