<svg xmlns="http://www.w3.org/2000/svg" width="32" height="32" viewBox="0 0 32 32">
  <g id="_911_Notif." data-name="911 Notif." transform="translate(-40 -484)">
    <circle id="BG" cx="16" cy="16" r="16" transform="translate(40 484)" fill="#dce9f2"/>
    <g id="ic-911" transform="translate(45.244 484.925)">
      <path id="Path_84844" data-name="Path 84844" d="M7.672,49H23.134a.672.672,0,0,1,.672.672v2.689H7V49.672A.672.672,0,0,1,7.672,49Z" transform="translate(-4.647 -28.547)" fill="#c2cde7"/>
      <path id="Path_84845" data-name="Path 84845" d="M8.344,54H22.461a1.344,1.344,0,0,1,1.344,1.344v.336H7v-.336A1.344,1.344,0,0,1,8.344,54Z" transform="translate(-4.647 -31.866)" fill="#acb7d0"/>
      <path id="Path_84846" data-name="Path 84846" d="M25.117,21.117H11l2.064-10.84A4.033,4.033,0,0,1,17.027,7H19.09a4.034,4.034,0,0,1,3.963,3.278Z" transform="translate(-7.303 -0.664)" fill="#ba68c8"/>
      <path id="Path_84847" data-name="Path 84847" d="M25.117,23.209h-.8a2.689,2.689,0,0,1-2.642-2.185L19.91,11.751a1.344,1.344,0,0,1,2.38-1.082,4.033,4.033,0,0,1,.763,1.7ZM11,23.209h.8a2.689,2.689,0,0,0,2.642-2.185l1.765-9.273a1.344,1.344,0,0,0-2.38-1.082,4.033,4.033,0,0,0-.763,1.7Z" transform="translate(-7.303 -2.756)" fill="#af5cbe"/>
      <path id="Path_84848" data-name="Path 84848" d="M26.672,45h2.689a.672.672,0,0,1,.672.672v.672H26v-.672A.672.672,0,0,1,26.672,45Z" transform="translate(-17.261 -25.891)" fill="#fff"/>
      <path id="Path_84849" data-name="Path 84849" d="M21.831,23.478H20.823V21.125a1.008,1.008,0,0,0-1.008-1.008h-.393L17.4,9.553A4.37,4.37,0,0,0,13.115,6H11.052A4.369,4.369,0,0,0,6.759,9.552L4.746,20.117H4.353a1.008,1.008,0,0,0-1.008,1.008v2.353H2.336a.336.336,0,1,0,0,.672H21.831a.336.336,0,0,0,0-.672ZM7.418,9.677a3.7,3.7,0,0,1,3.633-3h2.064a3.7,3.7,0,0,1,3.633,3l1.986,10.44h-4.3v-.336a1.008,1.008,0,0,0-1.008-1.008H10.739a1.008,1.008,0,0,0-1.008,1.008v.336h-4.3Zm6.346,10.1v.336H10.4v-.336a.336.336,0,0,1,.336-.336h2.689A.336.336,0,0,1,13.764,19.781Zm-9.747,3.7V21.125a.336.336,0,0,1,.336-.336H19.814a.336.336,0,0,1,.336.336v2.353Z" transform="translate(-1.328)" fill="#1d416f"/>
      <path id="Path_84850" data-name="Path 84850" d="M14.218,12.678l.981,5.149a.336.336,0,0,0,.336.272H15.6a.336.336,0,0,0,.269-.393L14.88,12.55a.342.342,0,1,0-.672.128Zm.081-1.045h.064a.336.336,0,0,0,.269-.393l-.178-.958a.342.342,0,0,0-.672.128l.188.944A.336.336,0,0,0,14.3,11.632ZM5.714,22.445a.336.336,0,0,0-.336.336v.672a.336.336,0,1,0,.672,0v-.672A.336.336,0,0,0,5.714,22.445Zm-1.681,0a.336.336,0,0,0-.336.336v.672a.336.336,0,1,0,.672,0v-.672A.336.336,0,0,0,4.033,22.445Zm3.361,0a.336.336,0,0,0-.336.336v.672a.336.336,0,1,0,.672,0v-.672A.336.336,0,0,0,7.395,22.445Zm1.681,0a.336.336,0,0,0-.336.336v.672a.336.336,0,1,0,.672,0v-.672A.336.336,0,0,0,9.075,22.445Zm1.681,0a.336.336,0,0,0-.336.336v.672a.336.336,0,1,0,.672,0v-.672A.336.336,0,0,0,10.756,22.445Zm1.681,0a.336.336,0,0,0-.336.336v.672a.336.336,0,1,0,.672,0v-.672A.336.336,0,0,0,12.436,22.445Zm1.681,0a.336.336,0,0,0-.336.336v.672a.336.336,0,1,0,.672,0v-.672A.336.336,0,0,0,14.117,22.445Zm1.681,0a.336.336,0,0,0-.336.336v.672a.336.336,0,1,0,.672,0v-.672A.336.336,0,0,0,15.8,22.445Zm1.681,0a.336.336,0,0,0-.336.336v.672a.336.336,0,1,0,.672,0v-.672A.336.336,0,0,0,17.478,22.445ZM3.361,11.353a.336.336,0,0,0-.336-.336H.336a.336.336,0,1,0,0,.672H3.025A.336.336,0,0,0,3.361,11.353Zm17.814-.336H18.487a.336.336,0,0,0,0,.672h2.689a.336.336,0,0,0,0-.672ZM3.486,14.063l-1.247.5a.336.336,0,1,0,.252.622l1.247-.5a.336.336,0,1,0-.252-.622ZM17.9,8.664a.336.336,0,0,0,.124-.024l1.247-.5a.336.336,0,1,0-.252-.622l-1.247.5a.336.336,0,0,0,.128.645ZM2.239,8.14l1.247.5a.336.336,0,1,0,.252-.622L2.491,7.515a.336.336,0,1,0-.252.622Zm15.535,6.548,1.247.5a.336.336,0,1,0,.252-.622l-1.247-.5a.336.336,0,1,0-.252.622Zm-7.354,4.06a.336.336,0,1,0,.672,0V16.869l1.247-1.247a.336.336,0,0,0-.474-.474l-1.344,1.344a.336.336,0,0,0-.1.239ZM9.845,16.3a.336.336,0,0,0,.474-.474l-.672-.672a.336.336,0,0,0-.474.474Z" transform="translate(0 -0.984)" fill="#1d416f"/>
    </g>
  </g>
</svg>
