<svg xmlns="http://www.w3.org/2000/svg" width="32" height="32" viewBox="0 0 32 32">
  <g id="Transmission" transform="translate(-40 -484)">
    <circle id="BG" cx="16" cy="16" r="16" transform="translate(40 484)" fill="#dce9f2"/>
    <g id="ic-transmission" transform="translate(44.058 488.058)">
      <path id="Path_84722" data-name="Path 84722" d="M22.221,11.8v1.617a.66.66,0,0,1-.5.643l-1.17.292a.328.328,0,0,0-.239.242,7.873,7.873,0,0,1-.855,2.058.334.334,0,0,0,0,.338l.62,1.034a.663.663,0,0,1-.1.809l-1.143,1.143a.663.663,0,0,1-.809.1l-1.034-.62a.334.334,0,0,0-.338,0,7.848,7.848,0,0,1-2.061.855.329.329,0,0,0-.239.239l-.292,1.17a.66.66,0,0,1-.643.5H11.8a.66.66,0,0,1-.643-.5l-.292-1.17a.329.329,0,0,0-.239-.239.5.5,0,0,1-.066-.02,7.635,7.635,0,0,1-2-.835.334.334,0,0,0-.338,0l-1.034.62a.663.663,0,0,1-.809-.1l-.9-.9-.242-.242a.663.663,0,0,1-.1-.809l.62-1.034A.306.306,0,0,0,5.8,16.77a.3.3,0,0,0-.036-.116,7.4,7.4,0,0,1-.4-.772,7.618,7.618,0,0,1-.437-1.22.485.485,0,0,0-.017-.066.328.328,0,0,0-.239-.242L3.5,14.062a.66.66,0,0,1-.5-.643V11.8a.66.66,0,0,1,.5-.643l1.17-.292a.328.328,0,0,0,.239-.242,7.873,7.873,0,0,1,.855-2.058.334.334,0,0,0,0-.338L5.144,7.2a.663.663,0,0,1,.1-.809L6.387,5.244a.663.663,0,0,1,.809-.1l1.034.62a.334.334,0,0,0,.338,0,7.873,7.873,0,0,1,2.058-.855.328.328,0,0,0,.242-.239l.292-1.17A.66.66,0,0,1,11.8,3h1.617a.66.66,0,0,1,.643.5l.292,1.17a.328.328,0,0,0,.242.239.485.485,0,0,0,.066.017,7.9,7.9,0,0,1,1.992.838.3.3,0,0,0,.116.036.306.306,0,0,0,.222-.036l1.034-.62a.663.663,0,0,1,.809.1l.242.242.9.9a.663.663,0,0,1,.1.809l-.62,1.034a.334.334,0,0,0,0,.338,7.784,7.784,0,0,1,.838,1.992.485.485,0,0,0,.017.066.328.328,0,0,0,.239.242l1.17.292A.66.66,0,0,1,22.221,11.8Z" transform="translate(-0.669 -0.669)" fill="#ba68c8"/>
      <path id="Path_84723" data-name="Path 84723" d="M26.647,16.911l-9.733,9.733a7.635,7.635,0,0,1-2-.835.334.334,0,0,0-.338,0l-1.034.62a.663.663,0,0,1-.809-.1l-.239-.239L26.091,12.5l.239.239a.663.663,0,0,1,.1.809l-.62,1.034a.334.334,0,0,0,0,.338A7.784,7.784,0,0,1,26.647,16.911Z" transform="translate(-7.02 -7.02)" fill="#c876d6"/>
      <path id="Path_84724" data-name="Path 84724" d="M23.212,9.621,9.621,23.212l-.242-.242a.663.663,0,0,1-.1-.809l.62-1.034a.306.306,0,0,0,.036-.222L20.905,9.936a.306.306,0,0,0,.222-.036l1.034-.62a.663.663,0,0,1,.809.1Z" transform="translate(-4.804 -4.804)" fill="#c876d6"/>
      <path id="Path_84725" data-name="Path 84725" d="M19.769,9.247,9.247,19.766a7.618,7.618,0,0,1-.437-1.22L18.546,8.81a7.994,7.994,0,0,1,1.223.437Z" transform="translate(-4.553 -4.553)" fill="#c876d6"/>
      <circle id="Ellipse_1952" data-name="Ellipse 1952" cx="6" cy="6" r="6" transform="translate(5.942 5.942)" fill="#acb7d0"/>
      <path id="Path_84726" data-name="Path 84726" d="M37.957,36.729l.354.648.648.354-.648.354-.354.648-.354-.648-.648-.354.648-.354Z" transform="translate(-23.371 -23.22)" fill="#d3dded"/>
      <path id="Path_84727" data-name="Path 84727" d="M22.853,29.329l.221.4.4.221-.4.221-.221.4-.221-.4-.4-.221.4-.221Z" transform="translate(-13.525 -18.272)" fill="#d3dded"/>
      <path id="Path_84728" data-name="Path 84728" d="M38.79,22.358l.272.5.5.272-.5.272-.272.5-.272-.5-.5-.272.5-.272Z" transform="translate(-24.084 -13.611)" fill="#d3dded"/>
      <path id="Path_84729" data-name="Path 84729" d="M21.131,10.169,19.8,9.838a.347.347,0,0,1-.252-.228,7.951,7.951,0,0,0-.582-1.4.331.331,0,0,1,.016-.323L19.693,6.7a.994.994,0,0,0-.149-1.215L18.4,4.34a.994.994,0,0,0-1.215-.149L16,4.9a.331.331,0,0,1-.323.016,7.894,7.894,0,0,0-1.4-.582.348.348,0,0,1-.227-.252l-.331-1.333A.992.992,0,0,0,12.75,2H11.134a.994.994,0,0,0-.965.753L9.838,4.085a.348.348,0,0,1-.227.252,7.9,7.9,0,0,0-1.4.582A.327.327,0,0,1,7.886,4.9L6.7,4.191a.994.994,0,0,0-1.214.149L4.34,5.483A.994.994,0,0,0,4.191,6.7L4.9,7.885a.331.331,0,0,1,.016.323,7.941,7.941,0,0,0-.582,1.4.348.348,0,0,1-.252.228l-1.332.331A.992.992,0,0,0,2,11.134V12.75a.994.994,0,0,0,.753.964l1.332.333a.347.347,0,0,1,.252.228,7.951,7.951,0,0,0,.582,1.4A.331.331,0,0,1,4.9,16l-.712,1.187A.994.994,0,0,0,4.34,18.4l1.143,1.143a.992.992,0,0,0,1.215.149l1.187-.712a.329.329,0,0,1,.324-.016,7.894,7.894,0,0,0,1.4.582.348.348,0,0,1,.227.252l.333,1.333a.994.994,0,0,0,.964.752H12.75a.994.994,0,0,0,.965-.753l.331-1.332a.348.348,0,0,1,.227-.252,7.9,7.9,0,0,0,1.4-.582A.331.331,0,0,1,16,18.98l1.187.712a.992.992,0,0,0,1.214-.149L19.542,18.4a.994.994,0,0,0,.149-1.215L18.979,16a.331.331,0,0,1-.016-.323,7.941,7.941,0,0,0,.582-1.4.348.348,0,0,1,.252-.228l1.332-.331a.992.992,0,0,0,.754-.966V11.134a.994.994,0,0,0-.753-.964Zm.09,2.581a.331.331,0,0,1-.251.322l-1.332.333a1.013,1.013,0,0,0-.725.676,7.278,7.278,0,0,1-.534,1.284.994.994,0,0,0,.033.976l.712,1.187a.331.331,0,0,1-.05.4l-1.143,1.143a.331.331,0,0,1-.4.05l-1.187-.712a1,1,0,0,0-.976-.033,7.253,7.253,0,0,1-1.283.533,1.014,1.014,0,0,0-.676.725l-.333,1.332a.331.331,0,0,1-.322.251H11.134a.331.331,0,0,1-.321-.251l-.333-1.333a1.013,1.013,0,0,0-.676-.725,7.243,7.243,0,0,1-1.283-.533.969.969,0,0,0-.455-.112,1.014,1.014,0,0,0-.521.145l-1.187.712a.331.331,0,0,1-.4-.05L4.809,17.931a.331.331,0,0,1-.05-.4l.712-1.187a.994.994,0,0,0,.033-.976A7.278,7.278,0,0,1,4.97,14.08a1.013,1.013,0,0,0-.724-.676l-1.332-.333a.331.331,0,0,1-.251-.321V11.134a.331.331,0,0,1,.251-.322l1.332-.331A1.013,1.013,0,0,0,4.971,9.8,7.278,7.278,0,0,1,5.5,8.521a.994.994,0,0,0-.033-.976L4.759,6.358a.331.331,0,0,1,.05-.4L5.952,4.811a.331.331,0,0,1,.4-.05l1.187.712a.994.994,0,0,0,.976.033A7.253,7.253,0,0,1,9.8,4.973a1.014,1.014,0,0,0,.676-.725l.331-1.332a.331.331,0,0,1,.323-.253H12.75a.331.331,0,0,1,.321.251L13.4,4.246a1.013,1.013,0,0,0,.676.725,7.242,7.242,0,0,1,1.283.533,1,1,0,0,0,.976-.033l1.187-.712a.331.331,0,0,1,.4.05l1.143,1.143a.331.331,0,0,1,.05.4l-.712,1.187a.994.994,0,0,0-.033.976A7.278,7.278,0,0,1,18.914,9.8a1.013,1.013,0,0,0,.724.676l1.332.333a.331.331,0,0,1,.251.322Z" transform="translate(0 0)" fill="#1d416f"/>
      <path id="Path_84730" data-name="Path 84730" d="M19.3,13A6.3,6.3,0,0,0,13,19.3a.331.331,0,1,0,.663,0A5.634,5.634,0,1,1,19.3,24.93a.331.331,0,0,0,0,.663A6.3,6.3,0,1,0,19.3,13Z" transform="translate(-7.355 -7.355)" fill="#1d416f"/>
      <path id="Path_84731" data-name="Path 84731" d="M26.93,46.466a.331.331,0,0,0-.406.234l-.172.64a.331.331,0,0,0,.234.406.336.336,0,0,0,.086.011.331.331,0,0,0,.32-.246l.172-.64A.331.331,0,0,0,26.93,46.466Z" transform="translate(-16.274 -29.722)" fill="#1d416f"/>
      <path id="Path_84732" data-name="Path 84732" d="M22.828,44.9a.331.331,0,0,0-.453.121l-.331.574a.331.331,0,1,0,.574.331l.331-.574A.331.331,0,0,0,22.828,44.9Z" transform="translate(-13.372 -28.654)" fill="#1d416f"/>
      <path id="Path_84733" data-name="Path 84733" d="M18.838,42.41l-.469.469a.331.331,0,1,0,.469.469l.469-.469a.331.331,0,1,0-.469-.469Z" transform="translate(-10.88 -26.953)" fill="#1d416f"/>
      <path id="Path_84734" data-name="Path 84734" d="M16.6,39.166a.331.331,0,0,0-.453-.121l-.574.331a.331.331,0,1,0,.331.574l.574-.331A.331.331,0,0,0,16.6,39.166Z" transform="translate(-8.967 -24.738)" fill="#1d416f"/>
      <path id="Path_84735" data-name="Path 84735" d="M14.9,35.386a.331.331,0,0,0-.406-.234l-.64.172a.331.331,0,0,0,.085.652.338.338,0,0,0,.086-.011l.64-.172A.331.331,0,0,0,14.9,35.386Z" transform="translate(-7.764 -22.158)" fill="#1d416f"/>
      <path id="Path_84736" data-name="Path 84736" d="M30.725,25.965a.331.331,0,0,0,.331-.331v-.521l.292-4.425a.642.642,0,0,0-.168-.483.618.618,0,0,0-.356-.185.329.329,0,0,0-.1-.02.322.322,0,0,0-.076.015.625.625,0,0,0-.406.189.64.64,0,0,0-.168.479l.306,4.64h.013v.311A.331.331,0,0,0,30.725,25.965Z" transform="translate(-18.77 -12.035)" fill="#faefde"/>
      <circle id="Ellipse_1953" data-name="Ellipse 1953" cx="1" cy="1" r="1" transform="translate(10.942 13.942)" fill="#faefde"/>
      <path id="Path_84737" data-name="Path 84737" d="M30.725,25.965a.331.331,0,0,0,.331-.331v-.521l.292-4.425a.642.642,0,0,0-.168-.483.618.618,0,0,0-.356-.185.329.329,0,0,0-.1-.02.322.322,0,0,0-.076.015.625.625,0,0,0-.406.189.64.64,0,0,0-.168.479l.306,4.64h.013v.311A.331.331,0,0,0,30.725,25.965Z" transform="translate(-18.77 -12.035)" fill="#ba68c8"/>
      <circle id="Ellipse_1954" data-name="Ellipse 1954" cx="1" cy="1" r="1" transform="translate(10.942 13.942)" fill="#ba68c8"/>
    </g>
  </g>
</svg>
