<svg xmlns="http://www.w3.org/2000/svg" width="32" height="32" viewBox="0 0 32 32">
  <g id="Wheel" transform="translate(-40 -484)">
    <circle id="BG" cx="16" cy="16" r="16" transform="translate(40 484)" fill="#dce9f2"/>
    <g id="Group_162623" data-name="Group 162623" transform="translate(42.895 486.895)">
      <path id="Path_84771" data-name="Path 84771" d="M31,14h.7v6.272H31Z" transform="translate(-18.243 -7.167)" fill="#1d416f"/>
      <path id="Path_84772" data-name="Path 84772" d="M0,0H6.272V.7H0Z" transform="matrix(0.707, -0.707, 0.707, 0.707, 12.859, 12.859)" fill="#1d416f"/>
      <path id="Path_84773" data-name="Path 84773" d="M32,31h6.272v.7H32Z" transform="translate(-18.895 -18.243)" fill="#1d416f"/>
      <path id="Path_84774" data-name="Path 84774" d="M0,0H.7V6.272H0Z" transform="matrix(0.707, -0.707, 0.707, 0.707, 12.859, 13.351)" fill="#1d416f"/>
      <path id="Path_84775" data-name="Path 84775" d="M31,32h.7v6.272H31Z" transform="translate(-18.243 -18.895)" fill="#1d416f"/>
      <path id="Path_84776" data-name="Path 84776" d="M0,0H6.272V.7H0Z" transform="matrix(0.707, -0.707, 0.707, 0.707, 8.424, 17.294)" fill="#1d416f"/>
      <path id="Path_84777" data-name="Path 84777" d="M14,31h6.272v.7H14Z" transform="translate(-7.167 -18.243)" fill="#1d416f"/>
      <path id="Path_84778" data-name="Path 84778" d="M0,0H.7V6.272H0Z" transform="matrix(0.707, -0.707, 0.707, 0.707, 8.424, 8.916)" fill="#1d416f"/>
      <g id="Group_162600" data-name="Group 162600" transform="translate(3.348 3.348)">
        <path id="Path_84779" data-name="Path 84779" d="M13.757,4a9.757,9.757,0,1,0,9.757,9.757A9.757,9.757,0,0,0,13.757,4Zm0,15.681a5.924,5.924,0,1,1,5.924-5.924A5.924,5.924,0,0,1,13.757,19.681Z" transform="translate(-4 -4)" fill="#ba68c8"/>
      </g>
      <g id="Group_162601" data-name="Group 162601" transform="translate(3 3)">
        <path id="Path_84780" data-name="Path 84780" d="M13.105,23.211A10.105,10.105,0,1,1,23.211,13.105,10.117,10.117,0,0,1,13.105,23.211Zm0-19.514a9.409,9.409,0,1,0,9.409,9.409A9.419,9.419,0,0,0,13.105,3.7Z" transform="translate(-3 -3)" fill="#1d416f"/>
      </g>
      <g id="Group_162602" data-name="Group 162602" transform="translate(4.421 4.435)">
        <path id="Path_84781" data-name="Path 84781" d="M23.306,14.816a.349.349,0,0,1-.06-.692l.686-.12a.349.349,0,0,1,.12.687l-.686.12A.355.355,0,0,1,23.306,14.816Zm-.454-1.592a.349.349,0,0,1-.133-.671l.645-.265a.348.348,0,1,1,.266.644l-.645.265A.344.344,0,0,1,22.851,13.223Zm-.794-1.454a.348.348,0,0,1-.2-.635l.573-.4a.348.348,0,1,1,.4.572l-.573.4A.346.346,0,0,1,22.057,11.769Zm-1.09-1.248a.349.349,0,0,1-.256-.585l.474-.511A.348.348,0,0,1,21.7,9.9l-.474.511A.345.345,0,0,1,20.967,10.521Zm-1.329-.989a.348.348,0,0,1-.3-.525l.354-.6a.348.348,0,1,1,.6.354l-.354.6A.347.347,0,0,1,19.638,9.531ZM18.13,8.848a.349.349,0,0,1-.332-.456l.215-.663a.349.349,0,0,1,.663.215l-.215.663A.348.348,0,0,1,18.13,8.848Zm-1.621-.34h-.034a.348.348,0,0,1-.313-.381l.067-.694a.348.348,0,1,1,.693.067l-.067.694A.348.348,0,0,1,16.509,8.508ZM14.85,8.53a.348.348,0,0,1-.346-.307l-.082-.692a.348.348,0,0,1,.692-.082l.082.692a.349.349,0,0,1-.305.387Zm-1.613.375a.348.348,0,0,1-.329-.234l-.229-.658a.348.348,0,0,1,.658-.229l.229.658a.349.349,0,0,1-.329.463Zm-1.494.713a.348.348,0,0,1-.3-.166l-.366-.593a.348.348,0,1,1,.593-.366l.366.593a.348.348,0,0,1-.3.531Zm-1.31,1.015a.349.349,0,0,1-.251-.106l-.485-.5a.349.349,0,0,1,.5-.485l.485.5a.349.349,0,0,1-.25.591ZM9.371,11.905a.347.347,0,0,1-.192-.058L8.6,11.462a.348.348,0,0,1,.385-.581l.581.385a.348.348,0,0,1-.193.639Zm-.756,1.474a.345.345,0,0,1-.125-.024L7.84,13.1a.348.348,0,0,1,.251-.65l.65.251a.349.349,0,0,1-.126.674Zm-.423,1.6a.334.334,0,0,1-.053,0l-.689-.1a.349.349,0,0,1,.1-.689l.689.1a.349.349,0,0,1-.052.693Zm-.768,1.7a.348.348,0,0,1-.022-.7l.7-.045a.348.348,0,1,1,.044.7l-.7.045Zm.307,1.781a.348.348,0,0,1-.1-.683l.669-.193a.348.348,0,1,1,.193.669l-.669.193A.342.342,0,0,1,7.732,18.46Zm.683,1.674a.348.348,0,0,1-.167-.654l.612-.334a.348.348,0,0,1,.333.612l-.612.334A.344.344,0,0,1,8.415,20.135Zm1.037,1.48A.348.348,0,0,1,9.224,21l.526-.457a.349.349,0,1,1,.457.526l-.526.457A.347.347,0,0,1,9.452,21.615Zm1.326,1.227a.348.348,0,0,1-.279-.556l.416-.559a.348.348,0,1,1,.559.416l-.416.559A.347.347,0,0,1,10.778,22.842Zm1.557.918a.349.349,0,0,1-.317-.492l.286-.636a.349.349,0,0,1,.636.286l-.286.636A.348.348,0,0,1,12.334,23.76Zm1.719.564a.354.354,0,0,1-.071-.007.348.348,0,0,1-.27-.412l.141-.682a.349.349,0,0,1,.683.141l-.141.682A.349.349,0,0,1,14.053,24.324Zm1.8.171a.348.348,0,0,1-.348-.345l-.007-.7a.349.349,0,0,1,.345-.352h0a.348.348,0,0,1,.348.345l.007.7a.349.349,0,0,1-.345.352Zm1.794-.216a.349.349,0,0,1-.339-.27l-.156-.679a.348.348,0,1,1,.679-.156l.156.679a.349.349,0,0,1-.261.418A.353.353,0,0,1,17.646,24.279Zm1.707-.6a.348.348,0,0,1-.315-.2l-.3-.629a.348.348,0,1,1,.629-.3l.3.629a.348.348,0,0,1-.314.5Zm1.538-.948a.347.347,0,0,1-.275-.135l-.428-.55a.348.348,0,1,1,.55-.428l.428.55a.348.348,0,0,1-.275.562Zm1.3-1.253a.348.348,0,0,1-.223-.08l-.536-.446a.348.348,0,1,1,.446-.536l.536.446a.348.348,0,0,1-.223.616Zm1-1.509a.348.348,0,0,1-.16-.039l-.619-.32a.349.349,0,0,1,.321-.619l.619.32a.349.349,0,0,1-.161.658Zm.648-1.687a.348.348,0,0,1-.09-.012l-.674-.179a.348.348,0,1,1,.179-.673l.674.179a.348.348,0,0,1-.089.685Zm.271-1.787h-.015l-.7-.03a.348.348,0,0,1-.333-.363.352.352,0,0,1,.363-.333l.7.03a.348.348,0,0,1-.015.7Z" transform="translate(-7.077 -7.118)" fill="#1d416f"/>
      </g>
      <g id="Group_162603" data-name="Group 162603" transform="translate(6.833 6.833)">
        <path id="Path_84782" data-name="Path 84782" d="M20.272,26.545a6.272,6.272,0,1,1,6.272-6.272A6.28,6.28,0,0,1,20.272,26.545Zm0-11.848a5.575,5.575,0,1,0,5.575,5.575A5.582,5.582,0,0,0,20.272,14.7Z" transform="translate(-14 -14)" fill="#1d416f"/>
      </g>
      <g id="Group_162604" data-name="Group 162604" transform="translate(10.318 10.318)">
        <path id="Path_84783" data-name="Path 84783" d="M26.788,24a2.788,2.788,0,1,0,2.788,2.788A2.788,2.788,0,0,0,26.788,24Z" transform="translate(-24 -24)" fill="#d491e0"/>
      </g>
      <g id="Group_162605" data-name="Group 162605" transform="translate(9.969 9.969)">
        <path id="Path_84784" data-name="Path 84784" d="M26.136,29.272a3.136,3.136,0,1,1,3.136-3.136A3.14,3.14,0,0,1,26.136,29.272Zm0-5.575a2.439,2.439,0,1,0,2.439,2.439A2.442,2.442,0,0,0,26.136,23.7Z" transform="translate(-23 -23)" fill="#1d416f"/>
      </g>
      <g id="Group_162606" data-name="Group 162606" transform="translate(12.757 12.757)">
        <path id="Path_84785" data-name="Path 84785" d="M31.348,33.091a.348.348,0,1,1,0-.7,1.047,1.047,0,0,0,1.045-1.045.348.348,0,1,1,.7,0A1.744,1.744,0,0,1,31.348,33.091Z" transform="translate(-31 -31)" fill="#1d416f"/>
      </g>
    </g>
  </g>
</svg>
