<svg id="Illustration" xmlns="http://www.w3.org/2000/svg" xmlns:xlink="http://www.w3.org/1999/xlink" width="256.014" height="188.563" viewBox="0 0 256.014 188.563">
  <defs>
    <clipPath id="clip-path">
      <rect id="Rectangle_139649" data-name="Rectangle 139649" width="256.014" height="188.563" fill="none"/>
    </clipPath>
    <clipPath id="clip-path-3">
      <rect id="Rectangle_139636" data-name="Rectangle 139636" width="1.099" height="18.718" fill="none"/>
    </clipPath>
    <clipPath id="clip-path-8">
      <rect id="Rectangle_139642" data-name="Rectangle 139642" width="13.399" height="17.646" fill="none"/>
    </clipPath>
    <clipPath id="clip-path-9">
      <rect id="Rectangle_139643" data-name="Rectangle 139643" width="2.253" height="10.439" fill="none"/>
    </clipPath>
    <clipPath id="clip-path-11">
      <rect id="Rectangle_139645" data-name="Rectangle 139645" width="128.506" height="92.725" fill="none"/>
    </clipPath>
    <clipPath id="clip-path-12">
      <rect id="Rectangle_139646" data-name="Rectangle 139646" width="33.18" height="32.33" fill="none"/>
    </clipPath>
  </defs>
  <g id="Group_160753" data-name="Group 160753" clip-path="url(#clip-path)">
    <rect id="Rectangle_139632" data-name="Rectangle 139632" width="57.451" height="84.594" transform="translate(9.083 83.98) rotate(-33.777)" fill="#f5f5f5"/>
    <path id="Path_21916" data-name="Path 21916" d="M153.315,275.044l-.542,3.354-23.739-3.42.542-3.354Z" transform="translate(-74.118 -156.023)" fill="#e0e0e0"/>
    <path id="Path_21917" data-name="Path 21917" d="M152.9,251.546l3.406.491-3.777,23.373-3.406-.491Z" transform="translate(-85.656 -144.49)" fill="#e0e0e0"/>
    <g id="Group_160728" data-name="Group 160728">
      <g id="Group_160727" data-name="Group 160727" clip-path="url(#clip-path)">
        <path id="Path_21918" data-name="Path 21918" d="M77.6,181.744c.034.051-4.752,3.312-10.687,7.282s-10.778,7.149-10.812,7.1,4.75-3.311,10.688-7.282,10.777-7.149,10.811-7.1" transform="translate(-32.225 -104.395)" fill="#e0e0e0"/>
        <path id="Path_21919" data-name="Path 21919" d="M99.74,171.386c.034.051-7.924,5.434-17.772,12.02S64.1,195.3,64.07,195.244s7.922-5.432,17.774-12.022,17.862-11.887,17.9-11.836" transform="translate(-36.802 -98.445)" fill="#e0e0e0"/>
        <path id="Path_21920" data-name="Path 21920" d="M108.011,183.753c.034.051-7.924,5.434-17.772,12.02s-17.863,11.889-17.9,11.837,7.922-5.432,17.774-12.021,17.862-11.887,17.9-11.837" transform="translate(-41.553 -105.549)" fill="#e0e0e0"/>
        <path id="Path_21921" data-name="Path 21921" d="M116.283,196.118c.034.051-7.924,5.434-17.772,12.02s-17.863,11.888-17.9,11.837,7.922-5.432,17.774-12.022,17.862-11.887,17.9-11.836" transform="translate(-46.305 -112.652)" fill="#e0e0e0"/>
        <path id="Path_21922" data-name="Path 21922" d="M124.554,208.486c.034.051-7.924,5.434-17.772,12.02s-17.863,11.889-17.9,11.837,7.922-5.432,17.774-12.022,17.862-11.887,17.9-11.836" transform="translate(-51.056 -119.755)" fill="#e0e0e0"/>
        <rect id="Rectangle_139633" data-name="Rectangle 139633" width="48.249" height="71.045" transform="translate(176.411 125.989) rotate(-33.777)" fill="#f5f5f5"/>
        <path id="Path_21923" data-name="Path 21923" d="M525.343,361.3l-.455,2.817-19.937-2.872.455-2.817Z" transform="translate(-290.048 -205.885)" fill="#e0e0e0"/>
        <path id="Path_21924" data-name="Path 21924" d="M524.993,341.569l2.861.412-3.172,19.629-2.861-.412Z" transform="translate(-299.738 -196.2)" fill="#e0e0e0"/>
        <path id="Path_21925" data-name="Path 21925" d="M461.756,282.947c.034.051-3.981,2.8-8.966,6.13s-9.056,6-9.09,5.946,3.98-2.8,8.967-6.131,9.055-6,9.089-5.946" transform="translate(-254.865 -162.527)" fill="#e0e0e0"/>
        <path id="Path_21926" data-name="Path 21926" d="M480.349,274.248c.034.051-6.645,4.578-14.916,10.11s-15.006,9.978-15.04,9.927,6.643-4.577,14.917-10.111,15.005-9.976,15.039-9.926" transform="translate(-258.709 -157.53)" fill="#e0e0e0"/>
        <path id="Path_21927" data-name="Path 21927" d="M487.3,284.633c.034.051-6.645,4.578-14.916,10.11s-15.007,9.978-15.041,9.927,6.643-4.577,14.917-10.111,15.005-9.976,15.039-9.926" transform="translate(-262.699 -163.495)" fill="#e0e0e0"/>
        <path id="Path_21928" data-name="Path 21928" d="M494.242,295.019c.034.051-6.645,4.578-14.916,10.11s-15.007,9.978-15.041,9.927,6.643-4.577,14.917-10.111,15.005-9.976,15.039-9.926" transform="translate(-266.689 -169.461)" fill="#e0e0e0"/>
        <path id="Path_21929" data-name="Path 21929" d="M501.188,305.405c.034.051-6.645,4.578-14.916,10.11s-15.007,9.978-15.041,9.927,6.643-4.577,14.917-10.111,15.005-9.977,15.039-9.926" transform="translate(-270.679 -175.427)" fill="#e0e0e0"/>
        <rect id="Rectangle_139634" data-name="Rectangle 139634" width="73.07" height="49.624" transform="translate(74.85 95.647) rotate(-61.862)" fill="#f5f5f5"/>
        <path id="Path_21930" data-name="Path 21930" d="M247.831,206.074l-2.776.951-7.047-19.481,2.776-.951Z" transform="translate(-136.714 -107.181)" fill="#e0e0e0"/>
        <path id="Path_21931" data-name="Path 21931" d="M244.978,199.529l1.011,2.8-19.347,6.626-1.011-2.8Z" transform="translate(-129.604 -114.611)" fill="#e0e0e0"/>
        <path id="Path_21932" data-name="Path 21932" d="M276.8,117.771c-.034.064-4.473-2.243-9.912-5.152s-9.823-5.32-9.789-5.385,4.472,2.242,9.913,5.153,9.822,5.32,9.788,5.384" transform="translate(-147.68 -61.595)" fill="#e0e0e0"/>
        <path id="Path_21933" data-name="Path 21933" d="M283.949,135.632c-.034.064-7.38-3.8-16.4-8.624s-16.316-8.793-16.282-8.857,7.378,3.8,16.406,8.625,16.314,8.792,16.28,8.856" transform="translate(-144.327 -67.866)" fill="#e0e0e0"/>
        <path id="Path_21934" data-name="Path 21934" d="M277.888,146.964c-.034.064-7.38-3.8-16.4-8.624s-16.316-8.793-16.282-8.857,7.378,3.8,16.406,8.625,16.314,8.792,16.28,8.856" transform="translate(-140.846 -74.375)" fill="#e0e0e0"/>
        <path id="Path_21935" data-name="Path 21935" d="M271.828,158.3c-.034.064-7.38-3.8-16.4-8.624s-16.316-8.793-16.282-8.857,7.378,3.8,16.406,8.625,16.314,8.792,16.28,8.856" transform="translate(-137.365 -80.885)" fill="#e0e0e0"/>
        <path id="Path_21936" data-name="Path 21936" d="M265.767,169.628c-.034.064-7.379-3.8-16.4-8.624s-16.316-8.793-16.282-8.857,7.378,3.8,16.406,8.625,16.314,8.792,16.28,8.856" transform="translate(-133.883 -87.394)" fill="#e0e0e0"/>
        <g id="Group_160726" data-name="Group 160726" transform="translate(131.014)" opacity="0.2">
          <g id="Group_160725" data-name="Group 160725">
            <g id="Group_160724" data-name="Group 160724" clip-path="url(#clip-path-3)">
              <rect id="Rectangle_139635" data-name="Rectangle 139635" width="1.099" height="18.719" transform="translate(0)"/>
            </g>
          </g>
        </g>
      </g>
    </g>
    <g id="Group_160730" data-name="Group 160730">
      <g id="Group_160729" data-name="Group 160729" clip-path="url(#clip-path)">
        <path id="Path_21937" data-name="Path 21937" d="M248.9,66.611h51.267s-4.733-22.656-26.022-22.656c-18.935,0-25.245,22.656-25.245,22.656" transform="translate(-142.969 -25.248)" fill="#1d416f"/>
        <rect id="Rectangle_139638" data-name="Rectangle 139638" width="1.099" height="18.719" transform="translate(131.014)" fill="#1d416f"/>
      </g>
    </g>
    <g id="Group_160732" data-name="Group 160732">
      <g id="Group_160731" data-name="Group 160731" clip-path="url(#clip-path)">
        <path id="Path_21938" data-name="Path 21938" d="M245.709,439.679c0,.061-55.008.111-122.849.111C55,439.789,0,439.74,0,439.679s55-.111,122.86-.111c67.84,0,122.849.049,122.849.111" transform="translate(0 -252.491)" fill="#263238"/>
      </g>
    </g>
    <g id="Group_160734" data-name="Group 160734">
      <g id="Group_160733" data-name="Group 160733" clip-path="url(#clip-path)">
        <path id="Path_21939" data-name="Path 21939" d="M29.828,377.2a5.365,5.365,0,0,1,3.739,1.915,9.471,9.471,0,0,1,1.9,3.835,16.711,16.711,0,0,1-.49,8.546c-2.913-1.041-4.71-4.149-5.522-5.782-1.284-2.582-2.037-8.028.371-8.513" transform="translate(-16.23 -216.667)" fill="#445b64"/>
        <path id="Path_21940" data-name="Path 21940" d="M52.926,408.037a4.576,4.576,0,0,1-.214-4.59,6.076,6.076,0,0,1,3.66-2.942,2.559,2.559,0,0,1,2.154.1,1.956,1.956,0,0,1,.753,1.835,3.966,3.966,0,0,1-.838,1.883c-1.416,1.918-3.14,3.514-5.516,3.711" transform="translate(-29.983 -229.946)" fill="#445b64"/>
        <path id="Path_21941" data-name="Path 21941" d="M53.518,421.419a3.241,3.241,0,0,1-.13-.559l-.3-1.534a16.059,16.059,0,0,1-.319-5.151A9.832,9.832,0,0,1,54.68,409.4a6.682,6.682,0,0,1,1.105-1.117,3.941,3.941,0,0,1,.347-.249c.081-.054.126-.079.13-.073a10.416,10.416,0,0,0-1.469,1.526,10.151,10.151,0,0,0-1.824,4.714,17.3,17.3,0,0,0,.259,5.1c.1.651.189,1.179.237,1.545a3.028,3.028,0,0,1,.053.572" transform="translate(-30.254 -234.336)" fill="#263238"/>
        <path id="Path_21942" data-name="Path 21942" d="M34.159,386.826a1.171,1.171,0,0,1,.117.22l.3.649c.257.564.619,1.386,1.058,2.405.878,2.038,2.051,4.871,3.276,8.028s2.268,6.042,2.994,8.139c.363,1.049.65,1.9.841,2.49l.215.681a1.133,1.133,0,0,1,.062.242,1.178,1.178,0,0,1-.1-.229l-.252-.669-.9-2.468c-.76-2.084-1.824-4.958-3.048-8.114s-2.376-5.994-3.219-8.046l-1-2.43-.265-.663a1.16,1.16,0,0,1-.08-.237" transform="translate(-19.621 -222.196)" fill="#263238"/>
        <path id="Path_21943" data-name="Path 21943" d="M32.064,418.618a10.706,10.706,0,0,0-8.308-5.162c-.861-.063-1.9.082-2.281.856a2.217,2.217,0,0,0,.716,2.327A9.147,9.147,0,0,0,32.1,418.85" transform="translate(-12.259 -237.485)" fill="#445b64"/>
        <path id="Path_21944" data-name="Path 21944" d="M30.095,418.883a2.754,2.754,0,0,1,.539.02,5.226,5.226,0,0,1,.629.073c.243.045.525.072.826.155a9.4,9.4,0,0,1,.982.273,10.587,10.587,0,0,1,1.094.416,11.911,11.911,0,0,1,2.305,1.367,11.669,11.669,0,0,1,1.906,1.886,10.181,10.181,0,0,1,.671.96,8.654,8.654,0,0,1,.5.889,7.863,7.863,0,0,1,.343.767,4.8,4.8,0,0,1,.214.6,2.747,2.747,0,0,1,.14.521c-.043.015-.25-.729-.824-1.819a9.242,9.242,0,0,0-.514-.864,10.629,10.629,0,0,0-.675-.934,12.125,12.125,0,0,0-1.884-1.842,12.422,12.422,0,0,0-2.259-1.357,11.111,11.111,0,0,0-1.071-.427c-.338-.129-.666-.21-.962-.292-1.194-.3-1.965-.343-1.96-.387" transform="translate(-17.287 -240.605)" fill="#263238"/>
      </g>
    </g>
    <g id="Group_160742" data-name="Group 160742">
      <g id="Group_160741" data-name="Group 160741" clip-path="url(#clip-path)">
        <path id="Path_21945" data-name="Path 21945" d="M475.421,104.283c-1.251.288-1.861,1.728-1.979,3.007a11.441,11.441,0,0,1-.492,3.8c-.6,1.313-2.048,2.281-2.1,3.725-.029.881.494,1.709.469,2.59-.041,1.447-1.516,2.54-1.594,3.985-.056,1.041.637,2.039.471,3.068a14.414,14.414,0,0,1-1.017,2.2c-.525,1.529.525,3.212,1.894,4.073a6.206,6.206,0,0,0,9.043-2.889,12.678,12.678,0,0,0,.427-5.889q-.769-9.26-1.143-18.547" transform="translate(-269.423 -59.393)" fill="#263238"/>
        <path id="Path_21946" data-name="Path 21946" d="M475.489,127.919a1.5,1.5,0,0,0,.572-.68,2.414,2.414,0,0,0,.146-1.039,5.757,5.757,0,0,0-.31-1.378,3.925,3.925,0,0,1-.222-1.745,3.975,3.975,0,0,1,1.014-1.742,3.887,3.887,0,0,0,.575-.874,1.412,1.412,0,0,0,.066-1.021c-.22-.7-.9-1.207-1.214-2.009a2.172,2.172,0,0,1-.069-1.242,5.04,5.04,0,0,1,.411-1.114,9.535,9.535,0,0,0,.846-2c.3-1.35.159-2.639.362-3.7a4.108,4.108,0,0,1,1.076-2.268,2.423,2.423,0,0,1,.562-.4,1,1,0,0,1,.225-.084,3.455,3.455,0,0,0-.726.546,4.144,4.144,0,0,0-.983,2.233,14.1,14.1,0,0,0-.118,1.72,10.476,10.476,0,0,1-.2,2,9.518,9.518,0,0,1-.848,2.049,2.8,2.8,0,0,0-.331,2.185c.27.724.956,1.239,1.213,2.022a1.625,1.625,0,0,1-.08,1.17,4.051,4.051,0,0,1-.61.918,2.792,2.792,0,0,0-.8,3.315,5.7,5.7,0,0,1,.283,1.416,2.434,2.434,0,0,1-.19,1.079,1.294,1.294,0,0,1-.436.537.708.708,0,0,1-.215.109" transform="translate(-273.124 -61.245)" fill="#455a64"/>
        <path id="Path_21947" data-name="Path 21947" d="M437.2,180.366l-3.842,11.075-16.021.859-2.672,5.945,16.726,1.692a6.319,6.319,0,0,0,8.363-3.709l4.464-12.459Z" transform="translate(-238.19 -103.604)" fill="#b78876"/>
        <path id="Path_21948" data-name="Path 21948" d="M505.3,326.667s-11.74-37.289-11.989-38.5c-.225-1.094,4.261-27.929,4.826-34.874l-15.864.591s0,.043,0,.116l-6.743.374,6.04,76.263h7.3l-.724-25.3a246.519,246.519,0,0,0,10.952,24.4Z" transform="translate(-273.146 -145.493)" fill="#b78876"/>
        <path id="Path_21949" data-name="Path 21949" d="M502.059,375.147c.006-.232-.089-8.477-.089-8.477-.091.493-2.8-7.16-2.733-7.625.034-.241,2.822,16.1,2.822,16.1" transform="translate(-286.765 -206.236)" fill="#a36957"/>
        <path id="Path_21950" data-name="Path 21950" d="M498.434,350.534a1.706,1.706,0,0,0-.047.462,12.187,12.187,0,0,0,.01,1.264c.01.267.038.559.073.872s.083.647.155.993a16.969,16.969,0,0,0,.6,2.222c.53,1.542,1.115,2.891,1.53,3.871l.508,1.153a1.709,1.709,0,0,0,.217.411,1.75,1.75,0,0,0-.129-.446c-.1-.281-.247-.685-.437-1.182-.375-1-.934-2.355-1.46-3.884a19.273,19.273,0,0,1-.607-2.189c-.077-.34-.126-.669-.174-.975s-.08-.595-.1-.858c-.051-.526-.073-.956-.086-1.252a1.732,1.732,0,0,0-.048-.462" transform="translate(-286.27 -201.349)" fill="#a36957"/>
        <path id="Path_21951" data-name="Path 21951" d="M482.614,434.545l0-.686,7.478-.326.02,2.828-.461.031c-2.053.12-10.445.466-11.818.055-1.532-.46,4.784-1.9,4.784-1.9" transform="translate(-274.331 -249.025)" fill="#455a64"/>
        <path id="Path_21952" data-name="Path 21952" d="M490.212,439.771a.694.694,0,0,1-.128.014l-.367.023-1.352.063c-1.142.045-2.72.087-4.464.095s-3.323-.02-4.465-.056l-1.353-.051-.367-.02a.69.69,0,0,1-.128-.013.716.716,0,0,1,.129-.005l.368,0,1.353.023c1.142.019,2.72.037,4.464.029s3.32-.04,4.462-.068l1.353-.035.368-.006a.707.707,0,0,1,.129,0" transform="translate(-274.33 -252.605)" fill="#263238"/>
        <path id="Path_21953" data-name="Path 21953" d="M482.734,438.773a1.968,1.968,0,0,0-.718-1.161,1.2,1.2,0,0,1,.718,1.161" transform="translate(-276.873 -251.366)" fill="#263238"/>
        <path id="Path_21954" data-name="Path 21954" d="M488.313,436.872c-.021.014-.126-.114-.235-.285s-.181-.32-.16-.333.126.114.236.284.18.32.16.333" transform="translate(-280.261 -250.587)" fill="#263238"/>
        <path id="Path_21955" data-name="Path 21955" d="M489.633,436.389c-.017.019-.134-.059-.263-.174s-.219-.223-.2-.241.134.059.263.174.22.223.2.241" transform="translate(-280.98 -250.425)" fill="#263238"/>
        <path id="Path_21956" data-name="Path 21956" d="M490.1,435.247a1.7,1.7,0,1,1-.389-.039.875.875,0,0,1,.389.039" transform="translate(-281.073 -249.986)" fill="#263238"/>
        <path id="Path_21957" data-name="Path 21957" d="M490.268,434.125a1.091,1.091,0,0,1-.88.069,31.094,31.094,0,0,0,.88-.069" transform="translate(-281.108 -249.361)" fill="#263238"/>
        <path id="Path_21958" data-name="Path 21958" d="M486.359,435.286a1.373,1.373,0,0,1-.478,0,2.8,2.8,0,0,1-.509-.11,1.422,1.422,0,0,1-.292-.119.258.258,0,0,1-.119-.148.187.187,0,0,1,.072-.191.875.875,0,0,1,1.085.252.847.847,0,0,1,.157.318.269.269,0,0,1,.013.129,1.359,1.359,0,0,0-.22-.407.861.861,0,0,0-.409-.264.742.742,0,0,0-.57.041c-.076.057-.046.146.039.2a1.449,1.449,0,0,0,.269.114,3.318,3.318,0,0,0,.493.126c.286.05.469.049.469.064" transform="translate(-278.562 -249.649)" fill="#263238"/>
        <path id="Path_21959" data-name="Path 21959" d="M487.881,434.99a.469.469,0,0,1-.056-.332.784.784,0,0,1,.129-.35.48.48,0,0,1,.4-.245.19.19,0,0,1,.149.22.529.529,0,0,1-.08.214,1.474,1.474,0,0,1-.225.29.687.687,0,0,1-.273.194c-.008-.011.095-.086.226-.238a1.675,1.675,0,0,0,.2-.287c.065-.1.109-.283-.011-.3s-.241.109-.314.2a.782.782,0,0,0-.134.312,1.742,1.742,0,0,0-.007.322" transform="translate(-280.208 -249.329)" fill="#263238"/>
        <path id="Path_21960" data-name="Path 21960" d="M503.318,434.928c0,.017-.213-.02-.549.021a2.332,2.332,0,0,0-1.943,1.56c-.112.32-.123.534-.139.532a.421.421,0,0,1,0-.15,1.956,1.956,0,0,1,.08-.4,2.262,2.262,0,0,1,2-1.6,1.956,1.956,0,0,1,.409.009.432.432,0,0,1,.146.033" transform="translate(-287.595 -249.798)" fill="#263238"/>
        <path id="Path_21961" data-name="Path 21961" d="M495.528,438.37a6.11,6.11,0,0,1-2.174.012c0-.026.488.006,1.087,0s1.084-.039,1.087-.013" transform="translate(-283.386 -251.798)" fill="#263238"/>
        <path id="Path_21962" data-name="Path 21962" d="M501.6,438.342c.018.018-.04.1-.089.215s-.076.21-.1.209-.039-.117.019-.246.155-.2.171-.178" transform="translate(-288.002 -251.785)" fill="#263238"/>
        <path id="Path_21963" data-name="Path 21963" d="M502.792,436.73c.018.017-.03.095-.106.173s-.154.128-.171.11.03-.095.106-.173.153-.128.171-.11" transform="translate(-288.646 -250.859)" fill="#263238"/>
        <path id="Path_21964" data-name="Path 21964" d="M504.445,435.937c-.005.025-.1.025-.213.063s-.188.1-.208.081.043-.12.178-.166.25,0,.242.022" transform="translate(-289.513 -250.381)" fill="#263238"/>
        <path id="Path_21965" data-name="Path 21965" d="M506.028,435.62c.009.023-.034.062-.1.086s-.119.025-.128,0,.033-.062.095-.086.119-.025.128,0" transform="translate(-290.538 -250.214)" fill="#263238"/>
        <path id="Path_21966" data-name="Path 21966" d="M525.313,428.982l-.284-.624,6.688-3.36,1.177,2.571-.408.217c-1.823.95-9.338,4.7-10.759,4.891-1.586.208,3.586-3.7,3.586-3.7" transform="translate(-299.51 -244.122)" fill="#455a64"/>
        <path id="Path_21967" data-name="Path 21967" d="M532.919,430.573a.691.691,0,0,1-.111.065l-.326.172-1.207.611c-1.023.509-2.446,1.193-4.034,1.915s-3.04,1.343-4.1,1.779l-1.255.507-.343.132a.661.661,0,0,1-.122.04.7.7,0,0,1,.115-.057l.337-.148,1.243-.534c1.05-.451,2.5-1.081,4.084-1.8s3.013-1.4,4.043-1.89l1.22-.586.333-.157a.692.692,0,0,1,.119-.049" transform="translate(-299.51 -247.324)" fill="#263238"/>
        <path id="Path_21968" data-name="Path 21968" d="M525.657,439.689a1.968,1.968,0,0,0-1.13-.765,1.2,1.2,0,0,1,1.13.765" transform="translate(-301.292 -252.116)" fill="#263238"/>
        <path id="Path_21969" data-name="Path 21969" d="M529.969,435.675c-.014.021-.162-.052-.331-.163s-.3-.218-.282-.239.162.052.332.163.3.218.282.239" transform="translate(-304.065 -250.022)" fill="#263238"/>
        <path id="Path_21970" data-name="Path 21970" d="M530.975,434.689c-.008.024-.147,0-.311-.051s-.292-.113-.284-.137.147,0,.311.051.292.113.284.137" transform="translate(-304.654 -249.575)" fill="#263238"/>
        <path id="Path_21971" data-name="Path 21971" d="M530.962,433.076c.011.023-.139.114-.333.205a.875.875,0,0,1-.371.124c-.011-.023.139-.114.333-.206a.877.877,0,0,1,.371-.123" transform="translate(-304.583 -248.759)" fill="#263238"/>
        <path id="Path_21972" data-name="Path 21972" d="M530.667,431.894c.016.017-.12.173-.343.294a.75.75,0,0,1-.432.13,2.385,2.385,0,0,1,.388-.209,2.414,2.414,0,0,1,.386-.214" transform="translate(-304.374 -248.082)" fill="#263238"/>
        <path id="Path_21973" data-name="Path 21973" d="M527.65,434.68a1.383,1.383,0,0,1-.437.195,2.825,2.825,0,0,1-.51.108,1.4,1.4,0,0,1-.315.011.259.259,0,0,1-.169-.086.188.188,0,0,1-.013-.2.877.877,0,0,1,1.093-.214.845.845,0,0,1,.274.226c.052.066.069.11.065.112a1.349,1.349,0,0,0-.366-.281.86.86,0,0,0-.482-.073.741.741,0,0,0-.5.271c-.046.083.018.151.115.163a1.426,1.426,0,0,0,.292-.006,3.24,3.24,0,0,0,.5-.087c.282-.072.448-.147.454-.133" transform="translate(-302.243 -249.514)" fill="#263238"/>
        <path id="Path_21974" data-name="Path 21974" d="M529.085,433.843a.472.472,0,0,1-.187-.28.783.783,0,0,1-.026-.372.48.48,0,0,1,.262-.386c.107-.033.356.182.373.262s-.126.039-.134.106a1.466,1.466,0,0,1-.086.357.682.682,0,0,1-.169.289c-.012-.007.052-.117.109-.309a1.673,1.673,0,0,0,.064-.344c.018-.119-.016-.3-.134-.273s-.176.2-.2.314a.79.79,0,0,0,.005.339,1.763,1.763,0,0,0,.126.3" transform="translate(-303.782 -248.605)" fill="#263238"/>
        <path id="Path_21975" data-name="Path 21975" d="M543.827,426.362c.005.016-.2.069-.492.244a2.333,2.333,0,0,0-1.133,2.219c.029.337.107.537.091.542a.42.42,0,0,1-.062-.136,1.977,1.977,0,0,1-.092-.4,2.261,2.261,0,0,1,1.165-2.281,1.951,1.951,0,0,1,.377-.16.445.445,0,0,1,.147-.03" transform="translate(-311.398 -244.905)" fill="#263238"/>
        <path id="Path_21976" data-name="Path 21976" d="M537.173,432.9a6.117,6.117,0,0,1-1.979.9c-.008-.025.448-.195.992-.444s.973-.48.986-.457" transform="translate(-307.42 -248.66)" fill="#263238"/>
        <path id="Path_21977" data-name="Path 21977" d="M542.842,431.464c.024.009.006.11.007.232s.017.223-.007.232-.083-.091-.083-.232.061-.242.083-.232" transform="translate(-311.765 -247.836)" fill="#263238"/>
        <path id="Path_21978" data-name="Path 21978" d="M543.265,429.468c.023.009.011.1-.026.2s-.087.179-.111.171-.012-.1.026-.2.087-.179.111-.171" transform="translate(-311.97 -246.689)" fill="#263238"/>
        <path id="Path_21979" data-name="Path 21979" d="M544.394,428.021c.005.025-.085.065-.169.146s-.131.166-.156.158-.011-.127.094-.224.227-.1.23-.08" transform="translate(-312.512 -245.852)" fill="#263238"/>
        <path id="Path_21980" data-name="Path 21980" d="M545.666,427.171c.018.017-.006.07-.052.117s-.1.071-.116.054.005-.07.052-.117.1-.072.116-.054" transform="translate(-313.335 -245.367)" fill="#263238"/>
        <path id="Path_21981" data-name="Path 21981" d="M487.378,183.4l-1.245-15.192,6.4.114a25.423,25.423,0,0,0-.646-7.153,8.293,8.293,0,0,0-4.835-5.959v-.04l-.2-.051a18.281,18.281,0,0,0-5.858-1.529l-7.851.091s-6-.749-9.317,3.527c-1.279,1.647-5.236,12.919-5.236,12.919l9.423,4.538-.9-6.251s.178,4.532.757,5.968c.323.8,1.255,3.284,1.255,3.284l-.121,7.5Z" transform="translate(-263.418 -88.222)" fill="#ba68c8"/>
        <path id="Path_21982" data-name="Path 21982" d="M514.48,178.222l-1.165,4.965h10.993l-.723-8.324Z" transform="translate(-294.852 -100.443)" fill="#ba68c8"/>
        <path id="Path_21983" data-name="Path 21983" d="M525.707,194.1a8.211,8.211,0,0,0-1.455-.144c-.9-.053-2.148-.1-3.526-.092s-2.625.066-3.525.138a7.882,7.882,0,0,0-1.451.179,9.767,9.767,0,0,0,1.461-.008c.9-.028,2.143-.06,3.517-.067s2.617.011,3.518.02a9.266,9.266,0,0,0,1.461-.027" transform="translate(-296.251 -111.358)" fill="#263238"/>
        <path id="Path_21984" data-name="Path 21984" d="M514.887,174.768a6.5,6.5,0,0,0-.037,1.263c.008.779.036,1.855.083,3.042s.1,2.262.154,3.04a6.512,6.512,0,0,0,.134,1.256,6.579,6.579,0,0,0,.037-1.263c-.008-.779-.037-1.855-.083-3.043s-.1-2.262-.154-3.039a6.5,6.5,0,0,0-.135-1.256" transform="translate(-295.732 -100.388)" fill="#263238"/>
        <g id="Group_160737" data-name="Group 160737" transform="translate(209.151 78.68)" opacity="0.3">
          <g id="Group_160736" data-name="Group 160736">
            <g id="Group_160735" data-name="Group 160735" clip-path="url(#clip-path-8)">
              <path id="Path_21985" data-name="Path 21985" d="M491.435,184.872s2.443,18.117,9.312,17.637c0,0,3.092-.037,4.087-2.092v-.809Z" transform="translate(-491.435 -184.872)"/>
            </g>
          </g>
        </g>
        <g id="Group_160740" data-name="Group 160740" transform="translate(217.84 75.448)" opacity="0.3">
          <g id="Group_160739" data-name="Group 160739">
            <g id="Group_160738" data-name="Group 160738" clip-path="url(#clip-path-9)">
              <path id="Path_21986" data-name="Path 21986" d="M513.165,177.277l-1.315,8.881.851,1.558,1.4-3.047-.593-.014Z" transform="translate(-511.85 -177.277)"/>
            </g>
          </g>
        </g>
        <path id="Path_21987" data-name="Path 21987" d="M480.384,194.667a1.871,1.871,0,0,1-.186-.424c-.107-.277-.249-.684-.413-1.189a36.135,36.135,0,0,1-1.051-4.02,28.942,28.942,0,0,1-.521-4.124c-.026-.532-.034-.962-.026-1.26a1.842,1.842,0,0,1,.031-.462c.035,0,.059.656.15,1.71a38.341,38.341,0,0,0,.582,4.092c.316,1.584.7,3,.984,4.018l.345,1.208a1.863,1.863,0,0,1,.1.451" transform="translate(-274.673 -105.225)" fill="#263238"/>
        <path id="Path_21988" data-name="Path 21988" d="M489.113,219.948c-.059.018-.229-.373-.38-.873a2.106,2.106,0,0,1-.168-.937c.058-.018.229.373.38.873a2.116,2.116,0,0,1,.168.937" transform="translate(-280.624 -125.3)" fill="#263238"/>
        <path id="Path_21989" data-name="Path 21989" d="M491.77,218.645a3.924,3.924,0,0,1-.039-2.656,86.342,86.342,0,0,0,.039,2.656" transform="translate(-282.332 -124.066)" fill="#263238"/>
        <path id="Path_21990" data-name="Path 21990" d="M468.094,197.054c-.027.055-2.22-.986-4.9-2.324s-4.827-2.467-4.8-2.522,2.22.985,4.9,2.324,4.826,2.467,4.8,2.522" transform="translate(-263.307 -110.405)" fill="#263238"/>
        <path id="Path_21991" data-name="Path 21991" d="M485.834,129.177c.049-2.153.061-4.421.061-4.421s-2.762-.532-3.243-4.166c-.459-3.465.825-11.6.825-11.6a9.706,9.706,0,0,1,10.99,3.126l-.686,17.481a3.752,3.752,0,0,1-4.06,3.475,3.964,3.964,0,0,1-3.887-3.9" transform="translate(-277.182 -62.251)" fill="#b78876"/>
        <path id="Path_21992" data-name="Path 21992" d="M484.23,124.548a.464.464,0,0,0,.435.48.444.444,0,0,0,.489-.406.464.464,0,0,0-.435-.48.445.445,0,0,0-.49.406" transform="translate(-278.145 -71.307)" fill="#263238"/>
        <path id="Path_21993" data-name="Path 21993" d="M483.816,123.039c.056.062.414-.189.914-.175s.859.274.915.214c.027-.026-.029-.137-.185-.257a1.276,1.276,0,0,0-.73-.246,1.227,1.227,0,0,0-.729.215c-.157.114-.212.222-.184.25" transform="translate(-277.903 -70.408)" fill="#263238"/>
        <path id="Path_21994" data-name="Path 21994" d="M496.136,125.289a.465.465,0,0,0,.435.48.444.444,0,0,0,.489-.406.464.464,0,0,0-.435-.48.444.444,0,0,0-.489.406" transform="translate(-284.984 -71.733)" fill="#263238"/>
        <path id="Path_21995" data-name="Path 21995" d="M496.049,123.781c.056.062.415-.189.914-.175s.859.274.915.214c.027-.026-.028-.137-.185-.257a1.275,1.275,0,0,0-.73-.246,1.228,1.228,0,0,0-.729.215c-.156.114-.211.222-.184.25" transform="translate(-284.93 -70.834)" fill="#263238"/>
        <path id="Path_21996" data-name="Path 21996" d="M489.87,127.393a3.305,3.305,0,0,0-.807-.167c-.127-.017-.247-.045-.266-.132a.65.65,0,0,1,.095-.376l.4-.961a16.715,16.715,0,0,0,.912-2.518,16.75,16.75,0,0,0-1.113,2.439q-.2.506-.386.967a.735.735,0,0,0-.079.5.32.32,0,0,0,.2.192.885.885,0,0,0,.216.036,3.251,3.251,0,0,0,.822.022" transform="translate(-280.659 -70.788)" fill="#263238"/>
        <path id="Path_21997" data-name="Path 21997" d="M490.406,145.29a9.21,9.21,0,0,0,4.879-1.168s-1.24,2.456-4.853,2.023Z" transform="translate(-281.693 -82.785)" fill="#a36957"/>
        <path id="Path_21998" data-name="Path 21998" d="M497.451,120.119c-.1.157-.482.087-.908.011s-.8-.161-.841-.344.4-.418.965-.309.887.5.783.643" transform="translate(-284.733 -68.613)" fill="#263238"/>
        <path id="Path_21999" data-name="Path 21999" d="M485.642,118.769c-.039.182-.445.248-.914.272s-.881-.01-.935-.187.34-.452.9-.477.985.215.945.392" transform="translate(-277.891 -67.996)" fill="#263238"/>
        <path id="Path_22000" data-name="Path 22000" d="M491.176,135.784a.253.253,0,0,0-.277.126.284.284,0,1,0,.17-.136" transform="translate(-281.957 -77.984)" fill="#a36957"/>
        <path id="Path_22001" data-name="Path 22001" d="M491.077,135.783c.023-.02-.08-.143-.3-.095a.379.379,0,0,0-.273.267.428.428,0,0,0,.15.452.42.42,0,0,0,.479,0,.359.359,0,0,0,.154-.355c-.044-.224-.21-.26-.214-.229s.058.106.043.239a.189.189,0,0,1-.1.156.216.216,0,0,1-.216-.009.225.225,0,0,1-.077-.206.216.216,0,0,1,.115-.157c.118-.067.223-.035.239-.066" transform="translate(-281.741 -77.934)" fill="#263238"/>
        <path id="Path_22002" data-name="Path 22002" d="M493.757,112.577c-.431,1-1.481,1.766-1.336,2.843.094.7.54,1.344.453,2.04-.109.874-1.017,1.48-1.146,2.351-.157,1.069.882,1.9,1.3,2.9.605,1.453-.169,3.086-.187,4.66a5,5,0,0,0,4.424,4.859,2.7,2.7,0,0,0,2.57-1.048,10.737,10.737,0,0,0,.582-2.328c.371-1.139,1.457-1.973,1.686-3.149.417-2.144-2.174-3.918-2-6.095a15.108,15.108,0,0,1,.891-2.642,3.871,3.871,0,0,0-.76-3.444c-.64-.761-1.567-1.261-2.112-2.091a9.154,9.154,0,0,1-.872-3.239,8.16,8.16,0,0,0-12.96-4.78,2.649,2.649,0,0,0,2.26,3.274c2.879.469,4.213-.072,4.538,1.082a3.051,3.051,0,0,0,.863,2.636c1.19,1.288,2.309,1.018,1.81,2.174" transform="translate(-278.145 -58.438)" fill="#263238"/>
        <path id="Path_22003" data-name="Path 22003" d="M510.944,142.619a1.116,1.116,0,0,1-.263-.027,3.836,3.836,0,0,1-.732-.2,5.164,5.164,0,0,1-2.228-1.649,5.825,5.825,0,0,1-.947-1.686,6.765,6.765,0,0,1-.387-2.185,8.9,8.9,0,0,1,.307-2.43,10.58,10.58,0,0,1,.408-1.231,12.258,12.258,0,0,0,.467-1.223,2.3,2.3,0,0,0,0-1.248,6.813,6.813,0,0,0-.484-1.166,7.791,7.791,0,0,1-.5-1.153,2.492,2.492,0,0,1-.089-1.223,8.681,8.681,0,0,1,.944-2,3.813,3.813,0,0,0,.385-1.813,4.28,4.28,0,0,0-.949-2.51,7.489,7.489,0,0,0-.723-.7,2.937,2.937,0,0,1,.788.648,4.266,4.266,0,0,1,1.04,2.56,3.939,3.939,0,0,1-.376,1.9,8.818,8.818,0,0,0-.909,1.963,3.587,3.587,0,0,0,.58,2.242,6.9,6.9,0,0,1,.5,1.2,2.518,2.518,0,0,1,.006,1.363,12.155,12.155,0,0,1-.476,1.247,10.485,10.485,0,0,0-.4,1.206,8.807,8.807,0,0,0-.313,2.371,6.142,6.142,0,0,0,1.253,3.777,5.255,5.255,0,0,0,2.136,1.666c.6.243.969.28.964.3" transform="translate(-290.737 -69.026)" fill="#455a64"/>
        <path id="Path_22004" data-name="Path 22004" d="M499.317,112.288a3.009,3.009,0,0,1-.634.094,6.591,6.591,0,0,1-1.753-.046,3.332,3.332,0,0,1-2.211-1.342,7.193,7.193,0,0,1-.581-1.429,2.359,2.359,0,0,0-.969-1.2,6.908,6.908,0,0,0-2.985-.779,5.182,5.182,0,0,1-2.481-.772,2.456,2.456,0,0,1-1.015-1.421,1.522,1.522,0,0,1-.033-.48c.015-.109.027-.165.035-.164a3.069,3.069,0,0,0,.082.623,2.451,2.451,0,0,0,1.022,1.314,5.167,5.167,0,0,0,2.414.7,6.921,6.921,0,0,1,3.082.8,2.565,2.565,0,0,1,1.052,1.3,7.33,7.33,0,0,0,.55,1.4,3.216,3.216,0,0,0,2.07,1.3,7.444,7.444,0,0,0,1.718.114,4.391,4.391,0,0,1,.639-.009" transform="translate(-279.534 -60.17)" fill="#455a64"/>
        <path id="Path_22005" data-name="Path 22005" d="M499.315,108.076a1.306,1.306,0,0,1-.5.073,3.052,3.052,0,0,1-2.134-.852,4.029,4.029,0,0,1-.66-.881,3.667,3.667,0,0,0-1.549-1.776,5.086,5.086,0,0,0-2.385-.209,7.32,7.32,0,0,1-2.035-.017,2.53,2.53,0,0,1-1.255-.563,1.426,1.426,0,0,1-.251-.281c-.048-.072-.069-.111-.063-.115s.119.137.368.329a2.621,2.621,0,0,0,1.227.475,7.67,7.67,0,0,0,1.992-.031,5.12,5.12,0,0,1,2.491.21,2.456,2.456,0,0,1,1.016.844,11.363,11.363,0,0,1,.62,1.031,3.983,3.983,0,0,0,.613.854,2.933,2.933,0,0,0,.732.54,3.162,3.162,0,0,0,1.276.357c.317.018.494-.006.5.013" transform="translate(-280.588 -59.425)" fill="#455a64"/>
        <path id="Path_22006" data-name="Path 22006" d="M516.342,143.309c-.022-.01.114-.284.271-.808a7.321,7.321,0,0,0,.283-2.281,7,7,0,0,0-.908-3.249c-.311-.558-.784-1.054-1.17-1.666a3.022,3.022,0,0,1-.429-1.027,2.326,2.326,0,0,1,.094-1.149,13.413,13.413,0,0,0,.758-2.029,2.8,2.8,0,0,0-.552-1.845,8.582,8.582,0,0,1-.456-.846,3.061,3.061,0,0,1-.24-.889,7.867,7.867,0,0,1,.048-1.623,4.293,4.293,0,0,0-.2-2.262,2.059,2.059,0,0,0-.5-.666s.019.005.052.025a.842.842,0,0,1,.135.1,1.567,1.567,0,0,1,.393.507,4.215,4.215,0,0,1,.28,2.313,7.992,7.992,0,0,0-.022,1.587,4.04,4.04,0,0,0,.69,1.653,5.644,5.644,0,0,1,.464.9,2.148,2.148,0,0,1,.128,1.075,12.744,12.744,0,0,1-.762,2.066,2.1,2.1,0,0,0-.089,1.042,2.819,2.819,0,0,0,.4.953c.365.588.841,1.094,1.162,1.679a7.025,7.025,0,0,1,.887,3.348,6.9,6.9,0,0,1-.358,2.311,5.042,5.042,0,0,1-.245.588.835.835,0,0,1-.108.194" transform="translate(-294.865 -70.633)" fill="#455a64"/>
        <path id="Path_22007" data-name="Path 22007" d="M475.566,278.9s-2.866-27.171-3.031-37.211,4.514-19.946,4.514-19.946l18.336-.775s3.624,10.187,3.689,14.466c.126,8.315-2.209,16.527-1.94,23.124l.613,20.342" transform="translate(-271.425 -126.925)" fill="#1d416f"/>
        <path id="Path_22008" data-name="Path 22008" d="M501.644,278.6a2.365,2.365,0,0,1-.3.227l-.167.118c-.057.049-.113.11-.177.172a2.744,2.744,0,0,0-.409.457,10.15,10.15,0,0,0-1.434,3.637,12.273,12.273,0,0,1-.928,2.585,4.662,4.662,0,0,1-.407.643c-.08.1-.152.212-.24.31l-.282.282a4.562,4.562,0,0,1-1.379.884c-1.027.45-2.185.664-3.243,1.195a5.125,5.125,0,0,0-2.354,2.682c-.516,1.153-.829,2.364-1.26,3.494a6.33,6.33,0,0,1-1.914,2.9,5.255,5.255,0,0,1-3,.941c-.987.057-1.9.029-2.721.153a4.3,4.3,0,0,0-2.052.775,2.859,2.859,0,0,0-.954,1.343,2.011,2.011,0,0,0-.071,1.044c.047.239.115.353.1.359a1.075,1.075,0,0,1-.143-.349,1.973,1.973,0,0,1,.032-1.079,2.917,2.917,0,0,1,.959-1.414,4.389,4.389,0,0,1,2.106-.833c.835-.136,1.759-.117,2.732-.182a5.089,5.089,0,0,0,2.889-.919,6.16,6.16,0,0,0,1.835-2.817c.423-1.117.735-2.33,1.261-3.508a5.33,5.33,0,0,1,2.457-2.785c1.1-.546,2.26-.753,3.26-1.188a4.371,4.371,0,0,0,1.327-.84l.271-.266c.084-.093.154-.2.231-.3a4.5,4.5,0,0,0,.4-.617,12.313,12.313,0,0,0,.939-2.54,9.87,9.87,0,0,1,1.518-3.648,2.68,2.68,0,0,1,.432-.453c.068-.06.127-.12.187-.166l.176-.111a2.3,2.3,0,0,1,.325-.19" transform="translate(-274.709 -160.03)" fill="#fafafa"/>
        <path id="Path_22009" data-name="Path 22009" d="M499.394,249.058a2.2,2.2,0,0,1,.024.364,4.519,4.519,0,0,1-.127,1.04,6.72,6.72,0,0,1-2.071,3.2,12.287,12.287,0,0,1-2.148,1.569c-.821.487-1.728.952-2.657,1.476a13.91,13.91,0,0,0-2.717,1.911,10.5,10.5,0,0,0-2.059,2.893,26.666,26.666,0,0,1-1.785,3.145,7.515,7.515,0,0,1-1.164,1.287,7.323,7.323,0,0,1-1.384.922,17.106,17.106,0,0,1-2.849,1.092c-.91.282-1.759.531-2.5.841a9.753,9.753,0,0,0-1.907,1.021,5.931,5.931,0,0,0-1.2,1.1,5.744,5.744,0,0,0-.718,1.194,2.24,2.24,0,0,1,.118-.345,4.236,4.236,0,0,1,.532-.9,5.819,5.819,0,0,1,1.193-1.151,9.635,9.635,0,0,1,1.919-1.065c.748-.324,1.6-.584,2.506-.872a17.219,17.219,0,0,0,2.809-1.1,7.177,7.177,0,0,0,1.341-.9,7.311,7.311,0,0,0,1.125-1.253,26.954,26.954,0,0,0,1.766-3.122,10.659,10.659,0,0,1,2.1-2.947,13.947,13.947,0,0,1,2.767-1.931c.937-.523,1.845-.98,2.664-1.457a12.311,12.311,0,0,0,2.134-1.526,6.778,6.778,0,0,0,2.094-3.109,6.573,6.573,0,0,0,.187-1.381" transform="translate(-272.346 -143.061)" fill="#fafafa"/>
        <path id="Path_22010" data-name="Path 22010" d="M472.536,242.98a.274.274,0,0,1-.037-.083,1.824,1.824,0,0,1-.04-1.273,4.172,4.172,0,0,1,2.7-2.485c.755-.26,1.611-.416,2.5-.649a4.691,4.691,0,0,0,3.469-2.581,13.026,13.026,0,0,0,.635-1.529,16.641,16.641,0,0,1,1.35-3.264,5.212,5.212,0,0,1,2.777-2.159,25.467,25.467,0,0,1,3.185-.807,10.533,10.533,0,0,0,2.77-.944,5.8,5.8,0,0,0,1.875-1.688,6.327,6.327,0,0,0,1.191-3.448,9.846,9.846,0,0,0-.09-1.36,4.494,4.494,0,0,1,.177,1.362,6.287,6.287,0,0,1-1.15,3.537,5.927,5.927,0,0,1-1.913,1.759,10.609,10.609,0,0,1-2.814.981,26,26,0,0,0-3.155.812,5.008,5.008,0,0,0-2.664,2.073,16.714,16.714,0,0,0-1.333,3.219,13.1,13.1,0,0,1-.652,1.554,5.613,5.613,0,0,1-.952,1.321,5.555,5.555,0,0,1-2.658,1.341c-.905.228-1.756.374-2.5.62a4.123,4.123,0,0,0-2.662,2.362,2.079,2.079,0,0,0-.081.986c.048.224.086.341.076.345" transform="translate(-271.333 -126.777)" fill="#fafafa"/>
        <path id="Path_22011" data-name="Path 22011" d="M500.97,327.018a1.205,1.205,0,0,1,.029.267,2.818,2.818,0,0,1-.078.768,4.37,4.37,0,0,1-1.609,2.3,7.163,7.163,0,0,1-1.687,1c-.65.278-1.369.5-2.119.733a17.487,17.487,0,0,0-2.3.84,6.649,6.649,0,0,0-2.095,1.528c-.621.65-1.157,1.361-1.751,1.988a8.015,8.015,0,0,1-1.962,1.535,8.618,8.618,0,0,1-4.047,1.052,8,8,0,0,1-2.785-.463,5.077,5.077,0,0,1-.707-.3,1.163,1.163,0,0,1-.234-.13,1.232,1.232,0,0,1,.253.089,6.76,6.76,0,0,0,.716.262,8.386,8.386,0,0,0,2.755.388,8.6,8.6,0,0,0,3.95-1.074,7.877,7.877,0,0,0,1.9-1.505c.582-.618,1.116-1.328,1.749-1.992a6.815,6.815,0,0,1,2.162-1.571,17.246,17.246,0,0,1,2.334-.839c.752-.229,1.468-.441,2.108-.707a7.121,7.121,0,0,0,1.661-.956,4.385,4.385,0,0,0,1.622-2.2,5.02,5.02,0,0,0,.132-1.013" transform="translate(-275.499 -187.842)" fill="#fafafa"/>
        <path id="Path_22012" data-name="Path 22012" d="M500.227,165.656l-3.546.084a5.794,5.794,0,0,1-.8,2.011,61.2,61.2,0,0,1-5.834-14.812c.083-.277.181-.583.3-.925a3.928,3.928,0,0,0-.047-1.558c-.1-.617-.272-1.447-.324-1.831-.158-1.171-.346-1.355-.755-1.222-.555.18.228,3.288-.227,3.355-.245.037-.544-1.029-.631-1.9s-.482-3.561-.771-3.741c-.424-.263-.792.153-.685,1.023s.245,3.507-.217,3.542-.837-4.421-.837-4.421.072-.969-.463-.946c-.964.042-.211,4.739-.129,5.185.058.309-.443.366-.487.03s-.278-4.456-1.26-4.423c-.753.025.584,3.871.161,4.762s-.717-3.028-1.437-2.974c-.268.02-.466.072.027,2.291a49.978,49.978,0,0,0,1.72,5.2c1.14,6.15,6.144,25.823,13.989,22.222,4.39-2.015,6.171-10.946,6.171-10.946Z" transform="translate(-276.846 -82.894)" fill="#b78876"/>
        <path id="Path_22013" data-name="Path 22013" d="M489.085,149.75a.241.241,0,0,0,.1-.014.228.228,0,0,0,.16-.246c-.01-.264-.052-.649-.113-1.147a16.339,16.339,0,0,1-.2-1.813c-.006-.357,0-.739.024-1.145a3.941,3.941,0,0,1,.062-.613c.033-.193.162-.413.311-.387l.016,0h.008c.151-.007.27.111.318.291a1.676,1.676,0,0,1,.056.57v.014a34.44,34.44,0,0,0,.455,3.553c.034.159.07.319.119.48a2.387,2.387,0,0,0,.089.244.755.755,0,0,0,.072.126.231.231,0,0,0,.178.112.318.318,0,0,0,.268-.223,1.281,1.281,0,0,0,.08-.261,4.009,4.009,0,0,0,.069-.52,15.519,15.519,0,0,0-.029-2.129,4.9,4.9,0,0,1-.044-1.066.589.589,0,0,1,.209-.4.23.23,0,0,1,.183-.023.417.417,0,0,1,.1.044.136.136,0,0,1,.047.063,5.327,5.327,0,0,1,.3,1.07c.075.377.14.761.2,1.148s.115.781.161,1.177a8.28,8.28,0,0,0,.2,1.211,4.136,4.136,0,0,0,.192.6,1.093,1.093,0,0,0,.176.3.252.252,0,0,0,.254.093.273.273,0,0,0,.174-.191,2.079,2.079,0,0,0,.045-.662c-.009-.211-.026-.42-.044-.629-.03-.358-.065-.713-.077-1.063a3.585,3.585,0,0,1,.013-.512.815.815,0,0,1,.052-.222.193.193,0,0,1,.041-.063c.007-.007.011,0,.017-.011l.055-.015c.282-.117.376.276.451.592s.107.671.173,1.007c.112.67.255,1.336.33,1.977a2.28,2.28,0,0,1-.037.916l-.3.913-.009.027.006.029a49.247,49.247,0,0,0,1.9,6.154c.674,1.816,1.347,3.385,1.942,4.669s1.125,2.274,1.492,2.95l.443.761a1.852,1.852,0,0,0,.164.256,1.762,1.762,0,0,0-.131-.275l-.41-.778c-.346-.685-.857-1.682-1.43-2.972s-1.231-2.861-1.889-4.677a50.5,50.5,0,0,1-1.862-6.133l0,.056.3-.9a2.474,2.474,0,0,0,.052-1.018c-.076-.666-.215-1.312-.326-1.985-.066-.333-.106-.675-.175-1.024a2,2,0,0,0-.173-.527.511.511,0,0,0-.235-.237.52.52,0,0,0-.335-.014l-.072.02a.391.391,0,0,0-.1.055.414.414,0,0,0-.108.152,1.024,1.024,0,0,0-.071.29,3.779,3.779,0,0,0-.014.549c.012.361.047.718.077,1.075.018.208.035.415.044.618a1.971,1.971,0,0,1-.031.572c-.011.045-.031.036-.007.058v0l0,.016v0a.041.041,0,0,1,0-.015s.012-.019.006-.02a.077.077,0,0,1-.025-.023.912.912,0,0,1-.13-.231,3.919,3.919,0,0,1-.18-.565,7.966,7.966,0,0,1-.192-1.18c-.048-.4-.1-.8-.165-1.186s-.128-.777-.206-1.159a5.275,5.275,0,0,0-.323-1.136.382.382,0,0,0-.134-.15.651.651,0,0,0-.158-.067.463.463,0,0,0-.36.05.8.8,0,0,0-.315.554,2.036,2.036,0,0,0-.007.583c.021.182.039.36.053.539a15.447,15.447,0,0,1,.039,2.1,3.8,3.8,0,0,1-.062.492,1.134,1.134,0,0,1-.065.22.3.3,0,0,1-.046.08c-.016.035-.029-.009-.028.049.022-.044,0-.02-.016-.056a.574.574,0,0,1-.051-.088,2.131,2.131,0,0,1-.08-.218c-.048-.151-.083-.308-.118-.462a35.355,35.355,0,0,1-.481-3.526v.013a1.822,1.822,0,0,0-.069-.632.646.646,0,0,0-.166-.283.44.44,0,0,0-.315-.115l.023,0a.368.368,0,0,0-.367.176.927.927,0,0,0-.131.331,4.06,4.06,0,0,0-.057.64c-.015.409-.018.795-.006,1.155a15.216,15.216,0,0,0,.235,1.822c.074.495.129.878.153,1.137a.2.2,0,0,1-.124.223c-.06.026-.095.03-.094.035" transform="translate(-280.832 -82.845)" fill="#a36957"/>
        <path id="Path_22014" data-name="Path 22014" d="M412.571,208.226a9.142,9.142,0,0,0-2.465.283c-2.2.578-5.992,2.878-6.149,5.718h2.756s-1.543,3.285-1.09,2.981a35.374,35.374,0,0,0,3.519-3.169Z" transform="translate(-232.036 -119.605)" fill="#b78876"/>
        <path id="Path_22015" data-name="Path 22015" d="M511.3,78.28c-.061.006-.311-2.273-.559-5.088s-.4-5.1-.337-5.109.311,2.273.558,5.089.4,5.1.338,5.108" transform="translate(-293.17 -39.107)" fill="#263238"/>
        <path id="Path_22016" data-name="Path 22016" d="M529.462,68.41c.05.035-1.812,2.738-4.158,6.035s-4.29,5.943-4.339,5.907,1.812-2.737,4.158-6.036,4.289-5.942,4.339-5.907" transform="translate(-299.245 -39.295)" fill="#263238"/>
        <path id="Path_22017" data-name="Path 22017" d="M539.575,97.18c.012.06-2.161.557-4.853,1.11s-4.885.953-4.9.893,2.16-.557,4.853-1.11,4.885-.953,4.9-.893" transform="translate(-304.335 -55.817)" fill="#263238"/>
      </g>
    </g>
    <g id="Group_160750" data-name="Group 160750">
      <g id="Group_160749" data-name="Group 160749" clip-path="url(#clip-path)">
        <path id="Path_22018" data-name="Path 22018" d="M189.654,227.494l-15.049,77.372-1.97,10.129,100.467-.5c4.509-.022,8.5-4.026,9.955-9.974l17.815-73.047c1.1-4.515-1.315-9.212-4.738-9.208l-101.684.107c-2.245,0-4.208,2.1-4.8,5.117" transform="translate(-99.163 -127.674)" fill="#1d416f"/>
        <g id="Group_160745" data-name="Group 160745" transform="translate(73.472 94.596)" opacity="0.5">
          <g id="Group_160744" data-name="Group 160744">
            <g id="Group_160743" data-name="Group 160743" clip-path="url(#clip-path-11)">
              <path id="Path_22019" data-name="Path 22019" d="M189.654,227.494l-15.049,77.372-1.97,10.129,100.467-.5c4.509-.022,8.5-4.026,9.955-9.974l17.815-73.047c1.1-4.515-1.315-9.212-4.738-9.208l-101.684.107c-2.245,0-4.208,2.1-4.8,5.117" transform="translate(-172.635 -222.27)" fill="#005295"/>
            </g>
          </g>
        </g>
        <path id="Path_22020" data-name="Path 22020" d="M213.84,280.073,203.2,194.355a6.746,6.746,0,0,0-6.537-6.121l-23.325.076a6.357,6.357,0,0,0-4.607,2.043l-11.076,11.774-64.871.338c-3.964.02-7.01,3.772-6.484,7.986l9.876,79.225a6.747,6.747,0,0,0,6.529,6.117l113.057-.223c12.592.261,13.794-3.458,13.794-3.458-14.431,3.2-15.716-12.03-15.717-12.04" transform="translate(-49.538 -108.123)" fill="#1d416f"/>
        <g id="Group_160748" data-name="Group 160748" transform="translate(82.372 127.468)" opacity="0.5">
          <g id="Group_160747" data-name="Group 160747">
            <g id="Group_160746" data-name="Group 160746" clip-path="url(#clip-path-12)">
              <path id="Path_22021" data-name="Path 22021" d="M226.727,328.06l-3.813,4.1-29.367-26.418,3.813-4.1Z" transform="translate(-193.547 -300.733)" fill="#fff"/>
              <path id="Path_22022" data-name="Path 22022" d="M222.931,299.508l4.214,3.791-26.572,28.539-4.214-3.791Z" transform="translate(-195.163 -299.508)" fill="#fff"/>
            </g>
          </g>
        </g>
      </g>
    </g>
    <g id="Group_160752" data-name="Group 160752">
      <g id="Group_160751" data-name="Group 160751" clip-path="url(#clip-path)">
        <path id="Path_22023" data-name="Path 22023" d="M419.267,88.114a.8.8,0,0,1-.481-.7l-.17-3.951a.794.794,0,0,1,.976-.807,2.467,2.467,0,0,0,1.922-.38,2.222,2.222,0,0,0,.993-1.455,2.273,2.273,0,0,0-.478-1.709,2.536,2.536,0,0,0-1.677-1.01,2.976,2.976,0,0,0-3.021,2.144.794.794,0,0,1-1.533-.417,4.576,4.576,0,0,1,4.736-3.306,4.1,4.1,0,0,1,2.762,1.63,3.864,3.864,0,0,1,.778,2.922,3.809,3.809,0,0,1-1.679,2.52,4.152,4.152,0,0,1-2.154.7l.132,3.046a.795.795,0,0,1-1.106.764" transform="translate(-238.821 -43.944)" fill="#1d416f"/>
        <path id="Path_22024" data-name="Path 22024" d="M424.97,106.76a.65.65,0,1,1-.693-.6.65.65,0,0,1,.693.6" transform="translate(-243.361 -60.976)" fill="#005294"/>
        <path id="Path_22025" data-name="Path 22025" d="M391.828,71.989a1.681,1.681,0,0,0,.038-.259c.02-.185.048-.437.083-.761a8.969,8.969,0,0,1,.206-1.223c.056-.238.085-.5.172-.772l.264-.859a14.636,14.636,0,0,1,2.117-4.055A14.271,14.271,0,0,1,407.9,58.505c.327.031.648.118.976.175a6.665,6.665,0,0,1,.979.236,13.539,13.539,0,0,1,3.806,1.725,14.239,14.239,0,0,1,5.626,7.064,13.888,13.888,0,0,1,.834,4.855,13.64,13.64,0,0,1-.89,5l-.192.486-.025.064.026.06,3.129,7.207.179-.2-6.374-2.449-.079-.03-.062.06a14.249,14.249,0,0,1-6.019,3.475,14.157,14.157,0,0,1-11.491-1.783,14.591,14.591,0,0,1-3.589-3.342,15.667,15.667,0,0,1-1.962-3.558,15.83,15.83,0,0,1-.761-2.969q-.075-.623-.134-1.107-.013-.478-.021-.813c-.007-.209-.012-.374-.017-.5a.9.9,0,0,0-.014-.169.944.944,0,0,0-.01.169c0,.125,0,.289-.006.5s0,.5,0,.818q.049.488.113,1.116a15.469,15.469,0,0,0,.727,3.006,15.668,15.668,0,0,0,1.951,3.618,14.691,14.691,0,0,0,3.614,3.413,14.332,14.332,0,0,0,11.665,1.862,14.48,14.48,0,0,0,6.14-3.524l-.14.03,6.37,2.459.321.124-.142-.327L419.3,78.042v.124l.2-.5a13.937,13.937,0,0,0,.909-5.109,14.183,14.183,0,0,0-.857-4.962,14.493,14.493,0,0,0-5.75-7.2,13.757,13.757,0,0,0-3.881-1.745,6.888,6.888,0,0,0-1-.237c-.334-.057-.661-.144-.993-.175a14.018,14.018,0,0,0-8.851,1.73,14.309,14.309,0,0,0-4.5,3.979,14.58,14.58,0,0,0-2.1,4.12q-.133.461-.253.871c-.083.271-.109.539-.161.78a8.487,8.487,0,0,0-.18,1.235c-.023.326-.041.58-.055.766a1.672,1.672,0,0,0-.009.261" transform="translate(-225.059 -33.391)" fill="#263238"/>
      </g>
    </g>
  </g>
</svg>
