<svg id="ic_-contact_us" data-name="ic -contact us" xmlns="http://www.w3.org/2000/svg" width="21.5" height="21.498" viewBox="0 0 21.5 21.498">
  <path id="Path_84692" data-name="Path 84692" d="M24.589,22.109,22.46,24.238a.69.69,0,0,1-.183.137c-3.008,1.619-8.779-1.406-11.432-4.2-.028-.03-.051-.053-.079-.081-2.794-2.652-5.82-8.424-4.2-11.432a.678.678,0,0,1,.137-.18L8.833,6.35a.734.734,0,0,1,.551-.228H9.4a.731.731,0,0,1,.561.251l2.746,2.965a.779.779,0,0,1-.02,1.086L10.914,12.2a2.142,2.142,0,0,0-.614,1.866A7.817,7.817,0,0,0,12.566,18.3c.028.028.051.053.079.079a7.811,7.811,0,0,0,4.231,2.267,2.139,2.139,0,0,0,1.868-.617l1.772-1.772A.784.784,0,0,1,21.6,18.23l2.965,2.746a.785.785,0,0,1,.02,1.132Zm.929-2.157-2.965-2.746a2.176,2.176,0,0,0-3.025.058l-1.774,1.774a.75.75,0,0,1-.67.221,6.481,6.481,0,0,1-3.477-1.9.286.286,0,0,1-.028-.028,6.486,6.486,0,0,1-1.9-3.475.757.757,0,0,1,.221-.673l1.774-1.772a2.177,2.177,0,0,0,.056-3.028L10.99,5.421h0a2.186,2.186,0,0,0-3.147-.058L5.713,7.492A2.117,2.117,0,0,0,5.335,8a5.9,5.9,0,0,0-.589,3.32,12.211,12.211,0,0,0,.921,3.6A18.617,18.617,0,0,0,9.8,21.109a.335.335,0,0,1,.03.028,18.611,18.611,0,0,0,6.185,4.137,12.39,12.39,0,0,0,3.6.921c.221.018.437.025.647.025a5.569,5.569,0,0,0,2.673-.614,2.131,2.131,0,0,0,.51-.378L25.579,23.1a2.18,2.18,0,0,0-.061-3.145Z" transform="translate(-4.719 -4.722)" fill-rule="evenodd"/>
</svg>
