<svg xmlns="http://www.w3.org/2000/svg" width="21.5" height="21.5" viewBox="0 0 21.5 21.5">
  <g id="ic-about_us" data-name="ic-about us" transform="translate(-1.25 -1.25)">
    <g id="Group_162565" data-name="Group 162565">
      <path id="Path_84693" data-name="Path 84693" d="M12,18.75a.76.76,0,0,1-.75-.75V11a.75.75,0,0,1,1.5,0v7A.76.76,0,0,1,12,18.75ZM13.25,7A1.25,1.25,0,1,0,12,8.25,1.25,1.25,0,0,0,13.25,7Zm9.5,5A10.75,10.75,0,1,0,12,22.75,10.75,10.75,0,0,0,22.75,12Zm-1.5,0A9.25,9.25,0,1,1,12,2.75,9.25,9.25,0,0,1,21.25,12Z"/>
    </g>
  </g>
</svg>
