<svg xmlns="http://www.w3.org/2000/svg" width="21.241" height="16.062" viewBox="0 0 21.241 16.062">
  <g id="ic-hide" transform="translate(-10.856 -21.399)">
    <path id="Path_84395" data-name="Path 84395" d="M11.1,27.943a14.572,14.572,0,0,1,1.341-1.987l1.389,1.39a12.619,12.619,0,0,0-1.024,1.546c.89,1.627,3.395,5.233,8.083,5.512l1.9,1.9a11.427,11.427,0,0,1-1.313.075c-6.191,0-9.371-4.7-10.382-6.55a1.944,1.944,0,0,1,.01-1.883Zm13.509,3.784a4.232,4.232,0,0,0-5.977-5.977l-1.367-1.366a8.889,8.889,0,0,1,4.207-1.031c5.065,0,7.74,3.835,8.666,5.529a11.677,11.677,0,0,1-4.079,4.3Zm2.87,2.871a13.887,13.887,0,0,0,4.365-4.767,1.942,1.942,0,0,0,.01-1.883c-1.011-1.849-4.19-6.55-10.382-6.55a10.788,10.788,0,0,0-5.643,1.549L14.57,21.685a.977.977,0,0,0-1.382,1.382L27.3,37.175a.977.977,0,1,0,1.382-1.382ZM20.02,27.134l3.209,3.209a2.279,2.279,0,0,0-3.209-3.209Z" fill="#959595" fill-rule="evenodd"/>
  </g>
</svg>
