<svg xmlns="http://www.w3.org/2000/svg" width="16" height="16" viewBox="0 0 16 16">
  <g id="ic-link" transform="translate(-2.5 -2.5)">
    <g id="Group_162568" data-name="Group 162568" transform="translate(2.5 2.5)">
      <path id="Path_84704" data-name="Path 84704" d="M15.672,20.994a.755.755,0,0,0-.748.749v6.313H3.979V17.1h6.306a.749.749,0,0,0,0-1.5H3.248a.755.755,0,0,0-.748.749V28.787a.755.755,0,0,0,.748.749H15.672a.755.755,0,0,0,.748-.749V21.726A.74.74,0,0,0,15.672,20.994Z" transform="translate(-2.5 -13.536)"/>
      <path id="Path_84705" data-name="Path 84705" d="M45.272,2.5H41.128a.693.693,0,1,0,0,1.387h2.49l-7.092,7.092a.694.694,0,0,0,0,.977.685.685,0,0,0,.977,0l7.092-7.092v2.49a.693.693,0,0,0,1.387,0V3.193A.724.724,0,0,0,45.272,2.5Z" transform="translate(-29.981 -2.5)"/>
    </g>
  </g>
</svg>
