<svg xmlns="http://www.w3.org/2000/svg" width="19.028" height="19.873" viewBox="0 0 19.028 19.873">
  <g id="ic-logout" transform="translate(-14 -12.357)">
    <g id="Group_162566" data-name="Group 162566" transform="translate(14 12.357)">
      <path id="Path_84702" data-name="Path 84702" d="M43.395,29.835a.771.771,0,1,0-1.09,1.09l3.411,3.413H35.392a.772.772,0,0,0,0,1.543H45.715L42.3,39.292a.771.771,0,0,0,.545,1.316.762.762,0,0,0,.545-.226l4.727-4.727a.77.77,0,0,0,0-1.09Z" transform="translate(-29.318 -25.172)" fill="#ce2829"/>
      <path id="Path_84703" data-name="Path 84703" d="M23.515,19.209a.77.77,0,0,0,.772-.772V16.683A2.842,2.842,0,0,0,22.2,13.947l-4.6-1.482-.041-.013A2.837,2.837,0,0,0,14,15.2V29.393a2.825,2.825,0,0,0,3.553,2.742c.013,0,.026-.008.041-.013l4.6-1.482A2.836,2.836,0,0,0,24.283,27.9V26.152a.772.772,0,1,0-1.543,0v1.754a1.293,1.293,0,0,1-.961,1.25c-.013,0-.026.008-.041.013l-4.6,1.479a1.274,1.274,0,0,1-1.1-.231,1.3,1.3,0,0,1-.5-1.027V15.2a1.293,1.293,0,0,1,1.6-1.255l4.6,1.479.041.013a1.293,1.293,0,0,1,.961,1.25v1.751a.77.77,0,0,0,.772.772Z" transform="translate(-14 -12.357)" fill="#ce2829"/>
    </g>
  </g>
</svg>
