<svg xmlns="http://www.w3.org/2000/svg" width="18" height="13.655" viewBox="0 0 18 13.655">
  <g id="ic-mail" transform="translate(-3 -10)">
    <path id="Path_30553" data-name="Path 30553" d="M21,11.862A1.862,1.862,0,0,0,19.138,10H4.862A1.862,1.862,0,0,0,3,11.862v9.931a1.862,1.862,0,0,0,1.862,1.862H19.138A1.862,1.862,0,0,0,21,21.793Zm-1.241,2.817-7,3.112a1.864,1.864,0,0,1-1.513,0l-7-3.112v7.114a.621.621,0,0,0,.621.621H19.138a.621.621,0,0,0,.621-.621Zm0-1.359V11.862a.621.621,0,0,0-.621-.621H4.862a.621.621,0,0,0-.621.621v1.459l7.507,3.336a.62.62,0,0,0,.5,0Z" fill="#959595" fill-rule="evenodd"/>
  </g>
</svg>
