<svg xmlns="http://www.w3.org/2000/svg" width="20.1" height="13.273" viewBox="0 0 20.1 13.273">
  <g id="ic-name" transform="translate(-2.5 -18.7)">
    <g id="Group_162490" data-name="Group 162490" transform="translate(2.5 18.7)">
      <path id="Path_84402" data-name="Path 84402" d="M20.106,18.7H4.973A2.476,2.476,0,0,0,2.5,21.173V29.5a2.476,2.476,0,0,0,2.473,2.473H20.127A2.476,2.476,0,0,0,22.6,29.5V21.152A2.49,2.49,0,0,0,20.106,18.7ZM21.8,29.479a1.673,1.673,0,0,1-1.67,1.67H4.973a1.673,1.673,0,0,1-1.67-1.67V21.152a1.673,1.673,0,0,1,1.67-1.67H20.127a1.673,1.673,0,0,1,1.67,1.67v8.327Z" transform="translate(-2.5 -18.7)" fill="#959595"/>
      <path id="Path_84403" data-name="Path 84403" d="M59.581,33.4H54a.4.4,0,0,0-.4.4.389.389,0,0,0,.4.4h5.58a.4.4,0,0,0,.4-.4A.389.389,0,0,0,59.581,33.4Z" transform="translate(-42.8 -30.293)" fill="#959595"/>
      <path id="Path_84404" data-name="Path 84404" d="M59.581,48.1H54a.4.4,0,0,0-.4.4.389.389,0,0,0,.4.4h5.58a.4.4,0,0,0,.4-.4A.389.389,0,0,0,59.581,48.1Z" transform="translate(-42.8 -41.886)" fill="#959595"/>
      <path id="Path_84405" data-name="Path 84405" d="M59.581,62.9H54a.4.4,0,1,0,0,.8h5.58a.4.4,0,0,0,.4-.4A.389.389,0,0,0,59.581,62.9Z" transform="translate(-42.8 -53.558)" fill="#959595"/>
      <path id="Path_84406" data-name="Path 84406" d="M19.891,34.987a1.983,1.983,0,1,0-3.276-1.5,1.953,1.953,0,0,0,.7,1.5A3.3,3.3,0,0,0,15.6,37.946c0,.317.148.888,1.057,1.268a5.335,5.335,0,0,0,1.944.338c1.5,0,3-.486,3-1.585A3.336,3.336,0,0,0,19.891,34.987Zm-2.473-1.5A1.184,1.184,0,1,1,18.6,34.67,1.182,1.182,0,0,1,17.418,33.487ZM18.6,38.75c-1.2,0-2.2-.359-2.2-.8a2.369,2.369,0,0,1,2.2-2.494,2.369,2.369,0,0,1,2.2,2.494C20.821,38.39,19.806,38.75,18.6,38.75Z" transform="translate(-12.831 -28.795)" fill="#959595"/>
    </g>
  </g>
</svg>
