<svg xmlns="http://www.w3.org/2000/svg" width="18.004" height="10.663" viewBox="0 0 18.004 10.663">
  <g id="ic-pass" transform="translate(-1 -20.977)">
    <path id="Path_84401" data-name="Path 84401" d="M11.346,29.292a.422.422,0,1,1,0,.844H2.929A1.933,1.933,0,0,1,1,28.207V22.9a1.933,1.933,0,0,1,1.929-1.928H16.9A1.933,1.933,0,0,1,18.833,22.9v1.306a.422.422,0,1,1-.844,0V22.9A1.089,1.089,0,0,0,16.9,21.821H2.929A1.089,1.089,0,0,0,1.844,22.9v5.3a1.09,1.09,0,0,0,1.085,1.085ZM6.428,24.159a.421.421,0,0,1,.422.729l-1.158.669,1.158.669a.421.421,0,0,1-.422.729l-1.156-.667v1.335a.422.422,0,1,1-.844,0V26.288l-1.155.667a.421.421,0,1,1-.422-.729l1.158-.669-1.158-.669a.421.421,0,0,1,.422-.729l1.155.667V23.49a.422.422,0,1,1,.844,0v1.335l1.156-.667Zm5.066,0a.421.421,0,0,1,.422.729l-1.158.669,1.158.669a.421.421,0,1,1-.422.729l-1.158-.668v1.336a.421.421,0,0,1-.841,0V26.287l-1.157.668a.421.421,0,1,1-.422-.729l1.158-.669-1.158-.669a.421.421,0,0,1,.422-.729l1.158.668V23.491a.42.42,0,1,1,.84,0v1.336Zm2.819,2.508v-.334a1.679,1.679,0,0,1,3.358,0v.334A1.4,1.4,0,0,1,19,28.061v2.182a1.4,1.4,0,0,1-1.4,1.4H14.376a1.4,1.4,0,0,1-1.4-1.4V28.061a1.4,1.4,0,0,1,1.333-1.394Zm2.514,0v-.332a.835.835,0,0,0-1.671,0v.332Zm.781.844H14.376a.556.556,0,0,0-.553.552v2.182a.555.555,0,0,0,.553.552h3.232a.555.555,0,0,0,.553-.552V28.061a.556.556,0,0,0-.553-.552Z" fill="#959595"/>
  </g>
</svg>
