<svg id="ic-profile" xmlns="http://www.w3.org/2000/svg" width="21" height="21" viewBox="0 0 21 21">
  <path id="Path_84706" data-name="Path 84706" d="M10.5,0A10.5,10.5,0,0,0,0,10.5,10.214,10.214,0,0,0,10.5,21,10.215,10.215,0,0,0,21,10.5,10.5,10.5,0,0,0,10.5,0ZM5.192,18.165a5.5,5.5,0,0,1,10.617,0A9.281,9.281,0,0,1,5.192,18.165ZM7.233,9.677A3.267,3.267,0,1,1,10.5,12.944,3.267,3.267,0,0,1,7.233,9.677Zm9.549,7.706A6.708,6.708,0,0,0,12.9,13.417a4.433,4.433,0,1,0-4.807,0,6.708,6.708,0,0,0-3.879,3.967,9.333,9.333,0,1,1,12.565,0Z" transform="translate(0)"/>
</svg>
