<svg xmlns="http://www.w3.org/2000/svg" width="19.5" height="21.116" viewBox="0 0 19.5 21.116">
  <g id="ic-privacy" transform="translate(-2.25 -1.539)">
    <g id="Layer_2" data-name="Layer 2">
      <path id="Path_84700" data-name="Path 84700" d="M9.389,21.661l1.9.844a1.754,1.754,0,0,0,1.422,0l1.9-.844A12.032,12.032,0,0,0,21.75,10.675V6.859a1.74,1.74,0,0,0-1.442-1.72A16.16,16.16,0,0,1,17.269,4.3a16.211,16.211,0,0,1-4.2-2.389h0a1.729,1.729,0,0,0-2.142,0A16.221,16.221,0,0,1,6.73,4.3a16.18,16.18,0,0,1-3.039.839A1.74,1.74,0,0,0,2.25,6.859v3.816A12.032,12.032,0,0,0,9.389,21.661ZM3.75,6.859a.24.24,0,0,1,.2-.242A17.7,17.7,0,0,0,7.269,5.7a17.685,17.685,0,0,0,4.586-2.61.229.229,0,0,1,.29,0A17.673,17.673,0,0,0,16.73,5.7a17.674,17.674,0,0,0,3.321.917.24.24,0,0,1,.2.242v3.816A10.531,10.531,0,0,1,14,20.29l-1.9.845a.248.248,0,0,1-.2,0L10,20.29A10.531,10.531,0,0,1,3.75,10.675Z"/>
      <path id="Path_84701" data-name="Path 84701" d="M11.031,14.585A.75.75,0,0,0,12,14.561l4.5-4a.75.75,0,1,0-1-1.121l-4.027,3.58-2.006-1.6a.75.75,0,1,0-.938,1.171Z"/>
    </g>
  </g>
</svg>
