<svg xmlns="http://www.w3.org/2000/svg" xmlns:xlink="http://www.w3.org/1999/xlink" width="14" height="14" viewBox="0 0 14 14">
  <defs>
    <linearGradient id="linear-gradient" x1="0.5" x2="0.5" y2="1" gradientUnits="objectBoundingBox">
      <stop offset="0" stop-color="#1d416f"/>
      <stop offset="1" stop-color="#0f2138"/>
    </linearGradient>
  </defs>
  <g id="ic-scan" transform="translate(-1.997 -1.997)">
    <rect id="Rectangle_140247" data-name="Rectangle 140247" width="13.297" height="2" rx="0.5" transform="translate(2.348 7.997)" fill="url(#linear-gradient)"/>
    <path id="Path_84588" data-name="Path 84588" d="M7.144,2.734c0-.348,0-.522-.108-.629S6.755,2,6.409,2a13.312,13.312,0,0,0-1.782.09A2.913,2.913,0,0,0,2.86,2.86a2.913,2.913,0,0,0-.774,1.766A13.312,13.312,0,0,0,2,6.409c0,.347,0,.52.108.627s.281.108.629.108.518,0,.626-.107.108-.281.11-.628a13.161,13.161,0,0,1,.073-1.586A1.481,1.481,0,0,1,3.9,3.9a1.481,1.481,0,0,1,.923-.356A13.163,13.163,0,0,1,6.409,3.47c.347,0,.521,0,.628-.11S7.144,3.08,7.144,2.734Z" transform="translate(0 0)" fill="url(#linear-gradient)"/>
    <path id="Path_84589" data-name="Path 84589" d="M15.731,3.47c-.347,0-.521,0-.628-.11S15,3.08,15,2.734s0-.522.107-.629S15.384,2,15.731,2a13.314,13.314,0,0,1,1.782.09,2.913,2.913,0,0,1,1.766.774,2.913,2.913,0,0,1,.774,1.766,13.316,13.316,0,0,1,.09,1.782c0,.347,0,.52-.108.627s-.281.108-.629.108-.518,0-.626-.107-.109-.281-.11-.628A13.148,13.148,0,0,0,18.6,4.822,1.481,1.481,0,0,0,18.24,3.9a1.481,1.481,0,0,0-.923-.356A13.163,13.163,0,0,0,15.731,3.47Z" transform="translate(-4.146 0)" fill="url(#linear-gradient)"/>
    <path id="Path_84590" data-name="Path 84590" d="M3.47,15.731c0-.347,0-.521-.11-.628S3.08,15,2.734,15s-.522,0-.629.107S2,15.384,2,15.731a13.314,13.314,0,0,0,.09,1.782,2.913,2.913,0,0,0,.774,1.766,2.913,2.913,0,0,0,1.766.774,13.316,13.316,0,0,0,1.782.09c.347,0,.52,0,.627-.108s.108-.281.108-.629,0-.518-.107-.626-.281-.109-.628-.11A13.147,13.147,0,0,1,4.822,18.6,1.481,1.481,0,0,1,3.9,18.24a1.481,1.481,0,0,1-.356-.923A13.162,13.162,0,0,1,3.47,15.731Z" transform="translate(0 -4.146)" fill="url(#linear-gradient)"/>
    <path id="Path_84591" data-name="Path 84591" d="M15.731,20.143c-.347,0-.52,0-.627-.108S15,19.753,15,19.405s0-.518.107-.626.281-.109.628-.11a13.148,13.148,0,0,0,1.586-.073A1.221,1.221,0,0,0,18.6,17.317a13.148,13.148,0,0,0,.073-1.586c0-.347,0-.521.11-.628s.28-.107.626-.107.522,0,.629.107.108.281.108.627a13.315,13.315,0,0,1-.09,1.782,2.649,2.649,0,0,1-2.54,2.54A13.316,13.316,0,0,1,15.731,20.143Z" transform="translate(-4.146 -4.146)" fill="url(#linear-gradient)"/>
  </g>
</svg>
