<svg xmlns="http://www.w3.org/2000/svg" width="20.436" height="20.436" viewBox="0 0 20.436 20.436">
  <g id="ic-terms_7_conditions" data-name="ic-terms 7 conditions" transform="translate(-1.25 -1.25)">
    <g id="Layer_2" data-name="Layer 2" transform="translate(1.25 1.25)">
      <path id="Path_84694" data-name="Path 84694" d="M17.413,19.577a.711.711,0,0,0,.5-.209l1.9-1.9a.713.713,0,1,0-1.008-1.008l-1.4,1.4-.446-.446a.713.713,0,1,0-1.008,1.008l.95.95A.711.711,0,0,0,17.413,19.577Z" transform="translate(-1.968 -1.993)" fill="#1d416f"/>
      <path id="Path_84695" data-name="Path 84695" d="M14.017,5.25H5.463a.713.713,0,0,0,0,1.426h8.554a.713.713,0,0,0,0-1.426Z" transform="translate(-1.423 -1.448)" fill="#1d416f"/>
      <path id="Path_84696" data-name="Path 84696" d="M14.73,9.963a.713.713,0,0,0-.713-.713H5.463a.713.713,0,0,0,0,1.426h8.554A.713.713,0,0,0,14.73,9.963Z" transform="translate(-1.423 -1.646)" fill="#1d416f"/>
      <path id="Path_84697" data-name="Path 84697" d="M12.354,13.963a.713.713,0,0,0-.713-.713H5.463a.713.713,0,0,0,0,1.426h6.178a.713.713,0,0,0,.713-.713Z" transform="translate(-1.423 -1.844)" fill="#1d416f"/>
      <path id="Path_84698" data-name="Path 84698" d="M5.463,17.25a.713.713,0,1,0,0,1.426h5.228a.713.713,0,1,0,0-1.426Z" transform="translate(-1.423 -2.042)" fill="#1d416f"/>
      <path id="Path_84699" data-name="Path 84699" d="M17.171,12.656a4.516,4.516,0,0,0-3.911,6.773.713.713,0,0,0,1.235-.714,3.089,3.089,0,1,1,2.676,1.545H2.913a.24.24,0,0,1-.238-.238V2.913a.24.24,0,0,1,.238-.238H16.22a.24.24,0,0,1,.238.238v8.554a.713.713,0,0,0,1.426,0V2.913A1.665,1.665,0,0,0,16.22,1.25H2.913A1.665,1.665,0,0,0,1.25,2.913V20.022a1.665,1.665,0,0,0,1.663,1.663H17.171a4.515,4.515,0,0,0,0-9.03Z" transform="translate(-1.25 -1.25)"/>
    </g>
  </g>
</svg>
