<svg xmlns="http://www.w3.org/2000/svg" width="21.2" height="16.5" viewBox="0 0 21.2 16.5">
  <g id="ic-unhide" transform="translate(-7.22 -12.795)">
    <g id="Layer_1" data-name="Layer 1" transform="translate(7.22 12.795)">
      <path id="Path_84399" data-name="Path 84399" d="M17.82,12.8c-4.97.065-7.855,3.137-10.6,8.288,2.934,5.336,5.621,8.087,10.6,8.208s7.576-2.913,10.6-8.208C25.514,15.769,22.79,12.731,17.82,12.8Zm0,14.308c-2.817,0-5.9-1.4-8.269-6.021C11.7,16.835,15,14.993,17.82,14.993c2.925,0,6.5,2.217,8.269,6.069-2.064,4.139-5.344,6.072-8.269,6.072Z" transform="translate(-7.22 -12.795)" fill="#959595"/>
      <path id="Path_84400" data-name="Path 84400" d="M23.547,18.34c-2.876,0-5.207,1.956-5.207,4.369s2.331,4.369,5.207,4.369h0c2.876,0,5.207-1.956,5.207-4.369s-2.331-4.369-5.207-4.369Zm0,6.476a2.336,2.336,0,0,1-2.511-2.107A2.336,2.336,0,0,1,23.547,20.6a2.336,2.336,0,0,1,2.511,2.107A2.336,2.336,0,0,1,23.547,24.816Z" transform="translate(-12.947 -14.416)" fill="#959595"/>
    </g>
  </g>
</svg>
