<svg xmlns="http://www.w3.org/2000/svg" width="15.125" height="15.126" viewBox="0 0 15.125 15.126">
  <g id="ic-zip" transform="translate(-3.125 -3.124)">
    <path id="Path_84418" data-name="Path 84418" d="M10.688,16.112l.415-.6c.4-.586,3.955-5.79,3.955-8.017a4.37,4.37,0,0,0-8.74,0c0,2.227,3.55,7.431,3.955,8.017Zm0-11.979a3.365,3.365,0,0,1,3.362,3.362c0,1.438-2.144,4.983-3.362,6.828C9.47,12.478,7.326,8.933,7.326,7.495a3.365,3.365,0,0,1,3.362-3.362ZM12.7,7.41a2.017,2.017,0,1,0-2.017,2.017A2.017,2.017,0,0,0,12.7,7.41Zm-3.025,0a1.008,1.008,0,1,1,1.008,1.008A1.008,1.008,0,0,1,9.679,7.41Zm8.571,8.067c0,1.82-3.807,2.773-7.563,2.773S3.125,17.3,3.125,15.477c0-1.286,1.9-2.138,4.331-2.526.207.338.4.65.585.933-2.42.328-3.907,1.064-3.907,1.593,0,.7,2.612,1.765,6.554,1.765s6.554-1.064,6.554-1.765c0-.529-1.487-1.266-3.907-1.593.182-.282.378-.595.585-.933C16.355,13.339,18.25,14.191,18.25,15.477Z" transform="translate(0 0)" fill="#959595"/>
  </g>
</svg>
