<svg xmlns="http://www.w3.org/2000/svg" width="46" height="46" viewBox="0 0 46 46">
  <g id="Facebook" transform="translate(-489 -4107)">
    <rect id="BG" width="46" height="46" rx="12" transform="translate(489 4107)" fill="#ebf5fa"/>
    <g id="c-facebook" transform="translate(479 4107.05)">
      <path id="Path_84708" data-name="Path 84708" d="M38.536,15.119H41.3A.7.7,0,0,0,42,14.407v-5.7A.7.7,0,0,0,41.3,8H37.152a7.734,7.734,0,0,0-7.614,7.831v3.616H24.692a.7.7,0,0,0-.692.712V25.8a.7.7,0,0,0,.692.712h4.364V37.187a.7.7,0,0,0,.692.712h5.779a.7.7,0,0,0,.692-.712V26.509h3.641a.7.7,0,0,0,.672-.534l1.444-5.7a.721.721,0,0,0-.122-.616.687.687,0,0,0-.546-.278H36.464V17.25a2.109,2.109,0,0,1,2.077-2.136Zm-2.769,5.7h4.641l-1.083,4.271h-3.8a.7.7,0,0,0-.692.712V36.475h-4.4V25.8a.7.7,0,0,0-.692-.712H25.382V20.871h4.845a.7.7,0,0,0,.692-.712V15.831a6.327,6.327,0,0,1,6.23-6.407H40.61V13.7H38.534a3.516,3.516,0,0,0-3.461,3.559V20.1a.7.7,0,0,0,.692.712Z" fill="#1d416f"/>
    </g>
  </g>
</svg>
