<svg xmlns="http://www.w3.org/2000/svg" width="27" height="28.164" viewBox="0 0 27 28.164">
  <g id="Ic-Home" transform="translate(0 4.838)" fill="none">
    <path d="M5.427-1.636s4.438-3.2,8.188-3.2,7.562,3.005,7.562,3.005S27,2.044,27,5.069V17.849a5.756,5.756,0,0,1-6,5.477H6a5.756,5.756,0,0,1-6-5.477V5.069C0,2.044,5.427-1.636,5.427-1.636Z" stroke="none"/>
    <path d="M 13.6143798828125 -1.838380813598633 C 12.58409023284912 -1.838380813598633 11.14068031311035 -1.399089813232422 9.550039291381836 -0.6014308929443359 C 8.218215942382812 0.06643295288085938 7.241382598876953 0.7546710968017578 7.180543899536133 0.7978324890136719 L 7.114269256591797 0.8442096710205078 C 7.103239059448242 0.8517398834228516 5.998189926147461 1.609298706054688 4.886690139770508 2.655619621276855 C 3.457036972045898 4.001420021057129 3.044170379638672 4.860189437866211 3 5.095699310302734 L 3 17.84858894348145 C 3 18.67091941833496 3.488620758056641 19.2397289276123 3.779880523681641 19.50558853149414 C 4.35906982421875 20.03427886962891 5.147520065307617 20.325439453125 6 20.325439453125 L 21 20.325439453125 C 21.85247993469238 20.325439453125 22.64093017578125 20.03427886962891 23.22011947631836 19.50558853149414 C 23.51137924194336 19.2397289276123 24 18.67091941833496 24 17.84858894348145 L 24 5.117114067077637 C 23.93428421020508 4.856897354125977 23.45238876342773 3.953140258789062 21.89754104614258 2.545578956604004 C 20.69924926757812 1.460788726806641 19.52230072021484 0.6697196960449219 19.51353073120117 0.663848876953125 L 19.41337013244629 0.5971584320068359 L 19.31888008117676 0.5226593017578125 C 18.54193115234375 -0.08986091613769531 15.8262300491333 -1.838380813598633 13.6143798828125 -1.838380813598633 M 13.6143798828125 -4.838380813598633 C 17.3643798828125 -4.838380813598633 21.17621040344238 -1.833250045776367 21.17621040344238 -1.833250045776367 C 21.17621040344238 -1.833250045776367 27 2.044488906860352 27 5.069269180297852 L 27 17.84858894348145 C 27 20.87336921691895 24.3137092590332 23.325439453125 21 23.325439453125 L 6 23.325439453125 C 2.686290740966797 23.325439453125 0 20.87336921691895 0 17.84858894348145 L 0 5.069269180297852 C 0 2.044488906860352 5.426759719848633 -1.636171340942383 5.426759719848633 -1.636171340942383 C 5.426759719848633 -1.636171340942383 9.8643798828125 -4.838380813598633 13.6143798828125 -4.838380813598633 Z" stroke="none" fill="#bfc1c3"/>
  </g>
</svg>
