<svg xmlns="http://www.w3.org/2000/svg" width="46" height="46" viewBox="0 0 46 46">
  <g id="Tiktok" transform="translate(-299 -4107)">
    <rect id="BG" width="46" height="46" rx="12" transform="translate(299 4107)" fill="#ebf5fa"/>
    <g id="ic-tiktok" transform="translate(299.143 4109.6)">
      <path id="Path_84709" data-name="Path 84709" d="M34.234,8.777a.54.54,0,0,0-.5-.056,2.99,2.99,0,0,1-3.69-.957,3.045,3.045,0,0,1-.615-1.8.513.513,0,0,0-.168-.394.506.506,0,0,0-.391-.169h-5.7a.53.53,0,0,0-.559.563V26.057A1.9,1.9,0,0,1,20.7,27.8a1.988,1.988,0,0,1-1.957-1.97,1.9,1.9,0,0,1,1.733-1.914.6.6,0,0,0,.5-.563V16.826a.53.53,0,0,0-.559-.563h-.112a9.571,9.571,0,1,0,9.84,10.413.34.34,0,0,0,.056-.225V15.588a9.819,9.819,0,0,0,3.858.169.547.547,0,0,0,.447-.563V9.227A.574.574,0,0,0,34.234,8.777ZM33.4,14.743a8.732,8.732,0,0,1-3.634-.394.785.785,0,0,0-.5.056.513.513,0,0,0-.224.45v11.37a.208.208,0,0,1-.056.169,8.365,8.365,0,0,1-16.716-.563,8.326,8.326,0,0,1,7.547-8.386V22.9a3.069,3.069,0,0,0,.839,6.023,3.072,3.072,0,0,0,3.019-2.589.34.34,0,0,0,.056-.225V6.526h4.64a4.475,4.475,0,0,0,.783,1.914A4.109,4.109,0,0,0,33.4,10.015Z" fill="#1d416f"/>
    </g>
  </g>
</svg>
