<svg xmlns="http://www.w3.org/2000/svg" width="22.783" height="20.03" viewBox="0 0 22.783 20.03">
  <g id="ic-website" transform="translate(-1.234 -7.133)">
    <path id="Path_84711" data-name="Path 84711" d="M16.905,24.124c.007.02.014.041.019.062l.1.329.7-1.292a.687.687,0,0,1,.147-.214.7.7,0,0,1,.991,0l2.464,2.464,1-1-2.464-2.464a.806.806,0,0,1-.118-.162.7.7,0,0,1,.279-.947l1.345-.731-1.663-.511c-.022-.005-.044-.013-.065-.02l-4.545-1.4.36,1.17.005.016v0l.247.8,0,.012.013.041,1.179,3.835Zm-1.057,1.317a9.79,9.79,0,1,1,4.964-8.518,9.976,9.976,0,0,1-.064,1.117l0,.02c-.016.147-.037.293-.061.438l2.683.825a.7.7,0,0,1,.107,1.293l-1.96,1.065,2.3,2.3a.7.7,0,0,1,0,.991l-1.988,1.988a.7.7,0,0,1-.991,0l-2.3-2.3-1.077,1.982a.7.7,0,0,1-1.281-.129l-.329-1.072Zm3.485-7.359.023-.181,0-.02a8.571,8.571,0,0,0,.053-.958A8.346,8.346,0,0,0,18.4,12.932a17.46,17.46,0,0,1-2.937,1.058,20.8,20.8,0,0,1,.2,2.933l0,.033,3.665,1.127Zm-5.068-1.559A19.412,19.412,0,0,0,14.1,14.29a17.542,17.542,0,0,1-3.072.271,17.539,17.539,0,0,1-3.072-.271,20.076,20.076,0,0,0,0,5.266Q8.476,19.463,9,19.4a17.6,17.6,0,0,1,5.034.143l-.663-2.153a.7.7,0,0,1,.463-.873.692.692,0,0,1,.411,0l.019.005Zm.645,5.864a10.386,10.386,0,0,1-.948,2.217c-.046.078-.093.154-.141.228a8.394,8.394,0,0,0,1.6-.767Zm-8.328-8.4a17.506,17.506,0,0,1-2.937-1.058,8.4,8.4,0,0,0,0,7.981,17.46,17.46,0,0,1,2.937-1.058,21.191,21.191,0,0,1,0-5.866Zm7.269,6.943a16.231,16.231,0,0,0-4.69-.141q-.483.056-.963.141a12.006,12.006,0,0,0,.677,2.14c.6,1.383,1.364,2.238,2.149,2.238.6,0,1.207-.527,1.733-1.417a10.381,10.381,0,0,0,1.094-2.961Zm-7.018.3a15.935,15.935,0,0,0-2.414.859,8.4,8.4,0,0,0,3.811,2.739,8.379,8.379,0,0,1-.638-1.208,13.431,13.431,0,0,1-.759-2.39Zm0-8.626a13.425,13.425,0,0,1,.759-2.39,8.379,8.379,0,0,1,.638-1.208A8.425,8.425,0,0,0,4.42,11.751a16.108,16.108,0,0,0,2.414.859Zm6.983-3.6a8.484,8.484,0,0,1,.639,1.209,13.431,13.431,0,0,1,.759,2.39,15.971,15.971,0,0,0,2.414-.859,8.423,8.423,0,0,0-3.813-2.739Zm.035,3.9a12.006,12.006,0,0,0-.677-2.14c-.6-1.383-1.364-2.238-2.149-2.238s-1.55.855-2.149,2.238a11.931,11.931,0,0,0-.677,2.14,16.238,16.238,0,0,0,2.827.248,16.14,16.14,0,0,0,2.826-.248Z" fill="#1d416f"/>
  </g>
</svg>
