<svg xmlns="http://www.w3.org/2000/svg" xmlns:xlink="http://www.w3.org/1999/xlink" width="367" height="121.367" viewBox="0 0 367 121.367">
  <defs>
    <linearGradient id="linear-gradient" x1="0.011" y1="0.142" x2="0.959" y2="0.912" gradientUnits="objectBoundingBox">
      <stop offset="0" stop-color="#1d416f"/>
      <stop offset="1" stop-color="#0f2138"/>
    </linearGradient>
    <clipPath id="clip-path">
      <rect id="Rectangle_140115" data-name="Rectangle 140115" width="41.479" height="29.47" fill="none"/>
    </clipPath>
    <clipPath id="clip-path-3">
      <rect id="Rectangle_140091" data-name="Rectangle 140091" width="21.15" height="6.086" fill="none"/>
    </clipPath>
    <clipPath id="clip-path-4">
      <rect id="Rectangle_140092" data-name="Rectangle 140092" width="8.251" height="3.335" fill="none"/>
    </clipPath>
    <clipPath id="clip-path-5">
      <rect id="Rectangle_140093" data-name="Rectangle 140093" width="5.318" height="1.377" fill="none"/>
    </clipPath>
    <clipPath id="clip-path-6">
      <rect id="Rectangle_140094" data-name="Rectangle 140094" width="4.762" height="3.901" fill="none"/>
    </clipPath>
    <clipPath id="clip-path-7">
      <rect id="Rectangle_140095" data-name="Rectangle 140095" width="2.798" height="4.064" fill="none"/>
    </clipPath>
    <clipPath id="clip-path-8">
      <rect id="Rectangle_140096" data-name="Rectangle 140096" width="19.4" height="18.865" fill="none"/>
    </clipPath>
    <clipPath id="clip-path-9">
      <rect id="Rectangle_140097" data-name="Rectangle 140097" width="12.242" height="6.371" fill="none"/>
    </clipPath>
    <clipPath id="clip-path-10">
      <rect id="Rectangle_140098" data-name="Rectangle 140098" width="6.095" height="3.389" fill="none"/>
    </clipPath>
    <clipPath id="clip-path-11">
      <rect id="Rectangle_140099" data-name="Rectangle 140099" width="10.188" height="8.724" fill="none"/>
    </clipPath>
    <clipPath id="clip-path-12">
      <rect id="Rectangle_140100" data-name="Rectangle 140100" width="18.747" height="15.14" fill="none"/>
    </clipPath>
    <clipPath id="clip-path-13">
      <rect id="Rectangle_140101" data-name="Rectangle 140101" width="24.387" height="11.439" fill="none"/>
    </clipPath>
    <clipPath id="clip-path-14">
      <rect id="Rectangle_140102" data-name="Rectangle 140102" width="1.408" height="2.786" fill="none"/>
    </clipPath>
    <clipPath id="clip-path-15">
      <rect id="Rectangle_140103" data-name="Rectangle 140103" width="4.344" height="4.221" fill="none"/>
    </clipPath>
    <clipPath id="clip-path-17">
      <rect id="Rectangle_140105" data-name="Rectangle 140105" width="25.284" height="23.676" fill="none"/>
    </clipPath>
    <clipPath id="clip-path-18">
      <rect id="Rectangle_140106" data-name="Rectangle 140106" width="19.741" height="14.851" fill="none"/>
    </clipPath>
    <clipPath id="clip-path-19">
      <rect id="Rectangle_140107" data-name="Rectangle 140107" width="19.644" height="16.11" fill="none"/>
    </clipPath>
    <clipPath id="clip-path-20">
      <rect id="Rectangle_140108" data-name="Rectangle 140108" width="6.698" height="7.473" fill="none"/>
    </clipPath>
    <clipPath id="clip-path-21">
      <rect id="Rectangle_140109" data-name="Rectangle 140109" width="4.466" height="6.154" fill="none"/>
    </clipPath>
    <clipPath id="clip-path-22">
      <rect id="Rectangle_140110" data-name="Rectangle 140110" width="12.175" height="10.321" fill="none"/>
    </clipPath>
    <clipPath id="clip-path-23">
      <rect id="Rectangle_140111" data-name="Rectangle 140111" width="11.094" height="2.677" fill="none"/>
    </clipPath>
    <clipPath id="clip-path-24">
      <rect id="Rectangle_140112" data-name="Rectangle 140112" width="7.87" height="5.519" fill="none"/>
    </clipPath>
    <clipPath id="clip-path-25">
      <rect id="Rectangle_140113" data-name="Rectangle 140113" width="3.142" height="2.017" fill="none"/>
    </clipPath>
    <filter id="Path_84578" x="9.16" y="0" width="114.679" height="115.681" filterUnits="userSpaceOnUse">
      <feOffset dy="10" input="SourceAlpha"/>
      <feGaussianBlur stdDeviation="3" result="blur"/>
      <feFlood flood-opacity="0.161"/>
      <feComposite operator="in" in2="blur"/>
      <feComposite in="SourceGraphic"/>
    </filter>
  </defs>
  <g id="Illustration_with_card" data-name="Illustration with card" transform="translate(-24 -367.633)">
    <rect id="BG" width="367" height="101" rx="12" transform="translate(24 388)" fill="url(#linear-gradient)"/>
    <g id="Scan_illustration" data-name="Scan illustration" transform="translate(-49.788 205.738)">
      <g id="Group_162502" data-name="Group 162502" transform="translate(118.267 167.75)">
        <circle id="Ellipse_1829" data-name="Ellipse 1829" cx="32.178" cy="32.178" r="32.178" transform="translate(0 0)" fill="#eaeaea"/>
        <g id="Sedan" transform="translate(12.508 16.744)">
          <g id="Group_162327" data-name="Group 162327" transform="translate(0 0)" clip-path="url(#clip-path)">
            <g id="Group_162326" data-name="Group 162326">
              <g id="Group_162325" data-name="Group 162325" clip-path="url(#clip-path)">
                <path id="Path_28906" data-name="Path 28906" d="M59.677,6.086c-1-.58-5.13-3.6-6.393-4.466-.412-.238-.749-.431-.993-.568A6.472,6.472,0,0,0,46.631.359,1.8,1.8,0,0,0,45.48,1.528L38.527,6.086Z" transform="translate(-34.402 0)" fill="#1d416f"/>
                <g id="Group_162258" data-name="Group 162258" transform="translate(4.125)" opacity="0.4">
                  <g id="Group_162257" data-name="Group 162257">
                    <g id="Group_162256" data-name="Group 162256" clip-path="url(#clip-path-3)">
                      <path id="Path_28907" data-name="Path 28907" d="M59.677,6.086c-1-.58-5.13-3.6-6.393-4.466-.412-.238-.749-.431-.993-.568A6.472,6.472,0,0,0,46.631.359,1.8,1.8,0,0,0,45.48,1.528L38.527,6.086Z" transform="translate(-38.527 0)" fill="#fff"/>
                    </g>
                  </g>
                </g>
                <g id="Group_162261" data-name="Group 162261" transform="translate(11.699 1.026)" opacity="0.2">
                  <g id="Group_162260" data-name="Group 162260">
                    <g id="Group_162259" data-name="Group 162259" clip-path="url(#clip-path-4)">
                      <path id="Path_28908" data-name="Path 28908" d="M117.522,11.325S109.889,9.06,109.288,9.7c-.41.437,6.8,3.221,6.8,3.221Z" transform="translate(-109.272 -9.586)" fill="#1d416f"/>
                    </g>
                  </g>
                </g>
                <g id="Group_162264" data-name="Group 162264" transform="translate(12.324 0.254)" opacity="0.2">
                  <g id="Group_162263" data-name="Group 162263">
                    <g id="Group_162262" data-name="Group 162262" clip-path="url(#clip-path-5)">
                      <path id="Path_28909" data-name="Path 28909" d="M120.432,3.61a.134.134,0,0,1-.022.055.187.187,0,0,1-.116.061,1.665,1.665,0,0,1-.67-.043c-.464-.1-.925-.21-1.39-.3-.553-.108-1.14-.249-1.7-.322-1.077-.141-2.114-.173-.8-.537a5.164,5.164,0,0,1,1.7-.14,6.949,6.949,0,0,1,1.531.272,4.619,4.619,0,0,1,1.2.564c.135.088.28.211.267.372,0,.006,0,.012,0,.019" transform="translate(-115.118 -2.369)" fill="#fff"/>
                    </g>
                  </g>
                </g>
                <path id="Path_28910" data-name="Path 28910" d="M5.287,90.455l4.344-2.508L7.218,86.554,4.869,88.037Z" transform="translate(-4.348 -77.287)" fill="#1d416f"/>
                <g id="Group_162267" data-name="Group 162267" transform="translate(0.521 9.266)" opacity="0.45">
                  <g id="Group_162266" data-name="Group 162266">
                    <g id="Group_162265" data-name="Group 162265" clip-path="url(#clip-path-6)">
                      <path id="Path_28911" data-name="Path 28911" d="M5.287,90.455l4.344-2.508L7.218,86.554,4.869,88.037Z" transform="translate(-4.869 -86.554)"/>
                    </g>
                  </g>
                </g>
                <path id="Path_28912" data-name="Path 28912" d="M20.664,98.434l-.624-1.24,1.485-.86h0a1.765,1.765,0,0,1,1.792.158,6.152,6.152,0,0,1,2.656,4.879,2.159,2.159,0,0,1-.848,1.96h0l-.021.012,0,0-1.523.879-.658-1.308a6.337,6.337,0,0,1-2.257-4.484" transform="translate(-17.895 -85.862)" fill="#37474f"/>
                <path id="Path_28913" data-name="Path 28913" d="M20.664,98.434l-.624-1.24,1.485-.86h0a1.765,1.765,0,0,1,1.792.158,6.152,6.152,0,0,1,2.656,4.879,2.159,2.159,0,0,1-.848,1.96h0l-.021.012,0,0-1.523.879-.658-1.308a6.337,6.337,0,0,1-2.257-4.484" transform="translate(-17.895 -85.862)" fill="#263238"/>
                <path id="Path_28914" data-name="Path 28914" d="M11.409,106.638a6.366,6.366,0,0,0,2.069,4.457s0,0,0,0a3.924,3.924,0,0,0,.583.417c1.467.848,2.657.036,2.656-1.812a6.414,6.414,0,0,0-1.643-4.044.056.056,0,0,1-.008-.008,4.286,4.286,0,0,0-1-.828c-1.467-.847-2.656-.036-2.656,1.812" transform="translate(-10.188 -93.304)" fill="#37474f"/>
                <path id="Path_28915" data-name="Path 28915" d="M11.409,106.638a6.366,6.366,0,0,0,2.069,4.457,7.532,7.532,0,0,1-1.685-3.26c-.225-1.065-.14-2.594.774-2.981s2.121.428,2.5.8a4.286,4.286,0,0,0-1-.828c-1.467-.847-2.656-.036-2.656,1.812" transform="translate(-10.188 -93.304)" fill="#455a64"/>
                <path id="Path_28916" data-name="Path 28916" d="M22.12,116.134c-.934-.539-1.69.033-1.69,1.278a4.048,4.048,0,0,0,1.69,3.23c.933.539,1.69-.033,1.69-1.278a4.049,4.049,0,0,0-1.69-3.23m0,4.118a3.349,3.349,0,0,1-1.4-2.672c0-1.03.626-1.5,1.4-1.057a3.349,3.349,0,0,1,1.4,2.672c0,1.03-.626,1.5-1.4,1.057" transform="translate(-18.243 -103.52)" fill="#f5f5f5"/>
                <path id="Path_28917" data-name="Path 28917" d="M25.95,122.738a1.536,1.536,0,0,1-.247.914.815.815,0,0,1-1.151.143,3.346,3.346,0,0,1-1.4-2.671c0-.72.306-1.168.754-1.22a1.056,1.056,0,0,1,.646.161,3.352,3.352,0,0,1,1.4,2.673" transform="translate(-20.673 -107.062)" fill="#e0e0e0"/>
                <g id="Group_162270" data-name="Group 162270" transform="translate(2.479 12.836)" opacity="0.4">
                  <g id="Group_162269" data-name="Group 162269">
                    <g id="Group_162268" data-name="Group 162268" clip-path="url(#clip-path-7)">
                      <path id="Path_28918" data-name="Path 28918" d="M25.95,122.738a1.536,1.536,0,0,1-.247.914.815.815,0,0,1-1.151.143,3.346,3.346,0,0,1-1.4-2.671c0-.72.306-1.168.754-1.22a1.056,1.056,0,0,1,.646.161,3.352,3.352,0,0,1,1.4,2.673" transform="translate(-23.152 -119.899)"/>
                    </g>
                  </g>
                </g>
                <path id="Path_28919" data-name="Path 28919" d="M30.166,122.738a1.536,1.536,0,0,1-.247.914,1.05,1.05,0,0,1-.647-.162,3.346,3.346,0,0,1-1.4-2.671,1.526,1.526,0,0,1,.248-.915,1.056,1.056,0,0,1,.646.161,3.352,3.352,0,0,1,1.4,2.673" transform="translate(-24.89 -107.062)" fill="#263238"/>
                <path id="Path_28920" data-name="Path 28920" d="M27.337,124.283l-.252.733-.6-1.316a1.13,1.13,0,0,1,.127-.447Z" transform="translate(-23.649 -110.058)" fill="#e0e0e0"/>
                <path id="Path_28921" data-name="Path 28921" d="M30.049,138.271l.452.638-.447.513a.872.872,0,0,1-.253-.346Z" transform="translate(-26.61 -123.468)" fill="#e0e0e0"/>
                <path id="Path_28922" data-name="Path 28922" d="M35.562,142.348l-.127.054-.032-.146-.5.138,1.021,1.454a.761.761,0,0,0,.272-.231c.016-.021.031-.045.045-.068Z" transform="translate(-31.168 -127.025)" fill="#e0e0e0"/>
                <path id="Path_28923" data-name="Path 28923" d="M39.412,135.9l-.829.186-.077-.125-.082.032-.136-.638.1.058-.007-.165.838-.005a3.562,3.562,0,0,1,.192.658" transform="translate(-34.189 -120.762)" fill="#e0e0e0"/>
                <path id="Path_28924" data-name="Path 28924" d="M33.847,123.776l-.126-.04.032.148-.544-.315.478-1.173a2.412,2.412,0,0,1,.405.379Z" transform="translate(-29.654 -109.292)" fill="#e0e0e0"/>
                <path id="Path_28925" data-name="Path 28925" d="M32.335,132.77c0,.39-.237.569-.529.4a1.267,1.267,0,0,1-.529-1.011c0-.39.237-.569.529-.4a1.267,1.267,0,0,1,.529,1.011" transform="translate(-27.928 -117.596)" fill="#f5f5f5"/>
                <path id="Path_28926" data-name="Path 28926" d="M.5,48.291c.538-1.271,2.782-2.592,3.74-2.112.3.149,1.146.662,2.214,1.278,0,0,3.513,2.125,3.838,2.313a11.837,11.837,0,0,0-2.06.11.4.4,0,0,0-.28.538l.192.623c.508,1.6,3.659,3.248,4.371,3.667S19.4,58.689,19.4,58.689v6.255l-12.021-6.9a4.921,4.921,0,0,0-.027-.513,7.645,7.645,0,0,0-3.282-5.309c-1.733-1-3.137-.066-3.137,2.089l-.28-.162c-1-.6-.685-4.591-.148-5.861" transform="translate(0 -41.145)" fill="#1d416f"/>
                <g id="Group_162273" data-name="Group 162273" transform="translate(0 4.933)" opacity="0.4">
                  <g id="Group_162272" data-name="Group 162272">
                    <g id="Group_162271" data-name="Group 162271" clip-path="url(#clip-path-8)">
                      <path id="Path_28927" data-name="Path 28927" d="M.5,48.291c.538-1.271,2.782-2.592,3.74-2.112.3.149,1.146.662,2.214,1.278,0,0,3.513,2.125,3.838,2.313a11.837,11.837,0,0,0-2.06.11.4.4,0,0,0-.28.538l.192.623c.508,1.6,3.659,3.248,4.371,3.667S19.4,58.689,19.4,58.689v6.255l-12.021-6.9a4.921,4.921,0,0,0-.027-.513,7.645,7.645,0,0,0-3.282-5.309c-1.733-1-3.137-.066-3.137,2.089l-.28-.162c-1-.6-.685-4.591-.148-5.861" transform="translate(0 -46.078)" fill="#fff"/>
                    </g>
                  </g>
                </g>
                <path id="Path_28928" data-name="Path 28928" d="M31.041,11.37a1.408,1.408,0,0,1,.925.048c.3.149,1.147.663,2.215,1.278l1.438.828L43.283,9.11s-2.973-1.517-4.028-1.925-7.916,3.395-8.214,4.186" transform="translate(-27.718 -6.388)" fill="#1d416f"/>
                <g id="Group_162276" data-name="Group 162276" transform="translate(3.323 0.766)" opacity="0.5">
                  <g id="Group_162275" data-name="Group 162275">
                    <g id="Group_162274" data-name="Group 162274" clip-path="url(#clip-path-9)">
                      <path id="Path_28929" data-name="Path 28929" d="M31.041,11.37a1.408,1.408,0,0,1,.925.048c.3.149,1.147.663,2.215,1.278l1.438.828L43.283,9.11s-2.973-1.517-4.028-1.925-7.916,3.395-8.214,4.186" transform="translate(-31.041 -7.154)" fill="#fff"/>
                    </g>
                  </g>
                </g>
                <g id="Group_162279" data-name="Group 162279" transform="translate(12.413 14.093)" opacity="0.2">
                  <g id="Group_162278" data-name="Group 162278">
                    <g id="Group_162277" data-name="Group 162277" clip-path="url(#clip-path-10)">
                      <path id="Path_28930" data-name="Path 28930" d="M122.036,135.025l-5.917-3.389a.452.452,0,0,0-.178.393Z" transform="translate(-115.941 -131.636)" fill="#fff"/>
                    </g>
                  </g>
                </g>
                <path id="Path_28931" data-name="Path 28931" d="M118.04,137.123a.036.036,0,0,0,.054-.031v-.169c0-.128-.191-.342-.427-.478l-.348-.2c-.236-.136-.427-.143-.427-.015v.138a.162.162,0,0,0,.081.14Z" transform="translate(-104.377 -121.562)" fill="#1d416f"/>
                <g id="Group_162282" data-name="Group 162282" transform="translate(1.603 5.396)" opacity="0.2">
                  <g id="Group_162281" data-name="Group 162281">
                    <g id="Group_162280" data-name="Group 162280" clip-path="url(#clip-path-11)">
                      <path id="Path_28932" data-name="Path 28932" d="M22.35,56.97c.327.192,2.568,1.514,2.809,1.666a1.168,1.168,0,0,0-.3.491s-6.678-3.718-8.177-5.046q-.106-.094-.21-.19c-.577-.531-1.433-1.289-1.5-2.135-.061-.813,1.041-1.243,1.688-1.339a1.7,1.7,0,0,1,.992.193,2.533,2.533,0,0,1,.816.533.37.37,0,0,1,.077.366.547.547,0,0,1-.2.21l-.413.3a.882.882,0,0,0-.274.271.721.721,0,0,0-.018.531,2.448,2.448,0,0,0,.373.824c.211.3.507.595.748.871a13.83,13.83,0,0,0,3.588,2.45" transform="translate(-14.971 -50.404)" fill="#fff"/>
                    </g>
                  </g>
                </g>
                <path id="Path_28933" data-name="Path 28933" d="M75.582,113.287a.036.036,0,0,0,.054-.031v-.169c0-.128-.191-.342-.427-.478l-.348-.2c-.236-.136-.428-.143-.428-.015v.138a.162.162,0,0,0,.081.14Z" transform="translate(-66.464 -100.278)" fill="#1d416f"/>
                <g id="Group_162285" data-name="Group 162285" transform="translate(0.284 7.858)" opacity="0.5">
                  <g id="Group_162284" data-name="Group 162284">
                    <g id="Group_162283" data-name="Group 162283" clip-path="url(#clip-path-12)">
                      <path id="Path_28934" data-name="Path 28934" d="M21.3,83.32s.026,1.815-.077,2.907c-.122,1.291-.169,2.055-.429,1.916l-.422-.218-5.9-3.048s5.78,3.311,6.182,3.543.543.216.647-1.048a19.284,19.284,0,0,0,0-4.053m-6.9-4.071a1.72,1.72,0,0,0-.319,1.338c.116.856.307,3.584.307,3.584s.011-2.451.011-3.482a2,2,0,0,1,.338-1.253ZM8.222,76.6a3.44,3.44,0,0,0-.363,1.012,5.673,5.673,0,0,1,.573-.86,4.14,4.14,0,0,1,1.126-.564s-1.124.137-1.336.413M3.016,75.225A7.033,7.033,0,0,1,2.673,73.4a5.43,5.43,0,0,0,.183,2,5.3,5.3,0,0,0,1.521.894,5.231,5.231,0,0,1-1.362-1.063" transform="translate(-2.657 -73.396)" fill="#1d416f"/>
                    </g>
                  </g>
                </g>
                <path id="Path_28935" data-name="Path 28935" d="M66.965,10.822c-.718-.831-6.509-3.837-8.508-3.857a18.22,18.22,0,0,0-4,.455,6.273,6.273,0,0,0-1.195.474c-.239.142-.449.258-.691.4L49.934,9.813l-3.16,1.824a22.133,22.133,0,0,0-3.235,2,.382.382,0,0,0,.108.4c.145.194.4.469.73.86.636.752.83.483,1.015.5.6-.169,1.273-.342,2.012-.518l3.029-.093a3.262,3.262,0,0,1,1.3.359A35.869,35.869,0,0,1,55.4,17.279a4.089,4.089,0,0,1,.87,1.125s-.431-.837.262-1.151,3.478-1.368,5.5-2.433c1.694-.894,4.2-3.157,4.552-3.285.434-.158,1.321.526,1.321.526a11.392,11.392,0,0,0-.939-1.239" transform="translate(-38.858 -6.219)" fill="#1d416f"/>
                <g id="Group_162288" data-name="Group 162288" transform="translate(4.659 0.746)" opacity="0.7">
                  <g id="Group_162287" data-name="Group 162287">
                    <g id="Group_162286" data-name="Group 162286" clip-path="url(#clip-path-13)">
                      <path id="Path_28936" data-name="Path 28936" d="M66.965,10.822c-.718-.831-6.509-3.837-8.508-3.857a18.22,18.22,0,0,0-4,.455,6.273,6.273,0,0,0-1.195.474c-.239.142-.449.258-.691.4L49.934,9.813l-3.16,1.824a22.133,22.133,0,0,0-3.235,2,.382.382,0,0,0,.108.4c.145.194.4.469.73.86.636.752.83.483,1.015.5.6-.169,1.273-.342,2.012-.518l3.029-.093a3.262,3.262,0,0,1,1.3.359A35.869,35.869,0,0,1,55.4,17.279a4.089,4.089,0,0,1,.87,1.125s-.431-.837.262-1.151,3.478-1.368,5.5-2.433c1.694-.894,4.2-3.157,4.552-3.285.434-.158,1.321.526,1.321.526a11.392,11.392,0,0,0-.939-1.239" transform="translate(-43.517 -6.964)" fill="#fff"/>
                    </g>
                  </g>
                </g>
                <path id="Path_28937" data-name="Path 28937" d="M46.394,16.772a6.251,6.251,0,0,0,2.468-.646c.825-.414,1.845-1.061,2.213-1.274l5.573-3.217c2.3-1.326,2.506-1.542,1.811-1.5-.659.044-1.508.142-1.964.214a10.406,10.406,0,0,0-1.343.326,8.99,8.99,0,0,0-1.35.662c-1.827,1.055-3.021,1.757-5.72,3.314-1.245.719-2.263,1.295-3.029,1.748-.739.438.473.47,1.34.369" transform="translate(-40.026 -9.048)" fill="#37474f"/>
                <path id="Path_28938" data-name="Path 28938" d="M293.735,66.331h0l.1.406c.225.421.721.952.9.908.159-.039.257-.271.306-.557v0a2.885,2.885,0,0,0,.042-.415c.015-.45-.185-1.5-.81-1.78a.323.323,0,0,0-.371.083.737.737,0,0,0-.181.3,2.922,2.922,0,0,0,.017,1.06" transform="translate(-262.232 -57.917)" fill="#1d416f"/>
                <g id="Group_162291" data-name="Group 162291" transform="translate(31.441 6.944)" opacity="0.3">
                  <g id="Group_162290" data-name="Group 162290">
                    <g id="Group_162289" data-name="Group 162289" clip-path="url(#clip-path-14)">
                      <path id="Path_28939" data-name="Path 28939" d="M293.735,66.331h0c.033.168.1.406.1.406.225.421.721.952.9.908.159-.039.257-.271.306-.557v0a2.885,2.885,0,0,0,.042-.415c.015-.45-.185-1.5-.81-1.78a.323.323,0,0,0-.371.083.737.737,0,0,0-.181.3,2.922,2.922,0,0,0,.017,1.06" transform="translate(-293.673 -64.861)" fill="#fff"/>
                    </g>
                  </g>
                </g>
                <path id="Path_28940" data-name="Path 28940" d="M295.162,66.737c.225.421.721.952.9.908.159-.039.257-.271.307-.557v0a2.892,2.892,0,0,0,.042-.415c.016-.45-.185-1.5-.81-1.78a.323.323,0,0,0-.371.083l.086.194c.437.187.555.861.514,1.375s-.416.461-.667.2" transform="translate(-263.562 -57.917)" fill="#1d416f"/>
                <path id="Path_28941" data-name="Path 28941" d="M294.106,65.267c.158-.168.55-.176.88.278a3.107,3.107,0,0,1,.439,1.534,2.914,2.914,0,0,0,.042-.415c.015-.45-.185-1.5-.81-1.78-.261-.116-.477.151-.552.382" transform="translate(-262.619 -57.913)" fill="#37474f"/>
                <path id="Path_28942" data-name="Path 28942" d="M185.922,189.813l4.344-2.508-2.9-1.713-1.442,1.439Z" transform="translate(-166.017 -165.722)" fill="#1d416f"/>
                <g id="Group_162294" data-name="Group 162294" transform="translate(19.905 19.869)" opacity="0.45">
                  <g id="Group_162293" data-name="Group 162293">
                    <g id="Group_162292" data-name="Group 162292" clip-path="url(#clip-path-15)">
                      <path id="Path_28943" data-name="Path 28943" d="M185.922,189.813l4.344-2.508-2.9-1.713-1.442,1.439Z" transform="translate(-185.922 -185.592)"/>
                    </g>
                  </g>
                </g>
                <path id="Path_28944" data-name="Path 28944" d="M197.43,200.437l-.624-1.24,1.485-.86h0a1.765,1.765,0,0,1,1.792.158,6.151,6.151,0,0,1,2.656,4.879,2.159,2.159,0,0,1-.848,1.96h0l-.021.012,0,0-1.523.879-.658-1.308a6.337,6.337,0,0,1-2.257-4.484" transform="translate(-175.736 -176.945)" fill="#37474f"/>
                <path id="Path_28945" data-name="Path 28945" d="M197.43,200.437l-.624-1.24,1.485-.86h0a1.765,1.765,0,0,1,1.792.158,6.151,6.151,0,0,1,2.656,4.879,2.159,2.159,0,0,1-.848,1.96h0l-.021.012,0,0-1.523.879-.658-1.308a6.337,6.337,0,0,1-2.257-4.484" transform="translate(-175.736 -176.945)" fill="#263238"/>
                <path id="Path_28946" data-name="Path 28946" d="M188.175,208.641a6.366,6.366,0,0,0,2.069,4.457s0,0,0,0a3.924,3.924,0,0,0,.582.417c1.467.848,2.657.036,2.656-1.812a6.414,6.414,0,0,0-1.643-4.044.054.054,0,0,1-.008-.008,4.288,4.288,0,0,0-1-.827c-1.467-.846-2.656-.036-2.656,1.812" transform="translate(-168.029 -184.387)" fill="#37474f"/>
                <path id="Path_28947" data-name="Path 28947" d="M188.175,208.641a6.366,6.366,0,0,0,2.069,4.457,7.532,7.532,0,0,1-1.685-3.26c-.225-1.065-.14-2.594.774-2.981s2.121.428,2.5.8a4.288,4.288,0,0,0-1-.827c-1.467-.846-2.656-.036-2.656,1.812" transform="translate(-168.029 -184.387)" fill="#455a64"/>
                <path id="Path_28948" data-name="Path 28948" d="M198.885,218.138c-.934-.539-1.69.033-1.69,1.278a4.048,4.048,0,0,0,1.69,3.23c.934.539,1.69-.033,1.69-1.278a4.048,4.048,0,0,0-1.69-3.23m0,4.118a3.349,3.349,0,0,1-1.4-2.672c0-1.03.626-1.5,1.4-1.057a3.349,3.349,0,0,1,1.4,2.672c0,1.03-.626,1.5-1.4,1.057" transform="translate(-176.083 -194.603)" fill="#f5f5f5"/>
                <path id="Path_28949" data-name="Path 28949" d="M202.716,224.742a1.535,1.535,0,0,1-.247.914.815.815,0,0,1-1.151.143,3.346,3.346,0,0,1-1.4-2.671c0-.72.306-1.168.754-1.22a1.055,1.055,0,0,1,.646.161,3.352,3.352,0,0,1,1.4,2.673" transform="translate(-178.515 -198.146)" fill="#e0e0e0"/>
                <g id="Group_162297" data-name="Group 162297" transform="translate(21.403 23.757)" opacity="0.4">
                  <g id="Group_162296" data-name="Group 162296">
                    <g id="Group_162295" data-name="Group 162295" clip-path="url(#clip-path-7)">
                      <path id="Path_28950" data-name="Path 28950" d="M202.716,224.742a1.535,1.535,0,0,1-.247.914.815.815,0,0,1-1.151.143,3.346,3.346,0,0,1-1.4-2.671c0-.72.306-1.168.754-1.22a1.055,1.055,0,0,1,.646.161,3.352,3.352,0,0,1,1.4,2.673" transform="translate(-199.918 -221.902)"/>
                    </g>
                  </g>
                </g>
                <path id="Path_28951" data-name="Path 28951" d="M206.932,224.742a1.536,1.536,0,0,1-.247.914,1.049,1.049,0,0,1-.647-.161,3.346,3.346,0,0,1-1.4-2.671,1.526,1.526,0,0,1,.248-.915,1.055,1.055,0,0,1,.646.161,3.351,3.351,0,0,1,1.4,2.673" transform="translate(-182.731 -198.146)" fill="#263238"/>
                <path id="Path_28952" data-name="Path 28952" d="M204.1,226.286l-.252.733-.6-1.316a1.13,1.13,0,0,1,.127-.447Z" transform="translate(-181.49 -201.141)" fill="#e0e0e0"/>
                <path id="Path_28953" data-name="Path 28953" d="M206.815,240.275l.452.638-.447.513a.872.872,0,0,1-.253-.346Z" transform="translate(-184.452 -214.551)" fill="#e0e0e0"/>
                <path id="Path_28954" data-name="Path 28954" d="M212.329,244.351l-.127.054-.032-.146-.5.138,1.021,1.454a.762.762,0,0,0,.272-.231c.016-.021.031-.045.045-.068Z" transform="translate(-189.01 -218.108)" fill="#e0e0e0"/>
                <path id="Path_28955" data-name="Path 28955" d="M216.178,237.9l-.829.186-.077-.125-.082.032-.136-.638.1.058-.007-.165.838-.005a3.567,3.567,0,0,1,.192.658" transform="translate(-192.03 -211.845)" fill="#e0e0e0"/>
                <path id="Path_28956" data-name="Path 28956" d="M210.613,225.779l-.126-.04.032.148-.544-.315.478-1.173a2.414,2.414,0,0,1,.405.379Z" transform="translate(-187.495 -200.375)" fill="#e0e0e0"/>
                <path id="Path_28957" data-name="Path 28957" d="M209.1,234.774c0,.39-.237.569-.529.4a1.267,1.267,0,0,1-.529-1.011c0-.39.237-.569.529-.4a1.267,1.267,0,0,1,.529,1.011" transform="translate(-185.77 -208.679)" fill="#f5f5f5"/>
                <path id="Path_28958" data-name="Path 28958" d="M168.227,47.6a16.845,16.845,0,0,0-1.221-1.555c-.949-1.123-2.686-2.837-3.381-3.474-.209-.191-.386-.34-.532-.455l-.188.2a38.17,38.17,0,0,1,5.016,5.28c.272.471-.89,1.564-2.608,2.776-3.569,2.515-9.544,5.541-10.107,4.565l-2.64-5.662a2.609,2.609,0,0,0-.93-1.189l-.362.209a2.94,2.94,0,0,1,.365.3,2.433,2.433,0,0,1,.563.86c.393.915,1.844,4.125,1.99,4.469a2.259,2.259,0,0,1,.286,1.239,29.447,29.447,0,0,0,0,6.241l.506.292c0-.123,0-.255.01-.389.171-1.853,1.5-2.6,3.119-1.671.1.057.2.121.3.189a6.6,6.6,0,0,1,1.92,2.234,7.811,7.811,0,0,1,.743,1.9,6.136,6.136,0,0,1,.14.778c.069.582,1.278.971,3.793,1.053a12.778,12.778,0,0,0,6.222-1.515,20.459,20.459,0,0,0,3.04-1.866,5.756,5.756,0,0,0,2.075-3.647,9.727,9.727,0,0,0,.138-.974c.638-4.4-2.827-6.322-8.256-10.184" transform="translate(-135.079 -37.606)" fill="#1d416f"/>
                <g id="Group_162300" data-name="Group 162300" transform="translate(16.196 4.509)" opacity="0.5">
                  <g id="Group_162299" data-name="Group 162299">
                    <g id="Group_162298" data-name="Group 162298" clip-path="url(#clip-path-17)">
                      <path id="Path_28959" data-name="Path 28959" d="M168.227,47.6a16.845,16.845,0,0,0-1.221-1.555c-.949-1.123-2.686-2.837-3.381-3.474-.209-.191-.386-.34-.532-.455l-.188.2a38.17,38.17,0,0,1,5.016,5.28c.272.471-.89,1.564-2.608,2.776-3.569,2.515-9.544,5.541-10.107,4.565l-2.64-5.662a2.609,2.609,0,0,0-.93-1.189l-.362.209a2.94,2.94,0,0,1,.365.3,2.433,2.433,0,0,1,.563.86c.393.915,1.844,4.125,1.99,4.469a2.259,2.259,0,0,1,.286,1.239,29.447,29.447,0,0,0,0,6.241l.506.292c0-.123,0-.255.01-.389.171-1.853,1.5-2.6,3.119-1.671.1.057.2.121.3.189a6.6,6.6,0,0,1,1.92,2.234,7.811,7.811,0,0,1,.743,1.9,6.136,6.136,0,0,1,.14.778c.069.582,1.278.971,3.793,1.053a12.778,12.778,0,0,0,6.222-1.515,20.459,20.459,0,0,0,3.04-1.866,5.756,5.756,0,0,0,2.075-3.647,9.727,9.727,0,0,0,.138-.974c.638-4.4-2.827-6.322-8.256-10.184" transform="translate(-151.275 -42.115)" fill="#fff"/>
                    </g>
                  </g>
                </g>
                <path id="Path_28960" data-name="Path 28960" d="M295.82,214.239a13.642,13.642,0,0,0,3.813-1.661,8.22,8.22,0,0,0,2.248-1.787c.391-.491.628-1.128.382-1.039A17.793,17.793,0,0,1,300.4,211.2c-1.691,1.025-3.486,2.3-6.248,2.343a2.3,2.3,0,0,0-.531.041c-.674.2,1.134.922,2.2.657" transform="translate(-262.055 -187.289)" fill="#263238"/>
                <path id="Path_28961" data-name="Path 28961" d="M260.953,239.967a4.737,4.737,0,0,1,1.191.269,3.321,3.321,0,0,1,1.052.371c.2.141.752.587,1.016.723.418.216,0,.371-1.171.373s-1.566-.35-1.835-.708-.6-.979-.253-1.028" transform="translate(-232.881 -214.273)" fill="#37474f"/>
                <path id="Path_28962" data-name="Path 28962" d="M379.5,191.106h0c-.02.161-.054.391-.108.692a7.334,7.334,0,0,1-.419,1.442c-.086.08-.164.133-.216.129-.2-.013-.028-.357.114-.87s.5-1.012.629-1.392" transform="translate(-338.125 -170.646)" fill="#37474f"/>
                <g id="Group_162303" data-name="Group 162303" transform="translate(21.671 10.934)" opacity="0.5">
                  <g id="Group_162302" data-name="Group 162302">
                    <g id="Group_162301" data-name="Group 162301" clip-path="url(#clip-path-18)">
                      <path id="Path_28963" data-name="Path 28963" d="M213.831,102.128a65.856,65.856,0,0,1,6.071,6.957,25.632,25.632,0,0,0-6.071-6.957m-11.411,7.031a101.584,101.584,0,0,1,10.93,3.627,32.031,32.031,0,0,0-10.93-3.627m16.541,4.994c-1.716,1.007-3.939,2.395-6.462,2.477a6.088,6.088,0,0,1-4.263-1.79,5.244,5.244,0,0,0,4.263,2.137c2.964.065,4.788-1.247,6.549-2.315a6.387,6.387,0,0,0,3.112-3.891,7.5,7.5,0,0,1-3.2,3.382m-12.465,1.9a2.805,2.805,0,0,1,1.921-2.175,5.459,5.459,0,0,0-1.921,2.175" transform="translate(-202.42 -102.128)" fill="#1d416f"/>
                    </g>
                  </g>
                </g>
                <g id="Group_162306" data-name="Group 162306" transform="translate(20.568 10.52)" opacity="0.2">
                  <g id="Group_162305" data-name="Group 162305">
                    <g id="Group_162304" data-name="Group 162304" clip-path="url(#clip-path-19)">
                      <path id="Path_28964" data-name="Path 28964" d="M211.325,103.184a33.775,33.775,0,0,0-6.427-4.916c-.415.09,2.267,2.255,3.5,3.687a18.806,18.806,0,0,1,2.219,2.868c.382.7.683.154.98-.371s.169-.763-.276-1.268m-17.007,5.551a5.368,5.368,0,0,1,3.019,2.722c.074-.064.217-.172.217-.172a3.875,3.875,0,0,0-3.236-2.55m9.174.676c-.242-.162-6.409-2.234-8.738-2.958s-3.243-.661-2.224-.224c.9.388,4.529,2.738,5.233,3.2a7.683,7.683,0,0,0,3.456.665c1.489.052,2.987-.207,2.274-.684m-5.716,3.211a5.559,5.559,0,0,1,.449,1.755,5.759,5.759,0,0,0-.248-1.88Z" transform="translate(-192.119 -98.267)" fill="#fff"/>
                    </g>
                  </g>
                </g>
                <path id="Path_28965" data-name="Path 28965" d="M159.941,50.154l3,6.443c.563.976,6.538-2.05,10.107-4.565,1.719-1.212,2.88-2.305,2.608-2.776a38.03,38.03,0,0,0-5.016-5.28q-.277.282-.573.552a18.034,18.034,0,0,1-1.481,1.226,33.928,33.928,0,0,1-8.649,4.4m.754.7a.488.488,0,0,1,.268-.659,32.566,32.566,0,0,0,7.863-4.123,18.524,18.524,0,0,0,1.511-1.251l0,0A.489.489,0,0,1,171,44.81a37.492,37.492,0,0,1,4.3,4.626c-.034.125-.309.746-2.476,2.274-3.352,2.362-8.005,4.681-9.393,4.681a.578.578,0,0,1-.155-.016Z" transform="translate(-142.818 -39.268)" fill="#37474f"/>
                <path id="Path_28966" data-name="Path 28966" d="M169.192,62.3a.578.578,0,0,0,.155.016c1.388,0,6.041-2.319,9.393-4.681,2.167-1.528,2.441-2.149,2.476-2.274a37.506,37.506,0,0,0-4.3-4.626.489.489,0,0,0-.656.007l0,0A18.526,18.526,0,0,1,174.742,52a32.568,32.568,0,0,1-7.863,4.123.488.488,0,0,0-.268.659Z" transform="translate(-148.733 -45.197)" fill="#263238"/>
                <g id="Group_162309" data-name="Group 162309" transform="translate(24.463 6.098)" opacity="0.2">
                  <g id="Group_162308" data-name="Group 162308">
                    <g id="Group_162307" data-name="Group 162307" clip-path="url(#clip-path-20)">
                      <path id="Path_28967" data-name="Path 28967" d="M234.038,63.3c-.54.381-1.114.76-1.7,1.129-1.209-1.963-3.15-4.806-3.842-5.713q.818-.514,1.546-1.056c.311-.232.607-.468.889-.7a30,30,0,0,1,4.263,5.479c-.308.249-.686.536-1.153.865" transform="translate(-228.493 -56.957)" fill="#fff"/>
                    </g>
                  </g>
                </g>
                <g id="Group_162312" data-name="Group 162312" transform="translate(23.363 8.138)" opacity="0.2">
                  <g id="Group_162311" data-name="Group 162311">
                    <g id="Group_162310" data-name="Group 162310" clip-path="url(#clip-path-21)">
                      <path id="Path_28968" data-name="Path 28968" d="M218.22,76.387q.329-.186.644-.375a64.124,64.124,0,0,1,3.822,5.727q-.356.217-.716.427c-.782-1.281-2.289-3.677-3.75-5.779" transform="translate(-218.22 -76.012)" fill="#fff"/>
                    </g>
                  </g>
                </g>
                <g id="Group_162315" data-name="Group 162315" transform="translate(17.833 6.802)" opacity="0.3">
                  <g id="Group_162314" data-name="Group 162314">
                    <g id="Group_162313" data-name="Group 162313" clip-path="url(#clip-path-22)">
                      <path id="Path_28969" data-name="Path 28969" d="M172.805,72.491c-1.692.81-3.458,1.366-3.6.987s-1.53-3.075-1.884-4.054-.436-1.088-.2-1.385a23.64,23.64,0,0,1,3.6-1.757,19.279,19.279,0,0,0,4.025-2.746,32.56,32.56,0,0,1-7.863,4.123.488.488,0,0,0-.268.659l2.582,5.522a.582.582,0,0,0,.155.016c1.388,0,6.041-2.319,9.393-4.681-.689.5-4.243,2.5-5.935,3.315" transform="translate(-166.566 -63.536)" fill="#fff"/>
                    </g>
                  </g>
                </g>
                <path id="Path_28970" data-name="Path 28970" d="M68.371,85.72c-.146-.344-1.6-3.555-1.99-4.469a2.436,2.436,0,0,0-.563-.86,2.921,2.921,0,0,0-.365-.3,26.511,26.511,0,0,0-3.8-2.135,6.335,6.335,0,0,0-2.906-.133,10.5,10.5,0,0,0-3.064.666c-.771.362-.677.578.2,1.083l12.774,7.375a2.274,2.274,0,0,0-.287-1.226" transform="translate(-49.257 -69.402)" fill="#263238"/>
                <path id="Path_28971" data-name="Path 28971" d="M59.511,82.964c-.213-.123-.452-.5-.259-.641.047-.027.109-.06.193-.1a10.219,10.219,0,0,1,2.917-.628c.216-.013.418-.03.612-.046.348-.028.649-.053.939-.053A3.171,3.171,0,0,1,65.1,81.7a26.423,26.423,0,0,1,3.7,2.081l.014.01a2.5,2.5,0,0,1,.3.251,2.026,2.026,0,0,1,.48.736c.231.539.828,1.87,1.307,2.939a4.7,4.7,0,0,1,.358,1.575v.454Z" transform="translate(-52.845 -72.772)" fill="#37474f"/>
                <path id="Path_28972" data-name="Path 28972" d="M73.573,87.154c0-.071-.074-.165-.223-.256a18.871,18.871,0,0,0-2.459-1.322,6.356,6.356,0,0,0-2.87-.394,8.641,8.641,0,0,0-2.7.426c-.121.044-.252.124-.236.274.014.134.172.206.274.266a6.653,6.653,0,0,0,1.012.5,6.307,6.307,0,0,0,2.284.323,29.448,29.448,0,0,1,4.394.4.846.846,0,0,0,.4-.022.231.231,0,0,0,.124-.2" transform="translate(-58.117 -76.054)" fill="#455a64"/>
                <path id="Path_28973" data-name="Path 28973" d="M73.159,81.5s-.428,1.273-.606,2.1l.323.187c.175-.793.623-2.221.623-2.221Z" transform="translate(-64.785 -72.772)" fill="#263238"/>
                <path id="Path_28974" data-name="Path 28974" d="M115,87.968a32.416,32.416,0,0,0-1.13,3.964l.323.186a27.756,27.756,0,0,1,1.147-4.081Z" transform="translate(-101.68 -78.55)" fill="#263238"/>
                <path id="Path_28975" data-name="Path 28975" d="M62.129,77.3l-.362.21a26.538,26.538,0,0,0-3.8-2.135,6.338,6.338,0,0,0-2.906-.132A10.469,10.469,0,0,0,52,75.909a2,2,0,0,0-.378.217s-.046-.041-.192-.188-.395-.474-.395-.474c.524.058,1.862-.355,3.88-.537a7.3,7.3,0,0,1,3.095.094,18.891,18.891,0,0,1,4.119,2.28" transform="translate(-45.571 -66.822)" fill="#1d416f"/>
                <g id="Group_162318" data-name="Group 162318" transform="translate(5.464 8.012)" opacity="0.5">
                  <g id="Group_162317" data-name="Group 162317">
                    <g id="Group_162316" data-name="Group 162316" clip-path="url(#clip-path-23)">
                      <path id="Path_28976" data-name="Path 28976" d="M62.129,77.3l-.362.21a26.538,26.538,0,0,0-3.8-2.135,6.338,6.338,0,0,0-2.906-.132A10.469,10.469,0,0,0,52,75.909a2,2,0,0,0-.378.217s-.046-.041-.192-.188-.395-.474-.395-.474c.524.058,1.862-.355,3.88-.537a7.3,7.3,0,0,1,3.095.094,18.891,18.891,0,0,1,4.119,2.28" transform="translate(-51.035 -74.834)" fill="#fff"/>
                    </g>
                  </g>
                </g>
                <path id="Path_28977" data-name="Path 28977" d="M269.636,157.835a14.583,14.583,0,0,1-5.729,2.04,8.656,8.656,0,0,1-2.462-.019,1.685,1.685,0,0,0-.643.8s.849.845,1.267.917a14.123,14.123,0,0,0,2.355.053,2.357,2.357,0,0,0,.939.529,11.729,11.729,0,0,0,5.06-1.878c2.584-1.528,3.579-3.11,3.523-4.56a3.5,3.5,0,0,0-.527-1.939c-.122-.168-.377.814-1.172,1.8a9.145,9.145,0,0,1-2.613,2.252" transform="translate(-232.88 -137.299)" fill="#455a64"/>
                <path id="Path_28978" data-name="Path 28978" d="M305.408,164.572l-.121-.164a7.141,7.141,0,0,1-2.466,2.858,15.039,15.039,0,0,1-5.369,2.423l-.132.207a13.311,13.311,0,0,0,5.59-2.453,7.33,7.33,0,0,0,2.5-2.871m-7.756,5.8a14.076,14.076,0,0,0,5.507-2.505,5.932,5.932,0,0,0,2.393-2.977.62.62,0,0,0-.077-.267,6.091,6.091,0,0,1-2.4,3.069,14.544,14.544,0,0,1-5.939,2.559,1.759,1.759,0,0,1-.12.209c.042.007.561-.071.632-.089m8.2-5.32a5.256,5.256,0,0,1-2.256,3.491,13.744,13.744,0,0,1-6.586,2.832c.169.129.531.155,1.307-.052a14.752,14.752,0,0,0,5.342-2.61,4.882,4.882,0,0,0,2.183-3.188,1.859,1.859,0,0,0,.009-.473m-7.866,5.8a14.32,14.32,0,0,0,5.425-2.558,5.253,5.253,0,0,0,2.288-3.083.915.915,0,0,0-.034-.37,5.546,5.546,0,0,1-2.326,3.28,14.419,14.419,0,0,1-6,2.664,5.326,5.326,0,0,1-.59.063,1.071,1.071,0,0,0-.106.2c.242-.007.549-.049.778-.08.143-.019.4-.076.563-.117" transform="translate(-264.883 -146.806)" fill="#263238"/>
                <path id="Path_28979" data-name="Path 28979" d="M302.98,164.881l.374.14a13.541,13.541,0,0,0,4.8-2.161c2.292-1.7,2.692-2.97,2.692-2.97V159.5a8.721,8.721,0,0,1-2.755,3.121,14.244,14.244,0,0,1-5.116,2.258" transform="translate(-270.543 -142.426)" fill="#e0e0e0"/>
                <g id="Group_162321" data-name="Group 162321" transform="translate(32.437 17.076)" opacity="0.2">
                  <g id="Group_162320" data-name="Group 162320">
                    <g id="Group_162319" data-name="Group 162319" clip-path="url(#clip-path-24)">
                      <path id="Path_28980" data-name="Path 28980" d="M302.98,164.881l.374.14a13.541,13.541,0,0,0,4.8-2.161c2.292-1.7,2.692-2.97,2.692-2.97V159.5a8.721,8.721,0,0,1-2.755,3.121,14.244,14.244,0,0,1-5.116,2.258" transform="translate(-302.98 -159.502)"/>
                    </g>
                  </g>
                </g>
                <path id="Path_28981" data-name="Path 28981" d="M265.66,212.156l.139-.249a9.661,9.661,0,0,1-2.469-.141c-.1-.057-.578-.962-.261-.909a9.929,9.929,0,0,0,3.7-.262l-.385-.151a10.145,10.145,0,0,1-2.254.256,4.2,4.2,0,0,1-1.38-.115,1.635,1.635,0,0,0-.5.685,4.322,4.322,0,0,0,.7.592,1.759,1.759,0,0,0,1.2.3c.637.028,1.512-.011,1.512-.011" transform="translate(-234.172 -187.914)" fill="#e0e0e0"/>
                <path id="Path_28982" data-name="Path 28982" d="M273.013,214.716l.643-.977a10.838,10.838,0,0,1-1.527.194,17.647,17.647,0,0,1-1.784-.009c-.144,0-.141.071-.012.373s.18.35.438.393a11.689,11.689,0,0,0,2.242.026" transform="translate(-241.305 -190.856)" fill="#37474f"/>
                <path id="Path_28983" data-name="Path 28983" d="M272.864,217.311a.728.728,0,0,0,.4.115c.083,0,.333.048.391-.029a.083.083,0,0,0,0-.084.237.237,0,0,0-.057-.068,1.727,1.727,0,0,0-.307-.238c-.151-.086-.614-.2-.546.134a.294.294,0,0,0,.116.171" transform="translate(-243.541 -193.692)" fill="#e0e0e0"/>
                <path id="Path_28984" data-name="Path 28984" d="M280.885,216.208a.08.08,0,0,0-.045.046c-.023.071.093.142.139.176a1.667,1.667,0,0,0,.666.247,1.2,1.2,0,0,0,.444.029.734.734,0,0,0,.491-.322c.041-.063.109-.2.019-.249a.666.666,0,0,0-.319-.008l-.565.041c-.18.013-.362.007-.543.015a.849.849,0,0,0-.287.025" transform="translate(-250.77 -192.975)" fill="#e0e0e0"/>
                <path id="Path_28985" data-name="Path 28985" d="M377.024,155.391l.03.366a2.644,2.644,0,0,1,.177-.421c.049-.049.185.156.267.353-.134-.4-.309-.762-.377-.591a2.636,2.636,0,0,0-.1.293" transform="translate(-336.66 -138.455)" fill="#e0e0e0"/>
                <path id="Path_28986" data-name="Path 28986" d="M377.62,159.1l.552.725a3.473,3.473,0,0,0-.249-1.049c-.09-.163-.143-.168-.192,0s-.111.321-.111.321" transform="translate(-337.192 -141.671)" fill="#37474f"/>
                <path id="Path_28987" data-name="Path 28987" d="M379.021,160.455a.452.452,0,0,0,.059.244,1.028,1.028,0,0,0,.151.2.03.03,0,0,0,.022.013c.015,0,.02-.021.019-.036a.985.985,0,0,0-.077-.371c-.014-.032-.054-.153-.089-.165s-.083.076-.086.112" transform="translate(-338.442 -143.176)" fill="#e0e0e0"/>
                <path id="Path_28988" data-name="Path 28988" d="M348.492,192.972c-.588.407,0,1.345.568.967s-.027-1.341-.568-.967" transform="translate(-310.964 -172.237)" fill="#e0e0e0"/>
                <path id="Path_28989" data-name="Path 28989" d="M148.7,144.947c.2.956,1.261,1.158,2.054,1.135a2.43,2.43,0,0,0,.872-.15c.307-.177.165-.544,0-.757a4.263,4.263,0,0,0-2.309-1.107c-.459-.015-.759.208-.619.879" transform="translate(-132.748 -128.643)" fill="#1d416f"/>
                <g id="Group_162324" data-name="Group 162324" transform="translate(15.916 15.424)" opacity="0.3">
                  <g id="Group_162323" data-name="Group 162323">
                    <g id="Group_162322" data-name="Group 162322" clip-path="url(#clip-path-25)">
                      <path id="Path_28990" data-name="Path 28990" d="M148.7,144.947c.2.956,1.261,1.158,2.054,1.135a2.43,2.43,0,0,0,.872-.15c.307-.177.165-.544,0-.757a4.263,4.263,0,0,0-2.309-1.107c-.459-.015-.759.208-.619.879" transform="translate(-148.664 -144.067)" fill="#fff"/>
                    </g>
                  </g>
                </g>
                <path id="Path_28991" data-name="Path 28991" d="M148.7,144.947c.2.956,1.261,1.158,2.054,1.135a2.43,2.43,0,0,0,.872-.15c.307-.177.165-.544,0-.757.154.292-.663.473-1.391.212s-1.271-.825-.917-1.319c-.459-.015-.759.208-.619.879" transform="translate(-132.748 -128.643)" fill="#1d416f"/>
                <path id="Path_28992" data-name="Path 28992" d="M148.7,144.947c.2.956,1.261,1.158,2.054,1.135a1.9,1.9,0,0,1-1.658-.974c-.236-.5-.057-.977.222-1.04-.459-.015-.759.208-.619.879" transform="translate(-132.748 -128.643)" fill="#37474f"/>
              </g>
            </g>
          </g>
        </g>
      </g>
      <g id="Scan_illustration-2" data-name="Scan illustration" transform="translate(91.948 161.895)">
        <g transform="matrix(1, 0, 0, 1, -18.16, 0)" filter="url(#Path_84578)">
          <path id="Path_84578-2" data-name="Path 84578" d="M9.006,83.889l6.716-6.716,0,0a6.768,6.768,0,0,1,9.359,0l.918.923,9.639-9.656v0a38,38,0,1,1,4.876,4.876l-9.656,9.639.923.918h0a6.614,6.614,0,0,1,0,9.359l-6.716,6.716h0a9.791,9.791,0,0,1-13.834,0L8.989,97.71a9.79,9.79,0,0,1,.017-13.82Zm86.8-39.69a31.071,31.071,0,1,0-9.1,21.938,31.038,31.038,0,0,0,9.1-21.938Z" transform="translate(12.02 -6.13)" fill="#fff"/>
        </g>
      </g>
    </g>
  </g>
</svg>
