<svg xmlns="http://www.w3.org/2000/svg" width="13.739" height="14.968" viewBox="0 0 13.739 14.968">
  <g id="ic-pass" transform="translate(-5 -2)">
    <g id="Layer_2" data-name="Layer 2" transform="translate(5 2)">
      <path id="Path_84419" data-name="Path 84419" d="M16.865,7.346V6.277c0-2.362-2.237-4.277-5-4.277s-5,1.915-5,4.277V7.346A1.754,1.754,0,0,0,5,8.949v6.415a1.754,1.754,0,0,0,1.873,1.6h9.992a1.754,1.754,0,0,0,1.873-1.6V8.949A1.754,1.754,0,0,0,16.865,7.346ZM8.122,6.277a3.509,3.509,0,0,1,3.747-3.207,3.509,3.509,0,0,1,3.747,3.207V7.346H8.122Zm9.367,9.088a.585.585,0,0,1-.624.535H6.873a.585.585,0,0,1-.624-.535V8.949a.585.585,0,0,1,.624-.535h9.992a.585.585,0,0,1,.624.535Z" transform="translate(-5 -2)" fill="#959595"/>
      <circle id="Ellipse_1823" data-name="Ellipse 1823" cx="1" cy="1" r="1" transform="translate(5.869 8.996)" fill="#959595"/>
      <circle id="Ellipse_1824" data-name="Ellipse 1824" cx="1" cy="1" r="1" transform="translate(2.869 8.996)" fill="#959595"/>
      <circle id="Ellipse_1825" data-name="Ellipse 1825" cx="1" cy="1" r="1" transform="translate(8.869 8.996)" fill="#959595"/>
    </g>
  </g>
</svg>
