<svg xmlns="http://www.w3.org/2000/svg" xmlns:xlink="http://www.w3.org/1999/xlink" width="367" height="121.367" viewBox="0 0 367 121.367">
  <defs>
    <linearGradient id="linear-gradient" x1="0.011" y1="0.142" x2="0.959" y2="0.912" gradientUnits="objectBoundingBox">
      <stop offset="0" stop-color="#1d416f"/>
      <stop offset="1" stop-color="#0f2138"/>
    </linearGradient>
    <filter id="Path_84578" x="9.16" y="0" width="114.679" height="115.681" filterUnits="userSpaceOnUse">
      <feOffset dy="10" input="SourceAlpha"/>
      <feGaussianBlur stdDeviation="3" result="blur"/>
      <feFlood flood-opacity="0.161"/>
      <feComposite operator="in" in2="blur"/>
      <feComposite in="SourceGraphic"/>
    </filter>
  </defs>
  <g id="Total_Classes_Given" data-name="Total Classes Given" transform="translate(-24 -367.633)">
    <g id="Illustration_with_card" data-name="Illustration with card">
      <rect id="BG" width="367" height="101" rx="12" transform="translate(24 388)" fill="url(#linear-gradient)"/>
      <g id="Scan_illustration" data-name="Scan illustration" transform="translate(-49.788 205.738)">
        <g id="Group_162502" data-name="Group 162502" transform="translate(118.267 167.75)">
          <circle id="Ellipse_1829" data-name="Ellipse 1829" cx="32.178" cy="32.178" r="32.178" transform="translate(0 0)" fill="#eaeaea"/>
          <g id="Plastic" transform="translate(1.816 9.743)">
            <path id="Path_84949" data-name="Path 84949" d="M29.756,452.168a1.49,1.49,0,0,1-.2-.275,6.94,6.94,0,0,1-.379-.642,3.2,3.2,0,0,0-.064-.317.42.42,0,0,1,0-.139c.029-.058.023-.078,0-.093a.17.17,0,0,1,.029-.129c2.615-.025,5.188-.041,7.761-.018a2.941,2.941,0,0,0,2.5-1.265,7.076,7.076,0,0,0,.536-1.059H29.656a1.023,1.023,0,0,1-.512-1.127c3.641-.034,7.241-.035,10.842,0-.021.262-.039.489-.067.715-.033.268.008.43.35.42.752-.024,1.505-.009,2.273.012a1.137,1.137,0,0,1,.62,1.12c-.022.393,0,.788,0,1.216a1.422,1.422,0,0,1-.934,1.583Z" transform="translate(-14.108 -411.629)" fill="#90d8f9"/>
            <path id="Path_84950" data-name="Path 84950" d="M399.154,360.148c-.3,1.167-.6,2.335-.91,3.5-.409,1.53-.85,3.052-1.241,4.586a4.716,4.716,0,0,1-3.181,3.458.657.657,0,0,0-.245.159,7.482,7.482,0,0,1-1.1,0,.182.182,0,0,1,.039-.16,5.872,5.872,0,0,0,1.59-3.1c.443-2.1.85-4.212,1.263-6.32.142-.726.256-1.458.419-2.193,1.027-.006,2.018-.01,3.008-.005A1.77,1.77,0,0,1,399.154,360.148Z" transform="translate(-349.406 -331.339)" fill="#738b95"/>
            <path id="Path_84951" data-name="Path 84951" d="M14.677,5.869a7.4,7.4,0,0,1-.427-.893c-.157-.475-.264-.967-.388-1.453a.648.648,0,0,1,.5-.9c1.731-.472,3.466-.927,5.2-1.394a1.206,1.206,0,0,0,.389-.2C20.3,1,20.662,1,21.06,1c.281.851.534,1.7.762,2.554.031.117-.054.266-.124.429C19.332,4.631,17,5.25,14.677,5.869Z" fill="#4073c8"/>
            <path id="Path_84952" data-name="Path 84952" d="M343.741,371.911c-.414,0-.827,0-1.277-.029a6.257,6.257,0,0,1,.275-.635c.25-.6.486-1.2.764-1.9-.583.22-1.022.387-1.458.524.055-.2.124-.371.153-.546.145-.882.287-1.766.416-2.651.151-1.037.289-2.076.431-3.114.158-1.152.315-2.3.507-3.458.393,0,.751,0,1.111.034a4.463,4.463,0,0,1-.021.456c-.117.861-.241,1.722-.359,2.583q-.225,1.653-.444,3.307c-.122.92-.241,1.84-.377,2.875a13.3,13.3,0,0,0,1.455-1c.644-.581,1.225-1.233,1.833-1.823-.16.818-.267,1.62-.495,2.386a4.133,4.133,0,0,1-2.338,2.822C343.848,371.774,343.8,371.854,343.741,371.911Z" transform="translate(-302.876 -331.372)" fill="#738b95"/>
            <path id="Path_84953" data-name="Path 84953" d="M364.469,372.014a.3.3,0,0,1,.141-.168,4.133,4.133,0,0,0,2.338-2.822c.228-.766.334-1.568.5-2.412a1,1,0,0,1,.11-.314,6.989,6.989,0,0,0,.791-1.407c.487-1.544.9-3.112,1.372-4.674.081,0,.136,0,.19,0-.127.729-.241,1.461-.383,2.188-.413,2.108-.82,4.218-1.263,6.32a5.872,5.872,0,0,1-1.59,3.1.444.444,0,0,0-.075.16C365.9,372.014,365.2,372.014,364.469,372.014Z" transform="translate(-323.567 -331.475)" fill="#617881"/>
            <path id="Path_84954" data-name="Path 84954" d="M252.665,493.614c-.825,0-1.651,0-2.512-.036a11.674,11.674,0,0,1,0-1.586c1.068,0,2.1,0,3.131.034C253.077,492.576,252.871,493.095,252.665,493.614Z" transform="translate(-218.055 -453.075)" fill="#738b95"/>
            <path id="Path_84955" data-name="Path 84955" d="M303.174,490.231c-.542,0-1.084,0-1.659-.028a12.446,12.446,0,0,1,.459-1.593c.376-.021.718-.024,1.056-.068.512-.067,1.021-.162,1.529-.216a2.856,2.856,0,0,1-.842,1.4C303.533,489.895,303.354,490.064,303.174,490.231Z" transform="translate(-265.475 -449.692)" fill="#738b95"/>
            <path id="Path_84956" data-name="Path 84956" d="M199.469,493.745a1.5,1.5,0,0,0,.933-1.585,15.285,15.285,0,0,1,1.812,0c0,.552,0,1.068,0,1.584Z" transform="translate(-171.309 -453.205)" fill="#738b95"/>
            <path id="Path_84957" data-name="Path 84957" d="M323.469,482.392a5.861,5.861,0,0,1,.506-.5,2.994,2.994,0,0,0,.859-1.413.761.761,0,0,0,.066-.094l1.462-.553c-.278.693-.514,1.3-.764,1.9-.087.209-.206.4-.311.635C324.692,482.392,324.1,482.392,323.469,482.392Z" transform="translate(-285.733 -441.853)" fill="#617881"/>
            <path id="Path_84958" data-name="Path 84958" d="M285.285,491.968c-.152.521-.3,1.043-.459,1.593-.443.028-.882.028-1.357.028.17-.519.376-1.038.6-1.59.019-.033.055-.035.091-.034.4,0,.762,0,1.126,0Z" transform="translate(-248.822 -453.05)" fill="#617881"/>
            <path id="Path_84959" data-name="Path 84959" d="M235.042,493.613c-.036-.516-.036-1.032-.035-1.585,0-.037,0-.036.037-.036h1.122c0,.517,0,1.033,0,1.586C235.8,493.613,235.44,493.613,235.042,493.613Z" transform="translate(-204.103 -453.073)" fill="#617881"/>
            <path id="Path_84960" data-name="Path 84960" d="M262.4,171.62a1.836,1.836,0,0,1-.087-.317c-.107-1.145-.213-2.29-.309-3.436-.062-.745-.094-1.493-.16-2.238-.091-1.03-.212-2.058-.3-3.088-.068-.783-.107-1.569-.127-2.389,3.8-.037,7.558-.037,11.319-.005-.054.631-.1,1.23-.159,1.829-.124,1.311-.285,2.62-.369,3.933a6.206,6.206,0,0,1-.758,2.794,5.433,5.433,0,0,1-4.725,2.908C265.281,171.661,263.838,171.62,262.4,171.62Z" transform="translate(-228.47 -146.835)" fill="#dfeaef"/>
            <path id="Path_84961" data-name="Path 84961" d="M274.084,171.584c1.447-.035,2.89.006,4.33-.044a5.433,5.433,0,0,0,4.725-2.908,6.207,6.207,0,0,0,.758-2.794c.084-1.313.245-2.622.369-3.933.057-.6.105-1.2.2-1.829,1.123-.031,2.209-.03,3.294-.028-.08,1.087-.155,2.174-.242,3.26-.069.855-.155,1.71-.229,2.565-.1,1.2-.205,2.393-.309,3.59-.076.868-.151,1.736-.233,2.6a7.872,7.872,0,0,1-.174,1.074c-4.17.031-8.294.031-12.419.031C274.125,172.652,274.1,172.135,274.084,171.584Z" transform="translate(-240.163 -146.764)" fill="#d0e2e7"/>
            <path id="Path_84962" data-name="Path 84962" d="M85.767,75.054a5.793,5.793,0,0,0,.934,2.6,2.568,2.568,0,0,0,.987.7,6.789,6.789,0,0,1,4.286,4.288,35.221,35.221,0,0,1,.967,3.868,4.245,4.245,0,0,1,.08.943c.006,2.4,0,4.807,0,7.283a11.643,11.643,0,0,1-.043,1.166H89.857s0,0,0-.04c0-3.188.005-6.34,0-9.491a5.559,5.559,0,0,0-.09-1.3,43.34,43.34,0,0,0-1.191-4.409,6.274,6.274,0,0,0-3.358-3.548,4.433,4.433,0,0,1-2.063-1.393c.292-.093.563-.168.836-.234C84.58,75.337,85.174,75.2,85.767,75.054Z" transform="translate(-63.974 -68.335)" fill="#90d8f9"/>
            <path id="Path_84963" data-name="Path 84963" d="M204.662,331.1c0-.365.006-.73.01-1.131,1.621-.034,3.241-.031,4.9-.029h12.446c1.523,0,3.01.007,4.5,0,.34,0,.493.11.48.464-.018.486-.022.975,0,1.461.018.362-.162.473-.477.474-.359,0-.718,0-1.113,0a3.375,3.375,0,0,0-.4-.074c-.99-.005-1.981,0-3.008.005-.091,0-.145,0-.263,0-.348,0-.634,0-.956,0-1.149,0-2.262,0-3.375,0l-1.145,0-3.446,0c-.393,0-.751,0-1.145,0-1.214,0-2.391-.007-3.568,0a4.107,4.107,0,0,0-.446.066l-1.16-.063c-.815,0-1.593-.007-2.355-.03A1.082,1.082,0,0,0,204.662,331.1Z" transform="translate(-175.618 -303.536)" fill="#9bb9c1"/>
            <path id="Path_84964" data-name="Path 84964" d="M253.5,132.243c-1.121,0-2.207,0-3.329,0l-11.361,0c-.474,0-.911,0-1.348,0-.362-.007-.525-.173-.531-.538-.007-.4.015-.8-.006-1.2s.236-.508.543-.578a1.249,1.249,0,0,1,.269,0H254.52c.611,0,.789.177.789.781,0,.334.006.669,0,1-.009.363-.171.524-.537.531C254.359,132.246,253.948,132.241,253.5,132.243Z" transform="translate(-205.872 -118.961)" fill="#f1f4f6"/>
            <path id="Path_84965" data-name="Path 84965" d="M31.222,42.688c-.622.145-1.216.286-1.809.431-.273.067-.544.142-.867.236-.371.1-.694.171-1.011.263-.691.2-1.38.411-2.069.617-.121.024-.262.1-.36.062-.218-.083-.534-.177-.6-.346a16.734,16.734,0,0,1-.495-1.8.75.75,0,0,1,.054-.282c2.336-.648,4.664-1.267,7.023-1.888.137.118.292.222.34.361.148.435.265.882.375,1.329C31.953,42.271,31.842,42.461,31.222,42.688Z" transform="translate(-9.401 -35.972)" fill="#3b66c1"/>
            <path id="Path_84966" data-name="Path 84966" d="M22.044,84.825c.685-.238,1.373-.449,2.065-.648.317-.091.64-.161.991-.242a5.019,5.019,0,0,0,2.114,1.37,6.274,6.274,0,0,1,3.358,3.548,43.339,43.339,0,0,1,1.191,4.409,5.559,5.559,0,0,1,.09,1.3c.006,3.152,0,6.3-.034,9.493-3.637.038-7.237.039-10.837.039,0-1.529-.033-3.059.008-4.587.008-.311.281-.615.47-.951a3.526,3.526,0,0,1,.657-.331c1.122-.317,2.249-.618,3.375-.918,1.584-.422,3.171-.835,4.754-1.262a.619.619,0,0,0,.442-.816.591.591,0,0,0-.753-.337c-2.576.685-5.152,1.367-7.724,2.067a7.97,7.97,0,0,0-1.014.428c-.282-1.178-.644-2.344-.828-3.538a6.561,6.561,0,0,1,1.593-5.221,2.45,2.45,0,0,0,.605-1.489,6.539,6.539,0,0,0-.3-1.458C22.2,85.4,22.122,85.131,22.044,84.825Z" transform="translate(-5.973 -76.531)" fill="#b1e4f9"/>
            <path id="Path_84967" data-name="Path 84967" d="M39.872,413.909l-10.834,0c-.04-.651-.062-1.3-.041-1.952a.82.82,0,0,1,.633-.8c3.442-.026,6.842-.024,10.244.013,0,.935,0,1.834,0,2.733Z" transform="translate(-13.994 -378.471)" fill="#b0e4f9"/>
            <path id="Path_84968" data-name="Path 84968" d="M29.02,362.808c0-.648-.018-1.3-.009-1.943.005-.369.245-.594.608-.772a2.587,2.587,0,0,1,.4-.061q4.936,0,9.873,0s0,0,0,.037c0,.935,0,1.834-.038,2.735Z" transform="translate(-14.013 -331.304)" fill="#b1e4f9"/>
            <path id="Path_84969" data-name="Path 84969" d="M29.554,462.039c3.391-.025,6.771-.025,10.3-.025a7.077,7.077,0,0,1-.536,1.059,2.941,2.941,0,0,1-2.5,1.265c-2.573-.023-5.147-.007-7.756-.008-.039-.488-.051-.975-.045-1.463A.972.972,0,0,1,29.554,462.039Z" transform="translate(-14.017 -425.412)" fill="#b1e4f9"/>
            <path id="Path_84970" data-name="Path 84970" d="M39.77,346.119q-4.936,0-9.872,0a2.081,2.081,0,0,0-.37.059,1.125,1.125,0,0,1-.633-1.187c3.606-.034,7.206-.034,10.842-.037.036,0,.038,0,.039.039C39.774,345.392,39.772,345.756,39.77,346.119Z" transform="translate(-13.893 -317.391)" fill="#90d8f9"/>
            <path id="Path_84971" data-name="Path 84971" d="M28.962,396c3.606-.034,7.205-.035,10.843-.036.037,0,.04,0,.04.039,0,.4,0,.76,0,1.124l0,0-10.237,0A.974.974,0,0,1,28.962,396Z" transform="translate(-13.961 -364.466)" fill="#90d8f9"/>
            <path id="Path_84972" data-name="Path 84972" d="M31.974,228.023a5.187,5.187,0,0,1,1.013-.459c2.572-.7,5.148-1.382,7.724-2.067a.591.591,0,0,1,.753.337.619.619,0,0,1-.442.816c-1.583.426-3.17.839-4.754,1.262-1.127.3-2.253.6-3.375.918a4.888,4.888,0,0,0-.645.306C32.139,228.779,32.057,228.417,31.974,228.023Z" transform="translate(-16.75 -207.136)" fill="#90d8f9"/>
            <path id="Path_84973" data-name="Path 84973" d="M29.089,497.391a1.14,1.14,0,0,1,.068.259A1.141,1.141,0,0,1,29.089,497.391Z" transform="translate(-14.088 -458.057)" fill="#9dddf9"/>
            <path id="Path_84974" data-name="Path 84974" d="M29.091,494.248c.032,0,.039.016.015.049C29.093,494.292,29.09,494.28,29.091,494.248Z" transform="translate(-14.089 -455.157)" fill="#9dddf9"/>
            <path id="Path_84975" data-name="Path 84975" d="M202.509,359.981c.778,0,1.556,0,2.369.044.034,3.409.033,6.78.032,10.152h0l-1.809,0A7.668,7.668,0,0,1,203.06,369a1.184,1.184,0,0,0-.6-1.131,1.1,1.1,0,0,0,.584-1.2c0-.537-.02-1.039.013-1.537a1.164,1.164,0,0,0-.667-1.207,1.013,1.013,0,0,0,.654-1.193c0-.5-.026-.961.014-1.419a1.24,1.24,0,0,0-.672-1.323Z" transform="translate(-174.006 -331.259)" fill="#86a0af"/>
            <path id="Path_84976" data-name="Path 84976" d="M172.19,446.956a1.018,1.018,0,0,1-.6,1.145c-.777.012-1.531,0-2.283.021-.342.011-.383-.151-.35-.42.028-.226.046-.453.067-.715,0-.035,0-.035.037-.034Z" transform="translate(-143.149 -411.515)" fill="#75cef9"/>
            <path id="Path_84977" data-name="Path 84977" d="M307.793,360.088c1.113,0,2.226,0,3.376,0-.12,1.155-.277,2.308-.435,3.46-.142,1.038-.28,2.077-.431,3.114-.129.885-.271,1.768-.416,2.651-.029.176-.1.345-.153.546a.142.142,0,0,1-.068.095c-.527.092-1.035.187-1.548.253-.337.044-.68.047-1.056.068-.036,0-.035,0-.031-.031.078-.523.184-1.012.219-1.506.1-1.339.162-2.679.242-4.019.026-.434.06-.867.088-1.3Q307.688,361.751,307.793,360.088Z" transform="translate(-270.564 -331.354)" fill="#86a0af"/>
            <path id="Path_84978" data-name="Path 84978" d="M361.595,360.22c1.111-.034,2.224-.036,3.366,0a.408.408,0,0,1-.02.177q-.585,2.946-1.169,5.893c-.027.083-.054.166-.086.275-.612.648-1.192,1.3-1.837,1.881a13.3,13.3,0,0,1-1.455,1c.136-1.035.255-1.956.377-2.875q.22-1.654.444-3.307c.117-.861.242-1.722.359-2.583A4.463,4.463,0,0,0,361.595,360.22Z" transform="translate(-319.807 -331.454)" fill="#86a0af"/>
            <path id="Path_84979" data-name="Path 84979" d="M404.455,366.256c.364-1.957.754-3.922,1.144-5.886.01-.05.033-.1.057-.174a7.465,7.465,0,0,1,.9-.024c-.407,1.565-.821,3.132-1.309,4.676A6.988,6.988,0,0,1,404.455,366.256Z" transform="translate(-360.465 -331.432)" fill="#738b95"/>
            <path id="Path_84980" data-name="Path 84980" d="M250.015,360.106a2.535,2.535,0,0,1,.41-.067c1.177,0,2.354,0,3.566.036-.044.976-.133,1.916-.2,2.858-.067.994-.106,1.99-.162,2.985-.024.434-.052.867-.092,1.3-.094,1-.2,2-.295,3.007l-.053.005c-1.05,0-2.082,0-3.15,0-.036,0-.037,0-.036-.036C250.011,366.805,250.013,363.455,250.015,360.106Z" transform="translate(-217.946 -331.31)" fill="#86a0af"/>
            <path id="Path_84981" data-name="Path 84981" d="M292.42,370.282c.063-1,.165-2.006.259-3.009.04-.432.068-.866.092-1.3.056-1,.1-1.991.162-2.985.063-.942.152-1.882.232-2.855.36-.034.718-.035,1.111-.035-.035,1.111-.1,2.22-.176,3.329-.028.434-.062.867-.088,1.3-.08,1.34-.145,2.681-.242,4.019-.036.494-.141.984-.22,1.507C293.183,370.284,292.82,370.284,292.42,370.282Z" transform="translate(-257.083 -331.367)" fill="#738b95"/>
            <path id="Path_84982" data-name="Path 84982" d="M236.181,360.55c.033,3.351.031,6.7.029,10.086-.362.037-.724.037-1.122.038-.035-3.371-.035-6.743-.032-10.149C235.42,360.51,235.783,360.53,236.181,360.55Z" transform="translate(-204.147 -331.756)" fill="#738b95"/>
            <path id="Path_84983" data-name="Path 84983" d="M172.573,346.144a.369.369,0,0,1-.172.023l-2.469,0s0,0,0,0c0-.363,0-.727.006-1.126,1.03-.036,2.059-.036,3.124-.036A1.009,1.009,0,0,1,172.573,346.144Z" transform="translate(-144.053 -317.442)" fill="#75cef9"/>
            <path id="Path_84984" data-name="Path 84984" d="M173.1,413.759c-1.032.036-2.062.035-3.128.033-.036-.9-.036-1.8-.037-2.734,0-.035,0-.039.039-.04h2.445a1.141,1.141,0,0,1,.694,1.2C173.079,412.72,173.1,413.222,173.1,413.759Z" transform="translate(-144.055 -378.353)" fill="#90d8f9"/>
            <path id="Path_84985" data-name="Path 84985" d="M169.949,360.054c.8-.037,1.6-.039,2.444-.04a1.207,1.207,0,0,1,.733,1.324c-.04.458-.01.922-.049,1.419-1.067.036-2.1.037-3.124.037l0,0C169.948,361.888,169.949,360.989,169.949,360.054Z" transform="translate(-144.068 -331.289)" fill="#90d8f9"/>
            <path id="Path_84986" data-name="Path 84986" d="M170,396.033c1.029-.036,2.058-.036,3.122-.037a.933.933,0,0,1-.616,1.157c-.829,0-1.631,0-2.469,0A11.128,11.128,0,0,1,170,396.033Z" transform="translate(-144.117 -364.492)" fill="#75cef9"/>
          </g>
        </g>
        <g id="Scan_illustration-2" data-name="Scan illustration" transform="translate(91.948 161.895)">
          <g transform="matrix(1, 0, 0, 1, -18.16, 0)" filter="url(#Path_84578)">
            <path id="Path_84578-2" data-name="Path 84578" d="M9.006,83.889l6.716-6.716,0,0a6.768,6.768,0,0,1,9.359,0l.918.923,9.639-9.656v0a38,38,0,1,1,4.876,4.876l-9.656,9.639.923.918h0a6.614,6.614,0,0,1,0,9.359l-6.716,6.716h0a9.791,9.791,0,0,1-13.834,0L8.989,97.71a9.79,9.79,0,0,1,.017-13.82Zm86.8-39.69a31.071,31.071,0,1,0-9.1,21.938,31.038,31.038,0,0,0,9.1-21.938Z" transform="translate(12.02 -6.13)" fill="#fff"/>
          </g>
        </g>
      </g>
    </g>
  </g>
</svg>
