<svg xmlns="http://www.w3.org/2000/svg" xmlns:xlink="http://www.w3.org/1999/xlink" width="173.137" height="173.137" viewBox="0 0 173.137 173.137">
  <defs>
    <filter id="Button_BG" x="0" y="0" width="173.137" height="173.137" filterUnits="userSpaceOnUse">
      <feOffset dy="10" input="SourceAlpha"/>
      <feGaussianBlur stdDeviation="10" result="blur"/>
      <feFlood flood-color="#78a1bb" flood-opacity="0.4"/>
      <feComposite operator="in" in2="blur"/>
      <feComposite in="SourceGraphic"/>
    </filter>
  </defs>
  <g id="scan" transform="translate(-120.931 -625.431)">
    <g transform="matrix(1, 0, 0, 1, 120.93, 625.43)" filter="url(#Button_BG)">
      <circle id="Button_BG-2" data-name="Button BG" cx="40" cy="40" r="40" transform="translate(86.57 20) rotate(45)" fill="#78a1bb"/>
    </g>
    <g id="ic-scsn" transform="translate(190.487 684.987)">
      <rect id="Rectangle_140247" data-name="Rectangle 140247" width="30" height="3" rx="0.5" transform="translate(2.013 16.013)" fill="#fff"/>
      <path id="Path_84588" data-name="Path 84588" d="M12.509,3.5c0-.71,0-1.065-.22-1.285S11.716,2,11.008,2a27.191,27.191,0,0,0-3.64.183A5.95,5.95,0,0,0,3.76,3.76,5.95,5.95,0,0,0,2.18,7.368,27.191,27.191,0,0,0,2,11.008c0,.708,0,1.062.221,1.281s.575.22,1.285.22,1.059,0,1.278-.218.222-.573.226-1.283a26.883,26.883,0,0,1,.149-3.24,3.025,3.025,0,0,1,.728-1.885,3.025,3.025,0,0,1,1.885-.728,26.885,26.885,0,0,1,3.24-.149c.71,0,1.064-.006,1.283-.226S12.509,4.208,12.509,3.5Z" transform="translate(0)" fill="#fff"/>
      <path id="Path_84589" data-name="Path 84589" d="M16.5,5.007c-.71,0-1.064-.006-1.283-.226S15,4.208,15,3.5s0-1.065.22-1.285S15.789,2,16.5,2a27.194,27.194,0,0,1,3.64.183,5.95,5.95,0,0,1,3.608,1.58,5.949,5.949,0,0,1,1.58,3.608,27.2,27.2,0,0,1,.183,3.64c0,.708,0,1.062-.221,1.281s-.575.22-1.285.22-1.059,0-1.278-.218-.222-.573-.226-1.283a26.855,26.855,0,0,0-.149-3.24,3.025,3.025,0,0,0-.728-1.885,3.025,3.025,0,0,0-1.885-.728A26.887,26.887,0,0,0,16.5,5.007Z" transform="translate(6.52)" fill="#fff"/>
      <path id="Path_84590" data-name="Path 84590" d="M5.007,16.5c0-.71-.006-1.064-.226-1.283S4.208,15,3.5,15s-1.065,0-1.285.22S2,15.789,2,16.5a27.194,27.194,0,0,0,.183,3.64,5.95,5.95,0,0,0,1.58,3.608,5.95,5.95,0,0,0,3.608,1.58,27.2,27.2,0,0,0,3.64.183c.708,0,1.062,0,1.281-.221s.22-.575.22-1.285,0-1.059-.218-1.278-.573-.222-1.283-.226a26.854,26.854,0,0,1-3.24-.149,3.025,3.025,0,0,1-1.885-.728,3.025,3.025,0,0,1-.728-1.885A26.884,26.884,0,0,1,5.007,16.5Z" transform="translate(0 6.52)" fill="#fff"/>
      <path id="Path_84591" data-name="Path 84591" d="M16.5,25.508c-.708,0-1.062,0-1.281-.221S15,24.713,15,24s0-1.059.218-1.278.573-.222,1.283-.226a26.856,26.856,0,0,0,3.24-.149,3.025,3.025,0,0,0,1.885-.728,3.025,3.025,0,0,0,.728-1.885A26.856,26.856,0,0,0,22.5,16.5c0-.71.006-1.064.226-1.283S23.3,15,24,15s1.065,0,1.285.22.22.574.221,1.282a27.2,27.2,0,0,1-.183,3.64,5.95,5.95,0,0,1-1.58,3.608,5.95,5.95,0,0,1-3.608,1.58A27.2,27.2,0,0,1,16.5,25.508Z" transform="translate(6.52 6.52)" fill="#fff"/>
    </g>
  </g>
</svg>
