<svg id="Warning_Illustration" data-name="Warning Illustration" xmlns="http://www.w3.org/2000/svg" xmlns:xlink="http://www.w3.org/1999/xlink" width="138.193" height="133.323" viewBox="0 0 138.193 133.323">
  <defs>
    <clipPath id="clip-path">
      <rect id="Rectangle_140257" data-name="Rectangle 140257" width="138.193" height="133.322" fill="none"/>
    </clipPath>
  </defs>
  <path id="Path_84593" data-name="Path 84593" d="M348.586,0,349,22.9h5.378L354.8,0Z" transform="translate(-229.878)" fill="#ebebeb"/>
  <rect id="Rectangle_140254" data-name="Rectangle 140254" width="5.374" height="5.374" transform="translate(119.129 25.771)" fill="#ebebeb"/>
  <path id="Path_84594" data-name="Path 84594" d="M376.052,73.843l4.372,1.273,5.759-18.52-5.052-1.471Z" transform="translate(-247.99 -36.352)" fill="#ebebeb"/>
  <rect id="Rectangle_140255" data-name="Rectangle 140255" width="4.55" height="4.55" transform="translate(126.113 44.193) rotate(-73.772)" fill="#ebebeb"/>
  <path id="Path_84595" data-name="Path 84595" d="M212,29.16l4.028-1.9,6.736,14.97-3.485,1.646Z" transform="translate(-139.804 -17.976)" fill="#ebebeb"/>
  <rect id="Rectangle_140256" data-name="Rectangle 140256" width="3.851" height="3.851" transform="translate(80.352 27.757) rotate(-25.273)" fill="#ebebeb"/>
  <g id="Group_162531" data-name="Group 162531">
    <g id="Group_162530" data-name="Group 162530" clip-path="url(#clip-path)">
      <path id="Path_84596" data-name="Path 84596" d="M331.262,291.86H299.5s3.15-8.6,8-8.6,6.365,5.938,6.365,5.938,3.271-3.226,5.957-3.226,5.022,4.263,5.022,4.263a4.688,4.688,0,0,1,6.424,1.628" transform="translate(-197.506 -186.797)" fill="#ebebeb"/>
      <path id="Path_84597" data-name="Path 84597" d="M241.048,259.489H224.3s3.744-5.424,6.693-5.424,3.821,3.616,3.821,3.616,2.081-1.687,4.01-1.386,2.23,3.194,2.23,3.194" transform="translate(-147.913 -167.545)" fill="#ebebeb"/>
      <path id="Path_84598" data-name="Path 84598" d="M40.264,118.592H7.632s4.468-9.977,9.249-10.6,7.067,7.413,7.067,7.413,3.083-2.84,5.508-2.84,4.3,3.741,4.3,3.741,4.85-2.564,6.513,2.286" transform="translate(-5.033 -71.193)" fill="#ebebeb"/>
      <path id="Path_84599" data-name="Path 84599" d="M151.841,40.728H129.8s3.787-7.228,7.895-7.334,6.267,5.47,6.267,5.47,6.39-5.128,7.882,1.863" transform="translate(-85.596 -22.021)" fill="#ebebeb"/>
    </g>
  </g>
  <rect id="Rectangle_140258" data-name="Rectangle 140258" width="4.06" height="110.357" transform="translate(99.832 22.661)" fill="#dbdbdb"/>
  <path id="Path_84600" data-name="Path 84600" d="M237.353,11.1,205.458,66.346h63.789Z" transform="translate(-135.491 -7.322)" fill="#da1945"/>
  <path id="Path_84601" data-name="Path 84601" d="M250.773,34.6l-24.964,43.24h49.929Z" transform="translate(-148.911 -22.818)" fill="#fff"/>
  <path id="Path_84602" data-name="Path 84602" d="M291.69,71.344h5.058l-.341,18.64H292.03Z" transform="translate(-192.357 -47.049)" fill="#da1945"/>
  <rect id="Rectangle_140259" data-name="Rectangle 140259" width="4.374" height="4.374" transform="translate(99.675 45.271)" fill="#da1945"/>
  <rect id="Rectangle_140260" data-name="Rectangle 140260" width="63.789" height="21.341" transform="translate(69.968 62.239)" fill="#da1945"/>
  <path id="Path_84603" data-name="Path 84603" d="M270.589,205.437H209.666v-18.5h60.923Zm-60.582-.341h60.242V187.282H210.007Z" transform="translate(-138.266 -123.28)" fill="#fff"/>
  <path id="Path_84604" data-name="Path 84604" d="M227.953,196.134h1.264l.8,2.339.8-2.339h1.274l-1.2,3.215.9,2.26,2-5.494h1.493l-2.877,7.067h-1.154l-1.224-2.966-1.224,2.966h-1.155l-2.856-7.067h1.473l2.011,5.494.876-2.26Z" transform="translate(-148.231 -129.329)" fill="#263238"/>
  <path id="Path_84605" data-name="Path 84605" d="M256.614,196.114h1.214l2.688,7.067H259.1l-.657-1.762h-2.468l-.647,1.762h-1.413Zm1.583,4.34-.976-2.777-1.015,2.777Z" transform="translate(-167.447 -129.329)" fill="#263238"/>
  <g id="Group_162533" data-name="Group 162533">
    <g id="Group_162532" data-name="Group 162532" clip-path="url(#clip-path)">
      <path id="Path_84606" data-name="Path 84606" d="M275.575,203.182v-7.067H278.7a2,2,0,0,1,.9.2,2.339,2.339,0,0,1,.711.537,2.546,2.546,0,0,1,.468.756,2.284,2.284,0,0,1,.169.851,2.351,2.351,0,0,1-.344,1.249,1.972,1.972,0,0,1-.93.811l1.612,2.658h-1.543l-1.443-2.369h-1.354v2.369Zm1.373-3.574h1.722a.723.723,0,0,0,.353-.089.9.9,0,0,0,.284-.244,1.224,1.224,0,0,0,.189-.363,1.42,1.42,0,0,0,.069-.448,1.274,1.274,0,0,0-.08-.458,1.193,1.193,0,0,0-.214-.363.978.978,0,0,0-.309-.239.809.809,0,0,0-.353-.084h-1.662Z" transform="translate(-181.73 -129.33)" fill="#263238"/>
      <path id="Path_84607" data-name="Path 84607" d="M296.384,198.652v4.529H295.01v-7.067h1.065l3.683,4.638v-4.628h1.374v7.057h-1.115Z" transform="translate(-194.547 -129.329)" fill="#263238"/>
      <rect id="Rectangle_140261" data-name="Rectangle 140261" width="1.373" height="7.067" transform="translate(108.058 66.785)" fill="#263238"/>
      <path id="Path_84608" data-name="Path 84608" d="M327.043,198.652v4.529h-1.373v-7.067h1.065l3.683,4.638v-4.628h1.374v7.057h-1.115Z" transform="translate(-214.765 -129.329)" fill="#263238"/>
      <path id="Path_84609" data-name="Path 84609" d="M352.065,202.288a2.7,2.7,0,0,1-1.971.846,3.119,3.119,0,0,1-1.309-.279,3.314,3.314,0,0,1-1.065-.767A3.646,3.646,0,0,1,347,200.94a3.814,3.814,0,0,1-.264-1.429,3.591,3.591,0,0,1,.991-2.493,3.482,3.482,0,0,1,1.09-.767,3.269,3.269,0,0,1,1.363-.284,3.312,3.312,0,0,1,1.707.418,2.7,2.7,0,0,1,1.069,1.124l-1.025.756a1.9,1.9,0,0,0-.751-.806,2.066,2.066,0,0,0-1.05-.279,1.793,1.793,0,0,0-.821.189,1.929,1.929,0,0,0-.637.518,2.444,2.444,0,0,0-.408.756,2.811,2.811,0,0,0-.144.906,2.675,2.675,0,0,0,.159.931,2.371,2.371,0,0,0,.438.752,2.052,2.052,0,0,0,.662.5,1.9,1.9,0,0,0,.831.184,2.41,2.41,0,0,0,1.852-.965v-.5h-1.423v-1.005H353.2v3.633h-1.134Z" transform="translate(-228.66 -129.233)" fill="#263238"/>
      <path id="Path_84610" data-name="Path 84610" d="M369.539,195.909h1.334v4.479h-1.334Zm0,5.634h1.334v1.5h-1.334Z" transform="translate(-243.695 -129.194)" fill="#263238"/>
      <path id="Path_84611" data-name="Path 84611" d="M227.8,222.944h.642l1.422,3.738h-.748l-.347-.932h-1.306l-.342.932h-.747Zm.837,2.3-.516-1.469-.537,1.469Z" transform="translate(-149.286 -147.022)" fill="#fff"/>
      <path id="Path_84612" data-name="Path 84612" d="M238.936,223.581h-1.2v3.1h-.721v-3.1h-1.2v-.637h3.112Z" transform="translate(-155.516 -147.022)" fill="#fff"/>
      <path id="Path_84613" data-name="Path 84613" d="M248.508,223.581h-1.2v3.1h-.721v-3.1h-1.2v-.637h3.112Z" transform="translate(-161.828 -147.022)" fill="#fff"/>
      <path id="Path_84614" data-name="Path 84614" d="M258.49,226.046v.637h-2.6v-3.738h2.549v.637h-1.822v.9H258.2v.59h-1.575v.974Z" transform="translate(-168.751 -147.022)" fill="#fff"/>
      <path id="Path_84615" data-name="Path 84615" d="M265.914,224.286v2.4h-.727v-3.739h.564L267.7,225.4v-2.449h.726v3.734h-.589Z" transform="translate(-174.88 -147.022)" fill="#fff"/>
      <path id="Path_84616" data-name="Path 84616" d="M279.17,223.581h-1.2v3.1h-.721v-3.1h-1.2v-.637h3.112Z" transform="translate(-182.048 -147.022)" fill="#fff"/>
      <rect id="Rectangle_140262" data-name="Rectangle 140262" width="0.727" height="3.739" transform="translate(97.585 75.922)" fill="#fff"/>
      <path id="Path_84617" data-name="Path 84617" d="M292.136,226.658a1.691,1.691,0,0,1-.745-.161,1.823,1.823,0,0,1-.574-.426,1.978,1.978,0,0,1-.5-1.308,1.882,1.882,0,0,1,.14-.716,1.972,1.972,0,0,1,.384-.605,1.831,1.831,0,0,1,.582-.418,1.722,1.722,0,0,1,.732-.156,1.641,1.641,0,0,1,.74.166,1.847,1.847,0,0,1,.571.435,2,2,0,0,1,.368.611,1.919,1.919,0,0,1,.132.695,1.888,1.888,0,0,1-.137.713,1.93,1.93,0,0,1-.379.6,1.819,1.819,0,0,1-.579.416,1.733,1.733,0,0,1-.732.155m-1.085-1.9a1.508,1.508,0,0,0,.074.469,1.247,1.247,0,0,0,.214.4,1.051,1.051,0,0,0,.342.279,1.059,1.059,0,0,0,.927,0,1.065,1.065,0,0,0,.342-.287,1.277,1.277,0,0,0,.21-.4,1.487,1.487,0,0,0,.071-.455,1.463,1.463,0,0,0-.076-.469,1.294,1.294,0,0,0-.216-.4,1.025,1.025,0,0,0-.342-.276,1.066,1.066,0,0,0-.924.005,1.035,1.035,0,0,0-.342.284,1.267,1.267,0,0,0-.208.4,1.489,1.489,0,0,0-.071.456" transform="translate(-191.45 -146.971)" fill="#fff"/>
      <path id="Path_84618" data-name="Path 84618" d="M303.394,224.286v2.4h-.727v-3.739h.564l1.948,2.454v-2.449h.727v3.734h-.589Z" transform="translate(-199.596 -147.022)" fill="#fff"/>
      <path id="Path_84619" data-name="Path 84619" d="M318.176,226.682v-3.739h1.585a1.062,1.062,0,0,1,.476.108,1.233,1.233,0,0,1,.377.285,1.34,1.34,0,0,1,.247.4,1.2,1.2,0,0,1,.09.45,1.307,1.307,0,0,1-.084.461,1.284,1.284,0,0,1-.237.4,1.168,1.168,0,0,1-.369.279,1.062,1.062,0,0,1-.474.105H318.9v1.253Zm.727-1.89h.843a.415.415,0,0,0,.334-.163.674.674,0,0,0,.134-.442.73.73,0,0,0-.042-.255.626.626,0,0,0-.111-.192.437.437,0,0,0-.161-.119.477.477,0,0,0-.187-.039H318.9Z" transform="translate(-209.824 -147.021)" fill="#fff"/>
      <path id="Path_84620" data-name="Path 84620" d="M327.809,226.682v-3.739h.727v3.1h1.906v.637Z" transform="translate(-216.176 -147.022)" fill="#fff"/>
      <path id="Path_84621" data-name="Path 84621" d="M339.435,226.046v.637h-2.6v-3.738h2.549v.637h-1.822v.9h1.575v.59h-1.575v.974Z" transform="translate(-222.131 -147.022)" fill="#fff"/>
      <path id="Path_84622" data-name="Path 84622" d="M346.493,222.944h.642l1.422,3.738h-.748l-.347-.932h-1.306l-.342.932h-.747Zm.837,2.3-.516-1.469-.537,1.469Z" transform="translate(-227.556 -147.022)" fill="#fff"/>
      <path id="Path_84623" data-name="Path 84623" d="M358.051,223.872a.9.9,0,0,0-.135-.1,1.622,1.622,0,0,0-.237-.124,2.061,2.061,0,0,0-.3-.1,1.316,1.316,0,0,0-.332-.042.743.743,0,0,0-.448.111.366.366,0,0,0-.147.311.317.317,0,0,0,.056.192.478.478,0,0,0,.16.135,1.325,1.325,0,0,0,.266.105q.16.048.371.1.274.074.5.158a1.352,1.352,0,0,1,.379.21.88.88,0,0,1,.239.3,1,1,0,0,1,.084.435,1.086,1.086,0,0,1-.113.513.949.949,0,0,1-.306.345,1.328,1.328,0,0,1-.442.192,2.231,2.231,0,0,1-.524.061,2.817,2.817,0,0,1-.832-.126,2.558,2.558,0,0,1-.737-.358l.321-.627a1,1,0,0,0,.171.124,2.553,2.553,0,0,0,.292.153,2.258,2.258,0,0,0,.374.129,1.69,1.69,0,0,0,.421.052q.6,0,.6-.384a.316.316,0,0,0-.069-.205.583.583,0,0,0-.195-.147,1.866,1.866,0,0,0-.305-.116l-.4-.115a3.422,3.422,0,0,1-.466-.161,1.222,1.222,0,0,1-.329-.205.773.773,0,0,1-.2-.274.954.954,0,0,1-.066-.371,1.164,1.164,0,0,1,.105-.506,1.019,1.019,0,0,1,.292-.368,1.319,1.319,0,0,1,.434-.224,1.8,1.8,0,0,1,.532-.077,2.073,2.073,0,0,1,.727.124,2.709,2.709,0,0,1,.579.293Z" transform="translate(-234.469 -146.971)" fill="#fff"/>
      <path id="Path_84624" data-name="Path 84624" d="M368.427,226.046v.637h-2.6v-3.738h2.549v.637h-1.822v.9h1.575v.59h-1.575v.974Z" transform="translate(-241.25 -147.022)" fill="#fff"/>
    </g>
  </g>
  <g id="Group_162535" data-name="Group 162535">
    <g id="Group_162534" data-name="Group 162534" clip-path="url(#clip-path)">
      <path id="Path_84625" data-name="Path 84625" d="M99.886,344.144H70.4c-.243-.949-.478-1.883-.714-2.8-.269-1.058-.534-2.089-.788-3.094-.056-.224-.116-.448-.172-.669q-.292-1.154-.572-2.249c-.112-.445-.224-.882-.333-1.316s-.224-.874-.332-1.3c-.03-.112-.056-.224-.086-.333s-.06-.243-.09-.362c-.037-.15-.075-.292-.112-.437v0c-.041-.153-.079-.3-.116-.452-.075-.284-.146-.564-.213-.837-.1-.4-.205-.8-.3-1.184-.041-.168-.086-.336-.127-.5-.071-.269-.138-.531-.2-.788-.045-.172-.086-.34-.127-.5q-.264-1.014-.486-1.906c-.041-.157-.078-.31-.12-.46-.063-.258-.127-.5-.187-.743q-.062-.224-.112-.437c-.131-.508-.25-.972-.351-1.379-.03-.108-.056-.213-.082-.314-.067-.269-.131-.508-.183-.721-.022-.086-.041-.168-.064-.243s-.041-.164-.06-.236c-.011-.052-.026-.1-.037-.15-.019-.075-.037-.142-.052-.2-.008-.034-.015-.064-.022-.09-.045-.176-.067-.265-.067-.265h28.7s.945,3.258,2.459,8.512c.306,1.069.639,2.223.994,3.449,1.005,3.5,2.178,7.589,3.442,12.013" transform="translate(-42.397 -211.139)" fill="#37474f"/>
      <path id="Path_84626" data-name="Path 84626" d="M87.289,357.163h-.736q-1.637-6.776-3.172-13.575-.37-1.654-.733-3.311c-.022-.1-.045-.205-.067-.31a.044.044,0,0,1,.086-.022c.011.034.019.067.03.1.332,1.184.665,2.373.99,3.561q1.866,6.76,3.6,13.556" transform="translate(-54.458 -224.158)" fill="#263238"/>
      <path id="Path_84627" data-name="Path 84627" d="M92.062,320.17,90.8,326.511l-1.039,5.2-1.767,8.863-.183.908L87.5,343l-.228,1.147H70.4c-.239-.953-.478-1.887-.71-2.8-.269-1.057-.534-2.089-.788-3.094-.056-.224-.116-.449-.172-.669q-.292-1.155-.572-2.25c-.112-.444-.224-.882-.332-1.315s-.224-.875-.333-1.3c-.03-.112-.056-.224-.086-.333-.03-.123-.06-.243-.09-.362-.037-.15-.075-.292-.112-.437v0c-.041-.153-.078-.3-.116-.452-.075-.284-.146-.564-.213-.837-.1-.4-.206-.8-.3-1.184-.045-.172-.086-.336-.127-.5-.071-.269-.138-.531-.2-.788-.045-.172-.086-.34-.127-.5-.176-.676-.336-1.311-.486-1.906-.041-.157-.079-.31-.12-.459-.064-.258-.127-.5-.187-.744q-.062-.224-.112-.437c-.131-.508-.25-.971-.351-1.379-.03-.109-.056-.213-.082-.314-.067-.269-.131-.508-.183-.721-.022-.086-.041-.168-.063-.243s-.041-.164-.06-.235c-.011-.052-.026-.1-.037-.149-.019-.075-.037-.142-.052-.2-.007-.033-.015-.063-.022-.09-.045-.176-.067-.265-.067-.265Z" transform="translate(-42.398 -211.139)" fill="#263238"/>
      <path id="Path_84628" data-name="Path 84628" d="M66.472,320.137v.011c-.011.157-.12,1.868-.4,4.48-.078.762-.172,1.6-.28,2.5-.168,1.416-.377,2.978-.635,4.63-.441,2.881-1.017,6.023-1.764,9.095-.265,1.106-.557,2.2-.867,3.273l-37.048.013c.437-5.646.837-10.752,1.155-14.776.444-5.665.728-9.211.728-9.211l33.607-.011Z" transform="translate(-16.804 -211.117)" fill="#37474f"/>
      <path id="Path_84629" data-name="Path 84629" d="M132.752,328.439c-.041,1.326-.1,2.649-.183,3.968-.09,1.431-.22,2.858-.407,4.286,0,.052-.011.1-.018.157q-.264,2.006-.6,4a14.143,14.143,0,0,1-.919,3.725,3.645,3.645,0,0,1-.867,1.169,2.56,2.56,0,0,1-1.184.613,1.429,1.429,0,0,1-.221.037c-.018,0-.041,0-.063,0a.08.08,0,0,1,.041.078c-.015.445,0,.9-.052,1.338,0,.019,0,.037-.007.056-.045.385-.116.766-.187,1.147h-.635c0-.008,0-.015.007-.022.112-.418.205-.84.31-1.263s.254-.852.355-1.289a.082.082,0,0,1,.03-.041,1.976,1.976,0,0,1-1.913-1.2,3.434,3.434,0,0,1-.03-1.741c.116-.758.228-1.517.344-2.275.217-1.394.5-2.773.743-4.159.037-.209.075-.422.112-.632.5-2.821,1.017-5.642,1.64-8.437.022-.116.049-.232.075-.348.015-.078.142-.056.135.019-.019.187-.037.377-.06.564q-.162,1.609-.385,3.206c-.179,1.252-.3,2.511-.478,3.763-.06.426-.12.852-.183,1.278-.288,2.059-.587,4.118-.938,6.169-.164.953-.759,2.66.613,2.956a1.4,1.4,0,0,0,.93-.116,2.92,2.92,0,0,0,1.274-1.61,21.407,21.407,0,0,0,.729-3.43q.336-1.883.6-3.77v0q.337-2.36.7-4.712.185-1.2.377-2.4l.179-1.11c.015-.078.138-.056.138.022" transform="translate(-83.162 -216.014)" fill="#263238"/>
      <path id="Path_84630" data-name="Path 84630" d="M49.189,339.523a18.7,18.7,0,0,0,4.571-.615c.688-.177,1.369-.4,2.045-.619a5.318,5.318,0,0,0,1.844-.925,8.17,8.17,0,0,0,1.974-3.56,34.066,34.066,0,0,0,1.2-4.323c.016-.073.122-.048.124.02a16.771,16.771,0,0,1-.622,4.908,7.58,7.58,0,0,1-1.968,3.815,7.719,7.719,0,0,1-4.189,1.532,19.257,19.257,0,0,1-4.98-.069.082.082,0,0,1,0-.164" transform="translate(-32.385 -217.25)" fill="#263238"/>
      <path id="Path_84631" data-name="Path 84631" d="M38.6,329.525q-.123,3.111-.262,6.225-.32,7.253-.7,14.505h-.7q.477-7.269,1.005-14.528.23-3.1.471-6.206a.09.09,0,0,1,.179,0" transform="translate(-24.366 -217.25)" fill="#263238"/>
      <path id="Path_84632" data-name="Path 84632" d="M118.517,189.752c5.086,6.157,23.253,28.827,20.7,35.14-2.591,6.4-8.656,10.793-11.813,6.339-2.6-3.676-12.414-29.111-13.817-35.679-1.336-6.254-.063-11.85,4.935-5.8" transform="translate(-74.576 -123.42)" fill="#d3766a"/>
      <path id="Path_84633" data-name="Path 84633" d="M113.526,210.056l18.89-3.756s-13.3-16.485-18.578-20.23c-5.941-4.214-6.8-.254-5.694,6.581s5.382,17.4,5.382,17.4" transform="translate(-71.044 -121.562)" fill="#ffc727"/>
      <path id="Path_84634" data-name="Path 84634" d="M132.415,206.3l-18.89,3.756s-4.277-10.57-5.381-17.405-.249-10.8,5.694-6.583c.3.215.627.47.977.759.14.116.283.238.429.364,0,0,0,0,0,.007a89.129,89.129,0,0,1,6.865,7c.044.051.089.1.136.15,1.948,2.169,3.892,4.424,5.551,6.382q.358.424.695.828c2.316,2.752,3.92,4.74,3.92,4.74" transform="translate(-71.044 -121.561)" fill="#da1945"/>
      <path id="Path_84635" data-name="Path 84635" d="M124.149,209.327a6.066,6.066,0,0,0-.405,1.689,6.286,6.286,0,0,0,.824-1.529,6.047,6.047,0,0,0,.409-1.686,6.165,6.165,0,0,0-.828,1.526m-7.049-8.275a6.048,6.048,0,0,0-1.686-.409,6.026,6.026,0,0,0,1.522.828,6.105,6.105,0,0,0,1.686.409,6.026,6.026,0,0,0-1.522-.828m3.64-8.214a8.406,8.406,0,0,0-.426-.814s0,0,0-.007c-.146-.126-.289-.249-.429-.364a6.932,6.932,0,0,0,.45,1.369,5.9,5.9,0,0,0,.9,1.481,6.078,6.078,0,0,0-.494-1.665m12.978,13.87c-.051-.109-.1-.218-.157-.324q-.337-.4-.695-.828a6.586,6.586,0,0,0,.436,1.335,6.117,6.117,0,0,0,.906,1.481,6.073,6.073,0,0,0-.49-1.665m-6.538-7.683c-.1.068-.191.143-.283.221a4.131,4.131,0,0,0,.419-.072c-.048-.051-.092-.1-.136-.15" transform="translate(-76.111 -126.387)" fill="#fff"/>
      <path id="Path_84636" data-name="Path 84636" d="M140.04,240.534c-.674.029-6.579,1.107-7.857,1.369s-6.515,1.283-7.812,1.664a.048.048,0,0,0,.014.094c1.339-.129,6.623-1.144,7.931-1.385s7.127-1.436,7.748-1.656c.053-.019.021-.088-.025-.086" transform="translate(-81.992 -158.622)" fill="#263238"/>
      <path id="Path_84637" data-name="Path 84637" d="M124.414,207.89l-10.887,2.162s-4.278-10.569-5.381-17.4c-.813-5.043-.561-8.522,2.013-8.306Z" transform="translate(-71.046 -121.561)" fill="#263238"/>
      <path id="Path_84638" data-name="Path 84638" d="M70.511,239.326l-47.928,2.546s4.059-40.834,21.784-58.2c2.19-2.146,8.015-3.137,10.989-.815,1.586,1.239,4.465,6.785,5.989,12.445s9.291,43.844,9.165,44.021" transform="translate(-14.893 -119.708)" fill="#db1845"/>
      <path id="Path_84639" data-name="Path 84639" d="M52.823,196.049a6.194,6.194,0,0,0-.405,1.686,6.047,6.047,0,0,0,.828-1.526,6.169,6.169,0,0,0,.409-1.686,6.229,6.229,0,0,0-.831,1.526M47.31,217.9a5.953,5.953,0,0,0-.409,1.689,6.664,6.664,0,0,0,1.233-3.211,6.182,6.182,0,0,0-.824,1.522m-3.5,23.188a6.053,6.053,0,0,0-.409,1.682,6.663,6.663,0,0,0,1.233-3.211,6.1,6.1,0,0,0-.824,1.529M66.039,211.07c-.02.048-.041.1-.061.15a6.067,6.067,0,0,0-.405,1.689,5.4,5.4,0,0,0,.633-1.076v0c-.058-.259-.112-.511-.167-.759M56.95,238.691a6.08,6.08,0,0,0-.412,1.686,6.038,6.038,0,0,0,.831-1.522,6.164,6.164,0,0,0,.405-1.686,6.183,6.183,0,0,0-.824,1.522M37.522,209.439a6.015,6.015,0,0,0-.405,1.686,6.143,6.143,0,0,0,.824-1.526,6.047,6.047,0,0,0,.409-1.686,6.046,6.046,0,0,0-.828,1.526m21.407-6.494a6.047,6.047,0,0,0-1.686-.409,6.026,6.026,0,0,0,1.522.828,6.106,6.106,0,0,0,1.686.409,6.026,6.026,0,0,0-1.522-.828m4.791,18.263a6.078,6.078,0,0,0-1.682-.405,5.909,5.909,0,0,0,1.522.824,6.173,6.173,0,0,0,1.686.412,6,6,0,0,0-1.526-.831m2.51,21.716a6.047,6.047,0,0,0-1.686-.409,6.684,6.684,0,0,0,3.208,1.236,6.136,6.136,0,0,0-1.522-.828m-35.866-1.175a6.045,6.045,0,0,0-1.686-.409,6.713,6.713,0,0,0,3.211,1.236,6.1,6.1,0,0,0-1.526-.828m12.77-14.6a6.023,6.023,0,0,0-1.686-.412,6.058,6.058,0,0,0,1.526.831,6.165,6.165,0,0,0,1.686.405,6.144,6.144,0,0,0-1.526-.824m4.587-20.688a6.14,6.14,0,0,0-.906-1.481,6.652,6.652,0,0,0,1.4,3.143,6.212,6.212,0,0,0-.494-1.662m8.285,18.386a6.211,6.211,0,0,0-.9-1.481,6.056,6.056,0,0,0,.494,1.662,6.127,6.127,0,0,0,.9,1.481,6.139,6.139,0,0,0-.494-1.662M36.5,234.847a6.055,6.055,0,0,0-.906-1.478,6.212,6.212,0,0,0,.494,1.662,5.992,5.992,0,0,0,.906,1.478,6.09,6.09,0,0,0-.494-1.662m3.242,14.545a6.1,6.1,0,0,0-.9-1.481,5.907,5.907,0,0,0,.494,1.662c.02.048.044.092.065.14l.467-.024-.123-.3m25.411-17.5a6.048,6.048,0,0,0-1.481.9,6.681,6.681,0,0,0,3.143-1.393,5.8,5.8,0,0,0-1.662.494m-14.173,14.79a6.126,6.126,0,0,0-1.481.9,6.139,6.139,0,0,0,1.662-.494,6.012,6.012,0,0,0,1.481-.906,5.946,5.946,0,0,0-1.662.5M27.81,250.055c-.2.1-.409.194-.606.3l1.127-.058a5.283,5.283,0,0,0,1.141-.742,6.144,6.144,0,0,0-1.662.5m8.9-31.061a6.193,6.193,0,0,0-1.481.9,6.723,6.723,0,0,0,3.147-1.4,6.08,6.08,0,0,0-1.665.494m13.026,14.466a6.182,6.182,0,0,0-1.481.906,5.962,5.962,0,0,0,1.665-.494,6.1,6.1,0,0,0,1.481-.906,6.2,6.2,0,0,0-1.665.494m5.786-22.3a6.126,6.126,0,0,0-1.481.9,6.723,6.723,0,0,0,3.147-1.4,6.078,6.078,0,0,0-1.665.494M42.7,198.14c-.119.054-.235.109-.351.17-.133.191-.266.385-.4.579a7.971,7.971,0,0,0,.93-.341,6.235,6.235,0,0,0,1.481-.9,6.078,6.078,0,0,0-1.665.494" transform="translate(-17.94 -128.28)" fill="#fff"/>
      <path id="Path_84640" data-name="Path 84640" d="M30.509,193.86c-13.47,15.87-22.673,40.956-17.892,44.642,5.426,4.183,25.465,7.625,33.426,8.316,2.47.215,2.847-20.239.2-20.179-3.212.073-15.218-2.362-15.54-2.367-.689-.01,5.853-20.769,7.744-28.905,2.634-11.336-2.876-7.467-7.934-1.507" transform="translate(-7.477 -124.043)" fill="#d3766a"/>
      <path id="Path_84641" data-name="Path 84641" d="M134.8,300.186a3.056,3.056,0,0,1-1.27,3.249,4.532,4.532,0,0,1,1.431,2.73c.165,1.86-2.679,2.934-2.679,2.934a5.591,5.591,0,0,1,1.05,3.12c-.021,1.8-2.736,3.289-2.736,3.289a4.9,4.9,0,0,1-.8,3.325c-1.864,2.536-6.658,2.174-9.707,1.975s-12.327-4-14.006-4.488l1.923-19.2s13.929-3,17.481-2.255c2.992.626,8.673,3.026,9.317,5.323" transform="translate(-69.952 -194.372)" fill="#d3766a"/>
      <path id="Path_84642" data-name="Path 84642" d="M167.9,315.085c-3.022-1.429-6.3-1.887-9.55-2.529a.057.057,0,0,0-.021.112c3.238.6,6.314,1.839,9.521,2.568a.081.081,0,0,0,.05-.151" transform="translate(-104.38 -206.116)" fill="#263238"/>
      <path id="Path_84643" data-name="Path 84643" d="M164.431,333.774a8.7,8.7,0,0,0-2.227-.485q-1.2-.176-2.4-.311c-1.607-.181-3.218-.327-4.832-.424-.072,0-.1.1-.021.113,1.6.184,3.2.391,4.791.642q1.195.189,2.387.4a10.361,10.361,0,0,0,2.263.286.115.115,0,0,0,.042-.217" transform="translate(-102.152 -219.306)" fill="#263238"/>
      <path id="Path_84644" data-name="Path 84644" d="M161.056,353.658a6.065,6.065,0,0,0-2.028-.329q-1.1-.1-2.2-.215c-1.466-.151-2.931-.3-4.391-.506-.073-.01-.094.1-.021.113,1.482.213,2.961.446,4.444.646q1.093.148,2.187.283a5.692,5.692,0,0,0,2,.082.04.04,0,0,0,0-.074" transform="translate(-100.482 -232.53)" fill="#263238"/>
      <path id="Path_84645" data-name="Path 84645" d="M44.729,213.128l-19.058-2.776S38.1,193.2,43.179,189.19c5.716-4.515,6.775-.6,6.026,6.278s-4.476,17.659-4.476,17.659" transform="translate(-16.929 -123.486)" fill="#da1945"/>
      <path id="Path_84646" data-name="Path 84646" d="M45.356,204.187a6.02,6.02,0,0,0-1.481.9,6.723,6.723,0,0,0,3.147-1.4,6.078,6.078,0,0,0-1.665.494m5.023,8.326a6.139,6.139,0,0,0-.906-1.481,6.652,6.652,0,0,0,1.4,3.143,6.211,6.211,0,0,0-.494-1.662m-18.866,5.735h0c-.092.126-.184.252-.276.371l.024.01a6.172,6.172,0,0,0,1.686.412,5.913,5.913,0,0,0-1.43-.793m8.667-2.762a6.015,6.015,0,0,0-.405,1.686,6.143,6.143,0,0,0,.824-1.526,6.047,6.047,0,0,0,.409-1.686,6.047,6.047,0,0,0-.828,1.526" transform="translate(-20.597 -134.327)" fill="#fff"/>
      <path id="Path_84647" data-name="Path 84647" d="M34.894,245.886c.674-.006,6.627.766,7.917.961s6.572.945,7.887,1.258a.048.048,0,0,1-.01.095c-1.344-.06-6.673-.8-7.992-.973s-7.191-1.066-7.823-1.254c-.053-.016-.026-.087.02-.088" transform="translate(-22.979 -162.151)" fill="#263238"/>
      <path id="Path_84648" data-name="Path 84648" d="M77.049,231.913c.579.042,1.48.142,1.48.142.571-2.63,1.421-5.221,2.106-7.823.7-2.649,1.473-5.27,2.2-7.91a.033.033,0,0,1,.063.017c-.318,1.52-.64,3.034-.976,4.546.075-.181.152-.362.226-.542.265-.646.548-1.282.792-1.937.02-.055.106-.034.089.024a16.406,16.406,0,0,1-.667,2c-.194.456-.418.9-.647,1.333-.2.866-.39,1.732-.611,2.6-.677,2.645-1.226,5.631-2.107,8.217,0,0-1.332-.31-1.984-.538-.08-.028-.05-.133.035-.127" transform="translate(-50.757 -142.641)" fill="#263238"/>
      <path id="Path_84649" data-name="Path 84649" d="M99.678,176.717c-2.577.876-7.489-2.72-9.59-5.814-.143-.213-.026-2.605-.021-5.52,0-1.768-.05-3.737-.222-5.531-.037-.368,11.512,1.655,11.512,1.655a28.724,28.724,0,0,0-.427,6.991,4.032,4.032,0,0,0,.148.728c.007.033.021.074.028.121.362,1.376,1.062,6.521-1.428,7.369" transform="translate(-59.249 -105.386)" fill="#d3766a"/>
      <path id="Path_84650" data-name="Path 84650" d="M100.551,169.52a6.807,6.807,0,0,0,1.148-.172c-.008-.047-.02-.085-.028-.121a3.847,3.847,0,0,1-.146-.728,28.8,28.8,0,0,1,.425-6.989s-9.374-1.643-11.2-1.7c.546,2.039,3.155,10.2,9.8,9.71" transform="translate(-59.843 -105.388)" fill="#263238"/>
      <path id="Path_84651" data-name="Path 84651" d="M80.181,104.712c-.9,4.091,2.121,15.464,5.166,17.812,4.414,3.4,11.186,3.226,13.963-1.976,2.692-5.043-1.511-19.794-4.87-21.881-4.947-3.073-12.926,0-14.26,6.045" transform="translate(-52.769 -64.271)" fill="#d3766a"/>
      <path id="Path_84652" data-name="Path 84652" d="M131.674,146.509c0-.014-.027-.011-.026,0a10.916,10.916,0,0,1-2.094,8.015A6.234,6.234,0,0,1,127.88,156c-.033.018,0,.068.03.049a8.073,8.073,0,0,0,1.61-1.153,7.227,7.227,0,0,0,1.227-1.577,8.855,8.855,0,0,0,1.2-4.233,12.843,12.843,0,0,0-.271-2.573" transform="translate(-84.322 -96.611)" fill="#263238"/>
      <path id="Path_84653" data-name="Path 84653" d="M114.717,136.918c-.013-.028-.051.051-.043.082.211.761.325,1.669-.308,2.093-.019.013-.008.051.017.041.818-.325.655-1.528.333-2.216" transform="translate(-75.413 -90.288)" fill="#263238"/>
      <path id="Path_84654" data-name="Path 84654" d="M111.409,135.048c-1.257.207-.751,2.705.413,2.514,1.146-.188.641-2.687-.413-2.514" transform="translate(-72.986 -89.053)" fill="#263238"/>
      <path id="Path_84655" data-name="Path 84655" d="M128.495,134.071c0-.031.068.025.073.057.127.78.4,1.651,1.155,1.771.023,0,.029.043,0,.045-.879.047-1.235-1.114-1.23-1.873" transform="translate(-84.737 -88.408)" fill="#263238"/>
      <path id="Path_84656" data-name="Path 84656" d="M129.029,131.253c1.228-.338,1.814,2.142.677,2.456-1.12.309-1.706-2.172-.677-2.456" transform="translate(-84.737 -86.535)" fill="#263238"/>
      <path id="Path_84657" data-name="Path 84657" d="M110.305,129.315a9.947,9.947,0,0,1-.9.526,1.692,1.692,0,0,1-1.025.361.539.539,0,0,1-.441-.489,1.337,1.337,0,0,1,.768-1.116,1.964,1.964,0,0,1,1.38-.311.575.575,0,0,1,.222,1.028" transform="translate(-71.178 -84.587)" fill="#263238"/>
      <path id="Path_84658" data-name="Path 84658" d="M127.39,121.623a9.819,9.819,0,0,1-1.045-.057,1.689,1.689,0,0,1-1.055-.261.539.539,0,0,1-.1-.65,1.338,1.338,0,0,1,1.255-.51,1.964,1.964,0,0,1,1.324.5.575.575,0,0,1-.379.981" transform="translate(-82.513 -79.229)" fill="#263238"/>
      <path id="Path_84659" data-name="Path 84659" d="M118.133,134.907a6.68,6.68,0,0,1,3-.8c.086-.032.13-.224.128-.312v-.005c-.006-.028-.391-1.622-.391-1.622.237.062,1.435.326,1.354.022a39.993,39.993,0,0,0-2.656-7.656.072.072,0,0,0-.136.049c.562,2.439,1.549,4.762,2.153,7.2a4.651,4.651,0,0,0-1.3-.116c-.079.042.5,1.7.529,1.966a3.87,3.87,0,0,0-2.76.936c-.286.28-.346.617.083.334" transform="translate(-77.7 -82.098)" fill="#263238"/>
      <path id="Path_84660" data-name="Path 84660" d="M114.092,161.255c.222.14.457.347.74.311a2.065,2.065,0,0,0,.781-.369.028.028,0,0,1,.042.032,1.053,1.053,0,0,1-.881.624.832.832,0,0,1-.747-.547c-.021-.042.034-.071.066-.05" transform="translate(-75.192 -106.299)" fill="#263238"/>
      <path id="Path_84661" data-name="Path 84661" d="M118.551,151.586c-.724.141-3.025,1.074-2.456,2.145.25.469,1.041.189,1.615-.494a5.022,5.022,0,0,0,.841-1.651" transform="translate(-76.501 -99.965)" fill="#263238"/>
      <path id="Path_84662" data-name="Path 84662" d="M117.413,156c-.525.455-1.111.585-1.32.193a.745.745,0,0,1,.084-.828c.442-.076,1.386-.149,1.235.635" transform="translate(-76.499 -102.429)" fill="#ff9abb"/>
      <path id="Path_84663" data-name="Path 84663" d="M92.182,90.791c-3.469,3.808-10.137.849-10.137.849a4.621,4.621,0,0,1-3.895,3.92s.832,7.194-1.015,7.614c-2.818.644-5.931-8.7-5.485-10.785a5.153,5.153,0,0,1,2.719-3.126,4.721,4.721,0,0,1,1.259-3.233c1.575-1.922,8.67-1.5,8.67-1.5a6.341,6.341,0,0,1,1.159-2.691,1.785,1.785,0,0,1,2.557-.359,4.275,4.275,0,0,0-.269,1.886c.15,2.127,1.825,1.732,1.372-.124a2.973,2.973,0,0,0-1.1-1.762c.541-1.409,1.8-2.122,2.769-1.664,1.764.832,4.286,7.811,1.4,10.975" transform="translate(-47.222 -52.544)" fill="#263238"/>
      <path id="Path_84664" data-name="Path 84664" d="M80.029,142.187s-3.274-3.185-4.767-1.95,1.459,6.2,3.557,6.551a2.028,2.028,0,0,0,2.465-1.581Z" transform="translate(-49.364 -92.293)" fill="#d3766a"/>
      <path id="Path_84665" data-name="Path 84665" d="M78.592,144.881a.028.028,0,0,0,0,.054,5.126,5.126,0,0,1,3.2,2.653,1.119,1.119,0,0,0-1.7.014c-.031.032.014.082.051.066a1.248,1.248,0,0,1,1.43.17,6.024,6.024,0,0,1,.854.967c.088.111.3,0,.223-.13l-.017-.03c-.3-1.758-2.129-3.948-4.043-3.765" transform="translate(-51.813 -95.536)" fill="#263238"/>
      <path id="Path_84666" data-name="Path 84666" d="M86.207,193.767a15.83,15.83,0,0,0,5.969,5.51,8.252,8.252,0,0,0,3.851,1.043,3.461,3.461,0,0,0,1.993-.551,4.058,4.058,0,0,0,1.216-1.659,7.982,7.982,0,0,0,.585-2.293,19.2,19.2,0,0,0,.116-2.682c0-.034.049-.03.05,0,.025.848.118,1.693.08,2.541a8.616,8.616,0,0,1-.351,2.212,5.013,5.013,0,0,1-1.024,1.857,3.114,3.114,0,0,1-1.9.966,7.4,7.4,0,0,1-4.152-.73,13.664,13.664,0,0,1-3.518-2.354,14.914,14.914,0,0,1-2.982-3.823.041.041,0,1,1,.073-.039" transform="translate(-56.798 -127.348)" fill="#263238"/>
      <path id="Path_84667" data-name="Path 84667" d="M148.208,241.181c2.529,4.92,9.133,1.336,10.568-2.251,3.369-8.42,4.4-26.129,3.486-34.276-.3-2.622-17.052-.187-17.682,2.563-.659,2.878-1.5,23.982,3.628,33.964" transform="translate(-95.017 -134.22)" fill="#d3766a"/>
      <path id="Path_84668" data-name="Path 84668" d="M158.1,146.11s.688-5.307,1.079-9.977a33.429,33.429,0,0,0-1.059-9.9c-1.07-2.972-7.442-14.719-10.323-13.236-2.609,1.343,4.147,10.74,4.147,10.74s-5.979-10.085-8.822-7.89,6.2,11.8,6.2,11.8-6.375-10.224-8.949-7.5c-1.945,2.061,5.757,11.219,5.757,11.219s-5.541-8.75-7.632-6.717c-2.312,2.247,4.267,11.146,4.267,11.146-4.447,6.063-5.338,9.852-1.8,13.484.571.587,17.137-3.165,17.137-3.165" transform="translate(-91.007 -74.429)" fill="#d3766a"/>
      <path id="Path_84669" data-name="Path 84669" d="M169.585,133.765c-.659-1.21-1.319-2.439-2.083-3.587s-1.57-2.269-2.438-3.34a23.568,23.568,0,0,0-3.774-3.846,50.771,50.771,0,0,1,5.905,7.406c.763,1.145,1.584,2.251,2.348,3.4.019.029.058,0,.043-.031" transform="translate(-106.361 -81.106)" fill="#263238"/>
      <path id="Path_84670" data-name="Path 84670" d="M162.213,146.089c-.909-1.509-1.756-3.04-2.732-4.509s-2.02-2.764-3.089-4.155c-.082-.107-.113-.028-.034.083,1.013,1.433,1.839,2.835,2.834,4.28s2.049,2.851,2.987,4.325c.015.023.048,0,.034-.025" transform="translate(-103.081 -90.593)" fill="#263238"/>
      <path id="Path_84671" data-name="Path 84671" d="M155.366,158.848a40.583,40.583,0,0,0-4.694-6.734c-.086-.1-.114,0-.032.114,1.6,2.156,2.869,4,4.644,6.664.028.042.109.005.082-.045" transform="translate(-99.308 -100.285)" fill="#263238"/>
      <path id="Path_84672" data-name="Path 84672" d="M142.392,124.475a4.865,4.865,0,0,1-.289-1.52,2.024,2.024,0,0,1,.511-1.286c.02-.024.058.013.035.033a1.633,1.633,0,0,0-.334,1.484,7.933,7.933,0,0,0,.372,1.379,10.607,10.607,0,0,0,.6,1.349A13.329,13.329,0,0,0,144,127.2l0,0h0a.02.02,0,0,1-.005.024h0a.021.021,0,0,1-.033,0,5.179,5.179,0,0,0-1.787-1.356,2.2,2.2,0,0,0-1.036-.277,1.352,1.352,0,0,0-1.279,1.271,2.731,2.731,0,0,0,.189.97,20.041,20.041,0,0,0,.823,2.112q.261.57.558,1.123c.2.367.428.721.6,1.1.011.023-.075.045-.092.031-.233-.194-1.859-1.772-2.837-1.852a1.21,1.21,0,0,0-1.248.655,2.451,2.451,0,0,0-.147,1.55,18.14,18.14,0,0,0,.807,2.657c.011.029-.035.041-.046.013-.257-.628-.81-1.981-.985-2.637a2.419,2.419,0,0,1,.085-1.669,1.5,1.5,0,0,1,1.215-.871,2.493,2.493,0,0,1,1.487.554,16.588,16.588,0,0,1,1.49,1.3c-.163-.231-.858-1.446-1.045-1.819a17.94,17.94,0,0,1-.96-2.3,1.871,1.871,0,0,1,.256-2.008,1.693,1.693,0,0,1,1.919-.293,4.4,4.4,0,0,1,1.369.909,4.8,4.8,0,0,1-.28-.439,8.124,8.124,0,0,1-.627-1.48" transform="translate(-90.594 -80.23)" fill="#263238"/>
      <path id="Path_84673" data-name="Path 84673" d="M148.885,292.982c.309.906.6,1.813.938,2.705s.662,1.784,1.031,2.654a12.738,12.738,0,0,0,1.306,2.453,2.562,2.562,0,0,0,.2.255l.219.218a4.288,4.288,0,0,0,.545.38,4.35,4.35,0,0,0,1.224.5,4.581,4.581,0,0,0,1.318.1,5.376,5.376,0,0,0,1.312-.283,8.794,8.794,0,0,0,2.41-1.328c.381-.27.727-.591,1.083-.895a5.773,5.773,0,0,0,.9-1.052,9.3,9.3,0,0,0,1.207-2.556,8.318,8.318,0,0,1-.923,2.732,6,6,0,0,1-.867,1.194,13.581,13.581,0,0,1-1.067.994,8.667,8.667,0,0,1-2.525,1.52,5.705,5.705,0,0,1-1.473.339,5.21,5.21,0,0,1-1.527-.1,5.024,5.024,0,0,1-1.412-.589,4.942,4.942,0,0,1-.622-.445l-.286-.289a2.618,2.618,0,0,1-.234-.308,11.8,11.8,0,0,1-1.281-2.639,34.43,34.43,0,0,1-1.478-5.555" transform="translate(-98.183 -193.209)" fill="#263238"/>
    </g>
  </g>
  <path id="Path_84674" data-name="Path 84674" d="M150.3,66.488l4.091-5.864,2.014,2.05,3.689-4.421,2.108,2.21-5.982,3.853-1.6-2Z" transform="translate(-99.118 -38.415)" fill="#455a64"/>
  <path id="Path_84675" data-name="Path 84675" d="M146.472,89.576l5.645-1.26,0,1.8,4.1.275.038,1.927-5.5-1,.433-1.762Z" transform="translate(-96.592 -58.24)" fill="#455a64"/>
  <path id="Path_84676" data-name="Path 84676" d="M140.11,63.35l-.416-5.432,1.934.236-.041-4.426,2.156-.232-1.223,5.733L140.8,58.9Z" transform="translate(-92.122 -35.278)" fill="#455a64"/>
  <path id="Path_84677" data-name="Path 84677" d="M34.766,390.559l-16.884.03L1,390.672l16.884.083,16.884.03,33.767.057,33.768-.057,16.884-.03,16.884-.083-16.884-.083-16.884-.03L68.533,390.5Z" transform="translate(-0.658 -257.52)" fill="#263238"/>
  <g id="Group_162537" data-name="Group 162537">
    <g id="Group_162536" data-name="Group 162536" clip-path="url(#clip-path)">
      <path id="Path_84678" data-name="Path 84678" d="M0,39.253a12.082,12.082,0,0,0,19.287,9.7l5.921,1.512-2.465-5.513A12.086,12.086,0,1,0,0,39.253" transform="translate(0 -17.915)" fill="#fff"/>
      <path id="Path_84679" data-name="Path 84679" d="M0,39.122a12.147,12.147,0,0,0,1.822,6.326,13.387,13.387,0,0,0,.963,1.358A13.462,13.462,0,0,0,3.942,48a8.011,8.011,0,0,0,.629.544l.669.5c.224.163.472.291.707.438l.357.214c.121.067.249.121.374.182l.752.353.782.281a5.859,5.859,0,0,0,.8.232c.27.06.534.15.808.187a11.769,11.769,0,0,0,1.648.179,10.462,10.462,0,0,0,1.656-.023,11.9,11.9,0,0,0,6.094-2.356l.046-.034.057.014,5.928,1.484-.173.206-2.478-5.507-.033-.073.038-.072A11.962,11.962,0,0,0,23,34.293a12.437,12.437,0,0,0-3.21-4.314A11.925,11.925,0,0,0,15,27.5a12.091,12.091,0,0,0-5.4-.144A12.043,12.043,0,0,0,0,39.122m0,0a12.151,12.151,0,0,1,4.643-9.541A12.331,12.331,0,0,1,9.574,27.24a12.254,12.254,0,0,1,10.376,2.545,12.2,12.2,0,0,1,4.378,9.8,11.978,11.978,0,0,1-1.44,5.322l.005-.144,2.452,5.519.126.284-.3-.078-5.914-1.539.1-.02a12.387,12.387,0,0,1-2.953,1.6,12.249,12.249,0,0,1-3.273.724,10.561,10.561,0,0,1-1.677,0,11.834,11.834,0,0,1-1.663-.2c-.277-.041-.542-.134-.814-.2a5.981,5.981,0,0,1-.8-.244l-.785-.293c-.253-.117-.5-.244-.754-.365-.124-.063-.253-.119-.374-.188l-.356-.219c-.234-.151-.482-.282-.7-.449l-.667-.5a8.028,8.028,0,0,1-.629-.549,13.557,13.557,0,0,1-1.156-1.2,13.436,13.436,0,0,1-.959-1.367A12.163,12.163,0,0,1,0,39.122" transform="translate(0 -17.785)" fill="#263238"/>
      <path id="Path_84680" data-name="Path 84680" d="M30.75,41.259h2.828l-.19,10.421H30.941Z" transform="translate(-20.279 -27.209)" fill="#da1945"/>
      <rect id="Rectangle_140265" data-name="Rectangle 140265" width="2.445" height="2.445" transform="translate(10.663 25.777)" fill="#da1945"/>
    </g>
  </g>
</svg>
