<svg id="Whatsapp_icon" data-name="Whatsapp icon" xmlns="http://www.w3.org/2000/svg" width="19.876" height="20.031" viewBox="0 0 19.876 20.031">
  <path id="whatsapp-seeklogo" d="M10.118,0A9.76,9.76,0,0,0,1.761,14.8L0,20.031,5.4,18.3A9.758,9.758,0,1,0,10.118,0Zm0,17.88a8.079,8.079,0,0,1-4.469-1.343l-3.121,1L3.542,14.52a8.12,8.12,0,1,1,6.576,3.36Zm4.575-5.905c-.245-.134-1.447-.782-1.672-.874s-.39-.139-.565.1-.674.786-.825.946-.3.176-.543.041a6.821,6.821,0,0,1-1.957-1.311A7.518,7.518,0,0,1,7.811,9.1c-.136-.255,0-.384.128-.5s.26-.282.39-.422a1.715,1.715,0,0,0,.264-.406.458.458,0,0,0,0-.437c-.058-.127-.51-1.371-.7-1.878s-.4-.431-.545-.437-.311-.032-.477-.038a.912.912,0,0,0-.675.286,2.8,2.8,0,0,0-.949,2.045,4.849,4.849,0,0,0,.921,2.613,10.222,10.222,0,0,0,4.113,3.919c2.5,1.092,2.507.759,2.965.734a2.518,2.518,0,0,0,1.725-1.121,2.082,2.082,0,0,0,.189-1.178c-.058-.106-.222-.175-.466-.309Z" fill="#1d416f" fill-rule="evenodd"/>
</svg>
