<svg xmlns="http://www.w3.org/2000/svg" width="46" height="46" viewBox="0 0 46 46">
  <g id="Facebook" transform="translate(-489 -4107)">
    <rect id="BG" width="46" height="46" rx="12" transform="translate(489 4107)" fill="#ebf5fa"/>
    <g id="ic-youtube" transform="translate(498.688 4110.581)">
      <path id="Path_84945" data-name="Path 84945" d="M31.205,24.043,20.942,18.8a.668.668,0,0,0-.971.595V29.878a.668.668,0,0,0,.971.595l10.263-5.241a.668.668,0,0,0,0-1.189Zm-9.9,4.744v-8.3l8.126,4.15Z" transform="translate(-11.014 -5.69)" fill="#1d416f"/>
      <path id="Path_84946" data-name="Path 84946" d="M24.748,8.472H3.877a3.764,3.764,0,0,0-3.76,3.76V25.663a3.764,3.764,0,0,0,3.76,3.76H24.748a3.764,3.764,0,0,0,3.76-3.76V12.232A3.764,3.764,0,0,0,24.748,8.472Zm2.425,17.191a2.427,2.427,0,0,1-2.424,2.424H3.877a2.427,2.427,0,0,1-2.424-2.424V12.232A2.427,2.427,0,0,1,3.877,9.808H24.748a2.427,2.427,0,0,1,2.424,2.424Z" fill="#1d416f"/>
    </g>
  </g>
</svg>
